<svg width="171" height="192" viewBox="0 0 171 192" fill="none" xmlns="http://www.w3.org/2000/svg">
<path d="M126.445 159.603L117.822 155.694L136.591 123.714L145.046 131.236L159.928 105.146L168.113 110.69L181.432 86.6772L186.321 88.7451L170.061 121.119L160.827 113.126L146.81 142.243L138.432 133.158L126.445 159.603Z" fill="#EBEBEB"/>
<path d="M2.16224 122.986C2.5075 125.334 3.54172 127.526 5.1339 129.285C6.72609 131.045 8.8046 132.292 11.1062 132.869C13.4078 133.446 15.8289 133.328 18.0629 132.528C20.2968 131.728 22.2432 130.283 23.6553 128.376C25.0675 126.469 25.8819 124.186 25.9955 121.816C26.1091 119.446 25.5168 117.095 24.2934 115.062C23.0701 113.029 21.2709 111.404 19.1237 110.394C16.9765 109.385 14.5778 109.035 12.2316 109.389C9.096 109.863 6.27587 111.56 4.38863 114.108C2.50139 116.656 1.70083 119.849 2.16224 122.986Z" fill="#F5F5F5"/>
<path d="M4.98425 122.562C5.24833 124.349 6.03662 126.017 7.24933 127.356C8.46204 128.694 10.0446 129.643 11.7968 130.082C13.5489 130.521 15.3919 130.43 17.0923 129.82C18.7926 129.211 20.2741 128.111 21.3489 126.659C22.4238 125.208 23.0439 123.47 23.1306 121.666C23.2173 119.862 22.7668 118.072 21.836 116.524C20.9053 114.976 19.5362 113.739 17.9021 112.97C16.268 112.2 14.4423 111.933 12.6561 112.202C11.472 112.378 10.3343 112.786 9.30789 113.402C8.28147 114.018 7.38649 114.831 6.67406 115.793C5.96164 116.755 5.44572 117.848 5.15578 119.009C4.86584 120.171 4.80755 121.378 4.98425 122.562Z" fill="#EBEBEB"/>
<path d="M4.94086 122.292C5.0053 121.922 5.03113 121.546 5.01793 121.171C5.07554 120.17 5.28634 119.184 5.64297 118.247C5.89166 117.607 6.21041 116.997 6.5934 116.427C7.03181 115.777 7.55276 115.187 8.14318 114.672C8.46045 114.39 8.79974 114.134 9.15782 113.906C9.52565 113.663 9.91218 113.449 10.3137 113.268C10.729 113.078 11.1584 112.92 11.5981 112.797C12.0504 112.672 12.5111 112.581 12.9766 112.523C13.444 112.468 13.9149 112.45 14.3851 112.467C14.8422 112.487 15.2972 112.54 15.7466 112.626C16.1835 112.707 16.613 112.825 17.0309 112.977C17.4313 113.115 17.8206 113.284 18.1954 113.482C18.8898 113.847 19.5343 114.301 20.1134 114.83C20.6171 115.296 21.0692 115.814 21.4619 116.376C22.0247 117.204 22.4578 118.114 22.7463 119.073C22.8197 119.442 22.9317 119.802 23.0802 120.148C23.1375 119.767 23.1142 119.379 23.0117 119.009C22.8133 117.979 22.4257 116.995 21.8686 116.106C21.4835 115.484 21.0265 114.909 20.5072 114.394C19.9083 113.806 19.2312 113.303 18.4951 112.9C18.0979 112.678 17.6843 112.488 17.2578 112.33C16.8118 112.164 16.3538 112.033 15.8878 111.936C15.4054 111.837 14.9158 111.777 14.4237 111.756C13.4121 111.713 12.4002 111.833 11.4269 112.112C10.9548 112.249 10.4939 112.422 10.0483 112.63C9.61694 112.831 9.20183 113.066 8.80676 113.332C8.42899 113.59 8.07121 113.876 7.73646 114.188C6.57122 115.245 5.69703 116.584 5.19773 118.075C4.86689 119.071 4.72178 120.119 4.76961 121.166C4.74733 121.55 4.80566 121.933 4.94086 122.292Z" fill="#E0E0E0"/>
<path d="M13.7984 126.745L14.0082 128.32L15.4167 128.128L15.2069 126.595C16.4523 126.386 17.6138 125.831 18.5591 124.994L17.553 123.384C16.8216 124.057 15.9274 124.528 14.9586 124.75L14.6418 122.404C16.1531 121.813 17.8227 121.055 17.553 119.043C17.3518 117.553 16.0931 116.419 13.8369 116.474L13.6272 114.912L12.2187 115.104L12.4242 116.637C11.4262 116.829 10.4884 117.256 9.68849 117.883L10.6261 119.518C11.2347 119.044 11.9319 118.696 12.6767 118.495L13.0021 120.884C11.4909 121.462 9.84261 122.215 10.1123 124.198C10.3093 125.653 11.5508 126.775 13.7984 126.745ZM14.3592 120.323L14.0895 118.324C14.8602 118.392 15.2112 118.752 15.2711 119.223C15.3311 119.694 14.9543 120.053 14.3592 120.336V120.323ZM12.3985 124.039C12.3343 123.547 12.7067 123.226 13.2804 122.93L13.5458 124.874C12.8223 124.827 12.4627 124.502 12.3985 124.052V124.039Z" fill="#E0E0E0"/>
<path d="M10.853 28.9029C11.1554 30.945 12.0568 32.8515 13.4432 34.3811C14.8295 35.9106 16.6385 36.9946 18.6411 37.4957C20.6437 37.9968 22.75 37.8926 24.6934 37.1961C26.6367 36.4997 28.3298 35.2425 29.5583 33.5834C30.7868 31.9244 31.4956 29.9382 31.5949 27.8763C31.6941 25.8143 31.1795 23.7692 30.116 21.9998C29.0526 20.2305 27.4881 18.8163 25.6206 17.9365C23.7532 17.0566 21.6667 16.7505 19.6252 17.0569C18.2712 17.2584 16.9702 17.7247 15.7965 18.4291C14.6228 19.1336 13.5994 20.0624 12.7848 21.1624C11.9702 22.2625 11.3803 23.5123 11.0488 24.8405C10.7174 26.1686 10.6508 27.549 10.853 28.9029Z" fill="#F5F5F5"/>
<path d="M13.3055 28.5345C13.5342 30.0915 14.2196 31.5456 15.275 32.7129C16.3303 33.8802 17.7082 34.7083 19.2342 35.0923C20.7603 35.4763 22.366 35.3991 23.8481 34.8704C25.3303 34.3416 26.6223 33.3851 27.5607 32.1219C28.4992 30.8587 29.0418 29.3455 29.12 27.7738C29.1983 26.2021 28.8086 24.6425 28.0002 23.2924C27.1919 21.9422 26.0012 20.8621 24.5789 20.1888C23.1566 19.5155 21.5665 19.2792 20.0098 19.5098C18.9766 19.6612 17.9833 20.0148 17.087 20.5505C16.1906 21.0862 15.4086 21.7934 14.7859 22.6317C14.1632 23.4699 13.7119 24.4228 13.4578 25.4357C13.2038 26.4486 13.152 27.5016 13.3055 28.5345Z" fill="#EBEBEB"/>
<path d="M13.2716 28.2864C13.3274 27.9642 13.3504 27.6371 13.3401 27.3103C13.3855 26.4308 13.5689 25.564 13.8838 24.7416C14.0996 24.1845 14.3767 23.6532 14.71 23.1575C15.0947 22.5918 15.5493 22.0768 16.0629 21.6249C16.3389 21.3807 16.6338 21.1588 16.9448 20.9613C17.2646 20.749 17.6011 20.5629 17.9509 20.4047C18.312 20.2339 18.6855 20.0908 19.0683 19.9766C19.463 19.868 19.8651 19.7879 20.2713 19.7369C20.6793 19.6936 21.0898 19.6779 21.5 19.6898C21.8969 19.706 22.292 19.7532 22.6816 19.8311C23.0606 19.9005 23.433 20.0022 23.7947 20.135C24.142 20.2516 24.4798 20.3947 24.8051 20.5631C25.4103 20.8798 25.9716 21.2741 26.4747 21.7362C26.9141 22.1413 27.3075 22.5935 27.6478 23.0847C28.144 23.8043 28.5239 24.5975 28.7737 25.4351C28.8388 25.7553 28.9364 26.068 29.0648 26.3684C29.1145 26.0368 29.0941 25.6984 29.0049 25.3752C28.831 24.4796 28.4944 23.6235 28.0117 22.8493C27.6756 22.3122 27.2776 21.8164 26.8258 21.3723C26.3025 20.8655 25.7118 20.4333 25.0705 20.0879C24.725 19.8933 24.3642 19.7272 23.9916 19.5913C23.6048 19.4451 23.2068 19.3306 22.8015 19.2488C22.3781 19.1627 21.9487 19.1098 21.5171 19.0904C21.0756 19.0742 20.6335 19.0899 20.1942 19.1375C19.76 19.1932 19.3306 19.2819 18.9099 19.4029C18.4968 19.5137 18.0931 19.6568 17.7026 19.8311C17.3282 20.0052 16.9688 20.21 16.628 20.4433C16.2969 20.6625 15.9834 20.9073 15.6904 21.1753C15.1507 21.6679 14.6798 22.231 14.2905 22.8493C13.9541 23.3862 13.6825 23.961 13.4813 24.5618C13.1921 25.4273 13.0644 26.3386 13.1046 27.2503C13.0829 27.6038 13.1399 27.9576 13.2716 28.2864Z" fill="#E0E0E0"/>
<path d="M20.9866 32.1738L21.1707 33.548L22.3952 33.3811L22.2153 32.0453C23.302 31.8728 24.3183 31.3981 25.1479 30.6754L24.2703 29.2711C23.6325 29.8567 22.8536 30.2668 22.0099 30.4613L21.7358 28.4149C23.0502 27.9012 24.5058 27.2419 24.2703 25.4909C24.0948 24.2065 22.986 23.2047 21.0337 23.2475L20.8496 21.8861L19.6252 22.0531L19.805 23.3888C18.935 23.5539 18.1172 23.9253 17.4204 24.4719L18.2338 25.8976C18.7597 25.4778 19.3636 25.1664 20.0105 24.9814L20.2931 27.0663C18.9745 27.5672 17.5446 28.2265 17.7758 29.9518C17.9513 31.2276 19.0301 32.2037 20.9866 32.1738ZM21.479 26.6082L21.2435 24.8658C21.9114 24.9257 22.2153 25.2468 22.271 25.6493C22.3267 26.0517 21.9927 26.3514 21.479 26.5954V26.6082ZM19.7665 29.8448C19.7066 29.4167 20.0319 29.1341 20.5328 28.8816L20.764 30.594C20.1347 30.5084 19.8222 30.2472 19.7708 29.8191L19.7665 29.8448Z" fill="#E0E0E0"/>
<path d="M133.3 15.6911C132.387 19.0146 132.482 22.5339 133.571 25.8036C134.66 29.0734 136.695 31.9465 139.418 34.0593C142.14 36.1721 145.429 37.4296 148.866 37.6726C152.304 37.9156 155.737 37.1332 158.73 35.4244C161.722 33.7157 164.141 31.1574 165.679 28.0734C167.217 24.9894 167.806 21.5183 167.371 18.0996C166.935 14.6809 165.495 11.4683 163.233 8.86832C160.971 6.26837 157.988 4.39803 154.663 3.49406C152.459 2.89217 150.158 2.73022 147.892 3.01745C145.626 3.30468 143.439 4.03546 141.455 5.16806C139.471 6.30067 137.73 7.81293 136.331 9.61848C134.931 11.424 133.901 13.4875 133.3 15.6911Z" fill="#F5F5F5"/>
<path d="M137.315 16.7656C136.619 19.2987 136.69 21.9812 137.52 24.4735C138.35 26.9659 139.901 29.1559 141.976 30.7662C144.051 32.3766 146.558 33.3349 149.178 33.5197C151.799 33.7046 154.415 33.1076 156.696 31.8045C158.977 30.5015 160.819 28.5508 161.991 26.1997C163.162 23.8485 163.61 21.2026 163.277 18.597C162.943 15.9913 161.844 13.5432 160.119 11.5627C158.393 9.58212 156.118 8.15818 153.583 7.4712C150.193 6.55276 146.578 7.01526 143.529 8.75738C140.479 10.4995 138.245 13.3792 137.315 16.7656Z" fill="#EBEBEB"/>
<path d="M137.409 16.3632C137.486 16.3889 137.692 15.8409 138.167 14.9162C138.829 13.6233 139.687 12.4406 140.71 11.4099C142.223 9.88605 144.085 8.75448 146.134 8.11339C146.72 7.92504 147.32 7.78192 147.928 7.68527C148.56 7.5781 149.2 7.52084 149.842 7.51402C150.506 7.50471 151.17 7.54621 151.828 7.63818C152.504 7.73137 153.173 7.87446 153.827 8.06629C154.478 8.27859 155.111 8.53756 155.724 8.84119C156.32 9.13263 156.892 9.46896 157.437 9.84727C157.963 10.2126 158.461 10.6176 158.926 11.0588C159.375 11.4804 159.793 11.934 160.176 12.416C160.888 13.3093 161.48 14.2907 161.94 15.3357C162.341 16.2489 162.638 17.2038 162.827 18.1827C163.097 19.6154 163.143 21.0813 162.964 22.5281C162.839 23.5599 162.702 24.1293 162.779 24.1507C162.856 24.1721 163.101 23.6369 163.353 22.5966C163.696 21.1115 163.759 19.5752 163.537 18.0671C163.387 17.0194 163.112 15.9933 162.719 15.0104C162.263 13.8775 161.655 12.8118 160.913 11.8423C160.515 11.3145 160.075 10.8192 159.599 10.361C159.106 9.8774 158.575 9.43496 158.01 9.03812C157.426 8.62187 156.809 8.2539 156.165 7.93786C154.841 7.28215 153.417 6.84827 151.952 6.65351C151.243 6.55659 150.527 6.5165 149.812 6.53363C149.121 6.54663 148.432 6.6168 147.752 6.74341C147.102 6.8575 146.461 7.02065 145.835 7.23147C144.681 7.61815 143.585 8.15967 142.577 8.84119C141.7 9.43554 140.898 10.1326 140.188 10.9176C139.162 12.0436 138.353 13.35 137.803 14.7706C137.431 15.7596 137.354 16.3461 137.409 16.3632Z" fill="#E0E0E0"/>
<path d="M146.579 27.4944L145.941 29.7163L147.924 30.2857L148.544 28.1451C150.544 28.5732 152.603 28.5176 153.943 27.9781L153.545 25.2425C152.18 25.7055 150.718 25.8073 149.302 25.5379L150.253 22.2242C152.607 22.3227 155.279 22.2927 156.096 19.4586C156.7 17.3523 155.69 15.1089 152.671 13.8502L153.305 11.6497L151.323 11.0803L150.702 13.2209C149.26 12.8912 147.76 12.9088 146.327 13.2723L146.614 15.9994C147.703 15.7248 148.837 15.6695 149.949 15.8367L148.977 19.2103C146.626 19.0947 143.998 19.1332 143.193 21.9288C142.576 24.0009 143.574 26.2229 146.579 27.4944ZM151.083 19.2959L151.871 16.4789C152.855 17.0183 153.104 17.7119 152.915 18.3669C152.727 19.0219 152.034 19.2659 151.083 19.2959ZM146.305 23.0933C146.502 22.3998 147.187 22.19 148.125 22.1343L147.341 24.8743C146.399 24.3691 146.113 23.7312 146.305 23.0933Z" fill="#E0E0E0"/>
<path d="M1.93989 141.031L12.3389 140.654L10.5622 142.898L5.63027 149.058L4.04623 151.049L1.93989 141.031Z" fill="#F5F5F5"/>
<path d="M61.4613 175.392L66.1235 170.571L45.4198 154.388L41.8064 161.547L25.204 148.236L21.2525 154.02L6.21701 141.669L3.53272 144.306L22.6867 161.405L26.6896 153.729L43.5189 169.261L46.6699 161.093L61.4613 175.392Z" fill="#F5F5F5"/>
<path d="M21.7062 48.4507L35.5986 55.8486L31.5743 57.4412L20.4433 61.7566L16.8599 63.1522L21.7062 48.4507Z" fill="#E0E0E0"/>
<path d="M73.4953 138.569L83.2563 135.804L68.452 98.9215L58.2928 105.544L46.6737 75.5291L37.1181 80.1014L26.8218 52.5349L21.3077 53.9434L33.3935 90.8472L44.4517 83.8432L54.6752 116.932L65.0014 108.635L73.4953 138.569Z" fill="#E0E0E0"/>
<path d="M1.42165 190.997C1.42165 191.061 45.4279 191.112 99.7046 191.112C153.981 191.112 198 191.061 198 190.997C198 190.933 154.003 190.885 99.7046 190.885C45.4065 190.885 1.42165 190.937 1.42165 190.997Z" fill="#263238"/>
<path d="M83.6291 190.899H73.0674V173.615H83.6291V190.899Z" fill="#FAE653"/>
<path d="M41.0441 190.899H30.4824L30.4824 161.577H41.0441V190.899Z" fill="url(#paint0_linear_899_2254)"/>
<path d="M19.7497 190.894H9.18799L9.18799 180.243H19.7497V190.894Z" fill="#FAE653"/>
<path d="M62.339 190.894H51.7773V165.4H62.339V190.894Z" fill="#FAE653"/>
<path d="M104.923 190.899H94.3618V159.132H104.923V190.899Z" fill="#FAE653"/>
<path d="M126.214 190.894H115.652V150.03H126.214V190.894Z" fill="#FAE653"/>
<path d="M147.504 190.899H136.942V139.905H147.504V190.899Z" fill="#FAE653"/>
<path d="M168.803 190.894H158.241V126.163H168.803V190.894Z" fill="#FAE653"/>
<path d="M27.6525 179.442C29.3797 176.167 31.94 173.406 35.0751 171.436C38.2103 169.467 41.8094 168.359 45.5093 168.225C41.0355 163.272 40.1536 155.609 42.7351 149.452C45.3167 143.296 50.9978 138.702 57.3768 136.724C63.7557 134.746 70.7298 135.209 77.0702 137.255C76.3295 132.443 81.1459 127.635 85.9579 128.385C85.0001 127.729 84.3234 126.738 84.0616 125.607C83.7998 124.476 83.9721 123.288 84.5443 122.278C85.1165 121.269 86.0469 120.51 87.1515 120.154C88.256 119.797 89.4542 119.868 90.5088 120.353L90.222 85.0461H111.2L110.917 120.336C111.979 119.803 113.204 119.699 114.341 120.044C115.477 120.39 116.438 121.159 117.023 122.192C117.609 123.225 117.776 124.444 117.489 125.596C117.202 126.749 116.483 127.747 115.481 128.385C120.293 127.635 125.109 132.443 124.373 137.255C130.726 135.209 137.705 134.742 144.066 136.724C150.428 138.706 156.152 143.292 158.721 149.452C161.29 155.613 160.433 163.272 155.942 168.225C159.643 168.359 163.242 169.467 166.378 171.436C169.514 173.406 172.075 176.167 173.803 179.442C175.756 183.261 175.944 188.899 172.142 190.894H29.3136C25.5162 188.899 25.696 183.261 27.6525 179.442Z" fill="#EBEBEB"/>
<path d="M172.155 190.894L172.664 190.59C173.155 190.261 173.589 189.853 173.949 189.383C174.509 188.598 174.887 187.699 175.057 186.75C175.291 185.447 175.275 184.112 175.01 182.815C174.698 181.176 174.079 179.61 173.187 178.2C172.149 176.493 170.863 174.949 169.372 173.62C167.656 172.067 165.698 170.805 163.575 169.882L162.719 169.518L161.829 169.206C161.528 169.097 161.222 169.005 160.912 168.927C160.6 168.842 160.292 168.743 159.971 168.675C158.658 168.38 157.321 168.206 155.976 168.157L156.028 168.268C157.378 166.742 158.434 164.978 159.14 163.066C160.118 160.362 160.464 157.469 160.152 154.61C159.84 151.751 158.879 149.002 157.342 146.571C156.688 145.503 155.934 144.499 155.09 143.574C151.477 139.626 146.688 136.948 141.433 135.937C138.653 135.387 135.811 135.22 132.986 135.44C130.059 135.676 127.168 136.251 124.373 137.152L124.501 137.264C124.667 136.101 124.541 134.915 124.133 133.813C123.705 132.671 123.046 131.629 122.196 130.754C121.347 129.879 120.326 129.189 119.197 128.727C118.019 128.252 116.736 128.1 115.481 128.286L115.558 128.474C116.534 127.802 117.222 126.789 117.488 125.634C117.754 124.479 117.577 123.267 116.993 122.236C116.409 121.205 115.46 120.43 114.333 120.064C113.206 119.698 111.982 119.767 110.904 120.259L111.054 120.357C111.148 109.119 111.242 97.269 111.341 85.0676V84.9563H90.1402V85.0462C90.2387 97.2176 90.3372 109.021 90.4271 120.336L90.5769 120.237C89.4986 119.746 88.2753 119.676 87.1482 120.042C86.0211 120.408 85.072 121.183 84.4879 122.214C83.9039 123.245 83.7273 124.458 83.993 125.613C84.2587 126.767 84.9473 127.781 85.9233 128.453L86.0003 128.265C84.7652 128.083 83.5039 128.23 82.3442 128.693C81.2112 129.148 80.1849 129.833 79.3301 130.704C78.4753 131.576 77.8106 132.616 77.378 133.757C76.9528 134.877 76.8202 136.087 76.9927 137.272L77.1212 137.161C74.3256 136.26 71.4352 135.685 68.5074 135.449C65.6868 135.23 62.8495 135.395 60.0735 135.941C54.8239 136.951 50.0378 139.621 46.4208 143.557C45.5776 144.484 44.8223 145.487 44.1647 146.554C43.5138 147.58 42.9633 148.667 42.5207 149.799C42.0886 150.9 41.7632 152.04 41.5489 153.203C41.3428 154.333 41.2354 155.479 41.2278 156.628C41.2229 158.817 41.5995 160.99 42.3409 163.049C43.0481 164.97 44.108 166.741 45.4661 168.272L45.5132 168.161C44.1673 168.211 42.8288 168.384 41.5146 168.679C41.1978 168.752 40.8853 168.85 40.5728 168.932C40.2626 169.01 39.9568 169.104 39.6566 169.214L38.7618 169.527L37.9056 169.891C35.7798 170.814 33.819 172.078 32.1003 173.632C30.6124 174.966 29.3286 176.511 28.2901 178.217C27.4008 179.629 26.7836 181.194 26.4706 182.833C26.2101 184.129 26.197 185.462 26.432 186.763C26.6039 187.71 26.9825 188.607 27.5408 189.391C27.8987 189.861 28.3328 190.268 28.8252 190.594C29.1591 190.8 29.3347 190.898 29.3347 190.898L28.8338 190.577C28.3563 190.244 27.9356 189.837 27.5879 189.37C27.0395 188.586 26.6697 187.692 26.5048 186.75C26.2784 185.456 26.2973 184.132 26.5605 182.845C26.8764 181.216 27.495 179.661 28.3842 178.26C29.4225 176.566 30.7049 175.034 32.1902 173.714C33.9024 172.171 35.8545 170.917 37.9698 170.002L38.826 169.642L39.7165 169.334C40.0155 169.224 40.3198 169.13 40.6284 169.051C40.9409 168.97 41.2492 168.876 41.566 168.803C42.8721 168.513 44.2019 168.343 45.5389 168.294H45.6802L45.586 168.187C44.2444 166.667 43.1977 164.91 42.4993 163.006C41.7652 160.959 41.3943 158.799 41.4033 156.623C41.4153 155.486 41.5227 154.352 41.7244 153.233C41.9388 152.079 42.2643 150.95 42.6962 149.859C43.1363 148.736 43.6825 147.658 44.3273 146.64C44.9792 145.594 45.7243 144.61 46.5536 143.698C50.1469 139.794 54.9002 137.148 60.1121 136.151C62.8728 135.61 65.6943 135.447 68.4989 135.667C71.4095 135.906 74.2827 136.48 77.0612 137.379L77.2153 137.426L77.1939 137.268C77.0257 136.113 77.1553 134.934 77.5707 133.843C77.9964 132.734 78.6466 131.725 79.4806 130.88C80.3145 130.034 81.3142 129.37 82.417 128.928C83.5429 128.475 84.7689 128.327 85.9704 128.5L86.4199 128.573L86.0431 128.312C85.1164 127.667 84.464 126.699 84.2137 125.598C83.9634 124.497 84.1332 123.343 84.69 122.36C85.2467 121.378 86.1502 120.639 87.2234 120.289C88.2965 119.938 89.462 120.001 90.4913 120.464L90.6411 120.533V120.366C90.5512 109.059 90.4613 97.2476 90.3628 85.0762L90.2515 85.1875H111.199L111.088 85.0762C110.994 97.2775 110.9 109.124 110.81 120.366V120.533L110.964 120.464C111.988 120.018 113.141 119.966 114.201 120.318C115.261 120.67 116.154 121.401 116.708 122.371C117.261 123.341 117.437 124.481 117.201 125.573C116.965 126.665 116.334 127.631 115.429 128.286L115.052 128.547L115.506 128.474C116.72 128.295 117.96 128.443 119.098 128.903C120.216 129.356 121.226 130.04 122.061 130.91C123.718 132.623 124.629 134.995 124.283 137.217L124.257 137.375L124.411 137.328C127.189 136.427 130.063 135.853 132.973 135.615C135.779 135.398 138.602 135.561 141.365 136.099C146.589 137.107 151.35 139.771 154.94 143.698C155.776 144.615 156.525 145.607 157.179 146.661C157.826 147.678 158.371 148.756 158.806 149.88C160.448 154.094 160.512 158.758 158.986 163.015C158.286 164.911 157.24 166.662 155.903 168.178L155.809 168.285H155.955C157.289 168.334 158.616 168.505 159.919 168.795C160.236 168.863 160.544 168.962 160.857 169.043C161.169 169.124 161.469 169.21 161.769 169.321L162.655 169.629L163.511 169.989C165.626 170.901 167.578 172.152 169.291 173.692C170.775 175.015 172.058 176.546 173.101 178.239C173.989 179.641 174.609 181.195 174.929 182.824C175.193 184.112 175.214 185.438 174.989 186.733C174.826 187.677 174.456 188.573 173.906 189.357C173.559 189.827 173.137 190.237 172.656 190.569L172.155 190.894Z" fill="#263238"/>
<path d="M127.947 36.6862L101.528 5.93445L76.1407 36.6862H86.0474V86.8444H116.803V36.7418L127.947 36.6862Z" fill="url(#paint1_linear_899_2254)"/>
<path d="M0 105.635L4.0459 103.104L7.47852 100.969L26.6885 135.401L38.5518 124.326L58.8096 162.116L69.4697 149.645L86.873 184.002L98.1455 178.367L71.4092 137.046L60.5527 147.453L39.3174 113.718L28.7178 121.496L13.7432 97.0692L16.6289 95.2743L21.1709 92.41L2.4668 86.66L0 105.635Z" fill="url(#paint2_linear_899_2254)"/>
<g opacity="0.3">
<path d="M75.8404 173.35C78.4091 171.637 81.7228 171.466 84.741 172.066C85.7385 172.263 86.8431 172.519 87.7164 172.001C88.5898 171.483 88.8809 170.396 89.2234 169.433C90.9872 164.586 95.825 161.264 100.915 160.416C106.006 159.569 110.09 159.988 114.701 162.287C117.947 163.823 120.717 166.209 122.715 169.193C123.404 170.225 124.659 172.327 124.659 172.327C125.579 173.003 126.799 173.05 127.93 173.234C130.265 173.654 132.428 174.744 134.155 176.37C135.883 177.997 137.101 180.09 137.661 182.396L72.9892 181.373C71.7733 178.53 73.276 175.05 75.8404 173.35Z" fill="black"/>
</g>
<path d="M141.202 186.63C139.181 179.468 131.214 174.553 123.906 175.966C122.369 168.174 114.916 161.988 106.957 161.923C98.9983 161.859 91.4463 167.917 89.7852 175.696C85.397 174.686 80.6791 173.936 76.4879 175.585C72.2966 177.233 69.09 182.148 70.8239 186.288" fill="#EBEBEB"/>
<path d="M70.8242 186.305C70.8242 186.305 70.8242 186.262 70.79 186.18C70.7557 186.099 70.7258 185.979 70.6787 185.825C70.6071 185.631 70.5568 185.43 70.5288 185.226C70.4637 184.955 70.425 184.678 70.4132 184.4C70.3191 182.558 70.8702 180.741 71.9716 179.262C72.722 178.203 73.6627 177.293 74.7458 176.578C76.0278 175.755 77.4641 175.201 78.967 174.951C80.6719 174.668 82.4071 174.616 84.1258 174.797C86.0258 175.007 87.9095 175.344 89.7642 175.807H89.8626V175.709C90.6288 172.405 92.3482 169.4 94.8074 167.065C97.4885 164.471 100.908 162.772 104.594 162.202C106.924 161.864 109.301 162.056 111.547 162.762C115.733 164.085 119.312 166.855 121.642 170.576C122.667 172.235 123.392 174.063 123.782 175.974V176.064H123.877C125.439 175.777 127.038 175.757 128.607 176.004C129.331 176.114 130.047 176.276 130.748 176.488L131.745 176.835C132.079 176.942 132.379 177.109 132.692 177.237C133.278 177.508 133.85 177.809 134.404 178.14L135.17 178.654L135.547 178.907L135.89 179.181L136.557 179.716C136.771 179.891 136.96 180.093 137.157 180.272C137.354 180.452 137.542 180.632 137.713 180.82L138.201 181.377C139.177 182.509 139.977 183.782 140.573 185.153C140.779 185.628 140.886 186.009 141.001 186.258C141.117 186.506 141.143 186.639 141.143 186.639C141.143 186.639 141.006 186.103 140.642 185.132C140.063 183.745 139.274 182.456 138.304 181.309L137.812 180.739C137.641 180.551 137.444 180.375 137.255 180.187C137.067 179.998 136.874 179.802 136.656 179.622L135.988 179.078C135.872 178.984 135.761 178.89 135.641 178.8L135.269 178.543L134.494 178.021C133.932 177.682 133.352 177.375 132.756 177.1C132.443 176.967 132.139 176.796 131.805 176.672L130.795 176.317C130.084 176.099 129.359 175.933 128.624 175.82C127.035 175.561 125.414 175.575 123.829 175.863L123.941 175.94C123.548 174.002 122.815 172.15 121.775 170.469C120.648 168.654 119.216 167.049 117.54 165.725C115.777 164.321 113.774 163.247 111.628 162.557C109.35 161.84 106.94 161.647 104.577 161.992C100.846 162.566 97.385 164.287 94.6747 166.915C92.188 169.284 90.4522 172.332 89.6828 175.679L89.807 175.602C87.94 175.151 86.0449 174.826 84.1344 174.63C82.3992 174.451 80.6477 174.51 78.9285 174.805C77.402 175.062 75.9446 175.631 74.6473 176.475C73.5548 177.205 72.6082 178.133 71.856 179.211C70.7513 180.711 70.2116 182.553 70.3319 184.412C70.3508 184.694 70.3952 184.973 70.4646 185.247C70.5008 185.448 70.5567 185.644 70.6316 185.834C70.6872 185.984 70.73 186.099 70.76 186.189C70.7765 186.23 70.798 186.269 70.8242 186.305Z" fill="#263238"/>
<path d="M111.088 76.4239C110.814 93.6214 124.518 107.835 141.634 108.105C158.751 108.374 172.887 94.6147 173.174 77.4172C173.461 60.2197 159.748 46.0062 142.632 45.7364C125.516 45.4667 111.362 59.2307 111.088 76.4239ZM156.974 77.1646C156.913 80.0964 155.984 82.9444 154.306 85.3492C152.628 87.754 150.275 89.6077 147.544 90.6764C144.813 91.7452 141.827 91.9811 138.962 91.3543C136.097 90.7276 133.482 89.2663 131.447 87.1549C129.412 85.0434 128.048 82.3765 127.527 79.4906C127.007 76.6048 127.352 73.6293 128.521 70.9397C129.689 68.2501 131.628 65.9669 134.093 64.3782C136.558 62.7896 139.439 61.9668 142.371 62.0135C146.315 62.0889 150.069 63.7268 152.807 66.5676C155.545 69.4084 157.044 73.2197 156.974 77.1646Z" fill="#E0E0E0"/>
<path d="M111.088 76.4239C110.814 93.6214 124.518 107.835 141.634 108.105L141.895 91.8362C137.94 91.7731 134.173 90.1417 131.421 87.3007C128.669 84.4597 127.158 80.6419 127.221 76.6872C127.284 72.7325 128.916 68.9648 131.757 66.2129C134.598 63.461 138.415 61.9505 142.37 62.0135L142.631 45.745C125.515 45.4624 111.366 59.2307 111.088 76.4239Z" fill="#455A64"/>
<path d="M141.844 108.327L142.109 91.6309H141.895C138.994 91.5713 136.175 90.6546 133.794 88.9963C131.412 87.338 129.575 85.0122 128.512 82.3117C127.45 79.6112 127.21 76.6567 127.824 73.8203C128.437 70.9839 129.876 68.3923 131.959 66.3719C133.333 65.0263 134.96 63.967 136.747 63.2555C138.533 62.5441 140.444 62.1948 142.366 62.2277H142.58L142.85 45.5311H142.636C134.33 45.4248 126.321 48.6177 120.366 54.4094C114.412 60.2011 110.998 68.1184 110.874 76.4241C110.6 93.7415 124.394 108.053 141.63 108.332L141.844 108.327ZM141.677 92.059L141.424 107.899C124.522 107.51 111.028 93.4375 111.302 76.4327C111.424 68.2775 114.761 60.5003 120.587 54.7927C126.413 49.0851 134.257 45.9089 142.413 45.955L142.161 61.7953C138.212 61.8284 134.433 63.4039 131.63 66.1855C128.827 68.967 127.223 72.7342 127.16 76.6825C127.096 80.6309 128.579 84.4474 131.292 87.3172C134.004 90.187 137.731 91.8826 141.677 92.0419V92.059Z" fill="#455A64"/>
<path d="M138.847 110.613C158.87 110.939 174.847 95.3982 175.168 75.2766L156.216 74.9727C156.062 84.5925 148.741 90.646 139.168 90.4919L138.847 110.613Z" fill="url(#paint3_linear_899_2254)"/>
<path d="M164.286 75.6276C164.166 75.7089 165.956 78.5217 168.285 81.8995C170.614 85.2774 172.604 87.9574 172.724 87.8932C172.844 87.8289 171.05 84.9991 168.721 81.617C166.392 78.2348 164.402 75.5248 164.286 75.6276Z" fill="#263238"/>
<path d="M156.041 77.1903C155.921 77.276 158.571 81.3302 161.957 86.2493C165.344 91.1684 168.195 95.0857 168.315 95.0043C168.435 94.923 165.785 90.8687 162.394 85.9496C159.003 81.0305 156.152 77.109 156.041 77.1903Z" fill="#263238"/>
<path d="M152.034 85.6199C151.91 85.7013 154.299 89.3745 157.36 93.8184C160.421 98.2623 163.002 101.799 163.122 101.717C163.242 101.636 160.857 97.9626 157.796 93.5187C154.735 89.0748 152.154 85.5343 152.034 85.6199Z" fill="#263238"/>
<path d="M145.055 90.2822C144.936 90.3635 147.32 94.0325 150.381 98.4806C153.442 102.929 156.024 106.452 156.152 106.379C156.281 106.307 153.888 102.625 150.822 98.1767C147.757 93.7285 145.175 90.1837 145.055 90.2822Z" fill="#263238"/>
<path d="M139.079 96.1773C138.955 96.2629 140.907 99.2983 143.429 102.963C145.95 106.628 148.099 109.547 148.219 109.449C148.339 109.351 146.391 106.328 143.865 102.663C141.34 98.9986 139.199 96.1131 139.079 96.1773Z" fill="#263238"/>
<path d="M40.2348 17.0439C40.2348 17.0439 38.3639 12.737 38.274 12.0606C38.1841 11.3842 38.3682 9.89007 38.8519 9.49192C39.0531 9.29748 39.311 9.17229 39.5882 9.13456C39.8654 9.09683 40.1474 9.14853 40.3932 9.28214C40.4235 9.01088 40.5394 8.75632 40.7242 8.55541C40.9089 8.35449 41.1529 8.21765 41.4207 8.16475C41.5273 8.12726 41.6415 8.11624 41.7534 8.13265C41.8652 8.14906 41.9714 8.19241 42.0628 8.25896C42.1542 8.32551 42.2281 8.41327 42.2781 8.51469C42.328 8.61611 42.3526 8.72815 42.3497 8.84118C42.3434 8.64839 42.4052 8.45955 42.5242 8.30771C42.6432 8.15588 42.8117 8.05071 43.0004 8.01063C43.2483 7.97142 43.5021 8.00876 43.7282 8.11766C43.7282 8.11766 44.6401 7.30423 45.2523 7.80941C45.8645 8.31459 45.1581 16.162 45.1581 16.162L40.2348 17.0439Z" fill="#FFBF9D"/>
<path d="M45.2695 15.2629C45.2695 15.2629 46.9392 12.3903 46.9306 11.6068C46.9221 10.8233 45.9845 9.03809 45.4622 8.82404C44.9399 8.60998 42.8935 8.13477 42.8935 8.13477C42.8935 8.13477 42.0372 8.92678 43.3002 9.71024L44.7301 10.5536C44.7301 10.5536 42.4354 11.32 42.5082 13.666" fill="#FFBF9D"/>
<path d="M42.5076 13.6447C42.5441 13.2763 42.6158 12.9121 42.7216 12.5573C42.8727 12.1647 43.1013 11.8065 43.3938 11.5041C43.7798 11.1148 44.2458 10.8139 44.7595 10.6222L44.9521 10.5494L44.7766 10.451L43.321 9.59474C43.0725 9.45504 42.8758 9.23881 42.7602 8.97825C42.7193 8.84409 42.7168 8.70113 42.7532 8.56565C42.7895 8.43018 42.8631 8.30761 42.9657 8.21192L42.8672 8.23761L43.9675 8.49876L44.8237 8.72566C44.965 8.76848 45.1063 8.80701 45.2518 8.8541C45.3175 8.87433 45.3818 8.89864 45.4445 8.92688C45.4977 8.9578 45.5478 8.99363 45.5943 9.03391C45.9525 9.42971 46.2419 9.88263 46.4506 10.3739C46.5616 10.5988 46.6547 10.8321 46.7288 11.0717C46.8074 11.2866 46.838 11.516 46.8187 11.7439C46.7171 12.1584 46.5737 12.5614 46.3906 12.9469C46.0652 13.6704 45.7656 14.2313 45.5643 14.638C45.4521 14.8395 45.3534 15.0483 45.2689 15.263C45.4125 15.0827 45.5386 14.8892 45.6457 14.6851C45.8683 14.2998 46.1894 13.7389 46.5362 13.0154C46.7367 12.6214 46.8932 12.2065 47.0028 11.7781C47.0339 11.5227 47.006 11.2635 46.9215 11.0204C46.8438 10.7709 46.7508 10.5264 46.6432 10.2883C46.4217 9.76797 46.1118 9.28996 45.727 8.87551C45.6661 8.82026 45.5985 8.7728 45.5258 8.73423C45.4561 8.70164 45.3847 8.67306 45.3118 8.6486C45.1705 8.60151 45.0249 8.5587 44.8836 8.52017C44.5982 8.44025 44.3128 8.36319 44.0274 8.28898L42.9186 8.02783H42.8586L42.8201 8.06636C42.6862 8.19147 42.5905 8.35204 42.5443 8.52939C42.498 8.70675 42.5031 8.89359 42.559 9.06816C42.6934 9.37375 42.9232 9.62759 43.214 9.79168L44.691 10.6137V10.4424C44.1547 10.6511 43.6719 10.9774 43.2782 11.3971C42.9764 11.7195 42.7485 12.1037 42.6103 12.5231C42.5617 12.6766 42.5273 12.8342 42.5076 12.994C42.4857 13.1111 42.4771 13.2303 42.4819 13.3493C42.4775 13.4485 42.4862 13.5478 42.5076 13.6447Z" fill="#FF9A6C"/>
<path d="M42.5208 8.89697C42.7515 9.7324 42.8341 10.6018 42.7649 11.4657C42.7654 11.7563 42.6673 12.0386 42.4866 12.2663C42.3861 12.3635 42.2633 12.4346 42.129 12.4734C41.9946 12.5122 41.8528 12.5175 41.716 12.4889C41.4395 12.4226 41.19 12.2732 41.001 12.0608" fill="#FFBF9D"/>
<path d="M40.9886 12.095C40.9886 12.095 41.1256 12.3904 41.6008 12.5617C41.7438 12.6079 41.8955 12.6204 42.0441 12.5981C42.1926 12.5758 42.334 12.5194 42.4571 12.4332C42.5895 12.3083 42.6939 12.1567 42.7632 11.9885C42.8326 11.8202 42.8654 11.6391 42.8595 11.4571C42.9631 10.5842 42.8392 9.69935 42.4999 8.88843C42.6187 9.73057 42.6646 10.5814 42.6369 11.4314C42.6436 11.5835 42.6198 11.7353 42.5668 11.8779C42.5139 12.0206 42.4329 12.1512 42.3287 12.262C42.2298 12.3336 42.1168 12.3833 41.9972 12.4077C41.8775 12.432 41.7541 12.4305 41.6351 12.4033C41.4084 12.3259 41.1915 12.2224 40.9886 12.095Z" fill="#FF9A6C"/>
<path d="M44.358 10.4468C44.4665 10.7471 44.4902 11.0715 44.4265 11.3844C44.4263 11.5857 44.363 11.782 44.2456 11.9456C44.1281 12.1092 43.9623 12.2318 43.7714 12.2962C43.4461 12.3733 43.0265 11.9409 42.8339 11.4871" fill="#FFBF9D"/>
<path d="M42.8335 11.487C42.8121 11.487 42.8335 11.701 43.0348 11.9707C43.1431 12.1351 43.2901 12.2703 43.4629 12.3646C43.588 12.414 43.7273 12.414 43.8525 12.3646C43.981 12.3219 44.0971 12.2484 44.1907 12.1505C44.3617 11.9697 44.4698 11.7385 44.4989 11.4912C44.5088 11.303 44.5088 11.1144 44.4989 10.9261C44.4989 10.5879 44.3405 10.4167 44.3234 10.4295C44.3063 10.4423 44.3619 10.6307 44.3234 10.9261L44.2635 11.4613C44.2282 11.6615 44.1361 11.8473 43.998 11.9964C43.9275 12.0674 43.843 12.1228 43.7497 12.1591C43.6715 12.1912 43.5839 12.1912 43.5057 12.1591C43.3526 12.0896 43.2167 11.9873 43.1075 11.8594C42.9534 11.6496 42.8678 11.4741 42.8335 11.487Z" fill="#FF9A6C"/>
<path d="M40.2393 9.32068C40.7103 9.832 41.0523 10.4485 41.2368 11.1188C41.3075 11.2855 41.3318 11.4683 41.3069 11.6478C41.282 11.8272 41.209 11.9965 41.0955 12.1377C40.9376 12.2433 40.7504 12.2964 40.5606 12.2895C40.3707 12.2826 40.1879 12.216 40.0381 12.0992C39.793 11.9454 39.5823 11.743 39.4188 11.5043C39.2553 11.2657 39.1425 10.9961 39.0876 10.7121" fill="#FFBF9D"/>
<path d="M39.0877 10.7122C39.077 11.0208 39.1739 11.3235 39.3617 11.5685C39.5425 11.8532 39.7911 12.0885 40.0853 12.2535C40.2666 12.3531 40.4692 12.4074 40.676 12.4119C40.7958 12.4142 40.9142 12.3864 41.0205 12.3311C41.1267 12.2757 41.2173 12.1946 41.284 12.0951C41.4003 11.8978 41.4442 11.6662 41.4081 11.44C41.3839 11.2453 41.3365 11.0541 41.2669 10.8706C41.159 10.5691 41.0153 10.2816 40.8387 10.0144C40.6948 9.74984 40.4911 9.52259 40.2437 9.35083C40.218 9.37652 40.4449 9.62911 40.706 10.0958C40.8577 10.3678 40.9811 10.6547 41.0742 10.952C41.1358 11.1219 41.176 11.2988 41.1941 11.4786C41.2201 11.655 41.1885 11.8352 41.1042 11.9923C40.9115 12.2963 40.4706 12.2363 40.1837 12.0865C39.9134 11.9442 39.6791 11.7422 39.4987 11.4957C39.3392 11.247 39.2017 10.9848 39.0877 10.7122Z" fill="#FF9A6C"/>
<path d="M63.4771 44.6275C63.4771 44.6275 61.1567 42.123 60.2405 41.5622C59.3243 41.0014 53.2878 33.8047 52.6499 31.9124C52.0121 30.0201 46.0912 14.8177 46.2282 15.0232C46.3652 15.2287 38.7104 16.6286 38.7104 16.6286C38.7104 16.6286 44.383 34.1815 45.0765 36.1679C46.3266 39.8026 52.5215 47.162 56.0492 51.5802C57.5562 53.4596 59.6368 59.4789 59.6368 59.4789L63.4771 44.6275Z" fill="#263238"/>
<path d="M57.9461 54.0676C58.0611 53.6172 58.1341 53.1572 58.1644 52.6933C58.2629 51.8371 58.3528 50.6555 58.3742 49.3455C58.3956 48.0354 58.3485 46.8453 58.28 45.989C58.2626 45.524 58.2053 45.0614 58.1087 44.6062C58.0758 45.0694 58.0758 45.5344 58.1087 45.9976C58.1387 46.8538 58.1601 48.0354 58.1387 49.3412C58.1173 50.6469 58.0531 51.8243 57.9932 52.6805C57.9438 53.1411 57.9281 53.6047 57.9461 54.0676Z" fill="#455A64"/>
<path d="M96.2155 143.424L99.4777 150.073L99.9058 151.7C99.9058 151.7 97.7267 161.577 99.0881 162.553L108.798 146.879L106.298 145.304L103.185 138.66L96.2155 143.424Z" fill="#455A64"/>
<path d="M108.772 146.879L107.544 146.173L98.6946 161.465C98.6946 161.465 98.549 162.343 99.0627 162.553L108.772 146.879Z" fill="#263238"/>
<path d="M99.64 151.906C99.7171 151.948 99.9868 151.589 100.453 151.353C100.92 151.118 101.348 151.113 101.361 151.024C101.374 150.934 100.886 150.788 100.329 151.079C99.7728 151.37 99.5715 151.88 99.64 151.906Z" fill="#263238"/>
<path d="M99.2718 153.973C99.3317 154.033 99.6614 153.781 100.128 153.708C100.595 153.635 100.984 153.768 101.01 153.708C101.036 153.648 100.672 153.323 100.094 153.421C99.5158 153.519 99.2119 153.905 99.2718 153.973Z" fill="#263238"/>
<path d="M100.556 156.045C100.616 155.985 100.317 155.651 99.7986 155.617C99.2806 155.583 98.9039 155.827 98.9424 155.895C98.9809 155.964 99.332 155.895 99.7558 155.925C100.18 155.955 100.496 156.114 100.556 156.045Z" fill="#263238"/>
<path d="M62.9422 94.5121C63.259 95.2656 79.6388 120.34 82.9995 123.127C86.3602 125.915 97.8295 148.785 97.8295 148.785C97.8295 148.785 107.201 144.242 107.411 144.735C107.621 145.227 100.839 128.59 96.7935 121.758C92.7477 114.925 90.8597 112.283 90.8597 112.283L82.8111 90.8217C82.8111 90.8217 82.6442 83.7535 81.6124 81.005C80.5806 78.2565 77.5496 75.8676 77.5496 75.8676L62.9422 94.5121Z" fill="#263238"/>
<path d="M77.695 124.814L86.4072 125.439C86.4072 125.439 88.642 134.982 90.2603 135.264L92.1782 117.498L78.6497 115.939L77.695 124.814Z" fill="#455A64"/>
<path d="M86.2664 119.865C86.3258 119.697 86.4483 119.558 86.608 119.478C86.7678 119.398 86.9522 119.384 87.1226 119.437C87.2821 119.506 87.4105 119.632 87.4832 119.79C87.5559 119.948 87.5677 120.127 87.5165 120.293C87.4491 120.464 87.3201 120.602 87.155 120.682C86.99 120.761 86.8011 120.775 86.626 120.721C86.4645 120.631 86.3428 120.483 86.285 120.307C86.2271 120.131 86.2373 119.94 86.3135 119.771" fill="#E0E0E0"/>
<path d="M92.1567 117.498L90.7868 117.399L89.4639 134.468C89.4639 134.468 89.7036 135.294 90.2388 135.265L92.1567 117.498Z" fill="#263238"/>
<path d="M86.2871 125.718C86.3727 125.718 86.454 125.289 86.7666 124.896C87.0791 124.502 87.4473 124.309 87.4216 124.223C87.3959 124.138 86.9078 124.223 86.5397 124.707C86.1715 125.191 86.21 125.718 86.2871 125.718Z" fill="#263238"/>
<path d="M86.7973 127.661C86.8744 127.687 87.0542 127.327 87.4352 127.07C87.8162 126.813 88.193 126.771 88.1972 126.685C88.2015 126.599 87.7434 126.492 87.2768 126.818C86.8101 127.143 86.7416 127.648 86.7973 127.661Z" fill="#263238"/>
<path d="M88.8177 128.95C88.8434 128.873 88.4452 128.706 87.9614 128.881C87.4777 129.057 87.2679 129.438 87.3321 129.485C87.3963 129.532 87.6618 129.305 88.0556 129.168C88.4495 129.031 88.8005 129.035 88.8177 128.95Z" fill="#263238"/>
<path d="M84.3222 125.341C84.3993 125.315 84.3222 124.913 84.4121 124.416C84.5021 123.919 84.6862 123.56 84.6219 123.508C84.5577 123.457 84.2195 123.791 84.1296 124.365C84.0397 124.938 84.2281 125.375 84.3222 125.341Z" fill="#263238"/>
<path d="M85.3239 87.9361C85.3239 87.9361 85.3453 96.2929 81.5522 99.1142C77.759 101.936 64.6073 112.553 64.6073 112.553L85.6064 116.14L84.0352 125.876C84.0352 125.876 55.6896 123.016 52.2218 121.856C48.7541 120.696 46.2581 114.826 48.9724 110.725C50.3381 108.678 64.4489 88.6168 64.4489 88.6168L64.877 83.2354L82.6653 84.357L85.3239 87.9361Z" fill="#263238"/>
<path d="M84.0354 125.876C84.0536 125.822 84.0665 125.766 84.074 125.709C84.0997 125.58 84.1296 125.414 84.1682 125.204C84.2495 124.746 84.3608 124.099 84.5021 123.269C84.7847 121.556 85.1914 119.142 85.688 116.153V116.072H85.6066L66.4355 112.767L64.616 112.454L64.6674 112.651C67.6257 110.207 70.4384 107.904 73.0029 105.836L76.6504 102.924C77.7935 102.021 78.8938 101.212 79.8014 100.356C81.2442 99.036 82.5015 97.5267 83.5388 95.8691C83.819 95.4194 84.072 94.9534 84.2966 94.4735C84.3779 94.3108 84.4293 94.1823 84.4636 94.0967C84.4843 94.0548 84.4988 94.0101 84.5064 93.964C84.4811 94.0032 84.4596 94.0448 84.4422 94.0881C84.4036 94.1738 84.3437 94.2979 84.2581 94.4563C84.0194 94.9249 83.7564 95.3808 83.4703 95.822C82.4099 97.4533 81.1421 98.9399 79.6986 100.244C78.791 101.079 77.6907 101.876 76.5434 102.779C75.396 103.682 74.1631 104.646 72.8787 105.673C70.31 107.737 67.4844 110.031 64.5261 112.476L64.3378 112.63L64.5775 112.668L66.397 112.981L85.5767 116.23L85.5082 116.136C85.0415 119.133 84.6519 121.565 84.3993 123.26C84.2752 124.095 84.1767 124.746 84.1082 125.204C84.0783 125.418 84.0569 125.585 84.0397 125.713C84.0323 125.767 84.0309 125.822 84.0354 125.876Z" fill="#455A64"/>
<path d="M58.943 113.156C58.943 113.221 60.1888 112.857 61.7471 112.694C63.3055 112.531 64.5856 112.621 64.5898 112.553C64.3195 112.469 64.038 112.427 63.755 112.429C63.0785 112.387 62.3996 112.403 61.7257 112.476C61.0508 112.544 60.3832 112.671 59.7307 112.857C59.4534 112.913 59.1873 113.014 58.943 113.156Z" fill="#455A64"/>
<path d="M71.9069 17.8318C71.7795 17.4505 71.5377 17.1177 71.2144 16.8787C70.8912 16.6397 70.5021 16.5061 70.1003 16.4961C69.6963 16.0578 69.157 15.7677 68.5687 15.6722C67.9803 15.5767 67.3769 15.6814 66.8551 15.9695C66.5438 15.7056 66.1698 15.5263 65.7691 15.449C65.3684 15.3716 64.9545 15.3988 64.5673 15.5278C64.1801 15.6569 63.8327 15.8835 63.5586 16.1858C63.2844 16.4881 63.0928 16.8559 63.0021 17.2538C62.6076 17.1239 62.1829 17.1178 61.7849 17.2365C61.3869 17.3551 61.0348 17.5927 60.7758 17.9174C60.5277 18.2524 60.3871 18.6548 60.3726 19.0714C60.358 19.488 60.4703 19.8992 60.6945 20.2507C60.2234 20.3138 59.7925 20.5495 59.4853 20.9123C59.1781 21.2751 59.0166 21.739 59.0321 22.2141C59.0476 22.6891 59.2389 23.1416 59.569 23.4836C59.8991 23.8256 60.3444 24.0329 60.8187 24.0652L71.1577 19.9724C71.488 19.7363 71.7373 19.4039 71.8714 19.0208C72.0055 18.6376 72.0179 18.2223 71.9069 17.8318Z" fill="#263238"/>
<path d="M60.4675 24.2792C60.9909 22.3104 62.2341 20.6096 63.9512 19.5132C65.6683 18.4169 67.7342 18.0047 69.7406 18.3584L70.1687 18.4311C74.5654 19.5014 75.2205 23.8725 74.0217 28.2778L70.6096 44.8032L62.4326 49.6623L61.4479 46.0533V40.171C61.4479 40.171 57.2952 38.7282 58.023 34.4213C58.3869 32.3193 59.4572 28.1066 60.4675 24.2792Z" fill="#FFBF9D"/>
<path d="M61.4266 40.1368C63.4113 40.4975 65.4579 40.2791 67.3218 39.5074C67.3218 39.5074 65.6478 42.5985 61.4566 41.434L61.4266 40.1368Z" fill="#FF9A6C"/>
<path d="M60.9988 28.3294C60.9671 28.4882 60.9992 28.6532 61.0881 28.7886C61.177 28.9239 61.3157 29.0189 61.4741 29.0529C61.55 29.0734 61.6292 29.0786 61.7072 29.0681C61.7851 29.0577 61.8602 29.0317 61.928 28.9918C61.9957 28.952 62.0549 28.899 62.1019 28.8359C62.149 28.7729 62.1829 28.7011 62.2018 28.6248C62.2337 28.4654 62.2017 28.2999 62.1129 28.1638C62.024 28.0277 61.8854 27.9319 61.7266 27.897C61.6504 27.8765 61.5709 27.8715 61.4927 27.8822C61.4146 27.893 61.3393 27.9193 61.2715 27.9596C61.2037 27.9999 61.1446 28.0534 61.0978 28.1169C61.0509 28.1804 61.0173 28.2526 60.9988 28.3294Z" fill="#263238"/>
<path d="M60.9173 26.7579C60.9816 26.8521 61.5039 26.591 62.1589 26.7151C62.8139 26.8393 63.2506 27.2503 63.3234 27.186C63.3961 27.1218 63.3234 26.9977 63.1307 26.805C62.8847 26.5541 62.5654 26.3878 62.2188 26.3298C61.8775 26.266 61.5246 26.3141 61.2127 26.4668C60.9816 26.5824 60.8874 26.7151 60.9173 26.7579Z" fill="#263238"/>
<path d="M66.7313 29.6222C66.6995 29.7816 66.7315 29.9471 66.8203 30.0832C66.9092 30.2193 67.0478 30.3151 67.2065 30.35C67.2824 30.37 67.3616 30.3747 67.4393 30.364C67.517 30.3532 67.5919 30.3272 67.6595 30.2874C67.7272 30.2476 67.7863 30.1949 67.8334 30.1321C67.8806 30.0694 67.9149 29.998 67.9343 29.9219C67.9661 29.7631 67.934 29.5981 67.8451 29.4627C67.7562 29.3273 67.6175 29.2324 67.4591 29.1984C67.3835 29.1778 67.3045 29.1724 67.2268 29.1826C67.1491 29.1929 67.0742 29.2184 67.0064 29.2579C66.9387 29.2973 66.8795 29.3499 66.8323 29.4124C66.785 29.475 66.7507 29.5463 66.7313 29.6222Z" fill="#263238"/>
<path d="M67.215 27.8069C67.2792 27.9011 67.8015 27.6442 68.4565 27.7641C69.1116 27.884 69.5354 28.3035 69.621 28.235C69.7067 28.1665 69.621 28.0467 69.4327 27.854C69.1834 27.6052 68.8635 27.4392 68.5165 27.3788C68.1751 27.3154 67.8224 27.3634 67.5104 27.5158C67.2792 27.6357 67.185 27.7641 67.215 27.8069Z" fill="#263238"/>
<path d="M64.166 32.3108C63.8403 32.137 63.4935 32.006 63.1343 31.9212C62.9673 31.8741 62.8174 31.8142 62.8089 31.6943C62.8246 31.5175 62.8949 31.3499 63.0101 31.2148L63.7422 30.0204C64.7611 28.3079 65.5317 26.9037 65.4546 26.8609C65.3776 26.818 64.5042 28.1709 63.4853 29.8577C63.237 30.2858 62.9973 30.6797 62.7746 31.065C62.6315 31.2494 62.5573 31.4781 62.5649 31.7114C62.5784 31.775 62.6063 31.8346 62.6464 31.8858C62.6864 31.937 62.7376 31.9784 62.796 32.0068C62.8843 32.0503 62.9778 32.082 63.0743 32.101C63.4284 32.2147 63.795 32.2852 64.166 32.3108Z" fill="#263238"/>
<path d="M66.0157 33.1198C65.9087 33.0941 65.776 33.8091 65.0739 34.2072C64.3718 34.6054 63.6268 34.387 63.6054 34.4855C63.584 34.584 63.7467 34.6568 64.0678 34.7253C64.4845 34.8057 64.9162 34.7375 65.2879 34.5326C65.6445 34.3311 65.9098 33.9999 66.0286 33.6079C66.1099 33.3125 66.0628 33.1241 66.0157 33.1198Z" fill="#263238"/>
<path d="M67.532 25.9188C67.5791 26.1072 68.1741 26.0558 68.8591 26.1928C69.5441 26.3298 70.0921 26.5738 70.1906 26.4154C70.2377 26.3426 70.152 26.1628 69.938 25.9873C69.6632 25.7586 69.3346 25.6038 68.9833 25.5378C68.6318 25.4671 68.2676 25.4938 67.9301 25.6148C67.669 25.6962 67.532 25.8332 67.532 25.9188Z" fill="#263238"/>
<path d="M61.396 24.9772C61.4687 25.1527 61.9525 25.1185 62.4919 25.2555C63.0314 25.3925 63.4509 25.6194 63.5965 25.4909C63.6607 25.431 63.6307 25.264 63.468 25.0628C63.2495 24.8221 62.9637 24.6526 62.6477 24.5762C62.3316 24.4999 62 24.5203 61.6956 24.6347C61.4687 24.7546 61.366 24.8916 61.396 24.9772Z" fill="#263238"/>
<path d="M61.2384 22.3827C61.2384 22.3827 62.8525 19.8953 64.2567 19.5057C65.9692 19.0262 66.3159 20.8757 67.8828 20.7259C69.4498 20.576 71.068 20.1179 72.3824 21.5521C73.8165 23.1233 72.8747 23.8682 72.6307 25.7948C71.646 33.5994 72.6307 36.0439 73.7095 32.4734C73.8251 32.0838 74.9939 31.964 75.4562 30.3071C76.0642 28.1665 76.6293 25.5251 76.4238 23.8854C76.2525 22.5026 75.6789 21.4665 74.5272 20.2292C72.7163 18.2727 69.8393 17.7162 67.8486 17.5578C65.8578 17.3994 61.6708 18.9834 61.2384 22.3827Z" fill="#263238"/>
<path d="M72.9173 32.208C72.9508 32.0518 73.0157 31.9041 73.1079 31.7737C73.2001 31.6434 73.3178 31.533 73.4538 31.4494C73.5899 31.3658 73.7414 31.3106 73.8994 31.2872C74.0574 31.2638 74.2185 31.2726 74.3729 31.3132C75.1564 31.5316 75.9612 32.1695 75.6102 33.7963C74.9808 36.7161 72.1852 35.4874 72.2066 35.4017C72.228 35.3161 72.6433 33.4281 72.9173 32.208Z" fill="#FFBF9D"/>
<path d="M73.076 34.4384C73.076 34.4384 73.1188 34.4855 73.1959 34.5454C73.3057 34.6215 73.4407 34.6521 73.5726 34.631C73.7837 34.5501 73.9697 34.4148 74.1118 34.2389C74.2539 34.063 74.347 33.8527 74.3817 33.6292C74.439 33.3785 74.439 33.118 74.3817 32.8672C74.3745 32.7706 74.3439 32.6772 74.2924 32.5951C74.2409 32.513 74.1702 32.4448 74.0863 32.3963C74.031 32.3687 73.9678 32.3614 73.9076 32.3754C73.8474 32.3895 73.7941 32.4241 73.7567 32.4733C73.701 32.5461 73.7053 32.606 73.6925 32.6103C73.6796 32.6146 73.6411 32.5461 73.6925 32.4305C73.7247 32.3619 73.7789 32.3062 73.8466 32.2721C73.8934 32.2527 73.9436 32.2427 73.9943 32.2427C74.045 32.2427 74.0952 32.2527 74.142 32.2721C74.2551 32.3227 74.3537 32.401 74.4285 32.4998C74.5034 32.5985 74.5521 32.7146 74.5701 32.8372C74.6394 33.1184 74.6394 33.4123 74.5701 33.6935C74.5286 33.9564 74.4106 34.2012 74.231 34.3976C74.0513 34.594 73.8179 34.7333 73.5597 34.798C73.4796 34.8012 73.3997 34.7868 73.3257 34.7557C73.2517 34.7246 73.1855 34.6777 73.1316 34.6182C73.0674 34.5283 73.0631 34.4427 73.076 34.4384Z" fill="#FF9A6C"/>
<path d="M74.4364 26.6038C74.0249 26.8319 73.5626 26.9527 73.0921 26.9549C72.8599 26.9473 72.638 26.8568 72.4668 26.6997C72.2956 26.5426 72.1863 26.3294 72.1588 26.0987C72.1588 25.8889 72.253 25.6705 72.1588 25.4779C72.0646 25.2852 71.7307 25.2681 71.4781 25.251C71.0416 25.2053 70.6345 25.0096 70.3261 24.6973C70.0178 24.3851 69.8273 23.9755 69.787 23.5385C69.6307 23.6605 69.434 23.7189 69.2364 23.7023C69.0388 23.6856 68.8548 23.595 68.721 23.4486C68.4621 23.1457 68.246 22.8086 68.0789 22.4468C67.9951 22.2663 67.868 22.1094 67.7089 21.9899C67.5498 21.8703 67.3636 21.792 67.167 21.7618C66.9489 21.7959 66.7277 21.8045 66.5077 21.7875C66.1309 21.6848 66.0239 21.1967 66.0367 20.8028C66.0496 20.409 66.0838 19.9466 65.797 19.6897C65.4877 19.4945 65.1184 19.417 64.7567 19.4714C64.397 19.4714 63.9561 19.2916 63.9261 18.9277C63.9281 18.8319 63.9492 18.7376 63.9882 18.6501C64.0271 18.5626 64.0832 18.4838 64.153 18.4182C64.4537 18.1054 64.8519 17.9042 65.282 17.8474C65.7122 17.7906 66.1489 17.8817 66.5205 18.1057C66.7489 17.6415 67.1107 17.2562 67.5597 16.9992C68.0086 16.7423 68.5242 16.6254 69.04 16.6636C69.5559 16.7018 70.0486 16.8933 70.4548 17.2136C70.861 17.5339 71.1622 17.9683 71.3197 18.461C71.6809 18.2334 72.092 18.0971 72.5176 18.0637C72.9432 18.0303 73.3705 18.1009 73.7628 18.2695C74.155 18.438 74.5004 18.6994 74.7692 19.0311C75.0379 19.3628 75.222 19.7548 75.3055 20.1735C75.6804 20.1493 76.0542 20.2338 76.3823 20.4168C76.7103 20.5998 76.9786 20.8736 77.155 21.2053C77.3221 21.5427 77.3899 21.9206 77.3505 22.295C77.3111 22.6695 77.166 23.025 76.9323 23.3202C77.1802 23.5055 77.3768 23.7509 77.5034 24.0333C77.63 24.3158 77.6825 24.6258 77.6558 24.9342C77.5574 25.5421 76.8595 26.043 76.303 25.7904C76.3637 26.0479 76.3306 26.3186 76.2098 26.554C76.089 26.7893 75.8883 26.974 75.6437 27.0748C75.3878 27.157 75.1107 27.1428 74.8647 27.0347C74.6186 26.9267 74.4206 26.7323 74.308 26.4882" fill="#263238"/>
<path d="M76.522 25.8034C76.5147 25.9078 76.4854 26.0095 76.4359 26.1017C76.3865 26.194 76.318 26.2747 76.2351 26.3386C76.0577 26.4978 75.8271 26.5848 75.5887 26.5826C75.4358 26.5792 75.2856 26.5421 75.1487 26.474C75.0118 26.406 74.8916 26.3085 74.7967 26.1887H74.9251C74.7204 26.4383 74.4759 26.6523 74.2016 26.8223C74.0198 26.9375 73.8179 27.0174 73.6065 27.0578C73.4071 27.0935 73.2017 27.0758 73.0114 27.0064C72.8436 26.9628 72.6875 26.8825 72.5543 26.7715C72.4211 26.6605 72.314 26.5214 72.2408 26.3643C72.1577 26.1559 72.1156 25.9335 72.1166 25.7092C72.1166 25.5508 72.1166 25.4652 72.1381 25.4652C72.1642 25.5412 72.18 25.6204 72.1851 25.7007C72.207 25.9111 72.2635 26.1165 72.3521 26.3086C72.4371 26.4537 72.5515 26.5793 72.6881 26.6774C72.8246 26.7755 72.9801 26.8439 73.1447 26.8782C73.3093 26.9125 73.4792 26.9119 73.6436 26.8764C73.8079 26.841 73.963 26.7715 74.0988 26.6725C74.364 26.514 74.6036 26.3162 74.8095 26.086L74.878 26.0089L74.9379 26.0903C75.0169 26.1929 75.117 26.2774 75.2315 26.338C75.346 26.3986 75.4722 26.4338 75.6015 26.4413C75.8102 26.4525 76.0157 26.3871 76.1795 26.2572C76.3226 26.1302 76.439 25.9759 76.522 25.8034Z" fill="#455A64"/>
<path d="M72.2104 18.0931C72.2104 18.0931 72.1291 18.0931 71.9921 18.1316C71.7896 18.1767 71.6059 18.2828 71.4655 18.4356L71.4227 18.4869L71.3927 18.4227C71.1146 17.8607 70.6994 17.3777 70.1855 17.0185C69.857 16.7839 69.4816 16.6233 69.0852 16.5476C68.6535 16.4701 68.2087 16.5146 67.8008 16.676C67.4785 16.8033 67.1867 16.9973 66.9446 17.2454C66.7201 17.4786 66.5543 17.7618 66.4608 18.0717L66.4351 18.1658L66.3495 18.123C66.0036 17.955 65.6093 17.9153 65.2369 18.0109C64.8644 18.1066 64.5381 18.3314 64.316 18.6453C64.1425 18.9028 64.0271 19.195 63.9778 19.5016C63.9599 19.4198 63.9599 19.3351 63.9778 19.2533C64.0167 19.0234 64.1043 18.8044 64.2346 18.6111C64.4295 18.304 64.7198 18.0694 65.0609 17.9432C65.2789 17.8627 65.5107 17.8262 65.7429 17.8357C65.9751 17.8453 66.2031 17.9007 66.4137 17.9989L66.3067 18.0502C66.4 17.711 66.5766 17.4005 66.8204 17.1469C67.1156 16.8418 67.4811 16.6139 67.885 16.4833C68.2889 16.3526 68.7187 16.3232 69.1366 16.3977C69.5532 16.4828 69.9471 16.655 70.2925 16.9029C70.8205 17.282 71.2361 17.7967 71.4955 18.3927H71.4184C71.5773 18.2348 71.7831 18.1327 72.005 18.1016C72.1334 18.0631 72.2104 18.0845 72.2104 18.0931Z" fill="#455A64"/>
<path d="M67.3311 89.46C66.9243 89.4942 65.533 89.9866 63.7263 86.643C61.9196 83.2994 60.1858 70.9182 60.1858 70.9182L67.3311 89.46Z" fill="#E0E0E0"/>
<path d="M59.5346 66.1449L59.3291 54.1791L61.7351 45.0216C61.7351 45.0216 63.4176 42.3844 65.2542 41.0444C66.4404 40.1362 67.7952 39.4726 69.24 39.0922L71.9971 38.4243L72.2925 40.7105L64.291 49.8893L59.5346 66.1449Z" fill="#E0E0E0"/>
<path d="M72.2408 39.2375C72.2408 39.2375 65.6564 39.8027 62.4712 47.7614C60.7587 52.0426 59.7184 63.4947 59.5172 65.2842C59.316 67.0738 59.9881 71.1794 61.2082 76.7107C61.448 77.7853 62.3085 80.6109 64.6546 87.465C67.1676 94.7944 69.1712 100.206 69.1712 100.206L90.2261 92.0716L79.7543 73.7053C79.7543 73.7053 80.3066 68.0456 80.2809 67.5062C80.0797 63.2978 80.8974 60.9303 79.506 52.8431C79.0971 50.4259 78.2482 48.1042 77.0015 45.9932C75.6743 43.7628 74.694 43.0949 72.4421 41.4167L72.2408 39.2375Z" fill="#263238"/>
<path d="M69.989 89.4045L69.4325 84.965L79.4719 80.8936L81.3042 85.1362L69.989 89.4045Z" fill="#263238"/>
<path d="M69.9891 89.4044L70.216 89.306L70.8582 89.0491L73.2257 88.1244L81.2658 85.0462L81.2015 85.1918L79.6432 81.5998L79.3649 80.9491L79.5148 81.0133L69.4626 85.0462L69.5096 84.9648C69.6595 86.3134 69.7836 87.4137 69.8693 88.1971C69.9078 88.5696 69.9378 88.865 69.9634 89.0919C69.9891 89.3188 69.9934 89.4087 69.9891 89.413C69.9645 89.3189 69.9473 89.223 69.9378 89.1262C69.9035 88.9078 69.8607 88.621 69.8093 88.2699C69.698 87.4736 69.5439 86.3605 69.3555 84.9905V84.9306L69.4112 84.9092L79.4377 80.8035L79.519 80.765L79.5619 80.8678C79.6518 81.0818 79.7459 81.2959 79.8401 81.5142C80.3796 82.7643 80.9019 83.9759 81.3899 85.1147L81.437 85.2217L81.33 85.2603L73.1701 88.2828L70.8111 89.139L70.1861 89.3616C70.1219 89.382 70.056 89.3963 69.9891 89.4044Z" fill="#455A64"/>
<path d="M61.6657 78.1964C61.672 78.2358 61.6821 78.2745 61.6956 78.312L61.7984 78.6417L62.2265 79.926C62.599 81.0434 63.1255 82.6317 63.7806 84.5839L68.9822 99.9277L69.0935 100.253L69.132 100.364L69.2391 100.322L84.129 94.5291L88.62 92.7524L89.8358 92.2601L90.1483 92.1274L90.2554 92.0717L90.1398 92.106L89.8187 92.2173L88.59 92.6711L84.0734 94.3835L69.162 100.12L69.3076 100.189C69.269 100.086 69.2348 99.9748 69.1963 99.8634C67.1413 93.8698 65.279 88.4755 63.9261 84.5368C63.2497 82.5932 62.6974 81.0134 62.3078 79.9003L61.8369 78.6245C61.7898 78.4918 61.747 78.3848 61.717 78.2992C61.6871 78.2135 61.6699 78.1964 61.6657 78.1964Z" fill="#455A64"/>
<path d="M92.6157 101.64C92.6157 101.64 90.1284 93.5357 88.0092 92.9834C85.89 92.4312 83.0901 92.3455 82.5978 93.7284C81.9919 95.4717 81.716 97.3126 81.7843 99.1569C81.9275 100.855 82.2067 102.538 82.6192 104.192L84.7812 103.519C84.7812 103.519 83.0687 95.291 83.5268 93.9424C83.9849 92.5939 87.5554 92.9192 88.2104 94.3192C88.8654 95.7191 90.9461 102.154 90.9461 102.154L92.6157 101.64Z" fill="#455A64"/>
<path d="M102.552 111.838C101.794 108.443 100.022 100.977 99.2381 97.7101C99.1357 97.2798 98.8709 96.9058 98.499 96.6664C98.1272 96.427 97.6771 96.3407 97.243 96.4257L76.9503 100.424C76.5144 100.511 76.1292 100.763 75.876 101.128C75.6228 101.493 75.5213 101.942 75.5931 102.381L77.8836 116.483C77.9202 116.709 78.0016 116.925 78.123 117.118C78.2444 117.312 78.4034 117.479 78.5905 117.611C78.7776 117.742 78.9891 117.834 79.2125 117.883C79.436 117.931 79.6668 117.934 79.8914 117.892L101.19 113.897C101.417 113.856 101.633 113.769 101.825 113.641C102.018 113.514 102.182 113.35 102.309 113.157C102.436 112.965 102.523 112.749 102.565 112.522C102.607 112.296 102.602 112.063 102.552 111.838Z" fill="#455A64"/>
<path d="M77.6823 105.622L77.708 105.771C77.7294 105.878 77.7551 106.033 77.7936 106.225C77.8706 106.632 77.9862 107.218 78.1361 107.976L79.4204 114.445L79.5232 114.967C79.5471 115.156 79.6243 115.335 79.7458 115.481C79.8745 115.631 80.0465 115.737 80.2381 115.785C80.4314 115.824 80.6313 115.815 80.8204 115.759L83.1408 115.31L88.2782 114.321L93.9336 113.221L96.9305 112.638L98.4588 112.339L98.8441 112.266C98.9803 112.247 99.1139 112.212 99.2423 112.163C99.3749 112.105 99.4924 112.017 99.5858 111.907C99.6793 111.796 99.7463 111.666 99.7817 111.525C99.8052 111.404 99.8052 111.279 99.7817 111.157C99.7817 111.033 99.7346 110.93 99.7132 110.819L99.5719 110.155L99.2894 108.841C99.1053 107.985 98.9212 107.129 98.7414 106.272C98.3761 104.58 98.0264 102.952 97.6925 101.387V101.315H97.6197C91.853 102.792 86.8654 103.845 83.3291 104.543C81.5567 104.889 80.1482 105.151 79.185 105.326L78.0719 105.532L77.7936 105.587L77.6994 105.609H77.8021L78.089 105.566L79.1935 105.386C80.1611 105.223 81.5696 104.979 83.342 104.641C86.8911 103.973 91.8829 102.929 97.6583 101.469L97.5684 101.413C97.898 102.976 98.2491 104.611 98.6087 106.302C98.7885 107.159 98.9726 108.015 99.1567 108.871C99.2509 109.299 99.345 109.727 99.4392 110.185L99.5805 110.845C99.6496 111.05 99.6672 111.269 99.6319 111.482C99.6011 111.599 99.5449 111.708 99.4672 111.801C99.3894 111.893 99.2922 111.967 99.1824 112.018C99.0638 112.063 98.9401 112.093 98.8142 112.108L98.4289 112.185L96.9005 112.484L93.9037 113.067L88.2439 114.175L83.1065 115.181L80.7861 115.64C80.6138 115.69 80.4317 115.699 80.2553 115.665C80.089 115.625 79.9394 115.533 79.8271 115.404C79.7189 115.272 79.6506 115.111 79.6302 114.942C79.5917 114.766 79.5574 114.595 79.5232 114.428C78.9624 111.714 78.5043 109.522 78.1917 108.006C78.0291 107.248 77.9049 106.658 77.8193 106.251C77.7765 106.054 77.7422 105.9 77.7208 105.789C77.6994 105.677 77.6823 105.622 77.6823 105.622Z" fill="#263238"/>
<path d="M85.2466 113.512C85.2466 113.512 85.1225 113.533 84.8827 113.533C84.5353 113.522 84.1982 113.412 83.9109 113.216C83.6882 113.056 83.5031 112.85 83.3686 112.611C83.234 112.372 83.1532 112.107 83.1317 111.833C83.0076 111.196 82.862 110.472 82.7036 109.671C82.6223 109.269 82.5409 108.849 82.4553 108.413C82.3314 107.976 82.3757 107.509 82.5795 107.103C82.6907 106.893 82.8444 106.708 83.0309 106.561C83.2174 106.413 83.4325 106.306 83.6626 106.247C84.1506 106.139 84.6772 106.041 85.2038 105.934L92.0922 104.555C92.3819 104.498 92.6815 104.516 92.9621 104.608C93.2426 104.7 93.4946 104.864 93.6934 105.082C93.8907 105.295 94.0281 105.557 94.0915 105.84L94.2713 106.696L94.6139 108.409C94.6681 108.694 94.7237 108.968 94.7808 109.231C94.8416 109.493 94.8874 109.759 94.9178 110.027C94.9314 110.28 94.8884 110.533 94.7922 110.768C94.6959 111.003 94.5488 111.213 94.3613 111.384C94.1799 111.546 93.9671 111.668 93.7362 111.744C93.5136 111.812 93.261 111.851 93.0298 111.902L90.414 112.437L86.6252 113.225L85.5977 113.447L85.3322 113.507L85.2423 113.533H85.3365L85.6062 113.486L86.638 113.293L90.4354 112.553L93.0598 112.018C93.2952 111.966 93.5307 111.936 93.7833 111.863C94.0329 111.784 94.2622 111.651 94.4554 111.474C94.66 111.291 94.8211 111.064 94.927 110.811C95.0329 110.558 95.081 110.284 95.0677 110.01C95.0359 109.735 94.9887 109.462 94.9264 109.192C94.8707 108.922 94.8193 108.648 94.7637 108.37C94.6524 107.818 94.5368 107.253 94.4212 106.658C94.3655 106.371 94.3056 106.08 94.2457 105.801C94.1755 105.494 94.0282 105.21 93.8175 104.975C93.6004 104.737 93.3256 104.559 93.0197 104.458C92.7139 104.356 92.3871 104.336 92.0708 104.397L85.1824 105.788C84.6558 105.9 84.1421 105.994 83.6369 106.11C83.3873 106.177 83.1545 106.296 82.9539 106.459C82.7533 106.622 82.5892 106.825 82.4724 107.056C82.2586 107.489 82.2143 107.987 82.3483 108.451C82.4382 108.879 82.5238 109.308 82.6051 109.706C82.7678 110.502 82.9177 111.226 83.0333 111.846C83.0675 112.005 83.0975 112.159 83.1403 112.309C83.1865 112.449 83.2498 112.582 83.3287 112.707C83.4637 112.928 83.6465 113.117 83.8638 113.259C84.162 113.457 84.5122 113.561 84.8699 113.559C84.997 113.561 85.1238 113.545 85.2466 113.512Z" fill="#263238"/>
<g opacity="0.3">
<path d="M99.3022 112.078C93.5921 115.068 87.1319 116.322 80.7176 115.687L99.3022 112.078Z" fill="black"/>
</g>
<path d="M86.5578 107.848L88.9381 107.368C89.0275 107.35 89.1126 107.315 89.1883 107.264C89.2641 107.213 89.3291 107.148 89.3796 107.072C89.4301 106.996 89.4651 106.911 89.4827 106.822C89.5002 106.732 89.4999 106.64 89.4818 106.551C89.4446 106.371 89.3385 106.214 89.1864 106.112C89.0342 106.011 88.8482 105.973 88.6684 106.007L86.2752 106.491C86.1859 106.508 86.101 106.543 86.0253 106.593C85.9496 106.644 85.8845 106.709 85.834 106.784C85.7835 106.86 85.7484 106.945 85.7308 107.034C85.7132 107.123 85.7134 107.215 85.7315 107.304C85.7488 107.395 85.7841 107.481 85.8353 107.558C85.8865 107.634 85.9526 107.7 86.0297 107.751C86.1067 107.801 86.1932 107.836 86.2839 107.853C86.3746 107.869 86.4677 107.868 86.5578 107.848Z" fill="#E0E0E0"/>
<path d="M82.7553 91.1641C82.4411 91.6412 82.1853 92.1544 81.9933 92.6924C81.907 93.6561 81.8898 94.6247 81.9419 95.5908C81.9419 95.5908 82.4428 95.8434 82.8495 94.4991C83.0639 93.8527 83.2172 93.1876 83.3076 92.5126L82.7553 91.1641Z" fill="#FFBF9D"/>
<path d="M82.8198 95.4666L82.7256 91.224L84.361 88.0859L89.5498 87.9874L89.7339 93.1248C89.7339 93.1248 88.9718 95.3297 88.6079 95.7449C88.244 96.1602 87.5162 95.852 87.5162 95.852C87.1267 96.4684 86.0478 96.2415 86.0478 96.2415C85.5212 96.8709 84.6992 96.2801 84.6992 96.2801C84.6992 96.2801 83.98 96.9394 83.6503 96.8966C83.5119 96.8633 83.3884 96.785 83.2993 96.6739C82.9987 96.3427 82.8284 95.9138 82.8198 95.4666Z" fill="#FFBF9D"/>
<path d="M87.9135 94.7559C87.8664 94.7559 87.7423 94.9656 87.6438 95.261C87.5454 95.5564 87.4983 95.8133 87.5496 95.8304C87.601 95.8476 87.7209 95.6164 87.8194 95.321C87.9178 95.0256 87.9649 94.773 87.9135 94.7559Z" fill="#FF9A6C"/>
<path d="M86.5701 94.6917C86.4402 94.9388 86.3492 95.2045 86.3004 95.4794C86.1932 95.7375 86.1254 96.0103 86.0992 96.2885C86.2944 96.0781 86.4265 95.817 86.4802 95.535C86.5903 95.2683 86.6215 94.9756 86.5701 94.6917Z" fill="#FF9A6C"/>
<path d="M85.0372 94.8287C84.9816 94.8287 84.943 95.1541 84.866 95.5437C84.7889 95.9333 84.7161 96.2501 84.7675 96.2715C84.8189 96.2929 84.9773 95.9889 85.0543 95.5779C85.1314 95.1669 85.0843 94.8287 85.0372 94.8287Z" fill="#FF9A6C"/>
<path d="M82.7855 92.5555C82.7012 93.0892 82.6768 93.6305 82.7127 94.1695C82.6896 94.7074 82.7284 95.246 82.8283 95.775C82.9397 94.7038 82.9253 93.6233 82.7855 92.5555Z" fill="#FF9A6C"/>
<path d="M87.9912 93.9039C87.9912 93.9039 87.9912 93.981 88.1025 94.0366C88.2255 94.1076 88.3704 94.1305 88.5092 94.1008C88.6496 94.0724 88.7746 93.9931 88.8603 93.8782C88.9245 93.7926 88.9288 93.7198 88.9074 93.7113C88.886 93.7027 88.719 93.8697 88.4792 93.9167C88.2395 93.9638 88.0212 93.8611 87.9912 93.9039Z" fill="#FF9A6C"/>
<path d="M86.4249 94.1607C86.4249 94.1607 86.4549 94.2378 86.5577 94.2892C86.6932 94.3445 86.8419 94.3594 86.9858 94.332C87.1345 94.3047 87.2708 94.2313 87.3754 94.1222C87.4524 94.0323 87.4696 93.9638 87.4524 93.9467C87.4353 93.9295 87.2341 94.0965 86.9515 94.1479C86.669 94.1993 86.4506 94.1136 86.4249 94.1607Z" fill="#FF9A6C"/>
<path d="M83.4233 93.8483C83.4233 93.8226 83.3034 93.9596 83.4233 94.1437C83.5873 94.3255 83.8167 94.4348 84.0612 94.4477C84.2973 94.4694 84.5342 94.4154 84.7376 94.2936C84.8875 94.1951 84.9474 94.0966 84.9303 94.0795C84.6595 94.1954 84.3685 94.2565 84.074 94.2593C83.8742 94.2479 83.6821 94.178 83.5218 94.0581C83.4233 93.9596 83.449 93.8569 83.4233 93.8483Z" fill="#FF9A6C"/>
<path d="M67.2705 53.9434C69.3083 56.084 81.9635 68.4995 81.9635 68.4995C81.9635 68.4995 82.6956 88.5782 83.0638 88.6638C83.4319 88.7494 90.7057 88.1543 90.7057 88.1543C90.7057 88.1543 91.7246 66.8683 90.8769 64.4409C90.0292 62.0135 79.2064 47.8214 78.971 47.526C78.7355 47.2306 77.494 45.06 73.3541 43.994C68.5035 42.7524 66.4656 45.0771 65.6479 47.4617C64.9458 49.5167 66.2858 52.7105 66.9323 53.5667C67.0371 53.6992 67.1501 53.825 67.2705 53.9434Z" fill="#263238"/>
<path d="M67.2706 53.9435C67.2706 53.9435 67.2106 53.8579 67.0822 53.708C66.8955 53.4829 66.7374 53.2355 66.6113 52.9716C66.1018 51.9663 65.7537 50.8871 65.5795 49.7736C65.4353 48.9767 65.4882 48.1565 65.7336 47.3847C66.0405 46.4694 66.565 45.6423 67.262 44.9744C67.6599 44.6169 68.1141 44.3276 68.6063 44.1182C69.1336 43.9079 69.689 43.7766 70.2546 43.7286C71.4957 43.6735 72.7367 43.8402 73.9193 44.2209C75.2353 44.5981 76.4655 45.2278 77.5411 46.0747C78.0992 46.5392 78.588 47.0813 78.9924 47.6844L80.3753 49.5125C82.229 51.9827 84.1984 54.6499 86.2234 57.454C87.2294 58.8668 88.2612 60.3224 89.2544 61.838C89.7692 62.5917 90.2368 63.3767 90.6544 64.1883C90.6972 64.2954 90.7528 64.3938 90.7914 64.5009L90.8556 64.8305C90.9081 65.0541 90.9411 65.2819 90.9541 65.5112L91.014 66.209L91.0482 66.9112C91.181 70.6829 91.0739 74.6173 90.9669 78.6073C90.8684 81.861 90.7443 85.0505 90.603 88.1415L90.7057 88.0388L86.797 88.347L84.8791 88.4797L83.9329 88.5354L83.462 88.5568H83.1323C83.0341 87.9513 82.9669 87.3411 82.9311 86.7287C82.8926 86.1122 82.8498 85.5043 82.8113 84.8964C82.7428 83.6862 82.6771 82.4961 82.6143 81.3259C82.3789 76.6508 82.1862 72.3354 82.0535 68.4824V68.4481V68.4224L71.2906 57.8222L68.3409 54.9367L67.5703 54.1875C67.3947 54.0205 67.3005 53.9392 67.3005 53.9392C67.3005 53.9392 67.3819 54.0334 67.5531 54.2046L68.3066 54.971L71.2221 57.8907L81.925 68.5466L81.8994 68.4866C82.0364 72.3397 82.2033 76.6508 82.4302 81.3302C82.4902 82.4975 82.553 83.6877 82.6186 84.9007C82.6614 85.5086 82.6999 86.1208 82.7385 86.7373C82.7722 87.3659 82.8422 87.992 82.9483 88.6125C82.9584 88.6464 82.9743 88.6782 82.9953 88.7066C83.0142 88.7315 83.0417 88.7483 83.0724 88.7537H83.1067H83.2437H83.4834L83.9586 88.7323L84.909 88.6767L86.827 88.544L90.7357 88.24H90.8342V88.1415C90.9755 85.0462 91.0996 81.8568 91.1981 78.5988C91.3051 74.5916 91.4121 70.6786 91.2751 66.8898L91.2409 66.1834L91.1767 65.477C91.1628 65.2392 91.1299 65.003 91.0782 64.7706L91.0012 64.4195C90.9603 64.3071 90.9131 64.197 90.8599 64.0899C90.4384 63.2672 89.9651 62.4722 89.4428 61.7095C88.441 60.1854 87.4092 58.7341 86.3989 57.3213C84.3696 54.5 82.3917 51.8543 80.5294 49.3883L79.1509 47.5731C78.9282 47.2862 78.7227 46.9694 78.4616 46.7168C78.2165 46.4437 77.9502 46.1904 77.6653 45.9591C75.5399 44.3473 72.9247 43.5159 70.2588 43.6044C69.6781 43.6609 69.1094 43.8053 68.5721 44.0325C68.0668 44.2456 67.602 44.5439 67.1978 44.9145C66.4895 45.5967 65.9589 46.4418 65.6523 47.3761C65.4047 48.1655 65.3562 49.0038 65.511 49.8164C65.6951 50.9365 66.0594 52.0194 66.5899 53.023C66.722 53.2858 66.8875 53.5304 67.0822 53.7508C67.1978 53.8707 67.2706 53.9435 67.2706 53.9435Z" fill="#455A64"/>
<path d="M60.0907 63.1309C60.1315 63.0559 60.1604 62.9751 60.1763 62.8912C60.232 62.7114 60.3005 62.4631 60.3861 62.1934C60.5702 61.5597 60.8142 60.6778 61.1267 59.599C61.7432 57.3685 62.5866 54.3074 63.5328 50.8739V50.8268L63.5071 50.784C63.2716 50.4158 63.019 50.022 62.7621 49.6281L62.5695 49.3241L62.4839 49.4954L63.9009 49.3627H63.9737L63.9994 49.2899C64.2521 48.4907 64.5451 47.7048 64.877 46.9352C65.1704 46.2207 65.5408 45.5403 65.9816 44.906C66.4248 44.3814 66.9694 43.9519 67.5828 43.643C68.1479 43.3219 68.6916 43.0522 69.1882 42.8167C70.19 42.3458 71.0077 42.0033 71.5728 41.7678L72.2193 41.4981C72.2972 41.4725 72.3719 41.438 72.4419 41.3954C72.3607 41.4054 72.2815 41.4271 72.2064 41.4596C72.0523 41.511 71.8297 41.588 71.5428 41.6951C70.9692 41.9048 70.1386 42.2259 69.1283 42.6797C68.6231 42.9109 68.0751 43.1721 67.4971 43.4889C66.8581 43.7995 66.2887 44.2364 65.8232 44.7732C65.3664 45.4141 64.9844 46.105 64.6844 46.8325C64.3445 47.6087 64.0444 48.4017 63.7854 49.2085L63.8838 49.1315L62.4625 49.2599H62.2827L62.3811 49.414L62.5738 49.718L63.323 50.8739V50.784C62.4025 54.2304 61.5848 57.2914 60.9897 59.5305C60.7072 60.6179 60.4803 61.5041 60.3133 62.142C60.2448 62.4331 60.1849 62.6686 60.1421 62.8527C60.1119 62.9425 60.0946 63.0362 60.0907 63.1309Z" fill="#455A64"/>
<path d="M61.5676 50.3389C64.0507 51.8031 66.0672 51.7945 70.2113 51.4434C73.084 51.1994 75.6013 50.3774 78.4826 50.2875C82.6353 50.1634 85.7606 51.4306 89.528 53.1431L92.3193 56.4396L87.0835 58.0236C83.5445 56.2051 79.5937 55.3376 75.6185 55.5063C69.1967 55.8573 63.1688 54.1063 61.0368 52.4752L60.3047 50.4459L60.583 49.3842L61.4649 49.3029L61.5676 50.3389Z" fill="url(#paint4_linear_899_2254)"/>
<path d="M61.5677 50.3387C61.5677 50.3387 61.5677 50.2488 61.5677 50.0733C61.5677 49.8977 61.5335 49.6451 61.5035 49.3155V49.2855H61.4778L60.5959 49.3583H60.5702V49.384C60.4888 49.6922 60.3904 50.0476 60.2833 50.4414C60.4888 51.0365 60.7329 51.7258 60.9983 52.4793C61.625 52.9356 62.3069 53.311 63.0276 53.5967C63.8521 53.9461 64.6987 54.2407 65.562 54.4786C68.768 55.3497 72.0898 55.718 75.4087 55.5703C76.6785 55.5064 77.9515 55.5465 79.2147 55.6902C80.5476 55.8469 81.8641 56.1206 83.1491 56.5079C84.4932 56.8977 85.7953 57.4197 87.0364 58.0662H87.0792H87.1221L90.1788 57.2185L92.3622 56.5464L92.5249 56.4993L92.4179 56.3709L89.6265 53.0701H89.6051C87.8069 52.2166 85.9463 51.501 84.0396 50.9295C82.2765 50.4203 80.4456 50.1849 78.6111 50.2317C76.9752 50.3134 75.3487 50.5282 73.7476 50.8738C72.3695 51.1558 70.9756 51.3545 69.5735 51.4689C68.4282 51.5803 67.2777 51.6289 66.1272 51.6145C65.2665 51.6022 64.4114 51.4755 63.5841 51.2377C63.0669 51.0817 62.5641 50.8811 62.0814 50.6384L61.7133 50.4457L61.5805 50.3815C61.5805 50.3815 61.6148 50.4115 61.6961 50.4586C61.7775 50.5057 61.9016 50.5827 62.0643 50.6726C62.5419 50.9346 63.0437 51.1497 63.5627 51.3148C64.3957 51.5727 65.2598 51.7167 66.1314 51.7429C67.2858 51.7686 68.4406 51.73 69.5906 51.6273C70.9982 51.5245 72.3979 51.3343 73.7819 51.0579C75.3756 50.7247 76.9933 50.5185 78.6196 50.4414C80.4348 50.4001 82.2455 50.6383 83.9882 51.1478C85.877 51.7232 87.7201 52.4387 89.5024 53.2884L89.4639 53.2585L92.2509 56.5592L92.3023 56.3794L90.1317 57.0387L87.0664 57.9635H87.152C85.8921 57.298 84.5682 56.7616 83.2005 56.3623C81.9039 55.9749 80.576 55.7013 79.2318 55.5446C77.9526 55.4031 76.664 55.3659 75.3788 55.4333C72.0823 55.589 68.7814 55.2366 65.592 54.3887C64.7343 54.1565 63.8921 53.8705 63.0704 53.5325C62.3588 53.253 61.6833 52.8894 61.0582 52.4493V52.475L60.3133 50.4457V50.4714L60.5788 49.4097L60.5488 49.4396L61.4307 49.3455H61.4007L61.4906 50.1118C61.5377 50.2573 61.5677 50.3387 61.5677 50.3387Z" fill="#263238"/>
<path d="M71.3838 77.0575C71.3838 77.1132 73.2975 76.4881 75.6093 75.6619C77.019 75.1987 78.4037 74.6629 79.7578 74.0564C79.7364 74.0008 77.8441 74.6258 75.5323 75.4521C74.1227 75.9152 72.738 76.4511 71.3838 77.0575Z" fill="#455A64"/>
<defs>
<linearGradient id="paint0_linear_899_2254" x1="35.7633" y1="161.577" x2="35.7633" y2="190.899" gradientUnits="userSpaceOnUse">
<stop stop-color="#FAE653"/>
<stop offset="0.576923" stop-color="#FBB502"/>
</linearGradient>
<linearGradient id="paint1_linear_899_2254" x1="102.044" y1="86.8444" x2="102.044" y2="5.93445" gradientUnits="userSpaceOnUse">
<stop offset="0.1875" stop-color="#FAE653"/>
<stop offset="0.8125" stop-color="#FBB502"/>
</linearGradient>
<linearGradient id="paint2_linear_899_2254" x1="0" y1="135.331" x2="98.1455" y2="135.331" gradientUnits="userSpaceOnUse">
<stop stop-color="#FAE653"/>
<stop offset="1" stop-color="#FBB502"/>
</linearGradient>
<linearGradient id="paint3_linear_899_2254" x1="157.008" y1="110.618" x2="157.008" y2="74.9727" gradientUnits="userSpaceOnUse">
<stop stop-color="#FAE653"/>
<stop offset="1" stop-color="#FBB502"/>
</linearGradient>
<linearGradient id="paint4_linear_899_2254" x1="60.3047" y1="53.6632" x2="92.3193" y2="53.6632" gradientUnits="userSpaceOnUse">
<stop stop-color="#FAE653"/>
<stop offset="1" stop-color="#FBB502"/>
</linearGradient>
</defs>
</svg>
