<svg width="137" height="103" viewBox="0 0 137 103" fill="none" xmlns="http://www.w3.org/2000/svg">
<ellipse cx="61.5" cy="90.5" rx="61.5" ry="12.5" fill="#4C4C4C" fill-opacity="0.67"/>
<path d="M34.0211 35.24H21.4575V91.1416H34.0211V35.24Z" fill="#FAE653"/>
<path opacity="0.7" d="M34.0211 35.24H21.4575V91.1416H34.0211V35.24Z" fill="#FAFAFA"/>
<path d="M53.2418 16.7622H40.6782V91.139H53.2418V16.7622Z" fill="url(#paint0_linear_1261_1072)"/>
<path opacity="0.1" d="M53.2418 16.7622H40.6782V91.139H53.2418V16.7622Z" fill="black"/>
<path d="M72.4649 35.24H59.9014V91.1416H72.4649V35.24Z" fill="#FAE653"/>
<path opacity="0.4" d="M72.4649 35.24H59.9014V91.1416H72.4649V35.24Z" fill="black"/>
<path d="M29.5635 35.24H17V91.1416H29.5635V35.24Z" fill="#FAE653"/>
<path opacity="0.8" d="M29.5635 35.24H17V91.1416H29.5635V35.24Z" fill="#FAFAFA"/>
<path d="M48.7867 16.7622H36.2231V91.139H48.7867V16.7622Z" fill="url(#paint1_linear_1261_1072)"/>
<path opacity="0.2" d="M48.7867 16.7622H36.2231V91.139H48.7867V16.7622Z" fill="#FAFAFA"/>
<path d="M68.0074 35.24H55.4438V91.1416H68.0074V35.24Z" fill="#FAE653"/>
<path opacity="0.2" d="M68.0074 35.24H55.4438V91.1416H68.0074V35.24Z" fill="black"/>
<path d="M115 65.4914H114.738C114.732 60.6694 113.404 55.9414 110.898 51.8214L111.123 51.6854C113.652 55.8469 114.993 60.6217 115 65.4914ZM109.444 49.6817C108.706 48.7054 107.9 47.7824 107.032 46.9194L107.218 46.7363C108.095 47.6101 108.909 48.5455 109.653 49.5352L109.444 49.6817Z" fill="#FAE653"/>
<path opacity="0.3" d="M115 65.4914H114.738C114.732 60.6694 113.404 55.9414 110.898 51.8214L111.123 51.6854C113.652 55.8469 114.993 60.6217 115 65.4914ZM109.444 49.6817C108.706 48.7054 107.9 47.7824 107.032 46.9194L107.218 46.7363C108.095 47.6101 108.909 48.5455 109.653 49.5352L109.444 49.6817Z" fill="black"/>
<path d="M106.572 47.3689C101.763 42.5615 95.2422 39.8595 88.4422 39.8564H84.7409V40.1311C81.5316 40.5994 78.4402 41.6716 75.6302 43.291C63.4459 50.3195 59.2057 66.1318 66.2343 78.3082C68.17 81.6633 70.8409 84.536 74.0462 86.7106C77.2515 88.8853 80.908 90.3053 84.7409 90.8639V91.1255H88.4474C93.5196 91.128 98.4784 89.6257 102.696 86.8087C106.914 83.9918 110.202 79.9869 112.143 75.3009C114.084 70.6148 114.591 65.4583 113.601 60.4838C112.61 55.5094 110.166 50.9407 106.577 47.3559L106.572 47.3689ZM88.4422 84.4501C84.6936 84.4506 81.029 83.3395 77.9118 81.2574C74.7946 79.1753 72.3649 76.2156 70.9297 72.7526C69.4946 69.2896 69.1186 65.4787 69.8492 61.802C70.5798 58.1253 72.3843 54.7478 75.0344 52.0966C77.6845 49.4454 81.0613 47.6395 84.7377 46.9074C88.4141 46.1752 92.2251 46.5497 95.6887 47.9834C99.1523 49.4171 102.113 51.8456 104.196 54.9619C106.28 58.0783 107.392 61.7424 107.393 65.491C107.4 67.9819 106.914 70.4496 105.964 72.7522C105.014 75.0549 103.619 77.1472 101.858 78.9089C100.097 80.6706 98.0051 82.0671 95.7029 83.018C93.4006 83.9689 90.9331 84.4556 88.4422 84.4501Z" fill="#FAE653"/>
<path opacity="0.3" d="M106.572 47.3689C101.763 42.5615 95.2422 39.8595 88.4422 39.8564H84.7409V40.1311C81.5316 40.5994 78.4402 41.6716 75.6302 43.291C63.4459 50.3195 59.2057 66.1318 66.2343 78.3082C68.17 81.6633 70.8409 84.536 74.0462 86.7106C77.2515 88.8853 80.908 90.3053 84.7409 90.8639V91.1255H88.4474C93.5196 91.128 98.4784 89.6257 102.696 86.8087C106.914 83.9918 110.202 79.9869 112.143 75.3009C114.084 70.6148 114.591 65.4583 113.601 60.4838C112.61 55.5094 110.166 50.9407 106.577 47.3559L106.572 47.3689ZM88.4422 84.4501C84.6936 84.4506 81.029 83.3395 77.9118 81.2574C74.7946 79.1753 72.3649 76.2156 70.9297 72.7526C69.4946 69.2896 69.1186 65.4787 69.8492 61.802C70.5798 58.1253 72.3843 54.7478 75.0344 52.0966C77.6845 49.4454 81.0613 47.6395 84.7377 46.9074C88.4141 46.1752 92.2251 46.5497 95.6887 47.9834C99.1523 49.4171 102.113 51.8456 104.196 54.9619C106.28 58.0783 107.392 61.7424 107.393 65.491C107.4 67.9819 106.914 70.4496 105.964 72.7522C105.014 75.0549 103.619 77.1472 101.858 78.9089C100.097 80.6706 98.0051 82.0671 95.7029 83.018C93.4006 83.9689 90.9331 84.4556 88.4422 84.4501Z" fill="black"/>
<path d="M103.687 65.4912H110.375C110.38 71.1384 108.52 76.6292 105.085 81.1108C101.649 85.5924 96.8288 88.814 91.374 90.2752C85.9191 91.7364 80.1344 91.3555 74.9183 89.1916C69.7021 87.0277 65.3465 83.2019 62.5278 78.3085L68.3244 74.9629C70.409 78.5771 73.6282 81.4022 77.4825 82.9998C81.3368 84.5975 85.6106 84.8784 89.6408 83.7989C93.671 82.7194 97.2323 80.3399 99.772 77.0297C102.312 73.7194 103.688 69.6635 103.687 65.4912Z" fill="url(#paint2_linear_1261_1072)"/>
<path opacity="0.2" d="M103.687 65.4912H110.375C110.38 71.1384 108.52 76.6292 105.085 81.1108C101.649 85.5924 96.8288 88.814 91.374 90.2752C85.9191 91.7364 80.1344 91.3555 74.9183 89.1916C69.7021 87.0277 65.3465 83.2019 62.5278 78.3085L68.3244 74.9629C70.409 78.5771 73.6282 81.4022 77.4825 82.9998C81.3368 84.5975 85.6106 84.8784 89.6408 83.7989C93.671 82.7194 97.2323 80.3399 99.772 77.0297C102.312 73.7194 103.688 69.6635 103.687 65.4912Z" fill="#FAFAFA"/>
<path d="M84.7407 39.8564C91.5381 39.8606 98.056 42.5627 102.862 47.3692C107.669 52.1757 110.371 58.6936 110.375 65.491H103.687C103.684 60.467 101.687 55.6497 98.1345 52.0972C94.5821 48.5447 89.7647 46.5477 84.7407 46.545V39.8564Z" fill="url(#paint3_linear_1261_1072)"/>
<path d="M84.7407 39.8564V46.545C81.4141 46.5439 78.1458 47.4188 75.2646 49.0816C72.3834 50.7444 69.9908 53.1365 68.3274 56.0174C66.664 58.8983 65.7884 62.1663 65.7888 65.4929C65.7891 68.8195 66.6653 72.0874 68.3293 74.9679L62.5276 78.3082C55.499 66.1266 59.7365 50.3195 71.9182 43.2857C75.8178 41.0384 80.2398 39.8558 84.7407 39.8564Z" fill="#FAE653"/>
<path opacity="0.8" d="M84.7407 39.8564V46.545C81.4141 46.5439 78.1458 47.4188 75.2646 49.0816C72.3834 50.7444 69.9908 53.1365 68.3274 56.0174C66.664 58.8983 65.7884 62.1663 65.7888 65.4929C65.7891 68.8195 66.6653 72.0874 68.3293 74.9679L62.5276 78.3082C55.499 66.1266 59.7365 50.3195 71.9182 43.2857C75.8178 41.0384 80.2398 39.8558 84.7407 39.8564Z" fill="#FAFAFA"/>
<path d="M78.455 57.7564L76.399 58.9596L73.2993 54.3847L75.3553 53.1814L78.455 57.7564Z" fill="#E4897B"/>
<path d="M75.256 57.6596L77.5108 56.2235C77.5492 56.1977 77.5957 56.1869 77.6415 56.1931C77.6874 56.1994 77.7293 56.2223 77.7593 56.2575L79.1535 57.8793C79.1868 57.9214 79.211 57.9701 79.2243 58.0221C79.2377 58.0741 79.2401 58.1284 79.2312 58.1814C79.2223 58.2344 79.2024 58.2849 79.1728 58.3298C79.1432 58.3746 79.1046 58.4127 79.0593 58.4417C78.2746 58.9282 77.8561 59.1244 76.8647 59.7496C76.2526 60.1367 75.0337 61.0052 74.1888 61.544C73.3439 62.0828 72.771 61.2824 73.0744 60.9764C74.432 59.6345 74.7538 58.7739 74.9997 57.9892C75.045 57.8533 75.1354 57.737 75.256 57.6596Z" fill="#263238"/>
<path d="M74.2227 58.6665H74.1625C74.1145 58.6581 74.0693 58.6382 74.0306 58.6086C73.9919 58.579 73.9609 58.5406 73.9402 58.4965C73.926 58.4718 73.9185 58.4438 73.9185 58.4154C73.9185 58.3869 73.926 58.3589 73.9402 58.3343C74.0971 58.0492 75.1487 57.9498 75.269 57.9393C75.2772 57.9382 75.2856 57.9399 75.2927 57.9442C75.2999 57.9485 75.3053 57.955 75.3082 57.9628C75.3131 57.9692 75.3158 57.977 75.3158 57.9851C75.3158 57.9931 75.3131 58.0009 75.3082 58.0073C75.0362 58.2584 74.5575 58.6665 74.2227 58.6665ZM75.1591 58.0282C74.7929 58.0701 74.1128 58.1826 74.0108 58.3709C74.003 58.3839 73.9988 58.3988 73.9988 58.4141C73.9988 58.4293 74.003 58.4442 74.0108 58.4572C74.0254 58.4904 74.0482 58.5193 74.077 58.5412C74.1059 58.5632 74.1398 58.5775 74.1756 58.5828C74.377 58.6168 74.7406 58.4101 75.1591 58.0282Z" fill="#FAE653"/>
<path d="M75.1379 58.0258C74.79 58.0258 74.2224 57.9003 74.1308 57.6884C74.1073 57.6335 74.1021 57.5498 74.2172 57.4608C74.2591 57.4264 74.3077 57.4012 74.36 57.3867C74.4123 57.3723 74.467 57.369 74.5206 57.3771C74.8999 57.4268 75.287 57.9317 75.3053 57.9526C75.309 57.9585 75.311 57.9653 75.311 57.9722C75.311 57.9792 75.309 57.986 75.3053 57.9918C75.3033 57.9981 75.2996 58.0037 75.2944 58.0079C75.2893 58.0121 75.2831 58.0147 75.2766 58.0154C75.2307 58.023 75.1844 58.0264 75.1379 58.0258ZM74.463 57.453C74.3914 57.4528 74.322 57.4778 74.2669 57.5236C74.1753 57.5942 74.1962 57.6413 74.2041 57.657C74.2747 57.8218 74.8502 57.9657 75.1955 57.9447C75.0235 57.7143 74.7839 57.5433 74.5101 57.4556L74.463 57.453Z" fill="#FAE653"/>
<path d="M84.1155 22.2C84.0762 22.4067 84.0449 22.5531 84.0056 22.7232L83.8827 23.2071C83.7964 23.5288 83.7048 23.8427 83.6211 24.1566C83.4223 24.7818 83.2026 25.3939 82.9698 25.9877C82.737 26.5814 82.4806 27.1909 82.2164 27.7795C82.0857 28.075 81.9549 28.3654 81.8031 28.6557L81.6959 28.8755L81.6357 28.9958C81.607 29.0559 81.5756 29.1161 81.5416 29.1737C81.4148 29.3894 81.261 29.5881 81.0838 29.7648C80.7765 30.0642 80.4233 30.3123 80.0375 30.4999C79.7007 30.6649 79.3507 30.8014 78.9912 30.9079C78.3321 31.0992 77.6571 31.2306 76.9744 31.3003C75.6701 31.4359 74.3551 31.4359 73.0508 31.3003L73.0717 30.0709C73.6681 30.0055 74.2907 29.9375 74.9028 29.8354C75.5148 29.7334 76.1034 29.6314 76.6841 29.4954C77.2465 29.3652 77.7975 29.1902 78.332 28.9722C78.7701 28.8201 79.1674 28.5696 79.4934 28.2398C79.5358 28.1905 79.5702 28.1349 79.5954 28.075L79.7288 27.7324C79.8439 27.4472 79.9512 27.1595 80.0584 26.8718C80.2782 26.2989 80.477 25.7182 80.6784 25.1428C80.8798 24.5673 81.0629 23.984 81.2303 23.4033C81.3192 23.1129 81.4029 22.8252 81.4919 22.5375L81.6044 22.1058L81.7011 21.7083L84.1155 22.2Z" fill="#E4897B"/>
<path d="M82.4545 19.1423C81.4736 19.4039 80.7856 23.4295 80.7856 23.4295L83.4903 25.2606C83.4903 25.2606 86.0826 21.1878 85.3214 20.1101C84.5419 18.9932 83.8853 18.7787 82.4545 19.1423Z" fill="#FAE653"/>
<path opacity="0.6" d="M82.4545 19.1423C81.4736 19.4039 80.7856 23.4295 80.7856 23.4295L83.4903 25.2606C83.4903 25.2606 86.0826 21.1878 85.3214 20.1101C84.5419 18.9932 83.8853 18.7787 82.4545 19.1423Z" fill="#FAFAFA"/>
<path d="M82.3655 20.6099L84.4581 21.0964L84.6595 23.1498C84.3034 23.8756 83.9105 24.5827 83.4824 25.2685L81.8633 24.1621C81.9208 23.2099 82.0987 21.2481 82.3655 20.6099Z" fill="#FAE653"/>
<path opacity="0.3" d="M82.3655 20.6099L84.4581 21.0964L84.6595 23.1498C84.3034 23.8756 83.9105 24.5827 83.4824 25.2685L81.8633 24.1621C81.9208 23.2099 82.0987 21.2481 82.3655 20.6099Z" fill="#FAFAFA"/>
<path d="M73.4173 30.0683L71.7302 28.3472L71.5078 30.7589C71.5078 30.7589 72.7738 31.6143 73.6501 31.1539L73.4173 30.0683Z" fill="#E4897B"/>
<path d="M69.7445 28.1016L69.666 30.1314L71.5075 30.7696L71.7272 28.3579L69.7445 28.1016Z" fill="#E4897B"/>
<path d="M69.2264 58.4077L67.5366 56.731L70.8717 52.2764L72.5615 53.9505L69.2264 58.4077Z" fill="#E4897B"/>
<path d="M68.4837 55.5513L70.9216 56.6552C70.9641 56.6727 70.9984 56.7055 71.0178 56.7472C71.0372 56.7889 71.0402 56.8363 71.0262 56.8801L70.4325 58.9335C70.4156 58.9847 70.3881 59.0317 70.3519 59.0716C70.3157 59.1115 70.2715 59.1433 70.2221 59.1651C70.1728 59.1868 70.1195 59.1979 70.0656 59.1976C70.0117 59.1974 69.9584 59.1858 69.9093 59.1637C69.067 58.7635 68.6799 58.528 67.6074 58.0441C66.9483 57.7459 65.2271 57.0475 64.3168 56.6368C63.4065 56.2262 63.7649 55.3028 64.1808 55.3917C66.0484 55.7972 67.2726 55.7422 68.0626 55.5199C68.2024 55.4814 68.3512 55.4925 68.4837 55.5513Z" fill="#263238"/>
<path d="M73.3018 54.3847L74.9 56.7441L76.956 55.5409L75.3578 53.1841L73.3018 54.3847Z" fill="#CE6F64"/>
<path d="M72.5614 53.9505L70.869 52.2764L69.1504 54.573L70.8428 56.2497L72.5614 53.9505Z" fill="#CE6F64"/>
<path d="M93.2603 33.5133H83.582C81.3089 19.5425 82.4441 19.1449 82.4441 19.1449C82.4441 19.1449 84.0005 18.8258 85.6301 18.6218C85.91 18.5878 86.1899 18.5564 86.4672 18.5302C87.9293 18.4255 89.397 18.4255 90.8591 18.5302C91.1363 18.5433 91.4136 18.5642 91.6856 18.5878C92.7864 18.6875 93.8806 18.849 94.9632 19.0717C93.0929 27.1518 93.1112 29.5766 93.2603 33.5133Z" fill="#FAE653"/>
<path opacity="0.6" d="M93.2603 33.5133H83.582C81.3089 19.5425 82.4441 19.1449 82.4441 19.1449C82.4441 19.1449 84.0005 18.8258 85.6301 18.6218C85.91 18.5878 86.1899 18.5564 86.4672 18.5302C87.9293 18.4255 89.397 18.4255 90.8591 18.5302C91.1363 18.5433 91.4136 18.5642 91.6856 18.5878C92.7864 18.6875 93.8806 18.849 94.9632 19.0717C93.0929 27.1518 93.1112 29.5766 93.2603 33.5133Z" fill="#FAFAFA"/>
<path d="M91.6961 18.5904L91.5915 18.8363C91.5365 18.9723 90.1894 22.1374 87.5789 24.2509L86.9406 24.7741L86.4515 24.1123C84.984 22.1243 85.4235 19.5399 85.6406 18.6323C85.9205 18.5983 86.2004 18.5669 86.4776 18.5407C87.9397 18.436 89.4074 18.436 90.8695 18.5407C91.1468 18.5459 91.4241 18.5669 91.6961 18.5904Z" fill="#FAE653"/>
<path opacity="0.1" d="M91.6961 18.5904L91.5915 18.8363C91.5365 18.9723 90.1894 22.1374 87.5789 24.2509L86.9406 24.7741L86.4515 24.1123C84.984 22.1243 85.4235 19.5399 85.6406 18.6323C85.9205 18.5983 86.2004 18.5669 86.4776 18.5407C87.9397 18.436 89.4074 18.436 90.8695 18.5407C91.1468 18.5459 91.4241 18.5669 91.6961 18.5904Z" fill="#FAFAFA"/>
<path d="M86.0042 6.48989C83.8907 5.5456 82.6194 9.13705 82.7633 11.6796C82.9071 14.2221 83.2864 17.3401 82.1721 16.8169C81.0578 16.2938 81.8477 15.5091 81.8477 15.5091C81.8477 15.5091 80.2783 16.7516 82.0596 17.4343C83.841 18.117 87.0087 18.0516 88.8606 17.1727C89.92 15.5745 89.4649 9.60004 89.4649 9.60004L86.0042 6.48989Z" fill="#263238"/>
<path d="M90.4327 13.5891C90.158 15.0016 89.8807 17.5912 90.8695 18.5329C90.8695 18.5329 89.5616 21.6274 87.0845 23.6389C85.5307 21.5332 86.4776 18.5329 86.4776 18.5329C88.0471 18.1562 88.0131 16.987 87.7384 15.891L90.4327 13.5891Z" fill="#E4897B"/>
<path d="M89.3339 14.5281L87.7383 15.8883C87.8075 16.1451 87.8531 16.4078 87.8743 16.673C88.4759 16.5867 89.3025 15.9249 89.3679 15.2945C89.4039 15.0391 89.3924 14.7793 89.3339 14.5281Z" fill="#CE6F64"/>
<path d="M90.5997 9.86691C90.8613 12.2211 91.0366 13.202 90.0766 14.6015C88.6327 16.7098 85.6899 16.5319 84.7221 14.3137C83.8511 12.3179 83.5502 8.82061 85.6586 7.48395C86.1218 7.18781 86.6531 7.01512 87.202 6.98231C87.7508 6.94949 88.2989 7.05765 88.7942 7.29649C89.2894 7.53533 89.7153 7.8969 90.0313 8.34681C90.3474 8.79673 90.543 9.32002 90.5997 9.86691Z" fill="#E4897B"/>
<path d="M85.9202 8.25034C86.7651 9.24171 89.3207 12.1269 91.1047 11.7529C92.9357 11.3683 92.9985 7.95999 90.7908 6.55009C88.5831 5.14019 83.6523 5.5901 85.9202 8.25034Z" fill="#263238"/>
<path d="M91.2121 4.11215C89.5302 3.55499 89.3811 5.1977 89.5119 6.22046L91.5783 7.74023C92.2387 7.63603 92.878 7.42673 93.4721 7.12029C94.283 6.6573 92.8941 4.66931 91.2121 4.11215Z" fill="#263238"/>
<path d="M91.5914 11.8836C91.5427 12.3362 91.3251 12.7537 90.9819 13.0528C90.5216 13.4426 90.0638 13.0973 89.9984 12.5297C89.9409 12.0222 90.1109 11.2218 90.6654 11.0361C91.22 10.8504 91.6437 11.329 91.5914 11.8836Z" fill="#E4897B"/>
<path d="M74.1491 43.7803C74.0785 45.9043 74.7272 48.4887 75.4387 50.6441C75.5904 51.1045 75.7447 51.5465 75.8965 51.952C76.5452 53.7202 77.1259 54.9523 77.1259 54.9523L74.2773 56.5741C74.2773 56.5741 73.8902 56.0875 73.3199 55.2322C73.0583 54.8555 72.7811 54.403 72.475 53.8903C70.8794 51.2222 68.792 46.8617 68.6926 42.2213C68.5357 34.9599 83.5868 33.5134 83.5868 33.5134H90.7043L88.7111 39.1766C88.7111 39.1766 74.2773 39.9168 74.1491 43.7803Z" fill="#FAE653"/>
<path opacity="0.6" d="M74.1491 43.7803C74.0785 45.9043 74.7272 48.4887 75.4387 50.6441C75.5904 51.1045 75.7447 51.5465 75.8965 51.952C76.5452 53.7202 77.1259 54.9523 77.1259 54.9523L74.2773 56.5741C74.2773 56.5741 73.8902 56.0875 73.3199 55.2322C73.0583 54.8555 72.7811 54.403 72.475 53.8903C70.8794 51.2222 68.792 46.8617 68.6926 42.2213C68.5357 34.9599 83.5868 33.5134 83.5868 33.5134H90.7043L88.7111 39.1766C88.7111 39.1766 74.2773 39.9168 74.1491 43.7803Z" fill="black"/>
<path d="M75.8967 51.9652C75.5252 52.5825 74.5208 54.1546 73.3254 55.2323C73.0638 54.8556 72.7865 54.4031 72.4805 53.8904L75.4389 50.6521C75.5854 51.1046 75.7449 51.5545 75.8967 51.9652Z" fill="#263238"/>
<path d="M78.3478 37.7642L78.0444 40.8508C75.9518 41.5099 74.3195 42.4202 74.16 43.6392C73.8042 40.9031 75.7085 39.297 78.3478 37.7642Z" fill="#263238"/>
<path d="M86.1454 33.5107C86.1454 33.5107 77.2361 37.1467 75.8785 41.1645C74.1469 46.2914 69.4385 53.5371 69.4385 53.5371L71.416 56.111C71.416 56.111 76.8516 50.8428 80.5555 44.8109C85.1959 37.2251 96.3757 45.2372 93.2734 33.5107H86.1454Z" fill="#FAE653"/>
<path opacity="0.6" d="M86.1454 33.5107C86.1454 33.5107 77.2361 37.1467 75.8785 41.1645C74.1469 46.2914 69.4385 53.5371 69.4385 53.5371L71.416 56.111C71.416 56.111 76.8516 50.8428 80.5555 44.8109C85.1959 37.2251 96.3757 45.2372 93.2734 33.5107H86.1454Z" fill="black"/>
<path d="M87.1944 11.1459C87.2284 11.3342 87.1551 11.5069 87.0322 11.5278C86.9092 11.5487 86.7706 11.4153 86.7471 11.2244C86.7235 11.0334 86.7863 10.866 86.9092 10.8425C87.0322 10.8189 87.1604 10.9575 87.1944 11.1459Z" fill="#263238"/>
<path d="M85.0572 11.5279C85.0912 11.7162 85.0179 11.8889 84.895 11.9098C84.772 11.9307 84.6334 11.7973 84.6099 11.609C84.5863 11.4206 84.6491 11.248 84.772 11.2245C84.895 11.2009 85.0232 11.3448 85.0572 11.5279Z" fill="#263238"/>
<path d="M84.8293 11.2269L84.3506 11.1772C84.3506 11.1772 84.6488 11.4885 84.8293 11.2269Z" fill="#263238"/>
<path d="M85.6799 11.7529C85.5888 12.2139 85.4348 12.6601 85.2222 13.0791C85.3316 13.1299 85.4507 13.1562 85.5714 13.1562C85.692 13.1562 85.8112 13.1299 85.9206 13.0791L85.6799 11.7529Z" fill="#DE5753"/>
<path d="M87.0081 13.5762C87.0008 13.5758 86.9937 13.5734 86.9877 13.5692C86.9817 13.5651 86.977 13.5593 86.9741 13.5526C86.9706 13.5436 86.9709 13.5336 86.9748 13.5248C86.9788 13.516 86.986 13.5091 86.995 13.5055C87.3529 13.3318 87.6328 13.0304 87.7797 12.6607C87.7812 12.6563 87.7835 12.6523 87.7865 12.6489C87.7896 12.6454 87.7933 12.6426 87.7975 12.6407C87.8016 12.6387 87.8061 12.6376 87.8107 12.6375C87.8153 12.6373 87.8199 12.6381 87.8242 12.6397C87.8332 12.6433 87.8407 12.65 87.845 12.6587C87.8494 12.6674 87.8503 12.6774 87.8477 12.6868C87.6923 13.0776 87.394 13.3947 87.0133 13.5736L87.0081 13.5762Z" fill="#263238"/>
<path d="M87.4324 10.2984C87.4142 10.2987 87.3965 10.2922 87.3827 10.2801C87.2758 10.1792 87.1469 10.1047 87.0061 10.0625C86.8653 10.0202 86.7166 10.0114 86.5719 10.0368C86.5628 10.0396 86.5532 10.0405 86.5437 10.0395C86.5343 10.0385 86.5251 10.0355 86.5168 10.0309C86.5085 10.0263 86.5012 10.02 86.4954 10.0125C86.4896 10.0049 86.4853 9.9963 86.4829 9.98709C86.478 9.96872 86.4805 9.94917 86.4898 9.93257C86.499 9.91597 86.5144 9.90363 86.5326 9.89816C86.7011 9.86251 86.8756 9.86765 87.0417 9.91315C87.2078 9.95865 87.3606 10.0432 87.4874 10.1597C87.5006 10.1734 87.5081 10.1917 87.5081 10.2107C87.5081 10.2298 87.5006 10.2481 87.4874 10.2618C87.4819 10.2719 87.474 10.2805 87.4645 10.2869C87.4549 10.2933 87.4439 10.2972 87.4324 10.2984Z" fill="#263238"/>
<path d="M83.8905 10.6778H83.8643C83.8466 10.6697 83.8327 10.6552 83.8254 10.6372C83.8181 10.6192 83.818 10.5991 83.8251 10.581C83.8902 10.4214 83.9926 10.2797 84.1236 10.1678C84.2547 10.0558 84.4106 9.97688 84.5784 9.9375C84.5971 9.93438 84.6163 9.93882 84.6318 9.94986C84.6473 9.9609 84.6577 9.97762 84.6608 9.99635C84.6639 10.0151 84.6595 10.0343 84.6484 10.0497C84.6374 10.0652 84.6207 10.0756 84.602 10.0787C84.4582 10.1148 84.325 10.1843 84.2132 10.2816C84.1014 10.3789 84.0141 10.5012 83.9585 10.6385C83.952 10.6508 83.9422 10.6611 83.9302 10.668C83.9181 10.675 83.9044 10.6783 83.8905 10.6778Z" fill="#263238"/>
<path d="M68.188 55.7476C67.8793 55.6874 67.3457 55.5461 67.228 55.2741C67.2088 55.2256 67.2023 55.1729 67.2092 55.1212C67.2161 55.0695 67.2361 55.0204 67.2673 54.9785C67.2819 54.951 67.3038 54.9279 67.3305 54.9118C67.3572 54.8957 67.3878 54.8871 67.419 54.887C67.7145 54.887 68.1775 55.6037 68.2272 55.6874C68.2315 55.6935 68.2338 55.7008 68.2338 55.7083C68.2338 55.7158 68.2315 55.7231 68.2272 55.7292C68.2228 55.7354 68.2169 55.7403 68.21 55.7435C68.2031 55.7467 68.1956 55.7481 68.188 55.7476ZM67.4033 54.9628C67.3855 54.963 67.3682 54.968 67.353 54.9772C67.3378 54.9864 67.3254 54.9995 67.317 55.0151C67.2936 55.0467 67.2785 55.0835 67.273 55.1223C67.2676 55.1612 67.2719 55.2007 67.2856 55.2375C67.3562 55.397 67.6544 55.5461 68.0938 55.6429C67.9264 55.3997 67.5942 54.9628 67.4033 54.9628Z" fill="#FAE653"/>
<path d="M68.1881 55.7476C68.182 55.7474 68.1761 55.7459 68.1707 55.7432C68.1652 55.7405 68.1605 55.7367 68.1567 55.7319C67.9867 55.4991 67.8349 54.8766 67.9814 54.6699C68.0056 54.6362 68.0408 54.612 68.0809 54.6015C68.121 54.591 68.1636 54.5948 68.2011 54.6124C68.2406 54.623 68.277 54.6428 68.3074 54.67C68.3379 54.6973 68.3615 54.7313 68.3764 54.7693C68.515 55.078 68.2378 55.6979 68.2247 55.7241C68.2218 55.7303 68.2174 55.7356 68.2119 55.7398C68.2065 55.7439 68.2001 55.7466 68.1933 55.7476H68.1881ZM68.1201 54.6778C68.1051 54.6772 68.0902 54.6805 68.0769 54.6873C68.0636 54.6942 68.0524 54.7044 68.0442 54.717C67.9343 54.8713 68.0442 55.3788 68.1828 55.6221C68.2482 55.452 68.4026 55.023 68.3032 54.8033C68.2921 54.7755 68.2748 54.7507 68.2526 54.7307C68.2304 54.7108 68.2038 54.6962 68.175 54.6882C68.1575 54.6814 68.1389 54.6779 68.1201 54.6778Z" fill="#FAE653"/>
<path d="M86.9665 10.8451L86.4878 10.7954C86.4878 10.7954 86.786 11.1067 86.9665 10.8451Z" fill="#263238"/>
<path d="M93.4067 32.946L93.4825 33.8092C93.5166 33.8772 93.4381 33.9452 93.3256 33.9452H83.5426C83.4563 33.9452 83.3831 33.9033 83.3778 33.8484L83.2915 32.9826C83.2915 32.9224 83.3621 32.8727 83.4563 32.8727H93.2471C93.2778 32.8701 93.3086 32.8754 93.3366 32.8883C93.3645 32.9011 93.3887 32.921 93.4067 32.946Z" fill="#FAE653"/>
<path opacity="0.2" d="M93.4067 32.946L93.4825 33.8092C93.5166 33.8772 93.4381 33.9452 93.3256 33.9452H83.5426C83.4563 33.9452 83.3831 33.9033 83.3778 33.8484L83.2915 32.9826C83.2915 32.9224 83.3621 32.8727 83.4563 32.8727H93.2471C93.2778 32.8701 93.3086 32.8754 93.3366 32.8883C93.3645 32.9011 93.3887 32.921 93.4067 32.946Z" fill="#FAFAFA"/>
<path d="M92.0908 34.0393H92.3524C92.4047 34.0393 92.4439 34.0131 92.4413 33.9791L92.3184 32.8544C92.3184 32.823 92.2687 32.7942 92.2164 32.7942H91.9548C91.9025 32.7942 91.8632 32.823 91.8658 32.8544L91.9888 33.9791C91.9914 34.0131 92.0385 34.0393 92.0908 34.0393Z" fill="#FAE653"/>
<path opacity="0.6" d="M92.0908 34.0393H92.3524C92.4047 34.0393 92.4439 34.0131 92.4413 33.9791L92.3184 32.8544C92.3184 32.823 92.2687 32.7942 92.2164 32.7942H91.9548C91.9025 32.7942 91.8632 32.823 91.8658 32.8544L91.9888 33.9791C91.9914 34.0131 92.0385 34.0393 92.0908 34.0393Z" fill="black"/>
<path d="M84.2803 34.0393H84.5418C84.5941 34.0393 84.636 34.0131 84.6308 33.9791L84.5078 32.8544C84.5078 32.823 84.4581 32.7942 84.4058 32.7942H84.1442C84.0919 32.7942 84.0527 32.823 84.0553 32.8544L84.1782 33.9791C84.1835 34.0131 84.2175 34.0393 84.2803 34.0393Z" fill="#FAE653"/>
<path opacity="0.6" d="M84.2803 34.0393H84.5418C84.5941 34.0393 84.636 34.0131 84.6308 33.9791L84.5078 32.8544C84.5078 32.823 84.4581 32.7942 84.4058 32.7942H84.1442C84.0919 32.7942 84.0527 32.823 84.0553 32.8544L84.1782 33.9791C84.1835 34.0131 84.2175 34.0393 84.2803 34.0393Z" fill="black"/>
<path d="M88.1855 34.0393H88.4471C88.4994 34.0393 88.5387 34.0131 88.536 33.9791L88.4131 32.8544C88.4131 32.823 88.3634 32.7942 88.3111 32.7942H88.0495C87.9972 32.7942 87.958 32.823 87.9606 32.8544L88.0835 33.9791C88.0887 34.0131 88.1411 34.0393 88.1855 34.0393Z" fill="#FAE653"/>
<path opacity="0.6" d="M88.1855 34.0393H88.4471C88.4994 34.0393 88.5387 34.0131 88.536 33.9791L88.4131 32.8544C88.4131 32.823 88.3634 32.7942 88.3111 32.7942H88.0495C87.9972 32.7942 87.958 32.823 87.9606 32.8544L88.0835 33.9791C88.0887 34.0131 88.1411 34.0393 88.1855 34.0393Z" fill="black"/>
<path d="M92.7004 22.8228L93.9481 23.8848C93.6866 25.2973 93.5035 26.4744 93.3884 27.5207C93.1556 26.4717 92.5618 23.6389 92.7004 22.8228Z" fill="#FAE653"/>
<path opacity="0.3" d="M92.7004 22.8228L93.9481 23.8848C93.6866 25.2973 93.5035 26.4744 93.3884 27.5207C93.1556 26.4717 92.5618 23.6389 92.7004 22.8228Z" fill="#FAFAFA"/>
<path d="M66.2651 26.8303H83.2362L85.6951 36.8487H68.7266L66.2651 26.8303Z" fill="#FAFAFA"/>
<path d="M74.8633 34.9834L85.2427 37.403L91.9024 35.5379L91.8344 34.9834H74.8633Z" fill="#FAFAFA"/>
<path d="M65.7446 26.8303H82.7131L85.1719 36.8487H68.2035L65.7446 26.8303Z" fill="#FAE653"/>
<path opacity="0.2" d="M65.7446 26.8303H82.7131L85.1719 36.8487H68.2035L65.7446 26.8303Z" fill="#FAFAFA"/>
<path d="M68.2036 36.8484L68.2716 37.4029H85.2427L85.1721 36.8484H68.2036Z" fill="#FAE653"/>
<path opacity="0.2" d="M68.2036 36.8484L68.2716 37.4029H85.2427L85.1721 36.8484H68.2036Z" fill="#FAFAFA"/>
<path d="M95.8862 21.7319C96.367 23.137 96.7739 24.5663 97.1051 26.0139C97.2778 26.7411 97.4217 27.4762 97.5315 28.24C97.5864 28.6219 97.6309 29.0116 97.6545 29.4197C97.6545 29.6237 97.6702 29.833 97.6545 30.0527V30.2227V30.3143L97.6414 30.4398C97.6219 30.6024 97.5869 30.7627 97.5368 30.9185C97.3584 31.4302 97.0544 31.8889 96.6526 32.2526C96.3319 32.5496 95.9813 32.8126 95.6063 33.0373C94.9318 33.4378 94.2216 33.7749 93.4849 34.0444C92.7708 34.3059 92.0515 34.5283 91.3321 34.7245C90.6128 34.9206 89.8935 35.0724 89.1427 35.1927L88.8472 33.9973C89.5037 33.7566 90.1812 33.5029 90.8299 33.2125C91.4786 32.9222 92.1378 32.6554 92.7447 32.3389C93.3445 32.0435 93.9193 31.6997 94.4632 31.3109C94.7004 31.1411 94.9195 30.9474 95.1172 30.7328C95.2495 30.5992 95.3481 30.436 95.4049 30.2567C95.4063 30.0353 95.3914 29.8141 95.3604 29.5949C95.3212 29.2784 95.2636 28.9488 95.2009 28.614C95.0675 27.947 94.8948 27.2669 94.7222 26.5842C94.5495 25.9015 94.3429 25.2188 94.1389 24.5387C93.9348 23.8586 93.7256 23.168 93.5215 22.5036L95.8862 21.7319Z" fill="#E4897B"/>
<path d="M94.9732 19.0744C95.9437 19.3674 97.4268 23.1707 97.4268 23.1707L93.668 25.8571C93.668 25.8571 91.9782 22.6057 92.3836 21.3554C92.8074 20.0501 93.8694 18.737 94.9732 19.0744Z" fill="#FAE653"/>
<path opacity="0.6" d="M94.9732 19.0744C95.9437 19.3674 97.4268 23.1707 97.4268 23.1707L93.668 25.8571C93.668 25.8571 91.9782 22.6057 92.3836 21.3554C92.8074 20.0501 93.8694 18.737 94.9732 19.0744Z" fill="#FAFAFA"/>
<path d="M89.3417 34.0836L87.0947 33.5107L88.1698 35.6818C88.1698 35.6818 89.6974 35.7472 90.2023 34.8971L89.3417 34.0836Z" fill="#E4897B"/>
<path d="M85.2612 34.3374L86.2578 36.103L88.1595 35.6819L87.0844 33.5134L85.2612 34.3374Z" fill="#E4897B"/>
<g filter="url(#filter0_d_1261_1072)">
<path d="M24.6857 15.9496L19.9055 20.86L20.5216 27.6852L15.6111 22.905L8.78596 23.5211L13.5661 18.6107L12.9501 11.7855L17.8605 16.5657L24.6857 15.9496Z" fill="white"/>
</g>
<g filter="url(#filter1_d_1261_1072)">
<path d="M129.283 65.0266L127.566 71.6611L131.486 77.2827L124.851 75.5663L119.229 79.4855L120.946 72.851L117.027 67.2295L123.661 68.9458L129.283 65.0266Z" fill="white"/>
</g>
<g filter="url(#filter2_d_1261_1072)">
<path d="M114.682 16.0572L107.892 15.1309L102.769 19.6824L103.695 12.8924L99.1439 7.76925L105.934 8.69561L111.057 4.1441L110.131 10.9341L114.682 16.0572Z" fill="white"/>
</g>
<defs>
<filter id="filter0_d_1261_1072" x="4.78613" y="7.7854" width="23.8994" height="23.8999" filterUnits="userSpaceOnUse" color-interpolation-filters="sRGB">
<feFlood flood-opacity="0" result="BackgroundImageFix"/>
<feColorMatrix in="SourceAlpha" type="matrix" values="0 0 0 0 0 0 0 0 0 0 0 0 0 0 0 0 0 0 127 0" result="hardAlpha"/>
<feOffset/>
<feGaussianBlur stdDeviation="2"/>
<feComposite in2="hardAlpha" operator="out"/>
<feColorMatrix type="matrix" values="0 0 0 0 1 0 0 0 0 1 0 0 0 0 1 0 0 0 1 0"/>
<feBlend mode="normal" in2="BackgroundImageFix" result="effect1_dropShadow_1261_1072"/>
<feBlend mode="normal" in="SourceGraphic" in2="effect1_dropShadow_1261_1072" result="shape"/>
</filter>
<filter id="filter1_d_1261_1072" x="113.027" y="61.0266" width="22.4585" height="22.459" filterUnits="userSpaceOnUse" color-interpolation-filters="sRGB">
<feFlood flood-opacity="0" result="BackgroundImageFix"/>
<feColorMatrix in="SourceAlpha" type="matrix" values="0 0 0 0 0 0 0 0 0 0 0 0 0 0 0 0 0 0 127 0" result="hardAlpha"/>
<feOffset/>
<feGaussianBlur stdDeviation="2"/>
<feComposite in2="hardAlpha" operator="out"/>
<feColorMatrix type="matrix" values="0 0 0 0 1 0 0 0 0 1 0 0 0 0 1 0 0 0 1 0"/>
<feBlend mode="normal" in2="BackgroundImageFix" result="effect1_dropShadow_1261_1072"/>
<feBlend mode="normal" in="SourceGraphic" in2="effect1_dropShadow_1261_1072" result="shape"/>
</filter>
<filter id="filter2_d_1261_1072" x="95.144" y="0.144043" width="23.5381" height="23.5383" filterUnits="userSpaceOnUse" color-interpolation-filters="sRGB">
<feFlood flood-opacity="0" result="BackgroundImageFix"/>
<feColorMatrix in="SourceAlpha" type="matrix" values="0 0 0 0 0 0 0 0 0 0 0 0 0 0 0 0 0 0 127 0" result="hardAlpha"/>
<feOffset/>
<feGaussianBlur stdDeviation="2"/>
<feComposite in2="hardAlpha" operator="out"/>
<feColorMatrix type="matrix" values="0 0 0 0 1 0 0 0 0 1 0 0 0 0 1 0 0 0 1 0"/>
<feBlend mode="normal" in2="BackgroundImageFix" result="effect1_dropShadow_1261_1072"/>
<feBlend mode="normal" in="SourceGraphic" in2="effect1_dropShadow_1261_1072" result="shape"/>
</filter>
<linearGradient id="paint0_linear_1261_1072" x1="46.96" y1="16.7622" x2="46.96" y2="91.139" gradientUnits="userSpaceOnUse">
<stop stop-color="#FAE653"/>
<stop offset="1" stop-color="#FBB502"/>
</linearGradient>
<linearGradient id="paint1_linear_1261_1072" x1="42.5049" y1="16.7622" x2="42.5049" y2="91.139" gradientUnits="userSpaceOnUse">
<stop stop-color="#FAE653"/>
<stop offset="1" stop-color="#FBB502"/>
</linearGradient>
<linearGradient id="paint2_linear_1261_1072" x1="86.4517" y1="65.4912" x2="86.4517" y2="91.1482" gradientUnits="userSpaceOnUse">
<stop stop-color="#FAE653"/>
<stop offset="1" stop-color="#FBB502"/>
</linearGradient>
<linearGradient id="paint3_linear_1261_1072" x1="97.558" y1="65.491" x2="97.558" y2="39.8564" gradientUnits="userSpaceOnUse">
<stop offset="0.00480769" stop-color="#FAE653"/>
<stop offset="1" stop-color="#FBB502"/>
</linearGradient>
</defs>
</svg>
