<svg width="122" height="96" viewBox="0 0 122 96" fill="none" xmlns="http://www.w3.org/2000/svg">
<g filter="url(#filter0_dd_1261_1073)">
<path d="M30.6857 41.1641L25.9055 46.0745L26.5216 52.8997L21.6111 48.1195L14.786 48.7356L19.5661 43.8251L18.9501 37L23.8605 41.7802L30.6857 41.1641Z" fill="white"/>
</g>
<g filter="url(#filter1_dd_1261_1073)">
<path d="M117.686 8.16408L112.905 13.0745L113.522 19.8997L108.611 15.1195L101.786 15.7356L106.566 10.8251L105.95 3.99999L110.86 8.78015L117.686 8.16408Z" fill="white"/>
</g>
<path d="M59.5737 95.4261C91.2894 95.4261 117 93.925 117 92.0733C117 90.2217 91.2894 88.7206 59.5737 88.7206C27.8581 88.7206 2.14746 90.2217 2.14746 92.0733C2.14746 93.925 27.8581 95.4261 59.5737 95.4261Z" fill="#F5F5F5"/>
<path d="M0 13.3843L67.5201 23.1049L76.5802 32.248L0 13.3843Z" fill="#FAE653"/>
<path opacity="0.6" d="M0 13.3843L67.5201 23.1049L76.5802 32.248L0 13.3843Z" fill="white"/>
<path d="M0 13.3843L67.5201 23.1049L64.3865 36.3264L0 13.3843Z" fill="#8D5293"/>
<path opacity="0.2" d="M0 13.3843L67.5201 23.1049L64.3865 36.3264L0 13.3843Z" fill="black"/>
<path d="M0 13.3843L55.6907 26.6205L64.3865 36.3264L0 13.3843Z" fill="#FAE653"/>
<path opacity="0.6" d="M0 13.3843L55.6907 26.6205L64.3865 36.3264L0 13.3843Z" fill="white"/>
<path d="M20.3147 26.1423L20.165 26.3978L26.3625 30.028L26.5122 29.7725L20.3147 26.1423Z" fill="#FAE653"/>
<path d="M29.2483 31.3729L29.0986 31.6284L31.3271 32.9338L31.4768 32.6782L29.2483 31.3729Z" fill="#FAE653"/>
<path d="M0 13.3843L55.6907 26.6205L44.8653 39.6673L0 13.3843Z" fill="url(#paint0_linear_1261_1073)"/>
<path d="M74.4893 44.3943C74.4143 44.3945 74.3399 44.3804 74.2701 44.3528L65.2011 40.7632C65.056 40.7047 64.9399 40.5912 64.8782 40.4475C64.8164 40.3038 64.814 40.1415 64.8715 39.996C64.929 39.8505 65.0417 39.7337 65.185 39.671C65.3283 39.6083 65.4906 39.6048 65.6365 39.6614L74.7085 43.2511C74.8368 43.3018 74.9434 43.3957 75.0099 43.5167C75.0763 43.6376 75.0985 43.778 75.0725 43.9135C75.0465 44.049 74.974 44.1712 74.8676 44.259C74.7611 44.3468 74.6273 44.3947 74.4893 44.3943Z" fill="#8D5293"/>
<path opacity="0.3" d="M74.4893 44.3943C74.4143 44.3945 74.3399 44.3804 74.2701 44.3528L65.2011 40.7632C65.056 40.7047 64.9399 40.5912 64.8782 40.4475C64.8164 40.3038 64.814 40.1415 64.8715 39.996C64.929 39.8505 65.0417 39.7337 65.185 39.671C65.3283 39.6083 65.4906 39.6048 65.6365 39.6614L74.7085 43.2511C74.8368 43.3018 74.9434 43.3957 75.0099 43.5167C75.0763 43.6376 75.0985 43.778 75.0725 43.9135C75.0465 44.049 74.974 44.1712 74.8676 44.259C74.7611 44.3468 74.6273 44.3947 74.4893 44.3943Z" fill="black"/>
<path d="M73.953 39.1933C73.8787 39.1928 73.8053 39.1777 73.7368 39.1489L68.8646 37.2089C68.7918 37.1807 68.7253 37.1383 68.6689 37.0843C68.6125 37.0302 68.5673 36.9656 68.536 36.894C68.5047 36.8224 68.4878 36.7454 68.4864 36.6672C68.485 36.5891 68.4991 36.5115 68.5278 36.4389C68.5565 36.3662 68.5993 36.3 68.6537 36.2439C68.7081 36.1879 68.7731 36.1431 68.8449 36.1123C68.9166 36.0815 68.9938 36.0651 69.0719 36.0642C69.15 36.0634 69.2276 36.0779 69.3 36.1071L74.1722 38.0382C74.3182 38.0957 74.4354 38.2087 74.4982 38.3525C74.5609 38.4964 74.5641 38.6592 74.5069 38.8053C74.4652 38.9188 74.3897 39.0168 74.2907 39.0861C74.1917 39.1555 74.0739 39.1929 73.953 39.1933Z" fill="#FAE653"/>
<path opacity="0.5" d="M73.953 39.1933C73.8787 39.1928 73.8053 39.1777 73.7368 39.1489L68.8646 37.2089C68.7918 37.1807 68.7253 37.1383 68.6689 37.0843C68.6125 37.0302 68.5673 36.9656 68.536 36.894C68.5047 36.8224 68.4878 36.7454 68.4864 36.6672C68.485 36.5891 68.4991 36.5115 68.5278 36.4389C68.5565 36.3662 68.5993 36.3 68.6537 36.2439C68.7081 36.1879 68.7731 36.1431 68.8449 36.1123C68.9166 36.0815 68.9938 36.0651 69.0719 36.0642C69.15 36.0634 69.2276 36.0779 69.3 36.1071L74.1722 38.0382C74.3182 38.0957 74.4354 38.2087 74.4982 38.3525C74.5609 38.4964 74.5641 38.6592 74.5069 38.8053C74.4652 38.9188 74.3897 39.0168 74.2907 39.0861C74.1917 39.1555 74.0739 39.1929 73.953 39.1933Z" fill="white"/>
<path d="M63.7676 44.3173C63.6936 44.3164 63.6204 44.3024 63.5514 44.2758L54.7045 40.7631C54.6316 40.7349 54.5651 40.6925 54.5087 40.6385C54.4523 40.5844 54.4071 40.5198 54.3758 40.4482C54.3445 40.3766 54.3277 40.2996 54.3263 40.2214C54.3249 40.1433 54.3389 40.0657 54.3676 39.9931C54.3963 39.9204 54.4391 39.8542 54.4936 39.7981C54.548 39.7421 54.6129 39.6973 54.6847 39.6665C54.7565 39.6357 54.8337 39.6193 54.9118 39.6184C54.9899 39.6176 55.0674 39.6321 55.1399 39.6613L63.9868 43.1622C64.1151 43.2129 64.2217 43.3068 64.2882 43.4278C64.3546 43.5487 64.3768 43.689 64.3508 43.8246C64.3248 43.9601 64.2523 44.0823 64.1459 44.1701C64.0394 44.2579 63.9056 44.3058 63.7676 44.3054V44.3173Z" fill="#8D5293"/>
<path opacity="0.3" d="M63.7676 44.3173C63.6936 44.3164 63.6204 44.3024 63.5514 44.2758L54.7045 40.7631C54.6316 40.7349 54.5651 40.6925 54.5087 40.6385C54.4523 40.5844 54.4071 40.5198 54.3758 40.4482C54.3445 40.3766 54.3277 40.2996 54.3263 40.2214C54.3249 40.1433 54.3389 40.0657 54.3676 39.9931C54.3963 39.9204 54.4391 39.8542 54.4936 39.7981C54.548 39.7421 54.6129 39.6973 54.6847 39.6665C54.7565 39.6357 54.8337 39.6193 54.9118 39.6184C54.9899 39.6176 55.0674 39.6321 55.1399 39.6613L63.9868 43.1622C64.1151 43.2129 64.2217 43.3068 64.2882 43.4278C64.3546 43.5487 64.3768 43.689 64.3508 43.8246C64.3248 43.9601 64.2523 44.0823 64.1459 44.1701C64.0394 44.2579 63.9056 44.3058 63.7676 44.3054V44.3173Z" fill="black"/>
<path d="M95.7966 17.6078C96.5815 19.139 97.3012 20.6732 97.9854 22.243C98.6696 23.8128 99.3064 25.4032 99.8632 27.0707L100.065 27.7016C100.1 27.8141 100.15 27.9978 100.18 28.1281C100.21 28.2584 100.236 28.4065 100.251 28.5309C100.319 29.0087 100.354 29.4907 100.355 29.9733C100.359 30.8634 100.318 31.7531 100.23 32.6389C100.065 34.3537 99.796 36.0569 99.4248 37.7391L97.7988 37.5584C97.7781 35.891 97.7633 34.2057 97.704 32.5619C97.6774 31.7444 97.63 30.924 97.547 30.154C97.5095 29.7923 97.4501 29.4333 97.3693 29.0788C97.3545 28.9959 97.3308 28.9337 97.3131 28.8656C97.2953 28.7975 97.2775 28.7738 97.2479 28.6849L97.0228 28.1251C96.4038 26.6265 95.7078 25.1159 94.9969 23.6113L92.8467 19.0976L95.7966 17.6078Z" fill="#E4897B"/>
<path d="M97.8222 37.0372L97.064 38.4559L99.4867 39.1312C99.4867 39.1312 99.9488 37.9909 99.3979 37.0905L97.8222 37.0372Z" fill="#E4897B"/>
<path d="M96.1372 40.4996L98.3645 40.6773L99.487 39.1312L97.0642 38.4559L96.1372 40.4996Z" fill="#E4897B"/>
<path d="M85.5989 7.37183C85.5663 7.54657 85.4449 7.66801 85.3323 7.64431C85.2198 7.62062 85.1576 7.46365 85.1931 7.29186C85.2286 7.12008 85.3471 6.99568 85.4597 7.01938C85.5722 7.04307 85.6374 7.20004 85.5989 7.37183Z" fill="#263238"/>
<path d="M85.4629 7.66797C85.15 8.15253 84.7723 8.59199 84.3403 8.97412C84.4412 9.08142 84.5641 9.16558 84.7006 9.22081C84.8372 9.27603 84.984 9.301 85.1311 9.294L85.4629 7.66797Z" fill="#DE5753"/>
<path d="M86.4225 6.54553C86.3945 6.54482 86.3679 6.53311 86.3485 6.51295C86.2634 6.41562 86.1566 6.3397 86.0367 6.29133C85.9168 6.24297 85.7872 6.22351 85.6584 6.23454C85.6339 6.23478 85.61 6.2263 85.5911 6.21062C85.5723 6.19494 85.5596 6.17307 85.5553 6.1489C85.551 6.12473 85.5555 6.09983 85.5678 6.07863C85.5802 6.05743 85.5997 6.04131 85.6229 6.03314C85.7876 6.01226 85.9549 6.03244 86.1099 6.09187C86.2649 6.15129 86.4028 6.24812 86.5114 6.37374C86.5304 6.39312 86.541 6.41917 86.541 6.44631C86.541 6.47344 86.5304 6.49949 86.5114 6.51887C86.4995 6.52972 86.4854 6.53775 86.47 6.54237C86.4546 6.54698 86.4384 6.54806 86.4225 6.54553Z" fill="#263238"/>
<path d="M90.4976 9.79163C90.1867 11.3851 89.8757 14.2995 90.9893 15.3628C90.9893 15.3628 90.5539 16.9769 87.5951 16.9769C84.3371 16.9769 86.0431 15.3628 86.0431 15.3628C87.8202 14.9392 87.7698 13.6212 87.4618 12.3862L90.4976 9.79163Z" fill="#E4897B"/>
<path d="M91.4368 16.3668C91.6707 15.5879 91.9284 14.6964 91.3953 14.415C90.8029 14.1188 87.5835 13.793 86.4728 14.3706C85.3621 14.9481 85.679 16.5327 85.679 16.5327L91.4368 16.3668Z" fill="#263238"/>
<path d="M98.2665 90.2251C98.1745 90.2374 98.081 90.2311 97.9915 90.2067C97.902 90.1823 97.8183 90.1402 97.7452 90.083C97.7194 90.0472 97.7056 90.0042 97.7056 89.96C97.7056 89.9159 97.7194 89.8729 97.7452 89.8371C97.7622 89.8064 97.7854 89.7797 97.8135 89.7588C97.8416 89.7378 97.8739 89.7232 97.9081 89.7157C98.228 89.6446 98.8263 90.0533 98.8529 90.0711C98.8606 90.0775 98.8665 90.0858 98.8702 90.0951C98.8738 90.1044 98.875 90.1145 98.8737 90.1244C98.872 90.134 98.8674 90.1429 98.8605 90.1498C98.8536 90.1566 98.8448 90.1612 98.8352 90.1629C98.6483 90.2033 98.4577 90.2241 98.2665 90.2251ZM97.994 89.8105H97.9318C97.9118 89.8146 97.8929 89.8231 97.8765 89.8354C97.8601 89.8477 97.8466 89.8635 97.837 89.8816C97.7897 89.9645 97.8193 90 97.837 90.0119C97.9289 90.1363 98.3731 90.1363 98.6989 90.083C98.4867 89.9428 98.2459 89.8518 97.994 89.8164V89.8105Z" fill="#FAE653"/>
<path d="M98.8236 90.1719H98.7999C98.5748 90.0475 98.1394 89.5795 98.1838 89.3307C98.1914 89.2923 98.2121 89.2577 98.2423 89.2328C98.2726 89.208 98.3105 89.1944 98.3497 89.1945C98.3887 89.1902 98.4282 89.1938 98.4658 89.205C98.5034 89.2162 98.5385 89.2348 98.5689 89.2596C98.8206 89.4669 98.865 90.0948 98.865 90.1215C98.8663 90.1309 98.8647 90.1404 98.8604 90.1488C98.8562 90.1573 98.8496 90.1642 98.8413 90.1689C98.8357 90.1712 98.8296 90.1722 98.8236 90.1719ZM98.3852 89.2833H98.3734C98.3053 89.2833 98.2993 89.3248 98.2964 89.3366C98.2697 89.4817 98.5481 89.8401 98.7703 90.0089C98.7553 89.7615 98.6666 89.5243 98.5156 89.3277C98.4956 89.3122 98.4728 89.3007 98.4484 89.2941C98.4239 89.2875 98.3984 89.2858 98.3734 89.2892L98.3852 89.2833Z" fill="#FAE653"/>
<path d="M85.2023 90.2251C84.9238 90.2251 84.6543 90.1866 84.5625 90.0622C84.5393 90.0292 84.5269 89.9899 84.5269 89.9496C84.5269 89.9093 84.5393 89.87 84.5625 89.8371C84.5805 89.8067 84.6044 89.7802 84.633 89.7593C84.6615 89.7385 84.6939 89.7236 84.7284 89.7157C85.0867 89.6179 85.8509 90.0503 85.8835 90.0681C85.8922 90.0737 85.899 90.0818 85.9033 90.0912C85.9075 90.1007 85.9088 90.1112 85.9072 90.1214C85.9054 90.1318 85.9005 90.1414 85.8931 90.1488C85.8857 90.1563 85.8761 90.1612 85.8657 90.1629C85.6469 90.2041 85.4248 90.2249 85.2023 90.2251ZM84.8557 89.8045C84.8233 89.7998 84.7904 89.7998 84.758 89.8045C84.7371 89.8086 84.7174 89.8171 84.7001 89.8293C84.6827 89.8416 84.6681 89.8573 84.6573 89.8756C84.6188 89.9408 84.6336 89.9704 84.6573 89.9881C84.755 90.1244 85.3059 90.1333 85.7146 90.077C85.4484 89.9332 85.1566 89.8427 84.8557 89.8104V89.8045Z" fill="#FAE653"/>
<path d="M85.8594 90.1718H85.8387C85.5751 90.0563 85.0568 89.5794 85.0953 89.3395C85.0953 89.2803 85.1456 89.2092 85.2878 89.1944C85.3407 89.1864 85.3947 89.1902 85.4459 89.2055C85.4971 89.2209 85.5443 89.2475 85.584 89.2833C85.8624 89.5084 85.9187 90.0948 85.9216 90.1214C85.9228 90.1305 85.9215 90.1397 85.9178 90.148C85.9142 90.1564 85.9083 90.1636 85.9009 90.1688C85.8946 90.1723 85.8876 90.1743 85.8805 90.1748C85.8733 90.1753 85.8662 90.1743 85.8594 90.1718ZM85.3293 89.2833H85.2967C85.2049 89.2833 85.199 89.3306 85.196 89.3425C85.1723 89.4906 85.5277 89.8608 85.7884 90.0207C85.7628 89.772 85.6591 89.5376 85.4922 89.3514C85.4499 89.3148 85.3969 89.293 85.3411 89.2892L85.3293 89.2833Z" fill="#FAE653"/>
<path d="M88.253 90.1185H86.0761L85.8599 85.0804H88.0368L88.253 90.1185Z" fill="#E4897B"/>
<path d="M101.317 90.1185H99.1403L98.0474 85.0804H100.221L101.317 90.1185Z" fill="#E4897B"/>
<path d="M98.9861 89.8668H101.43C101.473 89.8671 101.515 89.8823 101.549 89.9097C101.583 89.9371 101.607 89.9753 101.616 90.0179L102.046 91.9519C102.055 91.999 102.055 92.0477 102.043 92.0944C102.031 92.1411 102.009 92.1846 101.979 92.2216C101.948 92.2586 101.909 92.2882 101.865 92.3081C101.822 92.3281 101.774 92.338 101.726 92.337C100.873 92.3222 100.458 92.2718 99.383 92.2718C98.7225 92.2718 97.3601 92.3429 96.4449 92.3429C95.5297 92.3429 95.4142 91.4543 95.7874 91.3566C97.4637 90.9893 98.0946 90.4829 98.6307 90.0031C98.7281 89.915 98.8548 89.8664 98.9861 89.8668Z" fill="#263238"/>
<path d="M86.0907 89.8668H88.4601C88.5038 89.8671 88.546 89.8823 88.5799 89.9097C88.6138 89.9371 88.6373 89.9753 88.6467 90.0179L89.0762 91.9519C89.0865 91.9986 89.0861 92.047 89.075 92.0934C89.0639 92.1399 89.0425 92.1833 89.0123 92.2203C88.9821 92.2574 88.9439 92.2871 88.9006 92.3073C88.8573 92.3275 88.81 92.3376 88.7622 92.337C87.9063 92.3221 86.6683 92.2718 85.5902 92.2718C84.3314 92.2718 83.2415 92.3429 81.7635 92.3429C80.875 92.3429 80.6232 91.4543 80.9964 91.3566C82.6994 90.9834 84.0885 90.9449 85.5605 90.0386C85.7173 89.932 85.9012 89.8724 86.0907 89.8668Z" fill="#263238"/>
<path d="M85.045 19.1835C83.2255 19.0425 81.4152 18.8023 79.6219 18.4638C78.7334 18.292 77.8271 18.0995 76.9267 17.8566C76.0038 17.6204 75.0975 17.3236 74.2137 16.9681C73.9856 16.8733 73.7546 16.7697 73.5265 16.6719C73.2698 16.5454 73.0224 16.4009 72.7861 16.2395C72.3596 15.9581 71.9923 15.6649 71.628 15.3746C70.9024 14.7823 70.2301 14.1899 69.5548 13.5828C68.2309 12.3566 66.975 11.0889 65.7637 9.75612L66.8536 8.53882L71.1512 11.628C71.8591 12.1374 72.5758 12.6379 73.2807 13.1089C73.6302 13.3429 73.9886 13.562 74.3173 13.7486C74.4548 13.827 74.5973 13.8963 74.7438 13.9559C74.9186 14.0241 75.0963 14.0922 75.2829 14.1573C76.8836 14.6502 78.5206 15.0167 80.1787 15.2532C81.8699 15.5198 83.6174 15.7389 85.3056 15.9167L85.045 19.1835Z" fill="#E4897B"/>
<path d="M94.8841 15.8545C96.9248 16.3224 98.9862 22.2845 98.9862 22.2845L94.7893 25.2967C94.7893 25.2967 93.6046 22.5185 92.4613 20.0898C91.2648 17.5456 92.799 15.3776 94.8841 15.8545Z" fill="#8D5293"/>
<path opacity="0.4" d="M94.8841 15.8545C96.9248 16.3224 98.9862 22.2845 98.9862 22.2845L94.7893 25.2967C94.7893 25.2967 93.6046 22.5185 92.4613 20.0898C91.2648 17.5456 92.799 15.3776 94.8841 15.8545Z" fill="black"/>
<path d="M93.7082 19.1124L92.876 20.9754C93.7379 22.8354 94.5257 24.6776 94.736 25.1693C94.7064 22.9687 94.2888 20.2379 93.7082 19.1124Z" fill="#FAE653"/>
<path opacity="0.6" d="M93.7082 19.1124L92.876 20.9754C93.7379 22.8354 94.5257 24.6776 94.736 25.1693C94.7064 22.9687 94.2888 20.2379 93.7082 19.1124Z" fill="black"/>
<path d="M82.6966 15.967C82.6966 15.967 80.3804 18.5822 82.5662 34.7744H94.2031C94.2861 32.9973 93.1635 24.2718 94.8844 15.8544C93.5981 15.6067 92.2971 15.4425 90.9896 15.3628C89.3422 15.2679 87.6908 15.2679 86.0434 15.3628C84.9137 15.4766 83.7947 15.6786 82.6966 15.967Z" fill="#8D5293"/>
<path opacity="0.4" d="M82.6966 15.967C82.6966 15.967 80.3804 18.5822 82.5662 34.7744H94.2031C94.2861 32.9973 93.1635 24.2718 94.8844 15.8544C93.5981 15.6067 92.2971 15.4425 90.9896 15.3628C89.3422 15.2679 87.6908 15.2679 86.0434 15.3628C84.9137 15.4766 83.7947 15.6786 82.6966 15.967Z" fill="black"/>
<path d="M81.8344 19.1124C81.7574 19.7255 81.6982 20.4512 81.6597 21.3071C82.8089 20.9622 83.9008 20.4492 84.8999 19.7848L81.8344 19.1124Z" fill="#FAE653"/>
<path opacity="0.6" d="M81.8344 19.1124C81.7574 19.7255 81.6982 20.4512 81.6597 21.3071C82.8089 20.9622 83.9008 20.4492 84.8999 19.7848L81.8344 19.1124Z" fill="black"/>
<path d="M86.8223 19.4381C85.2643 20.8183 79.3171 20.6791 79.3171 20.6791L79.1216 14.9214C81.13 15.2075 83.1557 15.3539 85.1844 15.3597C88.4986 15.2916 88.5223 17.9158 86.8223 19.4381Z" fill="#8D5293"/>
<path opacity="0.4" d="M86.8223 19.4381C85.2643 20.8183 79.3171 20.6791 79.3171 20.6791L79.1216 14.9214C81.13 15.2075 83.1557 15.3539 85.1844 15.3597C88.4986 15.2916 88.5223 17.9158 86.8223 19.4381Z" fill="black"/>
<path d="M66.9103 8.55065L65.4294 6.80615L63.833 8.58323C63.833 8.58323 64.8163 10.2359 66.3772 9.97527L66.9103 8.55065Z" fill="#E4897B"/>
<path d="M63.3085 4.77136L62.7339 7.04898L63.8209 8.57135L65.4173 6.80612L63.3085 4.77136Z" fill="#E4897B"/>
<path d="M85.8599 85.0834L85.9724 87.6779H88.1493L88.0368 85.0834H85.8599Z" fill="#CE6F64"/>
<path d="M100.224 85.0834H98.0474L98.6101 87.6779H100.787L100.224 85.0834Z" fill="#CE6F64"/>
<path d="M87.1687 5.22157C85.2169 4.33303 84.6009 0.384951 90.2164 1.37123C90.2164 1.37123 89.3694 2.30716 91.0872 2.89952C92.805 3.49188 91.3686 7.14969 87.1687 5.22157Z" fill="#263238"/>
<path d="M91.4103 8.18336C90.8505 10.2566 90.6314 11.5183 89.3371 12.3862C87.4001 13.6893 84.9921 12.1936 84.9151 9.98118C84.847 7.99381 85.774 4.9165 88.0102 4.49593C88.5038 4.39915 89.0139 4.43044 89.492 4.58682C89.97 4.7432 90.4 5.01945 90.741 5.38922C91.0819 5.759 91.3225 6.20996 91.4397 6.6991C91.5568 7.18823 91.5467 7.69924 91.4103 8.18336Z" fill="#E4897B"/>
<path d="M90.1396 2.40783C91.4695 3.14828 93.2702 3.59255 93.1014 4.64695C92.8793 5.93533 94.1884 5.12973 93.8833 7.04601C93.6849 8.29885 91.3747 12.0959 89.7368 11.9122C87.2904 11.6161 87.6013 7.89604 87.5925 5.93533C87.5865 4.77727 87.5332 0.947667 90.1396 2.40783Z" fill="#263238"/>
<path d="M87.2992 4.06946C86.7069 4.20866 85.922 7.62361 88.2174 7.93756C90.8563 8.29594 87.2992 4.06946 87.2992 4.06946Z" fill="#263238"/>
<path d="M87.3583 5.28075C86.6327 5.34591 84.9889 4.47218 85.1903 3.15714C85.1903 3.14826 86.2299 4.69431 87.3583 5.28075Z" fill="#263238"/>
<path d="M88.4363 8.20997C88.2136 8.69831 87.8356 9.09924 87.3612 9.35026C86.7363 9.67606 86.3838 9.20218 86.526 8.57428C86.6533 8.01153 87.1331 7.1615 87.7758 7.09338C88.4186 7.02526 88.694 7.61761 88.4363 8.20997Z" fill="#E4897B"/>
<path d="M91.6943 5.81394C92.137 5.62186 92.525 5.323 92.8238 4.94411C93.1226 4.56523 93.3227 4.11816 93.4063 3.64294C93.4063 3.64294 94.3836 6.35891 91.6943 5.81394Z" fill="#263238"/>
<path d="M94.1643 5.76941C93.9582 5.63099 93.721 5.54582 93.4739 5.52153C93.2269 5.49723 92.9776 5.53457 92.7485 5.63021C92.7485 5.63021 93.6608 4.44845 94.1643 5.76941Z" fill="#263238"/>
<path d="M86.6948 34.7744C86.6948 34.7744 89.165 51.4019 90.5185 57.6306C91.9994 64.4427 97.5972 87.1775 97.5972 87.1775H101.581C101.581 87.1775 97.8934 65.0025 97.0463 58.2378C96.1281 50.9073 94.203 34.7626 94.203 34.7626L86.6948 34.7744Z" fill="#FAE653"/>
<path opacity="0.5" d="M86.6948 34.7744C86.6948 34.7744 89.165 51.4019 90.5185 57.6306C91.9994 64.4427 97.5972 87.1775 97.5972 87.1775H101.581C101.581 87.1775 97.8934 65.0025 97.0463 58.2378C96.1281 50.9073 94.203 34.7626 94.203 34.7626L86.6948 34.7744Z" fill="white"/>
<path d="M96.9605 85.7084C96.9427 85.7084 97.3722 87.2396 97.3722 87.2396H101.856L101.773 85.8742L96.9605 85.7084Z" fill="#FAE653"/>
<path opacity="0.1" d="M96.9605 85.7084C96.9427 85.7084 97.3722 87.2396 97.3722 87.2396H101.856L101.773 85.8742L96.9605 85.7084Z" fill="black"/>
<path d="M88.2555 40.698C91.1107 41.2578 90.8086 51.9055 90.465 57.3818C89.6416 53.5108 88.4362 46.0618 87.6128 40.775C87.812 40.6769 88.0387 40.6497 88.2555 40.698Z" fill="#FAE653"/>
<path opacity="0.4" d="M88.2555 40.698C91.1107 41.2578 90.8086 51.9055 90.465 57.3818C89.6416 53.5108 88.4362 46.0618 87.6128 40.775C87.812 40.6769 88.0387 40.6497 88.2555 40.698Z" fill="white"/>
<path d="M82.5663 34.7744C82.5663 34.7744 82.2701 51.0406 82.5041 57.678C82.7499 64.579 85.1697 87.1775 85.1697 87.1775H88.8541C88.8541 87.1775 88.9904 64.9818 89.1503 58.2052C89.331 50.8155 90.2225 34.7744 90.2225 34.7744H82.5663Z" fill="#FAE653"/>
<path opacity="0.5" d="M82.5663 34.7744C82.5663 34.7744 82.2701 51.0406 82.5041 57.678C82.7499 64.579 85.1697 87.1775 85.1697 87.1775H88.8541C88.8541 87.1775 88.9904 64.9818 89.1503 58.2052C89.331 50.8155 90.2225 34.7744 90.2225 34.7744H82.5663Z" fill="white"/>
<path d="M85.9336 84.5295C85.9246 84.5296 85.916 84.5262 85.9094 84.5202C85.9029 84.5142 85.8988 84.5059 85.898 84.497C85.2464 78.2416 83.7152 63.1069 83.5286 57.6779C83.3302 52.1364 83.5108 39.7027 83.5701 36.0242C83.5701 36.0148 83.5738 36.0057 83.5805 35.9991C83.5871 35.9924 83.5962 35.9886 83.6056 35.9886C83.6153 35.9886 83.6247 35.9923 83.6318 35.9989C83.639 36.0054 83.6434 36.0145 83.6441 36.0242C83.5849 39.7027 83.4042 52.1364 83.6026 57.6749C83.7952 63.1039 85.3264 78.2328 85.9721 84.4881C85.9722 84.4981 85.9686 84.5079 85.9621 84.5155C85.9556 84.5231 85.9465 84.5281 85.9365 84.5295H85.9336Z" fill="#FAE653"/>
<path opacity="0.4" d="M85.9336 84.5295C85.9246 84.5296 85.916 84.5262 85.9094 84.5202C85.9029 84.5142 85.8988 84.5059 85.898 84.497C85.2464 78.2416 83.7152 63.1069 83.5286 57.6779C83.3302 52.1364 83.5108 39.7027 83.5701 36.0242C83.5701 36.0148 83.5738 36.0057 83.5805 35.9991C83.5871 35.9924 83.5962 35.9886 83.6056 35.9886C83.6153 35.9886 83.6247 35.9923 83.6318 35.9989C83.639 36.0054 83.6434 36.0145 83.6441 36.0242C83.5849 39.7027 83.4042 52.1364 83.6026 57.6749C83.7952 63.1039 85.3264 78.2328 85.9721 84.4881C85.9722 84.4981 85.9686 84.5079 85.9621 84.5155C85.9556 84.5231 85.9465 84.5281 85.9365 84.5295H85.9336Z" fill="white"/>
<path d="M84.4528 85.7084C84.438 85.7084 84.6631 87.2396 84.6631 87.2396H89.1443L89.2658 85.8742L84.4528 85.7084Z" fill="#FAE653"/>
<path opacity="0.1" d="M84.4528 85.7084C84.438 85.7084 84.6631 87.2396 84.6631 87.2396H89.1443L89.2658 85.8742L84.4528 85.7084Z" fill="black"/>
<defs>
<filter id="filter0_dd_1261_1073" x="10.7861" y="33" width="23.8994" height="23.8997" filterUnits="userSpaceOnUse" color-interpolation-filters="sRGB">
<feFlood flood-opacity="0" result="BackgroundImageFix"/>
<feColorMatrix in="SourceAlpha" type="matrix" values="0 0 0 0 0 0 0 0 0 0 0 0 0 0 0 0 0 0 127 0" result="hardAlpha"/>
<feOffset/>
<feGaussianBlur stdDeviation="2"/>
<feComposite in2="hardAlpha" operator="out"/>
<feColorMatrix type="matrix" values="0 0 0 0 1 0 0 0 0 1 0 0 0 0 1 0 0 0 1 0"/>
<feBlend mode="normal" in2="BackgroundImageFix" result="effect1_dropShadow_1261_1073"/>
<feColorMatrix in="SourceAlpha" type="matrix" values="0 0 0 0 0 0 0 0 0 0 0 0 0 0 0 0 0 0 127 0" result="hardAlpha"/>
<feOffset dy="1"/>
<feGaussianBlur stdDeviation="0.95"/>
<feComposite in2="hardAlpha" operator="out"/>
<feColorMatrix type="matrix" values="0 0 0 0 0 0 0 0 0 0 0 0 0 0 0 0 0 0 0.25 0"/>
<feBlend mode="normal" in2="effect1_dropShadow_1261_1073" result="effect2_dropShadow_1261_1073"/>
<feBlend mode="normal" in="SourceGraphic" in2="effect2_dropShadow_1261_1073" result="shape"/>
</filter>
<filter id="filter1_dd_1261_1073" x="97.7861" y="0" width="23.8994" height="23.8997" filterUnits="userSpaceOnUse" color-interpolation-filters="sRGB">
<feFlood flood-opacity="0" result="BackgroundImageFix"/>
<feColorMatrix in="SourceAlpha" type="matrix" values="0 0 0 0 0 0 0 0 0 0 0 0 0 0 0 0 0 0 127 0" result="hardAlpha"/>
<feOffset/>
<feGaussianBlur stdDeviation="2"/>
<feComposite in2="hardAlpha" operator="out"/>
<feColorMatrix type="matrix" values="0 0 0 0 1 0 0 0 0 1 0 0 0 0 1 0 0 0 1 0"/>
<feBlend mode="normal" in2="BackgroundImageFix" result="effect1_dropShadow_1261_1073"/>
<feColorMatrix in="SourceAlpha" type="matrix" values="0 0 0 0 0 0 0 0 0 0 0 0 0 0 0 0 0 0 127 0" result="hardAlpha"/>
<feOffset dy="2"/>
<feGaussianBlur stdDeviation="0.6"/>
<feComposite in2="hardAlpha" operator="out"/>
<feColorMatrix type="matrix" values="0 0 0 0 0 0 0 0 0 0 0 0 0 0 0 0 0 0 0.25 0"/>
<feBlend mode="normal" in2="effect1_dropShadow_1261_1073" result="effect2_dropShadow_1261_1073"/>
<feBlend mode="normal" in="SourceGraphic" in2="effect2_dropShadow_1261_1073" result="shape"/>
</filter>
<linearGradient id="paint0_linear_1261_1073" x1="27.8453" y1="13.3843" x2="27.8453" y2="39.6673" gradientUnits="userSpaceOnUse">
<stop stop-color="#CD93D8"/>
<stop offset="1" stop-color="#8D5293"/>
</linearGradient>
</defs>
</svg>
