<svg width="435" height="499" viewBox="0 0 435 499" fill="none" xmlns="http://www.w3.org/2000/svg">
<g opacity="0.07">
<path d="M307.63 335.252C302.138 332.142 297.037 328.389 292.433 324.074C292.133 323.791 291.756 323.601 291.351 323.526C290.944 323.452 290.525 323.496 290.143 323.653C285.16 325.736 278.864 327.089 274.21 330.138C273.772 330.416 273.442 330.836 273.276 331.328C273.109 331.819 273.117 332.353 273.296 332.838C275.405 339.19 277.025 345.691 278.148 352.288C275.204 364.112 246.491 454.498 238.504 509.733C235.931 527.218 250.6 542.044 257.001 557.777C257.185 558.219 257.475 558.61 257.846 558.914C258.216 559.218 258.655 559.425 259.124 559.521C259.595 559.616 260.081 559.594 260.54 559.459C261 559.323 261.42 559.077 261.762 558.741C274.113 545.938 285.525 532.262 295.91 517.819C296.275 517.304 296.468 516.686 296.461 516.055C295.84 466.265 297.812 404.684 292.067 353.698C292.388 353.415 305.652 341.581 308.64 338.704C308.963 338.476 309.206 338.151 309.336 337.778C309.466 337.404 309.477 336.999 309.365 336.62C309.254 336.239 309.027 335.904 308.716 335.659C308.404 335.413 308.025 335.272 307.63 335.252Z" fill="#BCAD3E"/>
<path d="M144.018 35.4341C148.768 17.9813 166.342 8.3549 180 15.3554C182.106 16.3235 183.909 17.8475 185.212 19.7628C186.516 21.6782 187.272 23.9126 187.398 26.2255C187.409 29.2686 186.778 32.2797 185.549 35.0633C184.318 37.8469 182.515 40.3409 180.258 42.3831C166.316 57.1906 148.302 62.4747 145.754 87.32C145.285 97.2917 146.21 107.28 148.502 116.996C148.564 117.561 148.738 118.108 149.014 118.605C149.288 119.102 149.659 119.541 150.103 119.896C150.548 120.25 151.057 120.514 151.604 120.671C152.15 120.83 152.723 120.878 153.287 120.814C153.853 120.752 154.4 120.578 154.898 120.302C155.397 120.028 155.835 119.658 156.19 119.214C156.544 118.77 156.808 118.261 156.967 117.714C157.124 117.169 157.174 116.597 157.11 116.032C156.578 103.834 156.26 84.2633 163.884 74.7463C171.283 65.5024 185.629 58.322 194.283 46.3847C205.1 31.4583 202.734 11.9162 185.952 3.52408C180.377 0.784335 174.163 -0.393664 167.972 0.115793C161.78 0.625251 155.843 2.80282 150.792 6.41681C146.551 9.73809 143.063 13.9178 140.553 18.6817C138.044 23.4455 136.572 28.6858 136.233 34.0584C136.052 35.0899 136.288 36.1509 136.89 37.008C137.492 37.8651 138.411 38.4482 139.443 38.629C140.475 38.8096 141.537 38.5733 142.394 37.9717C143.252 37.3701 143.836 36.4527 144.018 35.4212V35.4341Z" fill="#BCAD3E"/>
<path d="M55.0152 171.745C53.1494 159.557 72.447 144.04 81.0166 156.639C85.1984 162.774 82.5251 166.149 79.0865 172.301C74.7952 179.993 73.2479 186.222 76.5131 194.723C78.6693 199.447 81.1411 204.018 83.9117 208.41C84.2491 209.167 84.874 209.76 85.6489 210.058C86.4238 210.355 87.2851 210.333 88.0436 209.995C88.802 209.658 89.3954 209.034 89.6931 208.259C89.9908 207.485 89.9685 206.624 89.6311 205.867C88.2575 201.785 86.2695 196.839 84.9603 191.988C82.6538 183.449 85.0568 181.276 89.3576 173.556C93.829 165.52 94.1217 158.77 88.8976 151.188C73.8463 129.312 40.9483 152.107 49.5274 173.262C49.742 173.975 50.2267 174.574 50.8778 174.933C51.5291 175.293 52.2951 175.384 53.0125 175.187C53.7298 174.989 54.3415 174.52 54.7169 173.878C55.0924 173.236 55.2017 172.474 55.0217 171.752L55.0152 171.745Z" fill="#BCAD3E"/>
<path d="M321.98 47.6867C321.362 51.7108 321.657 51.8651 318.959 66.0395C318.933 66.4505 318.824 66.8522 318.639 67.2205C318.456 67.5889 318.199 67.9167 317.886 68.1843C317.572 68.4518 317.208 68.654 316.816 68.7786C316.423 68.9033 316.009 68.9478 315.598 68.9097C315.189 68.8717 314.79 68.7517 314.426 68.557C314.063 68.3622 313.742 68.0967 313.483 67.776C313.225 67.4554 313.034 67.0861 312.921 66.6901C312.808 66.2942 312.774 65.8794 312.824 65.4706C312.492 58.1657 312.583 50.8477 313.097 43.5534C313.197 42.5737 313.606 41.651 314.264 40.9184C314.923 40.1858 315.797 39.6813 316.761 39.4778C328.664 36.9065 336.278 21.8579 321.796 16.1881C316.473 14.1053 312.249 15.5679 310.077 18.9427C308.747 21.1644 307.948 23.6624 307.743 26.2428C307.536 28.8233 307.927 31.4164 308.888 33.8209C309.103 34.1398 309.253 34.4995 309.324 34.878C309.397 35.2565 309.392 35.6457 309.307 36.0219C309.224 36.398 309.064 36.7531 308.838 37.0655C308.613 37.3778 308.326 37.6406 307.995 37.838C307.663 38.0354 307.295 38.1631 306.913 38.2132C306.53 38.2633 306.141 38.2349 305.771 38.1297C305.4 38.0244 305.055 37.8445 304.756 37.601C304.457 37.3575 304.211 37.0555 304.033 36.7137C292.774 21.6747 304.419 -0.663597 325.264 7.25929C348.022 15.9118 340.753 41.2649 321.98 47.6867Z" fill="#BCAD3E"/>
<path d="M284.073 281.695C280.189 278.991 276.917 275.5 274.47 271.451C272.023 267.402 270.455 262.884 269.868 258.191C267.645 244.55 270.929 229.835 273.541 217.087C274.727 211.153 276.408 205.327 278.563 199.67C278.706 199.25 279.006 198.902 279.4 198.699C279.794 198.495 280.251 198.451 280.677 198.574C281.102 198.699 281.465 198.982 281.686 199.366C281.908 199.749 281.974 200.204 281.869 200.635C280.927 204.553 279.981 212.849 278.929 218.142C274.387 240.93 269.71 264.403 287.869 277.874C290.063 279.269 289.005 283.251 288.602 292.64C288.622 292.885 288.593 293.131 288.515 293.364C288.438 293.598 288.314 293.814 288.152 293.998C287.99 294.184 287.792 294.335 287.571 294.441C287.35 294.549 287.108 294.611 286.863 294.623C286.617 294.636 286.371 294.599 286.14 294.515C285.909 294.432 285.697 294.302 285.516 294.135C285.336 293.967 285.191 293.766 285.09 293.541C284.988 293.318 284.934 293.075 284.929 292.829C284.562 290.11 284.44 284.392 284.073 281.695ZM284.684 282.084C284.807 282.161 284.807 282.216 284.929 282.252L284.684 282.084ZM284.073 281.64V281.483C284.073 281.239 284.073 280.886 283.95 280.917C283.459 281.017 283.706 281.339 284.073 281.64Z" fill="#191919"/>
<path d="M290.931 248.418C290.816 250.013 291.111 251.61 291.787 253.06C292.188 253.835 292.682 254.558 293.257 255.214C299.495 262.946 313.59 257.736 316.523 248.165C316.75 247.728 316.799 247.221 316.662 246.748C316.526 246.276 316.214 245.873 315.79 245.622C315.571 245.504 315.329 245.43 315.081 245.406C314.832 245.38 314.582 245.404 314.341 245.477C314.102 245.548 313.88 245.668 313.687 245.826C313.494 245.985 313.334 246.18 313.217 246.4C312.307 247.4 311.28 248.287 310.157 249.043C308.002 251.14 305.276 252.557 302.319 253.114C301.14 253.248 299.948 253.057 298.871 252.562C297.793 252.066 296.872 251.287 296.206 250.305C295.784 249.89 295.415 249.424 295.107 248.917C294.862 248.529 294.618 248.207 294.37 247.786C294.332 247.568 294.252 247.359 294.132 247.17C294.012 246.983 293.858 246.822 293.676 246.695C293.493 246.568 293.287 246.478 293.07 246.431C292.853 246.383 292.63 246.38 292.411 246.42C291.954 246.498 291.544 246.75 291.269 247.122C290.993 247.495 290.872 247.96 290.931 248.418Z" fill="#191919"/>
<path d="M300.482 212.248C299.965 214.457 299.597 216.697 299.382 218.955C298.733 222.842 298.283 226.759 298.034 230.69C298.034 233.812 297.713 237.578 299.87 237.896C301.8 238.157 302.988 233.997 303.3 232.201C304.092 229.253 305.23 218.45 305.748 214.523C306.033 212.379 306.533 207.005 304.278 206.597C302.36 206.188 301.309 209.515 300.482 212.248Z" fill="#191919"/>
<path d="M289.178 200.531C289.968 199.365 291.071 198.444 292.362 197.877C295.425 196.942 296.667 202.056 299.221 200.997C301.312 200.169 299.864 196.177 299.221 195.212C295.74 189.106 286.495 192.268 284.526 197.864C284.037 199.184 283.387 202.862 285.383 203.36C286.582 203.714 288.955 200.853 289.178 200.531Z" fill="#191919"/>
<path d="M319.795 199.365C321.076 198.383 322.598 197.765 324.202 197.578C324.906 197.548 325.61 197.669 326.263 197.931C326.917 198.194 327.509 198.591 327.998 199.099C330.771 201.409 330.816 202.248 332.286 201.696C334.4 200.905 333.126 197.122 332.286 195.691C331.387 194.343 330.135 193.265 328.668 192.576C327.199 191.887 325.571 191.613 323.958 191.783C320.964 191.916 318.147 193.229 316.122 195.434C315.346 196.347 313.503 199.982 315.156 201.121C316.318 201.805 319.463 199.616 319.795 199.365Z" fill="#191919"/>
<path d="M0.178177 292.812C3.78098 306.347 19.9293 313.657 33.3111 317.562C44.2482 320.776 52.4895 317.726 53.6379 328.203C53.6505 328.45 53.7117 328.691 53.8177 328.913C53.9237 329.137 54.0727 329.337 54.2559 329.502C54.4392 329.667 54.6533 329.794 54.8858 329.877C55.1183 329.959 55.365 329.995 55.6114 329.982C55.858 329.971 56.0995 329.909 56.3224 329.803C56.5453 329.697 56.745 329.548 56.9103 329.365C57.0757 329.182 57.2033 328.968 57.286 328.735C57.3686 328.503 57.4046 328.258 57.3919 328.011C57.5853 326.207 57.4089 324.382 56.8736 322.649C56.3382 320.915 55.4552 319.31 54.278 317.928C50.3439 313.486 42.0189 314.117 34.9773 312.036C22.9788 308.478 9.63865 302.215 3.2984 291.433C3.20859 291.223 3.0777 291.033 2.91342 290.874C2.74914 290.714 2.5547 290.589 2.34142 290.506C2.12827 290.422 1.90056 290.381 1.67155 290.388C1.44267 290.393 1.21704 290.444 1.00804 290.537C0.79931 290.627 0.611112 290.758 0.455016 290.923C0.298921 291.088 0.178307 291.283 0.100454 291.496C0.0227316 291.709 -0.0104109 291.936 0.00284613 292.162C0.0162332 292.389 0.0758901 292.61 0.178177 292.812Z" fill="#191919"/>
<path d="M18.022 289.072C22.958 295.236 29.5706 299.846 37.0654 302.346C39.24 302.915 43.8979 303.805 44.3 301.597C45.0978 298.672 37.9694 297.891 29.9241 292.338C27.1278 290.342 24.5228 288.09 22.1428 285.613C21.8597 285.291 18.0188 281.078 16.375 282.077C14.5929 283.328 17.3464 288.008 18.022 289.072Z" fill="#191919"/>
<path d="M38.7217 280.152C42.7256 285.137 47.8358 289.121 53.6476 291.791C55.256 292.364 59.4925 293.523 60.2388 291.543C60.6185 290.209 60.2388 289.664 56.1182 286.921C53.7732 285.36 51.2673 284.013 49.0701 282.257C44.0231 278.252 39.4198 272.325 37.2581 273.988C35.6015 275.247 38.1974 279.471 38.7217 280.152Z" fill="#191919"/>
<path d="M62.3458 280.455C66.6433 283.904 71.5945 286.45 76.9018 287.938C78.0888 288.124 82.3961 288.555 82.7628 286.511C83.4479 283.977 77.7639 282.817 72.2343 279.943C69.2683 278.401 61.5223 272.757 59.6888 275.322C58.6627 276.777 61.7475 279.93 62.3458 280.455Z" fill="#191919"/>
<path d="M87.2503 270.619C88.6818 273.397 92.6287 278.359 92.1945 279.705C91.2295 283.968 82.393 289.287 80.7492 295.85C79.1762 302.021 83.8437 306.606 89.7207 309.07C90.148 309.324 90.658 309.398 91.1398 309.278C91.6217 309.157 92.0366 308.852 92.2942 308.428C92.5362 307.998 92.6044 307.493 92.4847 307.013C92.365 306.535 92.0667 306.121 91.6508 305.856C89.3445 303.978 85.5197 300.121 86.2499 297.249C87.4079 292.855 96.3892 287.426 97.7853 281.002C99.1331 274.785 91.3228 269.932 90.0939 268.579C89.823 268.202 89.4135 267.948 88.9553 267.872C88.4972 267.798 88.0279 267.907 87.6508 268.179C87.2736 268.449 87.0197 268.858 86.9446 269.316C86.8694 269.773 86.9794 270.242 87.2503 270.619Z" fill="#191919"/>
<path d="M103.09 289.383C105.47 298.116 105.293 296.454 106.02 299.11C108.446 307.983 107.442 313.573 106.2 322.117C105.914 324.089 105.837 326.096 105.47 328.223C105.328 328.697 105.38 329.206 105.614 329.641C105.849 330.076 106.246 330.401 106.72 330.542C107.193 330.684 107.704 330.632 108.139 330.398C108.574 330.164 108.899 329.767 109.041 329.293C109.973 327.358 110.798 325.374 111.511 323.348C114.995 312.387 114.01 297.313 106.11 287.751C105.881 287.349 105.504 287.053 105.06 286.925C104.615 286.796 104.138 286.845 103.73 287.062C103.339 287.288 103.053 287.657 102.933 288.092C102.813 288.526 102.869 288.991 103.09 289.383Z" fill="#191919"/>
<path d="M289.625 221.993C290.182 222.106 290.77 222.043 291.353 221.812C291.936 221.58 292.504 221.182 293.023 220.642C293.543 220.101 294.006 219.427 294.383 218.659C294.76 217.892 295.046 217.045 295.223 216.167C295.401 215.29 295.467 214.4 295.416 213.545C295.367 212.692 295.203 211.892 294.934 211.192C294.665 210.492 294.297 209.905 293.85 209.465C293.402 209.024 292.884 208.741 292.327 208.628C291.769 208.515 291.182 208.576 290.598 208.809C290.016 209.04 289.448 209.439 288.928 209.979C288.408 210.52 287.947 211.193 287.569 211.961C287.192 212.729 286.906 213.576 286.729 214.453C286.551 215.331 286.486 216.221 286.535 217.076C286.585 217.929 286.748 218.729 287.017 219.429C287.287 220.129 287.654 220.716 288.103 221.156C288.55 221.595 289.067 221.88 289.625 221.993Z" fill="#191919"/>
<path d="M321.924 221.642C323.12 221.877 324.405 221.403 325.495 220.321C326.587 219.24 327.396 217.642 327.744 215.878C328.092 214.113 327.952 212.329 327.353 210.915C326.754 209.501 325.745 208.573 324.549 208.338C323.958 208.221 323.337 208.279 322.725 208.505C322.111 208.732 321.518 209.124 320.978 209.659C320.437 210.194 319.96 210.862 319.575 211.624C319.189 212.386 318.902 213.229 318.729 214.102C318.556 214.976 318.503 215.864 318.571 216.715C318.637 217.567 318.825 218.365 319.122 219.065C319.418 219.765 319.818 220.353 320.299 220.796C320.78 221.238 321.333 221.525 321.924 221.642Z" fill="#191919"/>
<path d="M363.916 218.222C367.362 209.101 367.236 201.313 360.378 194.283C360.079 170.769 337.255 158.285 320.209 144.065C312.168 137.187 304.638 126.188 294.983 121.679C289.818 119.262 283.699 118.513 279.798 122.701C277.884 124.988 276.767 127.833 276.613 130.81C273.954 128.08 270.615 126.105 266.939 125.089C254.035 121.82 248.801 131.655 251.631 145.1C251.353 144.949 251.067 144.812 250.776 144.689C244.564 142.14 241.061 144.548 240.243 148.15C239.176 151.754 241.255 158.237 242.817 161.576C248.99 174.77 260.239 186.286 271.106 195.992C271.538 196.387 272.081 196.639 272.661 196.717C273.242 196.794 273.832 196.691 274.352 196.422C274.872 196.155 275.297 195.734 275.571 195.217C275.845 194.7 275.953 194.112 275.883 193.531C275.464 187.63 275.516 188.774 275.516 187.899C279.722 189.977 284.109 191.668 288.621 192.952C289.093 193.085 289.593 193.09 290.068 192.968C290.544 192.844 290.978 192.598 291.326 192.252C291.674 191.907 291.924 191.474 292.051 191C292.177 190.528 292.176 190.028 292.047 189.555C291.507 187.167 291.082 184.734 290.577 182.272C296.097 184.843 300.008 186.749 306.13 189.089C306.633 189.282 307.181 189.324 307.708 189.21C308.234 189.094 308.715 188.828 309.09 188.443C309.467 188.058 309.722 187.571 309.825 187.042C309.927 186.515 309.873 185.968 309.669 185.469C309.18 183.992 308.703 182.525 308.201 181.037C318.736 184.431 328.721 189.332 337.848 195.588C337.767 195.735 337.684 195.89 337.59 196.048C336.091 199.556 335.706 203.441 336.49 207.175C337.323 212.572 340.993 219.328 341.878 219.408C347.199 220.199 353.542 221.076 356.451 224.294C357.162 224.988 357.665 225.868 357.904 226.834C358.142 227.799 358.105 228.812 357.798 229.757C355.79 236.713 346.085 236.59 338.938 235.485C338.238 235.379 337.523 235.537 336.934 235.931C336.344 236.324 335.923 236.923 335.754 237.61C332.008 249.874 326.699 261.606 319.956 272.515C313.719 283.061 315.178 272.576 315.178 296.319C315.159 296.562 315.186 296.806 315.263 297.038C315.338 297.27 315.459 297.484 315.619 297.668C315.779 297.851 315.974 298.002 316.193 298.11C316.412 298.216 316.65 298.279 316.894 298.293C317.141 298.315 317.39 298.286 317.626 298.207C317.862 298.129 318.079 298.002 318.262 297.836C318.447 297.668 318.595 297.466 318.697 297.238C318.798 297.012 318.851 296.767 318.853 296.519C319.712 288.058 319.956 283.608 320.323 281.451V281.209C325.241 276.267 335.95 257.425 340.653 241.537C343.377 241.86 346.126 241.906 348.859 241.672C357.441 240.785 361.896 236.385 363.186 231.236C363.929 228.414 363.829 222.638 361.506 220.652L361.787 219.434C362.229 219.534 362.693 219.465 363.087 219.242C363.482 219.017 363.777 218.654 363.916 218.222Z" fill="#191919"/>
<path d="M103.711 219.608C102.984 218.307 101.972 217.189 100.75 216.335C99.5282 215.482 98.1286 214.917 96.6567 214.684C95.1848 214.45 93.679 214.551 92.2524 214.984C90.8258 215.415 89.5158 216.164 88.4211 217.174C86.7459 219.042 85.8043 221.452 85.7705 223.958C85.7368 226.466 86.6133 228.901 88.2377 230.811C89.085 231.836 90.1479 232.659 91.3507 233.224C92.5534 233.79 93.8664 234.084 95.1956 234.084C96.5249 234.084 97.8379 233.79 99.0407 233.224C100.243 232.659 101.306 231.836 102.154 230.811C103.426 229.271 104.246 227.409 104.521 225.43C104.796 223.452 104.515 221.435 103.711 219.608Z" fill="#BCAD3E"/>
<path d="M164.273 133.548C163.546 132.25 162.534 131.13 161.312 130.278C160.09 129.425 158.69 128.862 157.219 128.627C155.748 128.393 154.241 128.495 152.816 128.927C151.389 129.358 150.078 130.106 148.984 131.116C147.309 132.984 146.367 135.394 146.333 137.901C146.299 140.409 147.176 142.845 148.801 144.757C149.647 145.78 150.71 146.604 151.914 147.17C153.116 147.735 154.429 148.028 155.758 148.028C157.088 148.028 158.401 147.735 159.603 147.17C160.806 146.604 161.869 145.78 162.716 144.757C163.988 143.216 164.807 141.352 165.081 139.373C165.357 137.394 165.076 135.378 164.273 133.548Z" fill="#BCAD3E"/>
<path d="M323.164 80.4675C322.436 79.1681 321.423 78.0504 320.202 77.1982C318.98 76.346 317.58 75.7816 316.109 75.5475C314.637 75.3132 313.132 75.4154 311.705 75.8462C310.28 76.2769 308.969 77.0251 307.874 78.0344C306.197 79.9016 305.255 82.3125 305.222 84.8204C305.189 87.3285 306.065 89.7636 307.691 91.6752C308.538 92.6985 309.601 93.5232 310.803 94.0881C312.006 94.6543 313.32 94.9465 314.648 94.9465C315.977 94.9465 317.29 94.6543 318.494 94.0881C319.696 93.5232 320.759 92.6985 321.607 91.6752C322.878 90.1337 323.696 88.2701 323.971 86.2913C324.246 84.3128 323.966 82.2969 323.164 80.4675Z" fill="#BCAD3E"/>
<path d="M555.569 352.031C555.721 351.411 555.66 350.76 555.394 350.18C555.128 349.6 554.675 349.128 554.106 348.839C529.632 336.104 504.507 324.662 478.833 314.56C478.475 314.416 478.092 314.346 477.706 314.353C477.32 314.363 476.94 314.45 476.588 314.609C476.237 314.769 475.923 314.999 475.663 315.285C475.403 315.57 475.205 315.905 475.079 316.27C472.338 324.211 471.572 326.841 467.387 341.208C448.036 346.216 441.943 369.987 438.089 389.357C416.383 347.251 376.115 315.733 331.423 300.003C328.882 299.126 332.267 299.585 291.41 320.612C288.925 312.639 285.898 304.845 282.349 297.284C282.089 296.788 281.692 296.376 281.205 296.098C280.718 295.822 280.161 295.691 279.601 295.722C278.135 295.831 276.67 295.983 275.207 296.179C243.564 300.501 216.436 307.447 186.668 324.987C164.198 338.408 144.321 355.75 127.982 376.188C125.154 370.144 120.153 365.386 113.972 362.859C115.259 356.183 116.195 347.431 116.81 340.447C116.842 340.015 116.777 339.581 116.621 339.176C116.464 338.772 116.218 338.408 115.904 338.111C115.588 337.813 115.21 337.59 114.796 337.458C114.383 337.325 113.945 337.286 113.516 337.345C88.4246 340.996 64.9807 338.126 40.5427 332.202C40.1571 332.12 39.7588 332.118 39.3722 332.194C38.9855 332.271 38.6183 332.425 38.293 332.647C37.9677 332.869 37.6909 333.155 37.4793 333.488C37.2677 333.82 37.1258 334.193 37.0621 334.581C36.4187 339.63 34.2249 355.337 33.8453 358.183C16.1787 366.058 12.4505 385.894 11.138 405.109C8.46815 446.102 21.0104 496.265 53.6221 521.367C87.3211 547.292 129.217 522.653 163.491 497.683L162.578 526.481C162.586 526.931 162.767 527.359 163.086 527.679C163.403 527.997 163.832 528.18 164.283 528.189C164.733 528.198 165.168 528.033 165.499 527.728C165.83 527.422 166.028 527.001 166.056 526.552L167.371 495.282C172.569 491.065 177.341 486.351 181.621 481.207C181.982 480.865 182.193 480.395 182.206 479.899C182.22 479.403 182.037 478.923 181.695 478.562C181.355 478.201 180.883 477.99 180.386 477.977C179.89 477.963 179.409 478.146 179.048 478.488C178.727 478.725 141.652 516.685 100.857 525.896C85.5648 529.345 70.2754 528.007 56.633 517.379C25.8742 493.314 14.0654 443.99 16.8414 405.466C17.977 387.823 21.0232 369.094 37.5318 362.788C38.0162 362.593 38.4407 362.275 38.7625 361.864C39.0844 361.453 39.2924 360.964 39.3653 360.449C40.7421 347.826 41.0638 347.39 42.2959 338.445C64.6357 344.221 87.8336 345.936 110.781 343.507C110.421 347.277 109.314 356.457 108.066 363.434C81.383 368.255 72.5658 364.263 47.0567 363.968C46.604 363.907 46.1458 364.028 45.7826 364.304C45.4195 364.581 45.1811 364.991 45.1202 365.443C45.0592 365.895 45.1805 366.354 45.4573 366.716C45.7343 367.078 46.1441 367.317 46.5966 367.378C49.8134 368.126 53.487 369.124 58.2254 369.821C70.9284 371.647 89.7016 372.591 102.083 369.876C104.752 369.259 107.369 368.434 109.909 367.411C113.406 368.633 116.582 370.626 119.202 373.244C125.045 379.463 124.729 387.544 125.431 397.202C126.638 411.392 126.3 425.672 124.423 439.789C123.963 443.431 123.69 447.005 123.137 450.508C123.081 450.749 123.072 450.998 123.112 451.242C123.151 451.485 123.238 451.719 123.369 451.929C123.499 452.139 123.67 452.321 123.87 452.465C124.07 452.609 124.297 452.713 124.538 452.769C124.778 452.826 125.028 452.835 125.272 452.795C125.515 452.755 125.749 452.668 125.96 452.538C126.17 452.408 126.352 452.238 126.496 452.038C126.641 451.837 126.745 451.611 126.801 451.369C127.973 447.843 128.95 444.255 129.727 440.622C132.905 421.889 132.673 402.735 129.04 384.085C168.516 333.546 217.501 308.646 278.055 301.677C281.145 307.91 283.845 316.784 286.434 323.878C273.736 328.092 260.784 331.502 247.656 334.089C253.654 325.624 259.098 316.781 263.955 307.615C264.177 307.216 264.235 306.746 264.114 306.307C263.994 305.867 263.706 305.491 263.312 305.262C262.908 305.04 262.435 304.982 261.99 305.102C261.546 305.223 261.165 305.51 260.928 305.904C257.016 312.551 246.057 327.181 238.864 336.706C238.525 337.161 238.333 337.711 238.315 338.28C238.295 338.848 238.45 339.408 238.759 339.886C239.067 340.365 239.514 340.738 240.039 340.955C240.566 341.173 241.145 341.225 241.702 341.105C258.364 337.571 274.956 334.433 290.87 328.39C305.169 339.852 321.211 348.956 338.388 355.357C338.894 355.539 339.44 355.574 339.965 355.459C340.489 355.344 340.97 355.083 341.353 354.706C341.735 354.33 342.004 353.853 342.126 353.331C342.25 352.808 342.223 352.262 342.048 351.754C337.367 338.651 334.836 324.879 334.554 310.969C334.558 310.478 334.368 310.006 334.025 309.652C333.683 309.3 333.216 309.097 332.723 309.086C332.223 309.086 331.742 309.281 331.38 309.628C331.02 309.976 330.81 310.45 330.793 310.951C330.111 323.375 331.473 335.826 334.825 347.81C320.819 341.994 307.683 334.276 295.788 324.874C307.613 318.767 319.316 312.638 330.793 305.911C375.993 322.132 418.527 356.649 436.626 399.618C436.651 399.679 436.678 399.738 436.706 399.796C434.133 408.679 429.507 445.235 429.397 446.475C429.169 449.079 429.124 451.663 428.941 454.259C428.861 454.751 428.982 455.254 429.273 455.656C429.566 456.06 430.006 456.33 430.498 456.409C430.993 456.487 431.5 456.37 431.909 456.082C432.32 455.792 432.602 455.356 432.694 454.864C433.338 452.437 433.981 450.062 434.526 447.616C438.405 430.43 441.579 382.639 452.559 361.515C456.402 354.033 461.887 348.016 470.138 346.438C470.647 346.338 471.119 346.101 471.506 345.756C471.892 345.41 472.178 344.968 472.335 344.474C474.15 338.264 478.926 322.618 479.476 320.969C502.519 330.125 526.982 341.096 549.519 352.789C547.717 359.593 546.598 364.713 544.025 373.09C543.925 373.475 543.905 373.878 543.969 374.272C544.031 374.666 544.176 375.043 544.391 375.378C553.974 390.401 547.898 408.358 542.561 425.198C531.446 460.951 513.707 508.855 480.756 526.806C465.834 534.976 450.084 541.06 435.529 538.861C414.047 535.625 406.899 517.97 395.27 499.649C395.057 499.201 394.674 498.855 394.206 498.688C393.738 498.522 393.222 498.548 392.772 498.761C392.324 498.974 391.978 499.357 391.811 499.824C391.644 500.293 391.67 500.807 391.883 501.257C395.324 509.743 400.147 517.601 406.157 524.514C406.545 532.727 406.427 538.454 406.231 546.508C406.228 546.997 406.417 547.469 406.756 547.821C407.096 548.173 407.56 548.379 408.049 548.393C408.539 548.409 409.015 548.234 409.376 547.904C409.737 547.574 409.956 547.116 409.984 546.627C410.2 537.776 410.257 542.15 410.257 529.563C430.507 551.186 457.037 544.895 483.048 530.975C517.624 512.461 536.037 463.973 547.872 426.865C553.591 408.454 559.616 390.224 549.802 373.475C550.535 370.85 554.476 356.61 555.569 352.031Z" fill="#191919"/>
</g>
</svg>
