<?xml version="1.0" encoding="UTF-8"?>
<svg version="1.1" xmlns="http://www.w3.org/2000/svg" width="426" height="503">
<path d="M0 0 C9.03338243 0.3226545 15.74900669 7.88902939 21.875 13.875 C26.95585537 18.74301991 32.08355895 23.35272955 37.6328125 27.6875 C47.90335221 35.76467021 54.93454868 43.34456737 58.27734375 56.1953125 C58.94349211 58.77731646 58.94349211 58.77731646 60.6875 62.0625 C62.32938853 66.57769345 61.76497945 69.85784031 60.9375 74.5 C60.7725 75.675625 60.6075 76.85125 60.4375 78.0625 C60.2725 79.196875 60.1075 80.33125 59.9375 81.5 C59.91300781 82.17160156 59.88851563 82.84320313 59.86328125 83.53515625 C59.6514597 87.4428987 59.07144195 89.33785974 56.5625 92.375 C53.56029316 94.63931504 51.18882112 94.64505695 47.5 94.8125 C44.55969339 95.08212074 44.55969339 95.08212074 41.9375 96.5 C39.60533689 100.24156089 38.1449317 103.99690988 36.63671875 108.12109375 C35.08221477 112.3673392 32.96269891 115.99871984 30.5625 119.8125 C27.37610867 125.15169314 26.06686161 129.17713188 26.16796875 135.390625 C26.09191406 136.08671875 26.01585937 136.7828125 25.9375 137.5 C24.9475 138.16 23.9575 138.82 22.9375 139.5 C22.2775 139.17 21.6175 138.84 20.9375 138.5 C19.36866523 126.68144471 22.24138424 119.94051533 28.31640625 109.97265625 C31.5502554 104.64174011 33.70337263 99.07011435 35.87890625 93.24609375 C36.9375 90.5 36.9375 90.5 37.9375 89.5 C40.28473966 89.102507 42.64078548 88.75631277 45 88.4375 C46.93552734 88.17259766 46.93552734 88.17259766 48.91015625 87.90234375 C49.90917969 87.76957031 50.90820312 87.63679688 51.9375 87.5 C52.2675 85.85 52.5975 84.2 52.9375 82.5 C50.14427303 80.63784869 48.65051486 80.12942346 45.5 79.375 C42.73727849 78.49901513 41.30151091 77.96265885 39.49609375 75.66796875 C38.12381282 72.93859818 37.12395545 70.34444287 36.46484375 67.359375 C36.05208211 65.29464855 36.05208211 65.29464855 34 63.6875 C29.52726825 61.95317544 25.59516261 62.74934758 20.9375 63.5 C20.6075 62.18 20.2775 60.86 19.9375 59.5 C20.7625 58.88125 21.5875 58.2625 22.4375 57.625 C23.2625 56.92375 24.0875 56.2225 24.9375 55.5 C24.9375 54.84 24.9375 54.18 24.9375 53.5 C21.9675 52.51 21.9675 52.51 18.9375 51.5 C18.6075 52.49 18.2775 53.48 17.9375 54.5 C12.54300707 54.77429625 9.41824195 54.86055646 4.9375 51.5 C5.2675 52.16 5.5975 52.82 5.9375 53.5 C6.5975 53.70625 7.2575 53.9125 7.9375 54.125 C9.9375 55.5 9.9375 55.5 10.421875 57.40625 C10.66419149 59.43030541 10.80625617 61.46572061 10.9375 63.5 C9.844375 63.273125 8.75125 63.04625 7.625 62.8125 C5.7996875 62.6578125 5.7996875 62.6578125 3.9375 62.5 C2.2287354 63.87514541 2.2287354 63.87514541 0.9375 65.5 C-0.3825 65.5 -1.7025 65.5 -3.0625 65.5 C-3.18367187 66.39460938 -3.30484375 67.28921875 -3.4296875 68.2109375 C-4.95918022 79.24681572 -4.95918022 79.24681572 -6.1875 84.125 C-7.24924495 89.26247557 -7.35303415 94.39665882 -7.4375 99.625 C-7.47641357 100.89657959 -7.47641357 100.89657959 -7.51611328 102.19384766 C-7.53634744 109.10448853 -5.82135851 114.2096183 -1.359375 119.53125 C-0.84890625 120.0159375 -0.3384375 120.500625 0.1875 121 C2.56271623 123.60854982 3.34264556 125.20395326 3.375 128.75 C2.9375 132.5 2.9375 132.5 1.9375 135.5 C0.6175 135.83 -0.7025 136.16 -2.0625 136.5 C-0.0825 141.78 1.8975 147.06 3.9375 152.5 C8.64929465 151.56495167 8.64929465 151.56495167 12.64453125 149.57421875 C13.31419922 149.18943359 13.98386719 148.80464844 14.67382812 148.40820312 C15.35896484 148.00537109 16.04410156 147.60253906 16.75 147.1875 C19.46967796 145.60774448 22.19664324 144.04274604 24.9375 142.5 C25.64245605 142.10022949 26.34741211 141.70045898 27.07373047 141.28857422 C32.2406658 138.5045249 32.2406658 138.5045249 35.34375 138.484375 C51.7409466 144.4803648 67.52416007 153.34010118 80.9375 164.5 C81.4648877 164.92796875 81.99227539 165.3559375 82.53564453 165.796875 C90.64828355 172.39023386 97.64357744 179.08860535 103.9375 187.5 C104.76194586 188.57244183 105.58750313 189.64403001 106.4140625 190.71484375 C115.23388343 202.23742947 115.23388343 202.23742947 115.0625 208.75 C115.04445313 209.64203125 115.02640625 210.5340625 115.0078125 211.453125 C114.97300781 212.46632813 114.97300781 212.46632813 114.9375 213.5 C113.9475 213.5 112.9575 213.5 111.9375 213.5 C111.26267578 211.99373047 111.26267578 211.99373047 110.57421875 210.45703125 C105.93343383 200.45203047 100.50824382 192.48671876 92.9375 184.5 C92.4523291 183.97921875 91.9671582 183.4584375 91.46728516 182.921875 C76.64658312 167.10790704 57.96442168 154.78838176 37.9375 146.5 C38.20465153 155.0488491 39.23644136 162.78642553 41.56542969 170.9921875 C42.66299007 174.93937712 43.13337877 178.40550188 42.9375 182.5 C37.24082479 183.05989164 33.82308292 181.23185053 29 178.5625 C24.00321713 175.80975282 19.78984231 173.66236897 13.9375 173.5 C11.70490229 174.35691633 11.70490229 174.35691633 10.0625 176 C9.48757812 176.4846875 8.91265625 176.969375 8.3203125 177.46875 C4.2627906 183.42895166 6.2285575 191.97597501 6.8359375 198.7109375 C7.99392 212.85254214 8.37768921 226.94184357 8.5625 241.125 C8.599098 243.57804762 8.63596614 246.03109123 8.6730957 248.48413086 C8.75964176 254.42024621 8.83396933 260.35642061 8.90106201 266.29278564 C8.93464201 269.24844451 8.97114854 272.2040523 9.00830078 275.15966797 C9.05594791 279.10444141 9.09138826 283.04907632 9.11273193 286.99407959 C9.12459937 288.9949531 9.14443592 290.99577444 9.16455078 292.99658203 C9.17258352 301.38620115 8.9332785 307.64500006 3.4375 314.375 C2.8290625 315.13554687 2.220625 315.89609375 1.59375 316.6796875 C-0.68898743 319.18854514 -1.65020069 319.47140062 -5.07177734 319.70874023 C-8.46091066 319.79717685 -11.84827915 319.86737106 -15.23828125 319.9050293 C-16.70108625 319.92662711 -18.16376138 319.96075268 -19.62597656 320.00756836 C-21.73821476 320.07455921 -23.84778723 320.10201633 -25.9609375 320.12109375 C-27.22599121 320.1461499 -28.49104492 320.17120605 -29.79443359 320.19702148 C-33.0625 319.5 -33.0625 319.5 -35.44384766 316.64868164 C-40.18877858 307.41861013 -38.30886021 296.4765492 -36.3125 286.625 C-36.09988525 285.55386963 -35.88727051 284.48273926 -35.66821289 283.37915039 C-30.74342616 259.59085958 -24.5173655 235.95241544 -17.61328125 212.66796875 C-17.33475815 211.72825729 -17.05623505 210.78854584 -16.76927185 209.82035828 C-15.4432371 205.36673571 -14.09664062 200.92055736 -12.72045898 196.48217773 C-12.23551212 194.88655666 -11.75056734 193.29093495 -11.265625 191.6953125 C-11.04123245 190.99419846 -10.8168399 190.29308441 -10.58564758 189.57072449 C-8.3487745 182.14692034 -8.77409933 175.06935396 -10.0625 167.5 C-10.66723145 167.62117187 -11.27196289 167.74234375 -11.89501953 167.8671875 C-14.65804232 168.41735861 -17.42271715 168.95874622 -20.1875 169.5 C-21.13882813 169.69078125 -22.09015625 169.8815625 -23.0703125 170.078125 C-27.79888116 170.99756891 -32.21812735 171.7609763 -37.0625 171.5 C-37.72753906 169.75952148 -37.72753906 169.75952148 -38.0625 167.5 C-37.03027344 165.47290039 -37.03027344 165.47290039 -35.421875 163.34765625 C-34.84566406 162.57099609 -34.26945313 161.79433594 -33.67578125 160.99414062 C-33.06089844 160.19169922 -32.44601563 159.38925781 -31.8125 158.5625 C-30.61813339 156.97129545 -29.42537704 155.37888071 -28.234375 153.78515625 C-27.67685547 153.04281738 -27.11933594 152.30047852 -26.54492188 151.53564453 C-24.89630482 149.27178271 -23.42633658 146.94601125 -22.0625 144.5 C-56.21140182 150.75880194 -84.15427503 166.66957028 -108.6875 190.875 C-109.55785889 191.73109863 -109.55785889 191.73109863 -110.44580078 192.60449219 C-116.55148972 198.35470296 -116.55148972 198.35470296 -119.2578125 205.96142578 C-119.1955748 208.9483168 -118.99461119 211.89757957 -118.75 214.875 C-118.61775071 217.03480031 -118.49145561 219.19497338 -118.37109375 221.35546875 C-118.31163574 222.40653809 -118.25217773 223.45760742 -118.19091797 224.54052734 C-117.71416569 235.52758276 -118.07589191 248.52678381 -123.0625 258.5 C-124.3825 258.17 -125.7025 257.84 -127.0625 257.5 C-126.99248779 256.85708008 -126.92247559 256.21416016 -126.8503418 255.55175781 C-125.98546283 246.62920454 -125.87633284 237.75430018 -125.87719727 228.79882812 C-125.874992 226.24072061 -125.85671407 223.68303275 -125.83789062 221.125 C-125.83495885 219.47395978 -125.83297261 217.82291755 -125.83203125 216.171875 C-125.82125298 215.04347198 -125.82125298 215.04347198 -125.81025696 213.89227295 C-125.83726803 207.55833172 -126.34180628 201.68574608 -130.375 196.5625 C-134.08224309 193.71740647 -136.596199 193.34250841 -141.2265625 193.83984375 C-142.36867188 194.03707031 -143.51078125 194.23429688 -144.6875 194.4375 C-154.33659325 195.90432183 -163.26361296 195.57307937 -172.9375 194.625 C-174.16956177 194.50753418 -174.16956177 194.50753418 -175.42651367 194.38769531 C-179.62184694 193.93805688 -183.21165574 193.35526505 -187.0625 191.5 C-187.0625 190.51 -187.0625 189.52 -187.0625 188.5 C-182.33499808 187.66573496 -178.15814655 187.48908001 -173.375 187.9375 C-167.30108417 188.48579017 -161.28128501 188.61705642 -155.1875 188.625 C-153.85005737 188.63164673 -153.85005737 188.63164673 -152.4855957 188.63842773 C-147.57090752 188.62782481 -142.90751273 188.33170518 -138.0625 187.5 C-137.5675 181.065 -137.5675 181.065 -137.0625 174.5 C-138.70734375 174.53480469 -140.3521875 174.56960938 -142.046875 174.60546875 C-157.82547425 174.83441918 -172.62312715 173.67416248 -188.0625 170.5 C-188.10246094 171.72976563 -188.14242187 172.95953125 -188.18359375 174.2265625 C-188.90538836 187.15494263 -188.90538836 187.15494263 -192.05859375 190.8203125 C-194.34303787 192.19322965 -196.66184334 193.34682742 -199.0625 194.5 C-207.04113514 203.10852739 -206.58693872 217.47672286 -206.5 228.5 C-206.49695862 229.17264893 -206.49391724 229.84529785 -206.49078369 230.53833008 C-206.31951778 256.2936789 -200.10701376 282.13354384 -182.0625 301.5 C-173.93452265 309.04947363 -165.61449746 313.26559837 -154.4375 313.0625 C-153.56504639 313.05081787 -152.69259277 313.03913574 -151.79370117 313.02709961 C-127.84773403 312.22195349 -105.82533912 295.85983063 -88.67895508 280.34643555 C-85.83803936 277.81470665 -83.79635605 276.22376736 -80.0625 275.5 C-79.7325 276.49 -79.4025 277.48 -79.0625 278.5 C-80.3203125 280.3671875 -80.3203125 280.3671875 -82.1875 282.375 C-82.83074219 283.08785156 -83.47398437 283.80070312 -84.13671875 284.53515625 C-86.0625 286.5 -86.0625 286.5 -89 288.8125 C-91.79296314 292.45181561 -91.38839487 294.96653937 -91.17578125 299.4375 C-91.05547575 302.689897 -91.2310957 305.82005975 -91.5 309.0625 C-91.62181641 310.54943359 -91.62181641 310.54943359 -91.74609375 312.06640625 C-92.0625 314.5 -92.0625 314.5 -93.0625 316.5 C-94.0525 316.17 -95.0425 315.84 -96.0625 315.5 C-96.0625 308.57 -96.0625 301.64 -96.0625 294.5 C-98.09277344 295.78583984 -98.09277344 295.78583984 -100.1640625 297.09765625 C-141.35221631 323.01452161 -141.35221631 323.01452161 -166.40625 317.8046875 C-183.02195964 312.25055984 -194.35527328 298.69704454 -202.07177734 283.51416016 C-213.5665265 259.53642549 -217.96765711 227.22582219 -210.19140625 201.62109375 C-209.63259766 200.07615234 -209.63259766 200.07615234 -209.0625 198.5 C-208.76214844 197.66597656 -208.46179688 196.83195313 -208.15234375 195.97265625 C-206.0157275 191.00571717 -202.59104726 187.44467112 -198.0625 184.5 C-197.4025 184.5 -196.7425 184.5 -196.0625 184.5 C-195.97685791 183.93490723 -195.89121582 183.36981445 -195.80297852 182.78759766 C-195.41380182 180.23285367 -195.01946515 177.67893253 -194.625 175.125 C-194.49029297 174.23554688 -194.35558594 173.34609375 -194.21679688 172.4296875 C-194.08466797 171.57890625 -193.95253906 170.728125 -193.81640625 169.8515625 C-193.69595947 169.06604004 -193.5755127 168.28051758 -193.45141602 167.47119141 C-193.0625 165.5 -193.0625 165.5 -192.0625 163.5 C-188.1025 163.5 -184.1425 163.5 -180.0625 163.5 C-180.42670703 160.51296042 -180.42670703 160.51296042 -182.0625 157.5 C-184.97351457 156.34785107 -187.41389424 155.62802684 -190.4375 155 C-201.57976619 152.30421892 -212.8075874 148.50655013 -219.9375 139 C-221.16367831 136.2751593 -221.31566792 134.45362571 -221.0625 131.5 C-218.70803931 131.88491183 -217.39556658 132.14123689 -215.74609375 133.91796875 C-215.33488281 134.50191406 -214.92367187 135.08585938 -214.5 135.6875 C-207.37756533 144.42459241 -195.82334733 147.40417625 -185.1875 149.4375 C-181.42242022 150.22909805 -179.43320157 151.33906458 -177.0625 154.5 C-175.70058005 157.2238399 -176.00088711 159.48096827 -176.0625 162.5 C-176.0625 163.49 -176.0625 164.48 -176.0625 165.5 C-166.25844612 167.38567828 -156.80179002 167.69650062 -146.875 167.5 C-144.11069571 167.44679767 -141.34665227 167.40699364 -138.58203125 167.375 C-137.37651611 167.35179687 -136.17100098 167.32859375 -134.92895508 167.3046875 C-132.0625 167.5 -132.0625 167.5 -130.0625 169.5 C-130.20639816 171.59382252 -130.36217603 173.68801116 -130.59838867 175.7734375 C-131.66336599 183.11424449 -131.66336599 183.11424449 -129.6484375 189.953125 C-127.84593432 191.4218313 -126.1384965 192.4689064 -124.0625 193.5 C-123.4025 194.16 -122.7425 194.82 -122.0625 195.5 C-116.60260765 190.16379389 -116.60260765 190.16379389 -111.5625 184.4375 C-108.37554881 180.69283235 -104.8208712 177.65573582 -101.0625 174.5 C-100.29421875 173.82066406 -99.5259375 173.14132812 -98.734375 172.44140625 C-72.1988816 149.60948632 -37.62463277 137.58590471 -3.0625 134.5 C-2.97342305 129.0026795 -3.59202299 125.50965776 -7.4375 121.4375 C-8.34628906 120.58478516 -8.34628906 120.58478516 -9.2734375 119.71484375 C-13.88521921 114.00549827 -14.64172225 107.38134175 -14.625 100.25 C-14.62693359 99.37190674 -14.62886719 98.49381348 -14.63085938 97.58911133 C-14.34426705 84.98230591 -11.06341205 72.68854482 -8.0625 60.5 C-8.82530273 60.54850098 -9.58810547 60.59700195 -10.37402344 60.64697266 C-14.52064404 60.42028671 -16.57959403 57.72318078 -19.3125 54.875 C-19.87880127 54.29613037 -20.44510254 53.71726074 -21.02856445 53.12084961 C-27.90260418 45.86940399 -34.47957806 37.27723853 -37.0625 27.5 C-36.63392857 21.07142857 -36.63392857 21.07142857 -34.0625 18.5 C-30.9375 18.375 -30.9375 18.375 -28.0625 18.5 C-28.08570313 17.89671875 -28.10890625 17.2934375 -28.1328125 16.671875 C-28.15085938 15.87265625 -28.16890625 15.0734375 -28.1875 14.25 C-28.21070313 13.46109375 -28.23390625 12.6721875 -28.2578125 11.859375 C-28.04172862 9.24908168 -27.45297899 7.70641978 -26.0625 5.5 C-21.76262339 2.84419386 -17.78873705 3.46137129 -13.0625 4.5 C-10.0625 5.5625 -10.0625 5.5625 -8.0625 6.5 C-7.77375 5.88125 -7.485 5.2625 -7.1875 4.625 C-5.30411215 1.06748962 -3.91705977 0.16580147 0 0 Z M-7.0625 55.5 C-7.0625 57.15 -7.0625 58.8 -7.0625 60.5 C-5.7425 60.17 -4.4225 59.84 -3.0625 59.5 C-3.0625 58.51 -3.0625 57.52 -3.0625 56.5 C-4.3825 56.17 -5.7025 55.84 -7.0625 55.5 Z M-17.0625 143.5 C-18.46591772 146.21614159 -18.46591772 146.21614159 -19.140625 148.29296875 C-20.76666183 152.18581117 -23.28477795 155.56035407 -25.63671875 159.046875 C-27.31375041 161.45939319 -27.31375041 161.45939319 -27.0625 164.5 C-18.79684184 163.24110216 -11.00285265 161.10049705 -3.0625 158.5 C-1.91379625 154.4246625 -2.21739992 152.18413835 -3.875 148.3125 C-4.41060547 147.02279297 -4.41060547 147.02279297 -4.95703125 145.70703125 C-5.98271194 143.3694172 -5.98271194 143.3694172 -8.0625 141.5 C-11.64848102 141.5 -13.81520148 141.94400279 -17.0625 143.5 Z M23.125 150.25 C22.42568359 150.59804688 21.72636719 150.94609375 21.00585938 151.3046875 C16.76769351 153.44557577 12.83283118 155.7848869 8.9375 158.5 C12.72966545 162.6282726 16.66003574 165.39393164 21.5 168.1875 C22.15935547 168.57744141 22.81871094 168.96738281 23.49804688 169.36914062 C29.34407132 173.12760987 29.34407132 173.12760987 35.9375 174.5 C35.793125 173.73558594 35.64875 172.97117187 35.5 172.18359375 C33.99449834 163.49559458 33.71877845 155.28531562 33.9375 146.5 C29.7768263 146.5 26.74746178 148.39771673 23.125 150.25 Z " fill="#F2F2EF" transform="translate(233.0625,122.5)"/>
<path d="M0 0 C4.8937093 4.13246563 9.33962559 9.38681306 10.2734375 15.91015625 C10.66996694 24.31353018 7.12731203 30.68378853 1.875 37.0625 C-3.34985901 42.71130591 -9.52582142 47.42709383 -15.6953125 51.99609375 C-18.05304464 54.04612186 -19.05545228 55.46279505 -20.25 58.3125 C-20.56453125 59.03050781 -20.8790625 59.74851563 -21.203125 60.48828125 C-23.36833785 67.31294726 -23.28364745 74.58188839 -23.51757812 81.6796875 C-23.55173828 82.45054688 -23.58589844 83.22140625 -23.62109375 84.015625 C-23.6461499 84.70946289 -23.67120605 85.40330078 -23.69702148 86.11816406 C-24 88 -24 88 -26 91 C-28.375 90.8125 -28.375 90.8125 -31 90 C-36.03618559 80.93486594 -35.2209075 66.72324061 -33.421875 56.81640625 C-30.31852485 48.00007061 -23.06855229 41.48947984 -15.875 35.875 C-7.83773161 29.97134074 -7.83773161 29.97134074 -3.43359375 21.4140625 C-3.24479258 17.26043685 -3.38675713 14.83809859 -5.875 11.4375 C-10.23493639 8.48813127 -13.83340097 8.44614058 -19 9 C-23.2841474 10.07684718 -26.06893401 11.72489115 -28.69140625 15.31640625 C-29.72288843 17.05105422 -30.71990961 18.80670439 -31.6796875 20.58203125 C-33.17418869 23.31900236 -34.96014646 25.64632284 -37 28 C-38.32 27.67 -39.64 27.34 -41 27 C-42.65403136 21.67833388 -41.30999855 16.8629807 -39.03125 11.8828125 C-34.73904429 4.42945528 -28.67481309 -1.26002128 -20.28515625 -3.5625 C-12.63498051 -5.02714903 -6.7219276 -4.02267402 0 0 Z " fill="#F9F9F2" transform="translate(158,34)"/>
<path d="M0 0 C4.28851148 4.46682796 6.90732605 9.1010549 6.94140625 15.39453125 C5.76118421 19.05943127 4.16492608 22.00544118 2.25390625 25.33203125 C-0.50686053 31.7738204 0.89965409 36.99345345 3.20703125 43.2734375 C4.13080201 45.94156261 4.58301096 48.59904798 4.94140625 51.39453125 C6.03453125 51.66265625 7.12765625 51.93078125 8.25390625 52.20703125 C13.29255129 53.82964575 13.29255129 53.82964575 14.94140625 56.39453125 C16.04598963 60.02387665 16.27962095 61.68589092 14.62890625 65.14453125 C12.94140625 67.39453125 12.94140625 67.39453125 10.94140625 69.39453125 C7.15803464 69.81490587 4.82092027 69.91321901 1.50390625 67.95703125 C-0.79637527 64.18456955 -0.52167149 60.70646824 -0.05859375 56.39453125 C0.15796875 55.6984375 0.37453125 55.00234375 0.59765625 54.28515625 C0.71109375 53.66125 0.82453125 53.03734375 0.94140625 52.39453125 C-0.2192109 50.93546969 -1.39275736 49.48356896 -2.6484375 48.10546875 C-6.67261992 43.22294271 -8.6885232 37.4784525 -9.43359375 31.26953125 C-9.06251033 27.43500254 -8.34168063 25.70885659 -6.55859375 22.39453125 C-4.30902437 18.19576112 -3.26694611 15.24337302 -4.05859375 10.39453125 C-5.03908313 8.3305044 -5.03908313 8.3305044 -7.05859375 7.39453125 C-11.02955824 6.77682566 -12.77291704 7.23521155 -16.30859375 9.20703125 C-20.87754987 12.84142817 -21.48925657 15.97850815 -22.3984375 21.43359375 C-22.61628906 22.08070313 -22.83414063 22.7278125 -23.05859375 23.39453125 C-24.04859375 23.72453125 -25.03859375 24.05453125 -26.05859375 24.39453125 C-29.05859375 22.39453125 -29.05859375 22.39453125 -29.93359375 18.76953125 C-30.30818088 14.0531387 -29.59080655 10.41810865 -27.05859375 6.39453125 C-19.88907175 -1.6890334 -9.78605756 -7.63201073 0 0 Z " fill="#F9F9F2" transform="translate(78.05859375,142.60546875)"/>
<path d="M0 0 C3.32742289 2.71641382 5.42902204 5.29024248 6.10546875 9.61328125 C6.31513967 14.61183592 5.67578325 18.25805377 2.765625 22.44140625 C0.24909299 24.9733771 -2.33153149 27.35826165 -5.234375 29.44140625 C-5.894375 29.44140625 -6.554375 29.44140625 -7.234375 29.44140625 C-7.35554688 30.41722656 -7.47671875 31.39304688 -7.6015625 32.3984375 C-7.76914062 33.67074219 -7.93671875 34.94304687 -8.109375 36.25390625 C-8.27179688 37.51847656 -8.43421875 38.78304687 -8.6015625 40.0859375 C-9.234375 43.44140625 -9.234375 43.44140625 -11.234375 46.44140625 C-13.171875 46.06640625 -13.171875 46.06640625 -15.234375 45.44140625 C-16.43467408 43.04080808 -16.34897243 41.54779976 -16.33203125 38.87109375 C-16.32880859 37.97519531 -16.32558594 37.07929687 -16.32226562 36.15625 C-16.31388672 35.21910156 -16.30550781 34.28195313 -16.296875 33.31640625 C-16.29236328 32.37152344 -16.28785156 31.42664063 -16.28320312 30.453125 C-16.27139857 28.11582238 -16.25493259 25.77864564 -16.234375 23.44140625 C-15.53570312 23.126875 -14.83703125 22.81234375 -14.1171875 22.48828125 C-13.20710937 22.0603125 -12.29703125 21.63234375 -11.359375 21.19140625 C-10.45445312 20.77375 -9.54953125 20.35609375 -8.6171875 19.92578125 C-5.97768391 18.28150032 -5.20611524 17.35662697 -4.234375 14.44140625 C-4.1566404 12.10936813 -4.14469772 9.77301566 -4.234375 7.44140625 C-9.43676777 5.6603448 -9.43676777 5.6603448 -14.671875 6.19140625 C-16.37624365 7.37592841 -16.37624365 7.37592841 -17.234375 9.44140625 C-17.38293688 13.97254371 -17.33966824 18.02023329 -16.234375 22.44140625 C-17.984375 23.19140625 -17.984375 23.19140625 -20.234375 23.44140625 C-23.5135526 20.93379985 -25.1316369 18.39288443 -26.234375 14.44140625 C-26.9099688 8.473661 -25.47214553 4.35350331 -22.234375 -0.55859375 C-15.61856798 -6.9676568 -6.93075562 -4.78877012 0 0 Z " fill="#F9F8F2" transform="translate(268.234375,38.55859375)"/>
<path d="M0 0 C3.56137391 1.73502831 6.1357729 3.46778024 8 7 C8.6875 10.125 8.6875 10.125 8 14 C5.60114537 17.57999002 2.88287476 20.80181081 0 24 C1.15173355 26.46800047 2.04783565 28.04783565 4 30 C3.625 32.125 3.625 32.125 3 34 C0.03285617 33.67031735 -1.31954439 32.76034171 -3.75 30.9375 C-6.82351466 26.92485586 -6.48757732 24.95703612 -6 20 C-5.67 19.34 -5.34 18.68 -5 18 C-5.556875 17.92523438 -6.11375 17.85046875 -6.6875 17.7734375 C-12.72712667 16.73282615 -17.86492831 14.70970018 -22 10 C-22 8.68 -22 7.36 -22 6 C-17.32796921 5.52677405 -14.85164845 6.97816779 -10.9375 9.4375 C-6.2870085 12.54684751 -6.2870085 12.54684751 -1 14 C-0.34 13.34 0.32 12.68 1 12 C0.64700993 8.55834679 -0.04581692 6.93127462 -2 4 C-2 3.01 -2 2.02 -2 1 C-1.34 0.67 -0.68 0.34 0 0 Z " fill="#EEEEEE" transform="translate(80,236)"/>
<path d="M0 0 C0.99 0.33 1.98 0.66 3 1 C1.78068682 5.54471276 -0.04081614 8.72330867 -2.87890625 12.38671875 C-4.19722062 14.12217901 -4.19722062 14.12217901 -5 17 C1.27 15.35 7.54 13.7 14 12 C14 13.65 14 15.3 14 17 C5.3193387 22.13753424 -4.93160243 24.30979685 -15 24 C-16.23943486 20.51343248 -16.23943486 20.51343248 -15.18310547 18.24829102 C-14.74885254 17.67264404 -14.31459961 17.09699707 -13.8671875 16.50390625 C-13.39023438 15.86259766 -12.91328125 15.22128906 -12.421875 14.56054688 C-11.91140625 13.90119141 -11.4009375 13.24183594 -10.875 12.5625 C-10.14410156 11.57926758 -10.14410156 11.57926758 -9.3984375 10.57617188 C-6.50910376 6.74549935 -3.47706017 3.30511764 0 0 Z " fill="#EEEEEF" transform="translate(211,270)"/>
<path d="M0 0 C1.32 0 2.64 0 4 0 C5.04057341 4.77482974 4.86468461 8.73451478 4.1875 13.5625 C4.01605469 14.84253906 3.84460938 16.12257812 3.66796875 17.44140625 C3.08334402 20.55598593 2.30638062 23.12816749 1 26 C-0.32 25.67 -1.64 25.34 -3 25 C-3 20.05 -3 15.1 -3 10 C-3.99 10.99 -4.98 11.98 -6 13 C-8.5625 13.375 -8.5625 13.375 -11 13 C-13 10 -13 10 -12.75 6.9375 C-12 4 -12 4 -10 2 C-7.0574037 2.30652045 -4.65457692 2.67271154 -2 4 C-1.34 2.68 -0.68 1.36 0 0 Z " fill="#EEEFF0" transform="translate(244,189)"/>
<path d="M0 0 C4.46965859 2.85297357 4.46965859 2.85297357 5.9375 5.875 C5.9375 9.85894551 5.17125801 11.56777519 2.75 14.75 C-0.0625 16.875 -0.0625 16.875 -3.125 17.4375 C-6.80595769 16.73263576 -7.93250351 15.9516616 -10.0625 12.875 C-11.0625 9.4375 -11.0625 9.4375 -11.0625 5.875 C-9.38457251 3.07845419 -7.7147357 1.39678856 -5.1875 -0.625 C-3.0625 -1.125 -3.0625 -1.125 0 0 Z " fill="#F8F9F2" transform="translate(257.0625,88.125)"/>
<path d="M0 0 C2.4375 1.5 2.4375 1.5 4 4 C4.80456501 8.04770849 4.68494481 10.97258279 2.375 14.4375 C-0.58928482 16.38768738 -2.44050856 17 -6 17 C-8.8125 15.5 -8.8125 15.5 -11 13 C-12.1659741 8.99196403 -12.43240501 6.94717289 -10.6875 3.125 C-7.63346061 -0.72082738 -4.73012808 -0.40776966 0 0 Z " fill="#F9F9F3" transform="translate(136,129)"/>
<path d="M0 0 C2.25 -0.0625 2.25 -0.0625 5 1 C10.36071227 7.76511612 9.76334877 16.86638723 9 25 C8.25646421 28.22482096 7.28930611 30.93789799 6 34 C4.68 33.67 3.36 33.34 2 33 C2.01047363 32.33468262 2.02094727 31.66936523 2.03173828 30.98388672 C2.07350465 27.9476301 2.09939152 24.91143414 2.125 21.875 C2.14175781 20.82828125 2.15851563 19.7815625 2.17578125 18.703125 C2.20976852 13.33313666 2.00035478 9.05601483 0 4 C0 2.68 0 1.36 0 0 Z " fill="#EFEFEF" transform="translate(91,252)"/>
<path d="M0 0 C0.66 0.33 1.32 0.66 2 1 C3.09627747 7.62417356 3.03740242 14.00100846 2.6875 20.6875 C2.65205078 21.59822266 2.61660156 22.50894531 2.58007812 23.44726562 C2.34395552 28.3001138 1.85161525 32.4427592 0 37 C-1.32 37 -2.64 37 -4 37 C-4.19382798 28.64292426 -3.66631824 20.59370382 -2.5625 12.3125 C-2.42779297 11.23033203 -2.29308594 10.14816406 -2.15429688 9.03320312 C-1.13685403 1.13685403 -1.13685403 1.13685403 0 0 Z " fill="#EFEFEF" transform="translate(346,346)"/>
<path d="M0 0 C3.13379435 1.3294385 4.62621586 2.47525403 6.33203125 5.4140625 C6.73502441 6.08953125 7.13801758 6.765 7.55322266 7.4609375 C7.96878418 8.17507813 8.3843457 8.88921875 8.8125 9.625 C12.39680595 15.59218345 16.06828191 21.03562153 21 26 C20.67 26.66 20.34 27.32 20 28 C13.25 28.125 13.25 28.125 11 27 C10.608125 25.865625 10.21625 24.73125 9.8125 23.5625 C8.18934607 18.9105743 5.56369216 15.31166763 2.62109375 11.39453125 C0.49241865 8.25024731 -1.24879653 5.53424526 -0.625 1.6875 C-0.41875 1.130625 -0.2125 0.57375 0 0 Z " fill="#EEEEEE" transform="translate(314,414)"/>
<path d="M0 0 C3.97845807 0.39984503 5.889344 1.45791375 8.6875 4.25 C12.99461572 8.24417041 17.66410017 10.62727405 23 13 C23 14.32 23 15.64 23 17 C14.30642716 16.77863588 8.83921274 13.82565433 2.5625 7.9375 C0.20943241 5.24008106 -0.50589026 4.34741952 -1 1 C-0.67 0.67 -0.34 0.34 0 0 Z " fill="#EEEEEE" transform="translate(24,248)"/>
<path d="M0 0 C1.9375 0.25 1.9375 0.25 4 1 C4.66 1.99 5.32 2.98 6 4 C10.76638793 3.77482031 10.76638793 3.77482031 14.625 1.375 C15.07875 0.92125 15.5325 0.4675 16 0 C18.6875 0.3125 18.6875 0.3125 21 1 C19.86427376 4.97504184 18.07455986 7.5067406 14.7734375 10.04296875 C11.51782116 11.79985422 8.55542663 11.88180224 5 11 C2.30039939 9.59872426 1.09326239 8.35492019 -1 6 C-1.4375 3.25 -1.4375 3.25 -1 1 C-0.67 0.67 -0.34 0.34 0 0 Z " fill="#EDEDED" transform="translate(236,220)"/>
<path d="M0 0 C4.01938611 0.52245053 6.01948729 1.52576803 8.9375 4.3125 C11.36264874 6.56738213 13.64971674 8.50293542 16.5 10.1875 C17.325 10.785625 18.15 11.38375 19 12 C19 13.32 19 14.64 19 16 C16 17 16 17 13.984375 16.25 C8.6252963 13.25191401 3.65178688 10.04130327 0 5 C-0.4375 2.0625 -0.4375 2.0625 0 0 Z " fill="#EEEEEE" transform="translate(40,241)"/>
<path d="M0 0 C2.4375 0.1875 2.4375 0.1875 3.4375 1.1875 C3.79647436 7.64903846 3.79647436 7.64903846 1.4375 11.1875 C-3.4375 10.3125 -3.4375 10.3125 -4.5625 9.1875 C-4.75 5.75 -4.75 5.75 -4.5625 2.1875 C-2.5625 0.1875 -2.5625 0.1875 0 0 Z " fill="#EEEEEE" transform="translate(261.5625,190.8125)"/>
<path d="M0 0 C2.475 0.99 2.475 0.99 5 2 C4.67 5.63 4.34 9.26 4 13 C3.34 11.68 2.68 10.36 2 9 C1.34 8.34 0.68 7.68 0 7 C0.66 7 1.32 7 2 7 C1.34 4.69 0.68 2.38 0 0 Z " fill="#FBFBFC" transform="translate(267,179)"/>
</svg>
