<svg width="451" height="540" viewBox="0 0 451 540" fill="none" xmlns="http://www.w3.org/2000/svg">
<g clip-path="url(#clip0_1409_4705)">
<g opacity="0.07">
<path d="M323.705 376.874C318.214 373.764 313.112 370.011 308.509 365.695C308.209 365.412 307.832 365.223 307.426 365.147C307.019 365.073 306.601 365.117 306.219 365.274C301.236 367.358 294.94 368.711 290.286 371.76C289.848 372.038 289.517 372.457 289.351 372.949C289.185 373.44 289.193 373.974 289.372 374.46C291.48 380.811 293.101 387.312 294.224 393.91C291.28 405.734 262.567 496.119 254.58 551.354C252.007 568.839 266.675 583.666 273.076 599.399C273.261 599.841 273.551 600.231 273.921 600.535C274.291 600.839 274.731 601.047 275.2 601.143C275.67 601.238 276.156 601.216 276.615 601.081C277.075 600.944 277.495 600.699 277.837 600.363C290.188 587.559 301.601 573.883 311.986 559.441C312.351 558.925 312.543 558.307 312.537 557.676C311.915 507.886 313.887 446.306 308.142 395.32C308.463 395.037 321.727 383.202 324.715 380.326C325.039 380.097 325.282 379.773 325.412 379.4C325.542 379.026 325.552 378.621 325.44 378.241C325.33 377.861 325.102 377.526 324.792 377.28C324.48 377.035 324.1 376.893 323.705 376.874Z" fill="#BCAD3E"/>
<path d="M160.093 77.0556C164.844 59.6029 182.417 49.9765 196.076 56.9769C198.181 57.9451 199.984 59.469 201.288 61.3844C202.591 63.2998 203.348 65.5342 203.474 67.8471C203.484 70.8902 202.854 73.9012 201.624 76.6849C200.393 79.4685 198.591 81.9624 196.333 84.0047C182.391 98.8122 164.377 104.096 161.83 128.942C161.36 138.913 162.286 148.901 164.577 158.618C164.64 159.182 164.814 159.729 165.089 160.227C165.364 160.724 165.734 161.163 166.179 161.517C166.623 161.872 167.133 162.136 167.68 162.293C168.226 162.451 168.799 162.499 169.363 162.436C169.928 162.373 170.475 162.199 170.973 161.924C171.472 161.65 171.91 161.28 172.265 160.836C172.62 160.391 172.884 159.882 173.042 159.336C173.2 158.79 173.249 158.219 173.185 157.654C172.654 145.456 172.335 125.885 179.959 116.368C187.359 107.124 201.705 99.9436 210.358 88.0063C221.176 73.0799 218.809 53.5378 202.027 45.1457C196.453 42.4059 190.239 41.2279 184.047 41.7374C177.855 42.2468 171.918 44.4244 166.867 48.0384C162.626 51.3597 159.138 55.5394 156.628 60.3033C154.12 65.0671 152.647 70.3074 152.308 75.68C152.127 76.7115 152.364 77.7725 152.966 78.6296C153.567 79.4867 154.486 80.0698 155.518 80.2506C156.55 80.4312 157.612 80.1949 158.47 79.5933C159.328 78.9917 159.911 78.0743 160.093 77.0428V77.0556Z" fill="#BCAD3E"/>
<path d="M71.0906 213.367C69.2249 201.179 88.5225 185.662 97.092 198.261C101.274 204.396 98.6006 207.771 95.1619 213.923C90.8707 221.614 89.3234 227.844 92.5885 236.345C94.7447 241.068 97.2165 245.639 99.9871 250.031C100.325 250.788 100.949 251.382 101.724 251.679C102.499 251.977 103.361 251.955 104.119 251.617C104.877 251.279 105.471 250.656 105.768 249.881C106.066 249.107 106.044 248.246 105.706 247.489C104.333 243.407 102.345 238.46 101.036 233.61C98.7292 225.07 101.132 222.898 105.433 215.177C109.904 207.141 110.197 200.392 104.973 192.809C89.9218 170.934 57.0237 193.729 65.6028 214.884C65.8174 215.597 66.3021 216.195 66.9532 216.555C67.6045 216.915 68.3706 217.006 69.0879 216.808C69.8052 216.611 70.417 216.142 70.7923 215.499C71.1678 214.858 71.2771 214.095 71.0971 213.373L71.0906 213.367Z" fill="#BCAD3E"/>
<path d="M338.055 89.3083C337.438 93.3324 337.733 93.4866 335.034 107.661C335.008 108.072 334.899 108.474 334.715 108.842C334.531 109.21 334.274 109.538 333.961 109.806C333.648 110.073 333.284 110.276 332.891 110.4C332.499 110.525 332.084 110.569 331.673 110.531C331.264 110.493 330.865 110.373 330.501 110.179C330.138 109.984 329.817 109.718 329.559 109.398C329.3 109.077 329.109 108.708 328.996 108.312C328.883 107.916 328.849 107.501 328.9 107.092C328.567 99.7873 328.658 92.4693 329.173 85.1749C329.273 84.1952 329.681 83.2726 330.34 82.54C330.999 81.8074 331.872 81.3029 332.837 81.0994C344.739 78.5281 352.353 63.4794 337.872 57.8097C332.548 55.7269 328.324 57.1895 326.152 60.5642C324.823 62.786 324.023 65.284 323.818 67.8644C323.611 70.4448 324.003 73.038 324.963 75.4425C325.179 75.7613 325.328 76.1211 325.4 76.4996C325.473 76.878 325.467 77.2672 325.383 77.6435C325.3 78.0196 325.14 78.3747 324.914 78.6871C324.689 78.9994 324.402 79.2622 324.07 79.4596C323.739 79.657 323.371 79.7847 322.989 79.8348C322.605 79.8849 322.217 79.8565 321.846 79.7513C321.476 79.646 321.13 79.4661 320.831 79.2226C320.532 78.9791 320.287 78.6771 320.109 78.3353C308.849 63.2963 320.495 40.958 341.339 48.8809C364.097 57.5333 356.828 82.8865 338.055 89.3083Z" fill="#BCAD3E"/>
<path d="M300.149 323.316C296.264 320.613 292.993 317.122 290.545 313.073C288.098 309.024 286.531 304.506 285.943 299.812C283.721 286.171 287.005 271.456 289.616 258.709C290.803 252.774 292.483 246.948 294.638 241.292C294.781 240.872 295.081 240.524 295.475 240.32C295.869 240.116 296.326 240.072 296.753 240.195C297.178 240.32 297.54 240.603 297.761 240.988C297.984 241.371 298.05 241.825 297.945 242.256C297.002 246.174 296.056 254.47 295.005 259.763C290.462 282.552 285.786 306.025 303.944 319.496C306.138 320.891 305.08 324.872 304.677 334.261C304.698 334.507 304.668 334.752 304.59 334.986C304.513 335.22 304.39 335.435 304.227 335.62C304.065 335.805 303.867 335.956 303.646 336.063C303.426 336.17 303.184 336.233 302.938 336.244C302.692 336.257 302.447 336.221 302.215 336.137C301.984 336.054 301.772 335.924 301.592 335.756C301.411 335.589 301.267 335.387 301.165 335.163C301.064 334.939 301.009 334.696 301.004 334.451C300.638 331.732 300.515 326.014 300.149 323.316ZM300.76 323.706C300.882 323.783 300.882 323.837 301.004 323.874L300.76 323.706ZM300.149 323.262V323.105C300.149 322.861 300.149 322.507 300.025 322.539C299.534 322.639 299.781 322.961 300.149 323.262Z" fill="#191919"/>
<path d="M307.006 290.04C306.892 291.635 307.187 293.232 307.863 294.681C308.263 295.457 308.757 296.18 309.333 296.836C315.57 304.568 329.665 299.358 332.599 289.787C332.825 289.349 332.874 288.843 332.738 288.37C332.601 287.897 332.29 287.495 331.866 287.244C331.646 287.126 331.404 287.052 331.156 287.027C330.908 287.001 330.657 287.026 330.417 287.099C330.177 287.17 329.955 287.289 329.763 287.448C329.569 287.606 329.409 287.801 329.292 288.022C328.383 289.022 327.356 289.909 326.233 290.665C324.078 292.762 321.351 294.179 318.394 294.736C317.215 294.87 316.024 294.679 314.946 294.184C313.869 293.688 312.947 292.909 312.282 291.927C311.859 291.511 311.49 291.045 311.182 290.539C310.938 290.15 310.693 289.828 310.445 289.408C310.408 289.189 310.327 288.98 310.207 288.792C310.088 288.605 309.933 288.444 309.751 288.317C309.568 288.189 309.363 288.1 309.146 288.053C308.928 288.005 308.705 288.001 308.487 288.041C308.029 288.119 307.62 288.371 307.344 288.744C307.069 289.117 306.948 289.582 307.006 290.04Z" fill="#191919"/>
<path d="M316.558 253.869C316.041 256.078 315.673 258.318 315.457 260.577C314.808 264.464 314.359 268.38 314.109 272.311C314.109 275.433 313.788 279.199 315.946 279.518C317.876 279.779 319.064 275.619 319.376 273.823C320.167 270.875 321.306 260.072 321.823 256.145C322.109 254 322.608 248.627 320.353 248.219C318.436 247.81 317.384 251.137 316.558 253.869Z" fill="#191919"/>
<path d="M305.253 242.153C306.043 240.987 307.147 240.066 308.437 239.498C311.501 238.563 312.742 243.677 315.296 242.619C317.387 241.79 315.939 237.798 315.296 236.834C311.815 230.727 302.571 233.89 300.601 239.485C300.113 240.806 299.463 244.484 301.458 244.981C302.658 245.336 305.031 242.475 305.253 242.153Z" fill="#191919"/>
<path d="M335.87 240.987C337.152 240.005 338.674 239.387 340.277 239.2C340.982 239.17 341.685 239.291 342.339 239.553C342.993 239.815 343.584 240.213 344.074 240.72C346.846 243.031 346.892 243.87 348.362 243.318C350.475 242.527 349.201 238.744 348.362 237.313C347.462 235.965 346.211 234.887 344.743 234.197C343.275 233.509 341.646 233.235 340.033 233.405C337.04 233.538 334.222 234.85 332.197 237.056C331.421 237.968 329.578 241.603 331.232 242.742C332.393 243.427 335.539 241.237 335.87 240.987Z" fill="#191919"/>
<path d="M16.2536 334.434C19.8564 347.968 36.0047 355.279 49.3865 359.184C60.3236 362.398 68.5649 359.347 69.7134 369.825C69.726 370.071 69.7872 370.313 69.8931 370.535C69.9992 370.758 70.1481 370.958 70.3314 371.123C70.5146 371.288 70.7287 371.415 70.9612 371.499C71.1937 371.58 71.4404 371.617 71.6868 371.604C71.9334 371.592 72.1749 371.531 72.3978 371.425C72.6207 371.318 72.8205 371.17 72.9858 370.987C73.1511 370.804 73.2787 370.59 73.3614 370.357C73.4441 370.125 73.4801 369.879 73.4673 369.632C73.6607 367.829 73.4843 366.004 72.949 364.27C72.4136 362.537 71.5306 360.932 70.3535 359.55C66.4194 355.107 58.0943 355.738 51.0527 353.658C39.0542 350.1 25.7141 343.836 19.3738 333.055C19.284 332.844 19.1531 332.655 18.9889 332.495C18.8246 332.335 18.6301 332.211 18.4169 332.128C18.2037 332.043 17.976 332.003 17.747 332.009C17.5181 332.015 17.2925 332.065 17.0835 332.159C16.8747 332.248 16.6866 332.38 16.5305 332.545C16.3744 332.709 16.2537 332.904 16.1759 333.117C16.0982 333.33 16.065 333.557 16.0783 333.783C16.0917 334.011 16.1513 334.231 16.2536 334.434Z" fill="#191919"/>
<path d="M34.0975 330.693C39.0334 336.858 45.6461 341.468 53.1409 343.968C55.3154 344.537 59.9733 345.426 60.3754 343.219C61.1732 340.294 54.0448 339.512 45.9996 333.959C43.2033 331.963 40.5982 329.711 38.2182 327.235C37.9351 326.913 34.0942 322.7 32.4505 323.699C30.6683 324.949 33.4219 329.63 34.0975 330.693Z" fill="#191919"/>
<path d="M54.7972 321.774C58.801 326.758 63.9113 330.742 69.723 333.412C71.3314 333.985 75.568 335.145 76.3143 333.164C76.6939 331.831 76.3143 331.285 72.1937 328.542C69.8486 326.982 67.3428 325.635 65.1456 323.879C60.0985 319.874 55.4952 313.947 53.3335 315.609C51.6769 316.869 54.2728 321.092 54.7972 321.774Z" fill="#191919"/>
<path d="M78.4212 322.077C82.7187 325.526 87.67 328.071 92.9772 329.559C94.1643 329.745 98.4715 330.176 98.8383 328.132C99.5234 325.599 93.8393 324.439 88.3097 321.565C85.3438 320.022 77.5977 314.378 75.7642 316.943C74.7381 318.399 77.823 321.552 78.4212 322.077Z" fill="#191919"/>
<path d="M103.326 312.24C104.757 315.018 108.704 319.98 108.27 321.327C107.305 325.589 98.4684 330.908 96.8247 337.472C95.2516 343.643 99.9191 348.227 105.796 350.692C106.223 350.945 106.733 351.019 107.215 350.9C107.697 350.779 108.112 350.474 108.37 350.049C108.612 349.619 108.68 349.114 108.56 348.635C108.44 348.157 108.142 347.743 107.726 347.478C105.42 345.6 101.595 341.743 102.325 338.87C103.483 334.477 112.465 329.047 113.861 322.623C115.209 316.406 107.398 311.553 106.169 310.2C105.898 309.824 105.489 309.569 105.031 309.494C104.573 309.42 104.103 309.529 103.726 309.8C103.349 310.07 103.095 310.479 103.02 310.938C102.945 311.395 103.055 311.864 103.326 312.24Z" fill="#191919"/>
<path d="M119.165 331.005C121.545 339.738 121.369 338.076 122.096 340.731C124.521 349.605 123.517 355.194 122.276 363.738C121.989 365.711 121.912 367.717 121.545 369.844C121.403 370.318 121.455 370.827 121.69 371.263C121.924 371.698 122.322 372.022 122.795 372.164C123.269 372.305 123.779 372.253 124.214 372.02C124.65 371.786 124.974 371.388 125.116 370.914C126.048 368.979 126.873 366.995 127.587 364.969C131.071 354.009 130.086 338.934 122.186 329.372C121.956 328.971 121.579 328.675 121.135 328.546C120.691 328.418 120.214 328.467 119.805 328.684C119.415 328.91 119.128 329.279 119.008 329.714C118.889 330.147 118.945 330.612 119.165 331.005Z" fill="#191919"/>
<path d="M305.7 263.614C306.258 263.727 306.845 263.665 307.429 263.434C308.011 263.201 308.579 262.804 309.099 262.264C309.619 261.722 310.081 261.048 310.458 260.281C310.835 259.513 311.121 258.666 311.298 257.789C311.476 256.912 311.542 256.021 311.492 255.167C311.442 254.313 311.279 253.513 311.009 252.813C310.74 252.113 310.373 251.526 309.926 251.086C309.477 250.646 308.96 250.363 308.402 250.25C307.845 250.137 307.257 250.198 306.674 250.43C306.091 250.662 305.523 251.06 305.004 251.601C304.484 252.142 304.022 252.815 303.644 253.582C303.267 254.351 302.981 255.198 302.804 256.074C302.626 256.952 302.561 257.843 302.611 258.698C302.66 259.551 302.824 260.351 303.093 261.051C303.362 261.751 303.73 262.338 304.178 262.778C304.625 263.217 305.143 263.501 305.7 263.614Z" fill="#191919"/>
<path d="M337.999 263.263C339.195 263.498 340.48 263.024 341.571 261.943C342.663 260.862 343.471 259.263 343.819 257.5C344.168 255.735 344.027 253.951 343.428 252.536C342.829 251.122 341.82 250.195 340.625 249.96C340.033 249.843 339.412 249.9 338.8 250.126C338.186 250.353 337.594 250.746 337.053 251.281C336.512 251.816 336.035 252.483 335.651 253.246C335.265 254.008 334.977 254.851 334.805 255.723C334.632 256.597 334.578 257.486 334.646 258.336C334.712 259.188 334.901 259.987 335.197 260.687C335.493 261.387 335.894 261.975 336.375 262.418C336.856 262.859 337.408 263.146 337.999 263.263Z" fill="#191919"/>
<path d="M379.992 259.844C383.437 250.722 383.311 242.934 376.454 235.905C376.155 212.39 353.331 199.907 336.285 185.686C328.244 178.809 320.713 167.809 311.059 163.3C305.894 160.884 299.775 160.134 295.873 164.322C293.96 166.609 292.842 169.455 292.689 172.431C290.029 169.701 286.69 167.726 283.015 166.711C270.11 163.442 264.876 173.277 267.707 186.721C267.429 186.571 267.143 186.433 266.852 186.311C260.639 183.762 257.136 186.169 256.319 189.772C255.252 193.376 257.33 199.858 258.892 203.197C265.066 216.391 276.315 227.908 287.182 237.614C287.613 238.009 288.157 238.261 288.736 238.339C289.317 238.415 289.907 238.313 290.427 238.044C290.947 237.776 291.372 237.355 291.646 236.839C291.921 236.322 292.028 235.733 291.958 235.153C291.54 229.252 291.592 230.396 291.592 229.521C295.798 231.599 300.184 233.289 304.697 234.574C305.168 234.706 305.669 234.711 306.143 234.589C306.619 234.466 307.053 234.219 307.401 233.874C307.75 233.528 307.999 233.096 308.127 232.622C308.253 232.149 308.251 231.649 308.123 231.177C307.582 228.788 307.157 226.356 306.653 223.894C312.173 226.465 316.083 228.37 322.205 230.71C322.708 230.904 323.257 230.945 323.783 230.831C324.309 230.716 324.79 230.449 325.166 230.065C325.543 229.679 325.798 229.192 325.9 228.664C326.003 228.136 325.948 227.59 325.744 227.091C325.256 225.613 324.779 224.147 324.277 222.659C334.811 226.052 344.797 230.953 353.923 237.21C353.843 237.357 353.76 237.511 353.666 237.67C352.166 241.177 351.781 245.063 352.565 248.797C353.398 254.194 357.069 260.949 357.954 261.03C363.275 261.821 369.617 262.697 372.526 265.915C373.237 266.61 373.74 267.489 373.979 268.455C374.217 269.42 374.181 270.433 373.874 271.379C371.866 278.334 362.161 278.212 355.014 277.107C354.313 277 353.598 277.159 353.01 277.552C352.42 277.946 351.998 278.545 351.829 279.231C348.084 291.496 342.774 303.228 336.031 314.136C329.794 324.683 331.254 314.197 331.254 337.941C331.234 338.183 331.262 338.428 331.338 338.66C331.414 338.891 331.534 339.105 331.694 339.29C331.854 339.473 332.049 339.624 332.269 339.731C332.487 339.838 332.725 339.9 332.969 339.914C333.216 339.937 333.466 339.908 333.701 339.829C333.938 339.751 334.155 339.624 334.338 339.457C334.522 339.29 334.671 339.087 334.772 338.86C334.873 338.634 334.927 338.389 334.928 338.141C335.787 329.68 336.031 325.229 336.398 323.072V322.831C341.316 317.888 352.026 299.046 356.728 283.159C359.452 283.482 362.201 283.527 364.934 283.294C373.516 282.407 377.972 278.007 379.261 272.858C380.005 270.036 379.905 264.259 377.582 262.274L377.863 261.056C378.305 261.156 378.769 261.087 379.162 260.863C379.557 260.639 379.853 260.275 379.992 259.844Z" fill="#191919"/>
<path d="M119.786 261.23C119.059 259.928 118.047 258.81 116.825 257.957C115.604 257.104 114.204 256.539 112.732 256.305C111.26 256.071 109.754 256.173 108.328 256.605C106.901 257.036 105.591 257.786 104.497 258.796C102.821 260.663 101.88 263.074 101.846 265.58C101.812 268.088 102.689 270.523 104.313 272.433C105.16 273.458 106.223 274.281 107.426 274.846C108.629 275.412 109.942 275.706 111.271 275.706C112.6 275.706 113.913 275.412 115.116 274.846C116.319 274.281 117.382 273.458 118.229 272.433C119.502 270.893 120.322 269.031 120.596 267.051C120.871 265.074 120.591 263.057 119.786 261.23Z" fill="#BCAD3E"/>
<path d="M180.348 175.17C179.622 173.871 178.609 172.752 177.387 171.9C176.166 171.047 174.766 170.483 173.295 170.248C171.823 170.014 170.317 170.117 168.891 170.548C167.464 170.979 166.154 171.727 165.06 172.738C163.384 174.605 162.442 177.015 162.408 179.523C162.374 182.031 163.252 184.467 164.876 186.379C165.722 187.402 166.786 188.225 167.989 188.791C169.191 189.356 170.504 189.65 171.834 189.65C173.163 189.65 174.476 189.356 175.678 188.791C176.882 188.225 177.945 187.402 178.791 186.379C180.063 184.837 180.882 182.974 181.157 180.994C181.432 179.015 181.151 177 180.348 175.17Z" fill="#BCAD3E"/>
<path d="M339.239 122.089C338.511 120.79 337.499 119.672 336.277 118.82C335.055 117.968 333.655 117.403 332.184 117.169C330.713 116.935 329.208 117.037 327.781 117.468C326.355 117.899 325.045 118.647 323.949 119.656C322.273 121.523 321.33 123.934 321.298 126.442C321.264 128.95 322.14 131.385 323.766 133.297C324.613 134.32 325.677 135.145 326.879 135.71C328.081 136.276 329.395 136.568 330.723 136.568C332.053 136.568 333.366 136.276 334.569 135.71C335.771 135.145 336.835 134.32 337.682 133.297C338.953 131.755 339.772 129.892 340.046 127.913C340.322 125.934 340.041 123.918 339.239 122.089Z" fill="#BCAD3E"/>
<path d="M571.644 393.653C571.797 393.033 571.735 392.381 571.469 391.802C571.204 391.221 570.75 390.75 570.181 390.46C545.707 377.726 520.583 366.284 494.908 356.181C494.551 356.037 494.167 355.967 493.781 355.975C493.395 355.984 493.016 356.071 492.664 356.231C492.313 356.391 491.998 356.62 491.738 356.906C491.478 357.192 491.281 357.527 491.155 357.892C488.413 365.833 487.648 368.463 483.463 382.83C464.111 387.837 458.018 411.609 454.165 430.978C432.458 388.872 392.191 357.354 347.499 341.625C344.958 340.747 348.342 341.207 307.486 362.233C305.001 354.261 301.974 346.466 298.424 338.906C298.164 338.41 297.768 337.998 297.28 337.72C296.793 337.443 296.237 337.312 295.677 337.343C294.211 337.452 292.746 337.604 291.282 337.801C259.639 342.122 232.512 349.069 202.743 366.608C180.274 380.03 160.396 397.372 144.057 417.81C141.229 411.766 136.228 407.008 130.048 404.481C131.335 397.804 132.27 389.053 132.885 382.069C132.918 381.636 132.853 381.202 132.697 380.797C132.539 380.393 132.294 380.03 131.979 379.732C131.663 379.435 131.285 379.212 130.872 379.079C130.459 378.947 130.021 378.908 129.591 378.966C104.5 382.618 81.0561 379.748 56.6181 373.824C56.2325 373.742 55.8343 373.739 55.4476 373.816C55.061 373.892 54.6938 374.047 54.3685 374.269C54.0431 374.491 53.7663 374.777 53.5547 375.109C53.3431 375.442 53.2012 375.814 53.1375 376.203C52.4942 381.252 50.3004 396.959 49.9207 399.804C32.2541 407.679 28.5259 427.516 27.2135 446.731C24.5436 487.724 37.0858 537.886 69.6975 562.989C103.397 588.914 145.292 564.275 179.567 539.304L178.653 568.103C178.661 568.552 178.843 568.981 179.161 569.3C179.478 569.619 179.907 569.802 180.358 569.811C180.808 569.82 181.243 569.655 181.575 569.35C181.905 569.043 182.104 568.623 182.131 568.173L183.446 536.903C188.644 532.686 193.417 527.972 197.697 522.828C198.058 522.487 198.268 522.017 198.281 521.521C198.296 521.025 198.112 520.544 197.771 520.183C197.43 519.822 196.958 519.612 196.462 519.599C195.965 519.584 195.484 519.768 195.123 520.109C194.802 520.347 157.728 558.306 116.933 567.517C101.64 570.967 86.3509 569.629 72.7084 559.001C41.9496 534.936 30.1408 485.612 32.9169 447.088C34.0524 429.444 37.0987 410.715 53.6072 404.409C54.0916 404.214 54.5161 403.896 54.8379 403.486C55.1599 403.074 55.3678 402.586 55.4407 402.07C56.8175 389.448 57.1392 389.011 58.3713 380.066C80.7112 385.842 103.909 387.558 126.857 385.128C126.496 388.898 125.39 398.078 124.142 405.056C97.4585 409.876 88.6412 405.884 63.1322 405.59C62.6795 405.529 62.2212 405.649 61.8581 405.926C61.4949 406.203 61.2566 406.613 61.1956 407.065C61.1346 407.517 61.2559 407.975 61.5327 408.338C61.8097 408.7 62.2195 408.939 62.6721 409C65.8889 409.748 69.5625 410.745 74.3008 411.443C87.0038 413.269 105.777 414.213 118.158 411.497C120.828 410.88 123.444 410.056 125.985 409.032C129.482 410.254 132.658 412.248 135.278 414.866C141.12 421.085 140.804 429.165 141.506 438.823C142.714 453.013 142.376 467.293 140.499 481.411C140.039 485.052 139.766 488.626 139.212 492.13C139.156 492.37 139.147 492.619 139.187 492.864C139.226 493.106 139.313 493.34 139.445 493.551C139.575 493.761 139.745 493.943 139.945 494.087C140.145 494.231 140.373 494.335 140.613 494.391C140.854 494.448 141.103 494.457 141.348 494.417C141.591 494.377 141.825 494.29 142.035 494.16C142.246 494.03 142.428 493.86 142.572 493.66C142.716 493.458 142.82 493.232 142.876 492.991C144.048 489.465 145.026 485.877 145.803 482.243C148.981 463.51 148.748 444.357 145.115 425.707C184.592 375.168 233.576 350.267 294.13 343.299C297.221 349.531 299.92 358.406 302.509 365.499C289.811 369.713 276.859 373.124 263.731 375.71C269.729 367.246 275.174 358.402 280.031 349.236C280.253 348.838 280.31 348.368 280.189 347.929C280.07 347.488 279.781 347.113 279.387 346.883C278.983 346.661 278.51 346.604 278.066 346.723C277.621 346.844 277.24 347.131 277.004 347.526C273.092 354.172 262.132 368.803 254.94 378.327C254.601 378.783 254.408 379.332 254.39 379.901C254.37 380.47 254.525 381.03 254.834 381.508C255.142 381.987 255.59 382.36 256.115 382.576C256.641 382.795 257.221 382.847 257.777 382.727C274.439 379.192 291.031 376.055 306.945 370.012C321.245 381.474 337.287 390.577 354.464 396.978C354.969 397.16 355.515 397.195 356.04 397.081C356.564 396.965 357.045 396.704 357.429 396.328C357.811 395.951 358.08 395.475 358.202 394.952C358.325 394.429 358.298 393.884 358.124 393.376C353.442 380.273 350.912 366.5 350.63 352.591C350.634 352.1 350.444 351.627 350.101 351.274C349.759 350.922 349.291 350.718 348.798 350.708C348.298 350.708 347.817 350.903 347.456 351.249C347.096 351.597 346.885 352.071 346.868 352.573C346.186 364.997 347.548 377.448 350.9 389.432C336.894 383.615 323.758 375.897 311.863 366.495C323.688 360.389 335.392 354.259 346.868 347.533C392.068 363.754 434.603 398.27 452.701 441.24C452.726 441.301 452.753 441.359 452.782 441.418C450.208 450.301 445.583 486.856 445.472 488.096C445.245 490.7 445.199 493.284 445.016 495.88C444.937 496.373 445.058 496.875 445.349 497.278C445.641 497.682 446.082 497.952 446.573 498.031C447.068 498.109 447.575 497.992 447.985 497.704C448.395 497.414 448.677 496.978 448.77 496.486C449.413 494.058 450.056 491.683 450.601 489.238C454.481 472.052 457.654 424.26 468.634 403.136C472.478 395.655 477.962 389.637 486.213 388.059C486.723 387.959 487.194 387.723 487.582 387.377C487.968 387.032 488.254 386.589 488.411 386.096C490.225 379.886 495.002 364.24 495.552 362.59C518.594 371.747 543.057 382.718 565.594 394.411C563.793 401.215 562.674 406.335 560.1 414.711C560 415.097 559.981 415.5 560.044 415.893C560.107 416.288 560.251 416.664 560.467 417C570.05 432.022 563.974 449.98 558.637 466.819C547.522 502.572 529.782 550.477 496.832 568.428C481.91 576.598 466.16 582.682 451.604 580.483C430.123 577.247 422.974 559.592 411.346 541.271C411.133 540.822 410.749 540.477 410.281 540.31C409.813 540.143 409.297 540.169 408.848 540.382C408.399 540.595 408.054 540.978 407.886 541.446C407.72 541.915 407.746 542.429 407.959 542.878C411.399 551.365 416.222 559.223 422.232 566.136C422.621 574.348 422.503 580.075 422.306 588.129C422.304 588.619 422.492 589.09 422.831 589.442C423.172 589.794 423.636 590.001 424.125 590.015C424.615 590.031 425.09 589.855 425.452 589.525C425.813 589.196 426.031 588.737 426.06 588.249C426.276 579.397 426.333 583.771 426.333 571.185C446.582 592.807 473.112 586.517 499.123 572.596C533.699 554.083 552.112 505.594 563.948 468.487C569.666 450.076 575.692 431.846 565.878 415.097C566.611 412.471 570.551 398.232 571.644 393.653Z" fill="#191919"/>
</g>
</g>
<defs>
<clipPath id="clip0_1409_4705">
<rect width="451" height="574" fill="white"/>
</clipPath>
</defs>
</svg>
