<svg width="355" height="472" viewBox="0 0 355 472" fill="none" xmlns="http://www.w3.org/2000/svg">
<g opacity="0.3">
<path d="M158.507 116.584C157.976 117.115 160.867 119.617 161.276 119.905C162.243 120.594 163.381 121.003 164.565 121.088C165.75 121.172 166.935 120.929 167.99 120.384C169.045 119.839 169.93 119.014 170.547 118C171.164 116.985 171.489 115.82 171.487 114.632C171.429 113.099 170.861 111.629 169.875 110.454C168.888 109.278 167.538 108.465 166.038 108.142C166.586 105.903 166.301 103.541 165.236 101.496C164.17 99.4515 162.398 97.8643 160.248 97.0305C158.099 96.1967 155.719 96.1733 153.554 96.9647C151.389 97.7561 149.585 99.3082 148.48 101.331C145.581 98.8848 141.921 97.5242 138.128 97.4837C134.336 97.4432 130.647 98.7253 127.697 101.11C124.747 103.494 122.72 106.831 121.964 110.548C121.208 114.265 121.771 118.129 123.556 121.476C121.019 120.456 118.217 120.302 115.584 121.038C112.951 121.774 110.635 123.36 108.996 125.549C107.357 127.737 106.487 130.405 106.522 133.139C106.556 135.873 107.492 138.519 109.186 140.666C107.083 140.415 104.951 140.627 102.939 141.286C100.927 141.946 99.0829 143.037 97.5367 144.484C95.4852 146.224 93.8557 148.407 92.7711 150.868C91.6865 153.33 91.1751 156.006 91.2756 158.694C91.5328 165.144 97.3998 172.821 103.802 172.441C111.001 171.033 118.102 169.165 125.061 166.847C127.132 166.312 129.012 165.21 130.489 163.664C135.365 157.646 136.64 144.958 136.625 137.94C136.625 134.789 136.028 131.672 135.969 128.561C137.476 128.548 138.96 128.193 140.309 127.522C141.658 126.852 142.837 125.884 143.757 124.691C145.348 122.539 146.115 119.888 145.919 117.219C147.728 118.679 150.012 119.422 152.334 119.305C154.656 119.187 156.854 118.219 158.507 116.584Z" fill="#F4EEF4"/>
<path d="M170.942 155.777C168.221 151.772 164.819 148.276 160.89 145.447C161.19 145.664 157.35 148.987 156.961 149.239C155.762 150.049 153.607 150.438 152.736 151.578C152.103 152.989 151.819 154.532 151.91 156.076C151.654 158.394 151.468 160.723 151.354 163.064C157.504 162.773 163.62 161.973 169.639 160.673C171.864 160.4 172.903 158.592 170.942 155.777Z" fill="#F4EEF4"/>
<path d="M352.407 100.772C355.982 102.692 359.022 105.472 361.254 108.861C363.485 112.25 364.838 116.141 365.189 120.183C365.202 120.469 365.325 120.738 365.532 120.936C365.739 121.133 366.014 121.243 366.3 121.243C366.586 121.243 366.86 121.133 367.067 120.936C367.274 120.738 367.397 120.469 367.41 120.183C367.369 115.704 365.992 111.339 363.456 107.648C360.919 103.956 357.338 101.106 353.172 99.4622C352.304 99.12 351.518 100.326 352.407 100.772Z" fill="#F4EEF4"/>
<path d="M288.109 195.172C286.013 192.812 277.619 187.943 273.262 181.668C259.895 162.408 255.758 139.488 255.699 116.034C255.77 116.001 262.543 111.191 267.329 110.972C270.623 110.884 273.885 111.632 276.811 113.148C276.708 116.088 277.021 119.028 277.741 121.88C281.517 142.962 292.107 166.585 313.009 171.147C313.113 171.176 313.221 171.184 313.328 171.171C313.435 171.157 313.538 171.123 313.631 171.07C313.725 171.017 313.807 170.946 313.873 170.861C313.939 170.777 313.988 170.68 314.017 170.576C314.045 170.472 314.053 170.364 314.04 170.257C314.027 170.151 313.993 170.047 313.94 169.954C313.887 169.86 313.816 169.778 313.731 169.712C313.646 169.646 313.549 169.597 313.446 169.568C302.793 165.123 294.171 156.881 289.249 146.44C280.934 129.713 281.383 118.46 279.169 112.393C278.19 109.707 270.402 107.422 266.772 107.625C262.942 107.84 254.467 111.921 254.054 113.337C249.381 129.403 254.092 147.899 259.897 163.39C262.761 170.94 266.573 178.096 271.239 184.686C276.469 192.137 284.08 197.171 287.193 197.32C287.443 197.323 287.688 197.251 287.898 197.115C288.107 196.978 288.272 196.782 288.37 196.552C288.468 196.322 288.495 196.068 288.449 195.822C288.402 195.577 288.284 195.35 288.109 195.172Z" fill="#F4EEF4"/>
<path d="M313.623 171.402C309.913 177.134 314.548 185.661 320.828 187.046C326.952 188.399 335.007 185.581 336.911 179.188C337.247 178.062 335.609 176.979 334.823 177.977C333.465 179.96 331.61 181.552 329.443 182.592C327.276 183.632 324.874 184.084 322.478 183.903C316.276 183.181 315.004 177.075 315.398 171.867C315.473 170.885 314.095 170.673 313.623 171.402Z" fill="#F4EEF4"/>
<path d="M409.036 258.481C408.17 243.556 406.737 232.162 399.919 217.653C392.343 201.525 380.442 185.557 364.908 176.325C356.922 171.576 347.433 168.976 338.307 171.68C337.398 171.949 337.521 173.476 338.542 173.396C361.314 171.628 379.134 189.527 390.437 207.411C401.455 224.863 404.405 237.855 405.446 256.241C405.475 261.844 405.937 267.436 406.829 272.967C407.152 274.465 409.236 273.989 409.357 272.62C409.593 267.905 409.486 263.18 409.036 258.481Z" fill="#F4EEF4"/>
<path d="M404.681 272.398C401.844 273.117 398.94 273.542 396.015 273.668C394.569 273.623 392.775 273.014 391.196 273.014C390.639 262.642 383.547 245.969 377.272 235.894C370.407 224.865 361.187 213.736 349.611 207.46C348.792 207.014 347.869 208.114 348.589 208.77L348.719 208.9C348.583 208.985 348.471 209.103 348.393 209.243C348.316 209.383 348.275 209.54 348.275 209.7C347.817 235.405 356.57 261.028 369.406 282.792C370.704 284.994 372.201 288.76 374.582 289.905C374.775 289.999 374.989 290.045 375.204 290.037C375.419 290.03 375.629 289.97 375.815 289.862C376.001 289.755 376.159 289.604 376.273 289.421C376.387 289.239 376.455 289.031 376.47 288.817C376.378 286.315 374.093 283.969 372.84 281.869C360.875 261.809 350.656 233.791 350.253 210.347C364.682 224.054 375.269 234.737 382.979 255.057C385.299 261.172 386.299 267.499 388.171 273.701C388.173 274.016 388.262 274.324 388.429 274.591C388.595 274.858 388.833 275.074 389.115 275.214C394.361 277.309 402.095 278.317 405.913 274.475C406.85 273.54 405.833 272.209 404.681 272.398Z" fill="#F4EEF4"/>
<path d="M372.8 289.511C364.393 293.806 359.473 301.311 340.881 302.472C328.137 303.263 314.836 302.262 303.047 297.096C303.047 297.016 297.652 288.279 294.315 270.322C286.185 226.711 290.384 212.974 296.005 185.881C296.182 185.036 294.889 184.34 294.507 185.227C290.969 194.155 288.667 203.524 287.663 213.075C285.149 232.315 286.244 251.854 290.893 270.692C293.193 280.126 296.406 289.314 300.487 298.125C311.801 306.597 328.554 306.76 342.105 305.826C348.317 305.432 354.405 303.905 360.067 301.32C364.759 299.149 371.867 295.84 374.227 290.915C374.34 290.716 374.385 290.486 374.353 290.26C374.322 290.034 374.216 289.824 374.053 289.664C373.89 289.504 373.679 289.402 373.453 289.374C373.226 289.347 372.996 289.395 372.8 289.511Z" fill="#F4EEF4"/>
<path d="M234.33 12.6687C234.006 11.2527 232.057 11.7058 231.946 12.9968C231.34 19.9918 232.833 27.5202 233.834 34.4444C234.888 41.8396 236.332 49.1738 238.162 56.416C238.497 57.7258 240.402 57.1618 240.18 55.8591C234.601 23.0527 236.532 22.2786 234.33 12.6687Z" fill="#F4EEF4"/>
<path d="M259.615 52.8001C272.323 38.7723 280.671 31.5743 284.829 26.3681C285.565 25.4477 284.614 23.7603 283.446 24.5792C275.04 30.4792 264.252 43.4592 258.017 51.5611C257.311 52.4862 258.843 53.6521 259.615 52.8001Z" fill="#F4EEF4"/>
<path d="M276.785 54.2352C284.599 50.8534 293.305 47.9836 300.329 43.1008C301.346 42.3928 300.763 40.5567 299.432 40.9768C291.271 43.6129 283.65 48.727 276.228 52.9278C275.551 53.3219 276.009 54.5704 276.785 54.2352Z" fill="#F4EEF4"/>
<path d="M210.748 45.4132C206.963 40.1569 202.786 35.1938 198.254 30.5665C198.042 30.3767 197.77 30.2674 197.485 30.2576C197.201 30.2477 196.922 30.338 196.697 30.5127C196.473 30.6874 196.316 30.9354 196.256 31.2135C196.195 31.4915 196.234 31.7821 196.366 32.0344C199.8 37.1577 203.62 42.0114 207.793 46.5531C211.909 51.5469 216.15 56.3801 220.386 61.3007C221.172 62.2117 222.824 60.9656 222.076 59.9909C218.33 55.1128 214.618 50.2111 210.748 45.4132Z" fill="#F4EEF4"/>
<path d="M204 69.2446C197.13 64.9686 189.483 62.0932 181.498 60.7841C180.445 60.6448 180.379 62.226 181.262 62.5446C188.656 64.9121 195.862 67.831 202.82 71.2766C203.087 71.3999 203.39 71.4192 203.67 71.3306C203.951 71.2421 204.188 71.0522 204.335 70.798C204.483 70.5438 204.531 70.2437 204.468 69.9564C204.406 69.6691 204.239 69.4153 204 69.2446Z" fill="#F4EEF4"/>
<path d="M75.7086 448.747C72.3031 448.039 69.9596 449.238 66.7689 446.725C62.0819 443.034 56.9324 430.662 53.8148 426.193C53.2956 425.449 51.9764 425.874 52.269 426.849C53.4325 430.736 60.0783 448.089 68.2226 451.577C70.2383 452.077 72.3242 452.232 74.3917 452.035C75.6496 453.078 62.4454 457.031 59.9957 456.915C56.7722 456.552 53.5729 456.001 50.4141 455.263C43.8297 449.927 37.9698 440.159 33.9436 432.72C35.0316 424.371 36.6128 422.695 35.1236 422.367C34.9671 422.334 34.8041 422.348 34.6559 422.409C34.5078 422.47 34.3813 422.573 34.2929 422.707C33.2026 424.326 30.9582 431 31.7913 432.251C33.095 437.537 35.449 442.508 38.7132 446.866C41.3092 450.345 46.1307 458.775 58.818 460.134C64.9942 460.797 77.3016 456.667 78.5429 455.315C80.8935 452.75 78.6892 449.361 75.7086 448.747Z" fill="#F4EEF4"/>
<path d="M97.8505 115.763C98.9869 111.022 100.901 106.503 103.515 102.389C106.332 98.443 109.523 94.7782 113.044 91.4452C113.213 91.2701 113.313 91.0401 113.327 90.7971C113.34 90.5542 113.266 90.3145 113.118 90.1217C112.969 89.929 112.756 89.7959 112.518 89.7469C112.28 89.6979 112.032 89.7361 111.819 89.8546C103.125 94.7917 97.8954 105.818 95.8917 115.199C95.6156 116.494 97.5437 117.039 97.8505 115.763Z" fill="#F4EEF4"/>
<path d="M95.1081 95.1858C91.3858 99.1378 89.1597 104.265 88.814 109.683C88.6724 110.934 90.6147 110.903 90.7799 109.683C91.7124 104.853 93.6819 100.283 96.5525 96.2879C96.6595 96.0951 96.6935 95.8703 96.6484 95.6545C96.6033 95.4386 96.482 95.2463 96.3067 95.1125C96.1314 94.9788 95.9139 94.9126 95.6938 94.926C95.4737 94.9395 95.2658 95.0317 95.1081 95.1858Z" fill="#F4EEF4"/>
<path d="M324.562 149.895C327.2 149.449 328.791 146.388 327.08 145.963C326.247 145.756 326.11 146.591 323.84 147.28C322.919 147.445 321.978 147.47 321.05 147.353C320.811 147.357 320.582 147.454 320.414 147.625C320.246 147.795 320.153 148.025 320.153 148.264C320.16 149.166 322.051 150.471 324.562 149.895Z" fill="#F4EEF4"/>
<path d="M319.15 159.149C318.607 160.249 316.518 166.911 315.846 169.077C315.572 169.946 316.927 170.545 317.34 169.731C318.357 167.723 321.401 161.518 321.779 160.386C328.552 162.597 335.5 158.089 336.215 152.914C336.338 152.01 335.209 150.953 334.452 151.885C332.064 154.825 329.789 157.735 325.592 157.681C323.677 157.634 321.821 157.011 320.266 155.893C318.711 154.775 317.529 153.213 316.875 151.413C314.12 144.526 315.739 136.342 318.472 129.732C318.708 129.134 317.819 128.868 317.498 129.319C311.331 137.944 310.151 153.733 319.15 159.149Z" fill="#F4EEF4"/>
<path d="M321.904 135.7C322.376 135.155 321.765 134.204 321.092 134.645C319.02 136.002 316.136 138.254 316.136 141.05C316.136 143.191 319.141 145.473 320.892 143.519C321.028 143.368 321.103 143.172 321.103 142.969C321.103 142.766 321.028 142.57 320.892 142.419C319.884 141.289 318.23 141.515 319.273 139.587C320.007 138.2 320.89 136.897 321.904 135.7Z" fill="#F4EEF4"/>
<path d="M326.95 132.868C326.744 132.779 326.514 132.768 326.301 132.838C326.089 132.908 325.91 133.054 325.798 133.248C325.357 133.77 324.995 134.355 324.724 134.982C324.626 135.254 324.639 135.553 324.762 135.814C324.884 136.076 325.104 136.278 325.375 136.377C327.78 136.802 327.835 133.257 326.95 132.868Z" fill="#F4EEF4"/>
<path d="M329.17 135.009C329.227 135.188 329.334 135.347 329.478 135.468C329.621 135.588 329.797 135.666 329.983 135.691C330.169 135.715 330.358 135.686 330.529 135.608C330.699 135.529 330.844 135.403 330.945 135.245C331.278 134.554 331.427 133.789 331.377 133.024C331.328 132.259 331.083 131.519 330.664 130.876C330.38 130.194 329.903 129.611 329.29 129.197C328.678 128.784 327.957 128.56 327.219 128.552C327.036 128.556 326.862 128.626 326.726 128.747C326.59 128.869 326.502 129.035 326.478 129.216C326.453 129.396 326.494 129.58 326.593 129.733C326.691 129.887 326.841 130 327.016 130.053C327.872 130.303 328.458 131.662 328.687 132.436C328.916 133.21 328.842 134.183 329.17 135.009Z" fill="#F4EEF4"/>
<path d="M334.45 126.385C333.449 131.837 337.574 141.057 344.246 140.635C341.218 144.81 339.085 149.566 337.98 154.604C336.294 159.827 335.875 165.376 336.755 170.793C336.97 171.841 338.372 171.447 338.476 170.557C338.891 165.267 339.815 160.03 341.235 154.917C342.259 151.538 348.999 141.878 351.541 134.02C352.336 131.134 352.254 128.077 351.305 125.238C350.696 123.352 349.427 121.749 347.731 120.723C346.035 119.696 344.026 119.316 342.072 119.652C341.173 115.959 335.535 112.898 330.119 115.074C328.292 111.871 323.78 111.158 320.19 111.298C315.647 111.479 313.11 115.39 312.988 119.699C312.7 129.58 326.912 128.62 334.45 126.385Z" fill="#F4EEF4"/>
<path d="M256.595 107.347C250.974 106.743 250.967 98.6882 250.877 94.4897C250.783 89.9585 252.071 85.5855 252.043 81.0991C252.037 80.8571 251.952 80.6236 251.803 80.4332C251.653 80.2429 251.446 80.1059 251.212 80.0426C250.978 79.9793 250.731 79.993 250.505 80.0817C250.28 80.1704 250.089 80.3294 249.961 80.5351C246.837 86.3171 244.769 111.791 256.85 109.218C257.997 108.975 257.603 107.456 256.595 107.347Z" fill="#F4EEF4"/>
<path d="M255.622 93.744C256.566 88.1767 258.562 82.8738 259.551 77.3726C259.608 77.1313 259.578 76.8775 259.466 76.6564C259.353 76.4352 259.167 76.2608 258.938 76.1641C258.71 76.0675 258.455 76.0547 258.218 76.1282C257.981 76.2017 257.778 76.3566 257.644 76.5655C254.849 81.7618 253.525 87.622 253.814 93.515C253.804 94.5298 255.445 94.7989 255.622 93.744Z" fill="#F4EEF4"/>
<path d="M264.698 75.2555C260.632 80.3147 258.521 86.6673 258.75 93.1538C258.753 93.3849 258.838 93.6076 258.991 93.781C259.144 93.9544 259.354 94.067 259.583 94.0982C259.812 94.1294 260.045 94.0772 260.239 93.951C260.432 93.8248 260.574 93.6331 260.638 93.411C261.561 90.52 262.229 87.5558 263.213 84.679C264.197 81.8022 265.479 79.0905 266.246 76.1641C266.288 75.9695 266.268 75.7664 266.188 75.5839C266.109 75.4014 265.973 75.2488 265.801 75.1479C265.63 75.0471 265.43 75.0032 265.232 75.0225C265.034 75.0418 264.847 75.1234 264.698 75.2555Z" fill="#F4EEF4"/>
<path d="M276.32 77.3511C276.938 76.4567 275.756 75.5103 274.918 75.9493C268.874 79.1187 265.377 86.8879 264.062 93.2268C264.017 93.4352 264.054 93.6529 264.164 93.8352C264.275 94.0175 264.451 94.1504 264.657 94.2067C264.862 94.2629 265.082 94.2382 265.27 94.1376C265.458 94.037 265.6 93.8681 265.667 93.6658C269.441 83.9497 273.415 81.5566 276.32 77.3511Z" fill="#F4EEF4"/>
<path d="M277.299 89.5713C271.661 91.4263 267.553 98.4496 266.278 103.967C266.22 104.225 266.266 104.495 266.407 104.719C266.547 104.942 266.771 105.101 267.029 105.159C268.482 105.489 268.277 103.332 273.165 97.1351C275.037 95.1854 276.762 93.0997 278.326 90.8953C278.409 90.739 278.446 90.562 278.431 90.3856C278.416 90.2092 278.35 90.0408 278.241 89.9009C278.133 89.761 277.986 89.6554 277.819 89.5969C277.652 89.5384 277.471 89.5295 277.299 89.5713Z" fill="#F4EEF4"/>
<path d="M439.668 416.901C439.55 416.724 416.46 387.196 407.808 371.714C388.438 336.994 379.701 307.286 373.957 294.75C373.624 294.023 372.588 294.566 372.727 295.266C375.309 308.372 385.386 333.175 390.847 345.412C400.721 367.537 418.877 401.301 436.362 416.212C433.719 419.354 430.205 421.644 426.264 422.794C419.372 416.082 391.121 397.702 357.165 343.991C350.807 333.933 345.365 323.532 339.288 313.427C338.894 312.773 337.697 313.202 337.978 313.965C344.409 331.49 355.615 348.499 366.499 364.023C366.152 364.986 364.533 372.118 364.533 372.118C354.88 371.933 345.257 370.972 335.758 369.243C326.235 367.412 316.948 364.519 308.07 360.62C297.589 356.265 296.872 353.431 297.36 334.527C297.817 323.683 299.311 312.907 301.821 302.346C301.854 302.227 301.863 302.101 301.848 301.978C301.833 301.854 301.793 301.735 301.732 301.627C301.67 301.518 301.588 301.423 301.49 301.347C301.392 301.27 301.28 301.214 301.16 301.181C301.04 301.147 300.915 301.138 300.791 301.154C300.668 301.169 300.548 301.208 300.44 301.27C300.332 301.331 300.237 301.413 300.16 301.511C300.084 301.609 300.027 301.721 299.994 301.841C296.132 313.155 294.092 325.01 293.95 336.963C293.757 350.58 293.74 357.731 303.322 362.255C320.769 370.489 346.51 376.849 365.196 374.383C367.022 383.986 367.692 393.772 367.193 403.534C367.206 403.849 367.309 404.153 367.49 404.411C367.671 404.67 367.921 404.871 368.213 404.991C368.504 405.111 368.823 405.146 369.134 405.09C369.444 405.035 369.732 404.892 369.963 404.678C375.833 398.204 379.188 389.84 379.42 381.104C397.663 403.706 418.421 421.635 424.562 425.31C424.562 425.347 423.122 441.461 413.501 444.536C412.628 444.709 411.799 445.058 411.064 445.561C410.33 446.064 409.706 446.711 409.229 447.463C407.053 451.739 431.961 450.883 432.041 450.842C434.564 449.58 442.838 421.607 439.668 416.901Z" fill="#F4EEF4"/>
<path d="M331.255 309.814C329.793 320.347 327.314 330.714 323.854 340.77C323.745 341.2 323.808 341.656 324.028 342.042C324.248 342.428 324.608 342.714 325.034 342.84C335.205 345.95 344.676 351.057 354.77 354.215C355.756 354.524 356.165 353.193 355.424 352.65C348.957 347.907 334.587 342.266 327.559 340.088C330.464 330.305 332.24 320.222 332.85 310.036C332.907 309.125 331.378 308.891 331.255 309.814Z" fill="#F4EEF4"/>
<path d="M234.525 79.3952C234.359 79.2395 234.148 79.1413 233.922 79.1153C233.697 79.0893 233.469 79.1369 233.272 79.2509C233.076 79.3649 232.921 79.5393 232.832 79.7482C232.742 79.957 232.723 80.1891 232.776 80.41C233.838 84.6344 236.845 88.2546 236.439 96.2645C236.175 101.674 234.355 106.893 231.2 111.295C230.51 112.239 232.068 113.455 232.83 112.553C236.783 108.188 239.216 102.659 239.764 96.7955C240.21 91.1362 238.976 83.3883 234.525 79.3952Z" fill="#F4EEF4"/>
<path d="M230.809 93.1539C230.848 93.3857 230.968 93.596 231.148 93.7476C231.328 93.8993 231.555 93.9825 231.79 93.9825C232.025 93.9825 232.253 93.8993 232.433 93.7476C232.612 93.596 232.733 93.3857 232.772 93.1539C233.062 86.8739 231.913 78.4983 226.872 74.0048C226.719 73.8613 226.523 73.7712 226.314 73.7478C226.105 73.7244 225.894 73.769 225.712 73.875C225.531 73.981 225.388 74.1428 225.306 74.3362C225.224 74.5297 225.206 74.7445 225.256 74.9488C226.615 79.4871 229.942 83.1947 230.809 93.1539Z" fill="#F4EEF4"/>
<path d="M225.318 91.4333C225.46 92.7431 227.473 92.8328 227.459 91.4333C227.393 85.125 225.684 75.5647 219.737 72.0813C219.563 71.9846 219.365 71.9408 219.166 71.9554C218.968 71.97 218.778 72.0424 218.62 72.1635C218.462 72.2847 218.344 72.4494 218.278 72.6374C218.213 72.8253 218.204 73.0283 218.253 73.2212C219.86 77.5093 224.181 80.962 225.318 91.4333Z" fill="#F4EEF4"/>
<path d="M217.467 83.7565C220.811 93.5316 218.666 96.4061 220.518 96.4013C220.746 96.4013 220.963 96.3111 221.124 96.1504C221.285 95.9898 221.375 95.7719 221.375 95.5447C221.857 91.3153 221.481 87.0321 220.268 82.9517C219.377 78.9968 217.402 75.3683 214.564 72.4733C213.755 71.8101 212.027 72.4072 212.527 73.6533C213.939 77.1721 216.223 80.1291 217.467 83.7565Z" fill="#F4EEF4"/>
<path d="M216.686 106.974C216.839 107.77 218.116 107.583 218.102 106.783C217.941 100.581 216.068 92.885 210.342 89.4866C210.13 89.3684 209.885 89.3228 209.645 89.3565C209.405 89.3903 209.182 89.5017 209.01 89.6738C208.839 89.8459 208.729 90.0692 208.696 90.3097C208.664 90.5503 208.71 90.795 208.829 91.0065C210.784 94.4473 215.05 98.4357 216.686 106.974Z" fill="#F4EEF4"/>
<path d="M230.151 114.505C229.035 117.246 228.348 120.144 228.115 123.095C226.038 132.662 222.464 141.841 217.525 150.294C211.078 161.858 190.673 179.844 190.673 179.844C190.673 179.844 186.425 171.728 185.788 156.069C199.449 148.471 210.153 136.494 216.175 122.068C218.026 118.289 219.223 114.223 219.715 110.044C219.782 108.642 217.525 107.908 216.938 109.291C214.918 114.049 211.51 133.668 191.372 148.5C180.031 156.679 166.548 161.365 152.581 161.983C152.758 160.459 152.581 158.915 152.72 157.4C152.859 155.885 153.192 154.197 153.44 152.593C165.801 150.067 167.338 128.285 158.377 119.14C157.494 118.236 156.222 119.376 156.725 120.419C159.694 126.701 162.035 132.603 160.767 139.717C160.427 143.295 158.707 146.6 155.972 148.932C154.302 149.968 152.329 150.403 150.378 150.165C148.428 149.927 146.617 149.03 145.246 147.623C144.653 147.068 143.575 147.8 144.066 148.526C144.864 149.83 145.982 150.908 147.314 151.657C148.647 152.407 150.148 152.804 151.677 152.81C150.511 155.76 150.282 158.997 151.021 162.082C148.387 162.165 145.751 162.08 143.129 161.827C141.821 161.69 127.654 162.809 121.263 166.842C117.988 166.444 108.505 170.248 105.86 171.562C97.8077 175.552 90.444 180.8 84.0461 187.11C82.7292 188.415 80.5533 190.072 80.6737 192.16C81.0944 194.002 82.1964 195.615 83.7582 196.677C77.0369 202.618 71.9747 211.885 73.4686 220.818C75.2575 231.511 84.7636 240.788 94.0785 245.652C94.3114 245.78 94.5823 245.82 94.8423 245.765C95.1022 245.711 95.3342 245.565 95.4962 245.355C95.6582 245.144 95.7398 244.883 95.726 244.618C95.7123 244.352 95.6042 244.101 95.4213 243.908C88.5915 236.698 79.5763 231.889 77.0841 221.472C74.7878 211.883 80.7964 205.48 85.7217 198.344C88.1888 200.926 90.9219 203.239 93.8755 205.247C94.0821 205.359 94.3194 205.401 94.552 205.367C94.7845 205.333 94.9998 205.224 95.1656 205.058C95.3313 204.891 95.4387 204.675 95.4717 204.443C95.5046 204.21 95.4612 203.973 95.3482 203.767C94.0572 201.482 84.2727 192.252 84.504 191.29C84.8816 189.711 93.8307 182.496 96.0113 180.906C102.516 176.173 109.67 172.404 117.251 169.715C111.341 174.385 106.646 180.412 103.563 187.285C99.7496 195.88 98.9802 205.376 98.6876 214.677C97.0214 267.541 91.761 263.515 87.6593 276.578C87.5861 276.752 83.0762 295.609 82.4201 298.351C72.7913 330.902 66.6081 351.973 51.0911 386.226C43.0435 403.987 38.9654 410.666 35.3334 419.049C34.7646 420.358 37.1482 423.827 43.945 425.775C45.9109 426.339 52.0587 425.775 53.8216 423.561C55.5845 421.347 64.031 410.17 68.8501 403.574C74.7501 395.512 107.663 345.133 116.003 326.834C120.251 317.519 126 297.617 127.135 296.937C127.567 296.68 128.119 297.173 128.27 297.645C128.421 298.117 126.019 308.386 124.943 313.023C124.284 315.855 123.352 322.192 124.286 323.424C126.399 325.916 128.679 328.261 131.112 330.442C126.039 332.29 121.142 334.589 116.48 337.312C110.891 341.374 106.402 349.348 102.917 355.199C101.682 357.268 95.8508 368.651 94.8762 370.916C94.7302 371.171 94.6456 371.456 94.629 371.749C94.6125 372.042 94.6645 372.335 94.7808 372.604C94.8972 372.873 95.0748 373.112 95.2994 373.301C95.5241 373.49 95.7896 373.623 96.075 373.692C105.071 373.203 114.313 370.192 122.873 367.556C132.268 364.694 141.439 361.144 150.313 356.936C157.992 353.266 166.521 348.9 171.708 341.919C178.453 332.835 157.801 276.353 150.169 275.001C149.513 274.886 140.283 285.539 103.462 279.926C99.2138 279.277 95.832 276.514 91.7444 275.31C97.6444 266.972 98.9141 256.069 100.094 246.266C103.634 216.893 98.4421 195.186 113.173 178.267C120.627 169.792 131.044 164.492 142.284 163.458C142.532 163.458 153.961 169.705 183.851 157.143C183.572 162.097 183.928 167.067 184.91 171.931C185.46 174.626 188.422 184.519 189.961 186.194C179.624 194.813 173.025 196.814 166.743 200.333C166.493 200.605 166.313 200.934 166.219 201.291C164.786 210 152.116 262.488 151.028 267.912C150.955 268.295 151.029 268.692 151.236 269.023C151.443 269.354 151.766 269.595 152.143 269.698C152.519 269.801 152.92 269.759 153.267 269.58C153.613 269.401 153.88 269.097 154.013 268.731C156.064 263.253 168.126 207.224 167.765 202.056C177.302 200.404 186.114 193.73 192.455 186.803C192.927 186.282 191.957 183.077 191.393 181.729C191.629 181.911 213.072 164.084 220.105 152.465C223.575 146.728 226.414 140.632 228.573 134.284C229.656 131.107 233.123 117.882 232.252 114.873C232.192 114.658 232.073 114.464 231.908 114.313C231.742 114.163 231.538 114.063 231.318 114.024C231.098 113.986 230.872 114.011 230.665 114.096C230.459 114.181 230.28 114.322 230.151 114.505Z" fill="#F4EEF4"/>
<path d="M154.877 137.288C156.27 138.293 160.036 139.905 160.504 137.052C160.709 135.799 157.919 130.321 157.02 128.969C156.605 128.348 155.408 128.733 155.711 129.514C156.35 131.166 157.865 135.924 157.835 135.971C157.804 136.018 156.468 135.393 155.76 135.174C154.434 134.756 153.872 136.564 154.877 137.288Z" fill="#F4EEF4"/>
<path d="M149.86 131.858C150.201 130.793 150.201 129.649 149.86 128.585C149.788 128.355 149.645 128.154 149.451 128.011C149.258 127.868 149.023 127.791 148.782 127.791C148.542 127.791 148.307 127.868 148.113 128.011C147.919 128.154 147.776 128.355 147.705 128.585C147.364 129.649 147.364 130.793 147.705 131.858C147.816 132.045 147.973 132.201 148.162 132.309C148.351 132.416 148.565 132.473 148.782 132.473C149 132.473 149.214 132.416 149.403 132.309C149.592 132.201 149.749 132.045 149.86 131.858Z" fill="#F4EEF4"/>
<path d="M146.029 127.275C147.61 124.469 149.692 124.492 150.811 123.371C150.919 123.26 150.996 123.123 151.035 122.973C151.074 122.823 151.074 122.666 151.035 122.516C150.995 122.366 150.917 122.23 150.809 122.119C150.7 122.008 150.565 121.927 150.417 121.884C147.648 121.316 145.418 124.495 144.564 126.666C144.247 127.468 145.612 128.02 146.029 127.275Z" fill="#F4EEF4"/>
<path d="M145.158 138.407C146.707 144.116 152.43 146.768 155.172 144.859C155.347 144.747 155.487 144.588 155.575 144.399C155.663 144.211 155.696 144.001 155.669 143.795C155.642 143.589 155.557 143.395 155.424 143.235C155.291 143.075 155.115 142.957 154.917 142.893C153.188 142.792 151.502 142.319 149.973 141.505C148.629 140.366 147.397 139.101 146.291 137.729C146.201 137.579 146.056 137.471 145.886 137.428C145.716 137.385 145.536 137.412 145.386 137.502C145.236 137.592 145.128 137.737 145.085 137.907C145.042 138.077 145.069 138.257 145.158 138.407Z" fill="#F4EEF4"/>
</g>
</svg>
