<svg width="197" height="176" viewBox="0 0 197 176" fill="none" xmlns="http://www.w3.org/2000/svg">
<path d="M227.131 201.016L166.514 236.001C166.012 236.256 165.457 236.388 164.894 236.388C164.331 236.388 163.776 236.256 163.274 236.001L87.5029 192.237C87.3075 192.171 87.1377 192.045 87.0174 191.877C86.8972 191.71 86.8325 191.508 86.8325 191.302C86.8325 191.096 86.8972 190.894 87.0174 190.727C87.1377 190.559 87.3075 190.433 87.5029 190.367L148.12 155.381C148.622 155.126 149.177 154.994 149.74 154.994C150.303 154.994 150.858 155.126 151.36 155.381L227.154 199.145C227.348 199.213 227.517 199.341 227.635 199.511C227.753 199.68 227.816 199.882 227.813 200.088C227.811 200.295 227.743 200.495 227.621 200.662C227.499 200.828 227.328 200.952 227.131 201.016Z" fill="#EBEBEB"/>
<path d="M18.3796 133.387C16.2169 132.84 4.66974 126.27 3.49482 125.469C2.3199 124.668 0 123.015 0 120.163C0 117.641 0.261925 93.8586 2.32739 82.3714C3.00596 78.7979 4.40826 75.401 6.44809 72.3896C8.48791 69.3781 11.1221 66.8157 14.1888 64.8598C21.3731 60.4071 28.5947 57.1817 34.6788 59.7111C40.763 62.2406 46.3158 66.8879 48.7105 72.5005C51.1052 78.1132 52.7442 89.3535 52.9163 93.7015C53.0884 98.0494 52.9163 112.957 52.9163 114.281C52.9163 115.606 52.6768 117.327 45.545 121.765C38.4131 126.203 28.5648 131.493 25.5189 132.863C23.2534 133.784 20.7553 133.967 18.3796 133.387Z" fill="#37474F"/>
<path d="M16.5985 67.9506C15.9399 68.3248 14.0391 67.3893 13.7547 66.9179C13.4704 66.4464 13.3955 62.3679 14.8174 60.1153C16.2393 57.8628 25.1073 53.7094 27.3 54.0162C28.1213 54.1499 28.9066 54.4499 29.6079 54.8977C30.3092 55.3455 30.9117 55.9317 31.3785 56.6205C31.6479 57.1967 31.9473 60.9909 31.3785 61.7692C30.8098 62.5475 28.7817 61.3501 28.6021 61.0208C28.4225 60.6916 29.2682 57.9152 27.8538 57.3389C26.5516 56.8151 20.3702 59.4418 17.8557 61.5522C16.7631 62.4726 16.8155 64.7551 16.8679 65.8852C16.9203 67.0152 16.9278 67.756 16.5985 67.9506Z" fill="#455A64"/>
<path d="M14.8179 94.7267C16.0901 82.3713 18.38 75.1572 30.466 69.7765C42.5519 64.3958 47.2441 68.9757 48.9579 73.0992C51.2029 78.8765 52.752 89.5031 52.9167 93.7014C53.0888 98.0494 52.9167 112.957 52.9167 114.281C52.9167 115.606 52.6772 117.327 45.5454 121.765C38.4135 126.203 28.5652 131.493 25.5193 132.863C23.2563 133.791 20.758 133.982 18.38 133.409C17.9024 133.264 17.437 133.081 16.9881 132.863C13.2239 128.029 13.6504 106.012 14.8179 94.7267Z" fill="#455A64"/>
<path d="M42.9929 64.9495C39.8348 63.1011 34.6562 61.8813 27.0529 65.2713C13.4628 71.3255 10.0128 78.9064 8.64335 92.2121C8.39639 94.6518 8.0297 97.5554 7.895 100.676L6.77246 99.9951C6.92962 96.6275 7.25889 93.7463 7.52082 91.142C9.01753 77.7389 13.0362 70.3302 26.0202 64.5454C33.2119 61.3424 37.934 61.7615 41.0621 63.3406C41.7339 63.8421 42.3784 64.3792 42.9929 64.9495Z" fill="#263238"/>
<path d="M43.4646 65.2939C40.314 63.4454 35.1279 62.2256 27.5321 65.6157C13.9344 71.6699 10.4845 79.2507 9.11503 92.5565C8.86807 94.9961 8.50138 97.8997 8.36667 101.02L7.24414 100.339C7.4013 96.9718 7.73057 94.0906 7.9925 91.4863C9.48921 78.0833 13.5079 70.6671 26.4919 64.8898C33.6836 61.6868 38.5329 62.2181 41.661 63.7897C42.29 64.2568 42.8921 64.759 43.4646 65.2939Z" fill="#455A64"/>
<path d="M39.0646 77.0432L34.9561 74.6933C34.7534 74.5795 34.5139 74.5503 34.2898 74.6119C34.0656 74.6736 33.8748 74.8211 33.7587 75.0226L29.5455 82.349C29.4281 82.5506 29.3952 82.7905 29.4541 83.0163C29.513 83.242 29.6589 83.4353 29.8598 83.5539L33.9159 85.9187C34.1175 86.0361 34.3574 86.0689 34.5831 86.01C34.8089 85.9511 35.0022 85.8053 35.1207 85.6044L39.3864 78.233C39.4449 78.1342 39.483 78.0246 39.4984 77.9107C39.5139 77.7969 39.5064 77.6811 39.4764 77.5702C39.4464 77.4593 39.3945 77.3556 39.3238 77.265C39.2531 77.1745 39.1649 77.0991 39.0646 77.0432Z" fill="#263238"/>
<path d="M34.6568 85.0803L38.7054 78.0981C38.7346 78.0482 38.7535 77.9929 38.761 77.9356C38.7685 77.8782 38.7645 77.8199 38.7492 77.7641C38.7338 77.7084 38.7075 77.6562 38.6717 77.6108C38.6359 77.5653 38.5914 77.5275 38.5408 77.4994L34.799 75.3741C34.6977 75.3172 34.5779 75.3026 34.4659 75.3334C34.3538 75.3643 34.2584 75.438 34.2003 75.5388L30.1966 82.491C30.1397 82.5924 30.1251 82.7121 30.1559 82.8242C30.1868 82.9362 30.2606 83.0316 30.3613 83.0897L34.0357 85.2375C34.0864 85.2695 34.143 85.2909 34.2022 85.3003C34.2614 85.3098 34.3219 85.3071 34.38 85.2924C34.4382 85.2777 34.4927 85.2513 34.5403 85.2148C34.5878 85.1784 34.6275 85.1326 34.6568 85.0803Z" fill="#455A64"/>
<path d="M35.5244 81.7428C35.6323 81.6775 35.7236 81.5881 35.7911 81.4817C35.8586 81.3752 35.9005 81.2545 35.9136 81.1291V77.7839C35.9136 77.5669 35.7414 77.4996 35.5244 77.6193C35.4165 77.6846 35.3252 77.7739 35.2577 77.8804C35.1902 77.9869 35.1483 78.1076 35.1353 78.233V81.5781C35.1353 81.7951 35.3074 81.8625 35.5244 81.7428Z" fill="#37474F"/>
<path d="M33.354 83C33.4617 82.9327 33.5526 82.8418 33.6201 82.7342C33.6875 82.6266 33.7296 82.5051 33.7431 82.3788V79.0412C33.7431 78.8242 33.5635 78.7493 33.354 78.8765C33.2453 78.9409 33.1534 79.03 33.0858 79.1367C33.0182 79.2433 32.9767 79.3645 32.9648 79.4902V82.8353C32.9873 83.0449 33.137 83.1197 33.354 83Z" fill="#37474F"/>
<path d="M20.415 105.174C20.415 105.174 22.4505 106.85 23.9173 113.166C25.3841 119.482 26.2671 127.437 24.6656 128.395C23.0642 129.353 20.7517 127.348 20.1755 126.659C18.9931 125.245 19.285 110.233 20.415 105.174Z" fill="#263238"/>
<path d="M20.4153 105.174C20.4153 105.174 22.4508 106.85 23.9176 113.166C25.3844 119.482 26.2674 127.437 24.6659 128.395L49.3617 113.832C50.9782 112.874 51.3748 104.515 49.9155 98.1992C48.9501 94.0458 47.1765 92.0701 46.0839 91.202C45.8333 91.0084 45.5304 90.8943 45.2143 90.8743C44.8982 90.8543 44.5834 90.9293 44.3103 91.0898L20.4153 105.174Z" fill="#37474F"/>
<path d="M45.5749 92.1674C46.7573 92.7511 48.7629 94.36 49.6684 98.6332C49.8211 99.2148 49.8073 99.8277 49.6287 100.402C49.4501 100.976 49.1138 101.489 48.6581 101.881C47.8349 102.465 30.1587 112.515 27.8164 113.915C25.7958 115.119 24.7481 113.518 24.3066 112.515C23.5582 110.734 22.9146 109.35 22.3609 108.287C21.938 107.128 21.2778 106.07 20.4226 105.181L43.9734 92.2347C44.2144 92.0932 44.4865 92.013 44.7657 92.0013C45.045 91.9895 45.3228 92.0466 45.5749 92.1674Z" fill="#263238"/>
<path d="M8.65838 101.716C9.00041 103.003 9.22337 104.318 9.32442 105.645C9.32442 105.915 8.95773 106.057 8.85296 106.057C7.99714 105.885 7.20502 105.481 6.56299 104.889C6.68294 103.758 6.88808 102.637 7.17664 101.537L8.65838 101.716Z" fill="#263238"/>
<path d="M9.42171 100.661C9.42171 100.379 9.33788 100.102 9.18082 99.8672C9.02376 99.6321 8.80052 99.4489 8.53934 99.3407C8.27816 99.2326 7.99077 99.2042 7.7135 99.2594C7.43623 99.3146 7.18154 99.4507 6.98164 99.6506C6.78174 99.8505 6.64561 100.105 6.59045 100.382C6.5353 100.66 6.56361 100.947 6.67179 101.208C6.77998 101.469 6.96319 101.693 7.19824 101.85C7.4333 102.007 7.70965 102.091 7.99235 102.091C8.37144 102.091 8.73501 101.94 9.00306 101.672C9.27112 101.404 9.42171 101.04 9.42171 100.661Z" fill="#263238"/>
<path d="M27.3 57.2716C28.8641 57.1219 30.3384 57.2716 30.7126 58.8357C31.0867 60.3997 30.952 61.8291 30.7126 62.0237C29.9201 61.9232 29.1806 61.5718 28.6022 61.0209C28.4226 60.6841 29.2682 57.9152 27.8538 57.339C27.6804 57.2813 27.4973 57.2585 27.315 57.2716H27.3Z" fill="#263238"/>
<path d="M44.46 91.0074C44.7019 90.8646 44.9753 90.7838 45.256 90.772C45.5367 90.7603 45.8159 90.818 46.0689 90.9401C47.2513 91.5238 49.2569 93.1328 50.1624 97.4059C50.3142 97.9876 50.3001 98.6002 50.1215 99.1742C49.9429 99.7483 49.6071 100.261 49.1522 100.654C48.329 101.237 30.6603 111.288 28.3179 112.687C26.2974 113.892 25.2422 112.291 24.8007 111.288C22.3535 106.169 20.4153 105.174 20.4153 105.174L44.46 91.0074Z" fill="#37474F"/>
<path d="M159.845 220.877C160.509 221.213 161.242 221.388 161.985 221.388C162.729 221.388 163.462 221.213 164.126 220.877L212.125 193.188L140.283 151.699L138.607 150.734L90.6073 178.423C89.4323 179.104 89.4323 180.219 90.6073 180.892L159.845 220.877Z" fill="#BA68C8"/>
<path opacity="0.8" d="M159.845 220.877C160.509 221.213 161.242 221.388 161.985 221.388C162.729 221.388 163.462 221.213 164.126 220.877L212.125 193.188L140.283 151.699L138.607 150.734L90.6073 178.423C89.4323 179.104 89.4323 180.219 90.6073 180.892L159.845 220.877Z" fill="white"/>
<path d="M177.874 168.522L194.614 178.154L205.451 171.897L218.031 179.186V188.249C218.031 189.349 216.796 190.913 216.347 190.659C215.516 190.859 214.709 191.145 213.937 191.512C212.678 192.227 211.51 193.092 210.457 194.086L171.992 171.882L177.874 168.522Z" fill="#E0E0E0"/>
<path d="M177.874 168.522L194.614 178.154L205.451 171.897L218.031 179.186V188.249C218.031 189.349 216.796 190.913 216.347 190.659C215.516 190.859 214.709 191.145 213.937 191.512C212.678 192.227 211.51 193.092 210.457 194.086L171.992 171.882L177.874 168.522Z" fill="#BA68C8"/>
<path opacity="0.1" d="M177.874 168.522L194.614 178.154L205.451 171.897L218.031 179.186V188.249C218.031 189.349 216.796 190.913 216.347 190.659C215.516 190.859 214.709 191.145 213.937 191.512C212.678 192.227 211.51 193.092 210.457 194.086L171.992 171.882L177.874 168.522Z" fill="white"/>
<path d="M91.7979 169.435V177.974C91.8241 178.468 91.9666 178.95 92.2136 179.379C92.4607 179.808 92.8053 180.173 93.2197 180.444L155.333 216.29L160.572 219.328C161.008 219.563 161.498 219.679 161.994 219.665V209.749L91.7979 169.435Z" fill="#F0F0F0"/>
<path d="M140.269 138.109L212.111 179.598V180.563C212.111 181.095 212.859 181.312 213.78 180.758C214.7 180.204 215.456 179.561 215.456 178.64L215.546 177.727L142.334 135.46L142.042 135.288C141.966 135.423 141.922 135.574 141.915 135.729V136.178C141.93 136.732 141.189 137.593 140.269 138.109Z" fill="#BA68C8"/>
<path opacity="0.6" d="M140.269 138.109L212.111 179.598V180.563C212.111 181.095 212.859 181.312 213.78 180.758C214.7 180.204 215.456 179.561 215.456 178.64L215.546 177.727L142.334 135.46L142.042 135.288C141.966 135.423 141.922 135.574 141.915 135.729V136.178C141.93 136.732 141.189 137.593 140.269 138.109Z" fill="white"/>
<path d="M164.148 207.34L211.085 180.234C211.677 179.927 212.223 179.673 212.455 179.793L212.148 179.62L140.306 138.132L139.468 137.645C139.091 137.538 138.696 137.513 138.309 137.571C137.922 137.629 137.551 137.769 137.223 137.982L90.6524 164.878C89.4775 165.559 89.4775 166.666 90.6524 167.347L159.905 207.34C160.564 207.669 161.29 207.841 162.027 207.841C162.763 207.841 163.49 207.669 164.148 207.34Z" fill="#BA68C8"/>
<path opacity="0.8" d="M164.148 207.34L211.085 180.234C211.677 179.927 212.223 179.673 212.455 179.793L212.148 179.62L140.306 138.132L139.468 137.645C139.091 137.538 138.696 137.513 138.309 137.571C137.922 137.629 137.551 137.769 137.223 137.982L90.6524 164.878C89.4775 165.559 89.4775 166.666 90.6524 167.347L159.905 207.34C160.564 207.669 161.29 207.841 162.027 207.841C162.763 207.841 163.49 207.669 164.148 207.34Z" fill="white"/>
<path d="M142.057 135.31L142.349 135.482L215.561 177.772C215.598 177.694 215.651 177.625 215.718 177.57L215.965 177.428L216.496 177.128L217.147 176.747C217.273 176.663 217.425 176.624 217.576 176.638C217.727 176.652 217.869 176.716 217.978 176.822C218.009 176.842 218.037 176.868 218.06 176.896C218.148 176.986 218.222 177.09 218.277 177.203C218.357 177.333 218.422 177.471 218.472 177.615C218.529 177.769 218.577 177.926 218.614 178.086C218.659 178.273 218.689 178.453 218.726 178.648C218.746 178.759 218.759 178.871 218.764 178.984C218.764 179.074 218.764 179.156 218.764 179.261C218.764 179.366 218.764 179.68 218.764 179.897V177.839C218.686 177.163 218.453 176.514 218.081 175.944C217.71 175.374 217.211 174.898 216.623 174.554L147.363 134.562C146.792 134.225 146.152 134.025 145.491 133.977C144.83 133.929 144.167 134.034 143.554 134.285L142.678 134.794L142.304 135.003C142.196 135.082 142.111 135.188 142.057 135.31Z" fill="#BA68C8"/>
<path opacity="0.8" d="M142.057 135.31L142.349 135.482L215.561 177.772C215.598 177.694 215.651 177.625 215.718 177.57L215.965 177.428L216.496 177.128L217.147 176.747C217.273 176.663 217.425 176.624 217.576 176.638C217.727 176.652 217.869 176.716 217.978 176.822C218.009 176.842 218.037 176.868 218.06 176.896C218.148 176.986 218.222 177.09 218.277 177.203C218.357 177.333 218.422 177.471 218.472 177.615C218.529 177.769 218.577 177.926 218.614 178.086C218.659 178.273 218.689 178.453 218.726 178.648C218.746 178.759 218.759 178.871 218.764 178.984C218.764 179.074 218.764 179.156 218.764 179.261C218.764 179.366 218.764 179.68 218.764 179.897V177.839C218.686 177.163 218.453 176.514 218.081 175.944C217.71 175.374 217.211 174.898 216.623 174.554L147.363 134.562C146.792 134.225 146.152 134.025 145.491 133.977C144.83 133.929 144.167 134.034 143.554 134.285L142.678 134.794L142.304 135.003C142.196 135.082 142.111 135.188 142.057 135.31Z" fill="white"/>
<path d="M89.7102 166.09V168.043C89.7336 168.303 89.8247 168.553 89.9744 168.767C90.124 168.981 90.3271 169.152 90.5633 169.263L155.274 206.621L159.816 209.248C160.475 209.588 161.208 209.761 161.949 209.749V207.848C161.204 207.865 160.467 207.689 159.809 207.339L156.92 205.671L90.5633 167.347C90.3219 167.233 90.1154 167.056 89.9654 166.835C89.8154 166.614 89.7272 166.357 89.7102 166.09Z" fill="#BA68C8"/>
<path opacity="0.1" d="M89.7102 166.09V168.043C89.7336 168.303 89.8247 168.553 89.9744 168.767C90.124 168.981 90.3271 169.152 90.5633 169.263L155.274 206.621L159.816 209.248C160.475 209.588 161.208 209.761 161.949 209.749V207.848C161.204 207.865 160.467 207.689 159.809 207.339L156.92 205.671L90.5633 167.347C90.3219 167.233 90.1154 167.056 89.9654 166.835C89.8154 166.614 89.7272 166.357 89.7102 166.09Z" fill="white"/>
<path d="M137.163 137.982C137.492 137.769 137.862 137.629 138.249 137.571C138.636 137.513 139.032 137.538 139.408 137.645L140.246 138.132C141.167 137.593 141.908 136.732 141.908 136.201V135.752C141.915 135.597 141.958 135.446 142.035 135.31C142.094 135.189 142.184 135.085 142.297 135.011L142.671 134.802L143.547 134.293C144.16 134.042 144.823 133.936 145.484 133.984C146.144 134.032 146.785 134.233 147.356 134.57L216.616 174.562L216.691 174.607L167.816 202.827C167.374 203.052 166.886 203.17 166.39 203.17C165.895 203.17 165.406 203.052 164.965 202.827L95.2551 162.184L137.163 137.982Z" fill="#263238"/>
<path d="M98.6005 149.649L98.4807 149.581L99.6182 148.923L148.621 120.635L220.021 166.838C221.196 167.519 221.406 168.507 220.485 169.031L218.816 169.996L173.017 196.481L172.688 196.241L98.6005 149.649Z" fill="#BA68C8"/>
<path opacity="0.5" d="M98.6005 149.649L98.4807 149.581L99.6182 148.923L148.621 120.635L220.021 166.838C221.196 167.519 221.406 168.507 220.485 169.031L218.816 169.996L173.017 196.481L172.688 196.241L98.6005 149.649Z" fill="black"/>
<path d="M172.013 195.059L217.386 168.867C217.802 168.596 218.148 168.232 218.397 167.803C218.645 167.374 218.789 166.892 218.816 166.397V152.395L173.001 179.074C173.001 179.074 172.455 181.057 170.831 181.678C169.207 182.3 170.449 182.936 170.449 182.936V194.909C171.849 194.707 172.013 195.059 172.013 195.059Z" fill="#F0F0F0"/>
<path d="M167.831 180.915C168.303 180.646 168.677 180.631 168.677 180.915V181.357C168.677 181.851 169.425 181.828 170.353 181.289C171.281 180.75 172.03 179.927 172.03 179.433V178.984C172.03 178.73 172.666 178.161 173.444 177.712L99.6261 135.415L98.4811 136.074C98.3225 136.242 98.2227 136.457 98.1967 136.687V137.136C98.1967 137.63 97.4484 138.461 96.5279 138.992C95.6074 139.524 94.8516 139.553 94.8516 139.06V138.611C94.8516 138.356 94.4774 138.379 94.0134 138.648L167.831 180.915Z" fill="#BA68C8"/>
<path opacity="0.6" d="M167.831 180.915C168.303 180.646 168.677 180.631 168.677 180.915V181.357C168.677 181.851 169.425 181.828 170.353 181.289C171.281 180.75 172.03 179.927 172.03 179.433V178.984C172.03 178.73 172.666 178.161 173.444 177.712L99.6261 135.415L98.4811 136.074C98.3225 136.242 98.2227 136.457 98.1967 136.687V137.136C98.1967 137.63 97.4484 138.461 96.5279 138.992C95.6074 139.524 94.8516 139.553 94.8516 139.06V138.611C94.8516 138.356 94.4774 138.379 94.0134 138.648L167.831 180.915Z" fill="black"/>
<path d="M98.6005 136.111L98.4807 136.044L99.6182 135.385L148.621 107.097L220.021 148.332C221.196 149.013 221.406 149.993 220.485 150.525L218.816 151.482L173.002 179.074L98.6005 136.111Z" fill="#BA68C8"/>
<path opacity="0.5" d="M98.6005 136.111L98.4807 136.044L99.6182 135.385L148.621 107.097L220.021 148.332C221.196 149.013 221.406 149.993 220.485 150.525L218.816 151.482L173.002 179.074L98.6005 136.111Z" fill="black"/>
<path d="M94.8362 138.154L168.639 180.765L166.057 182.786L92.5312 140.339C92.7105 139.793 93.0527 139.315 93.5116 138.97L94.8362 138.154Z" fill="#BA68C8"/>
<path opacity="0.5" d="M94.8362 138.154L168.639 180.765L166.057 182.786L92.5312 140.339C92.7105 139.793 93.0527 139.315 93.5116 138.97L94.8362 138.154Z" fill="black"/>
<path d="M92.7777 159.385C92.7322 159.357 92.6896 159.324 92.6505 159.288C92.6166 159.271 92.5881 159.245 92.5682 159.213C92.5078 159.154 92.4572 159.086 92.4185 159.011C92.3855 158.982 92.3598 158.946 92.3437 158.906C92.2636 158.777 92.2007 158.639 92.1566 158.494C92.0944 158.339 92.0444 158.179 92.0069 158.015C91.962 157.836 91.9321 157.656 91.9021 157.462C91.8762 157.351 91.8612 157.238 91.8572 157.125V156.848C91.8572 156.646 91.8572 156.429 91.8572 156.212V144.021C91.8438 142.741 92.0776 141.471 92.5457 140.279L166.072 182.726L166.379 201.824L92.86 159.362L92.7777 159.385Z" fill="#BA68C8"/>
<path opacity="0.7" d="M92.7777 159.385C92.7322 159.357 92.6896 159.324 92.6505 159.288C92.6166 159.271 92.5881 159.245 92.5682 159.213C92.5078 159.154 92.4572 159.086 92.4185 159.011C92.3855 158.982 92.3598 158.946 92.3437 158.906C92.2636 158.777 92.2007 158.639 92.1566 158.494C92.0944 158.339 92.0444 158.179 92.0069 158.015C91.962 157.836 91.9321 157.656 91.9021 157.462C91.8762 157.351 91.8612 157.238 91.8572 157.125V156.848C91.8572 156.646 91.8572 156.429 91.8572 156.212V144.021C91.8438 142.741 92.0776 141.471 92.5457 140.279L166.072 182.726L166.379 201.824L92.86 159.362L92.7777 159.385Z" fill="black"/>
<path opacity="0.79" d="M166.02 182.756C166.02 182.756 108.112 155.658 102.844 153.173C99.3638 151.535 97.6576 154.977 98.4808 158.539C99.2291 161.652 102.275 164.863 102.275 164.863L92.8082 159.392C92.7627 159.364 92.7201 159.332 92.681 159.295C92.6471 159.278 92.6186 159.252 92.5987 159.22C92.5383 159.161 92.4877 159.093 92.449 159.018C92.416 158.99 92.3903 158.954 92.3742 158.913C92.2941 158.785 92.2312 158.647 92.1871 158.502C92.1249 158.346 92.0749 158.186 92.0374 158.023C91.9925 157.843 91.9626 157.664 91.9327 157.469C91.9067 157.359 91.8917 157.246 91.8878 157.132V156.855C91.8878 156.653 91.8878 156.436 91.8878 156.219V144.021C91.8743 142.741 92.1081 141.471 92.5762 140.279L166.02 182.756Z" fill="#263238"/>
<path d="M165.339 186.475H166.986C166.947 185.231 167.22 183.996 167.779 182.883C168.171 183.174 168.646 183.329 169.134 183.325C169.858 183.288 170.562 183.066 171.177 182.681C171.917 182.26 172.564 181.692 173.077 181.012C173.116 180.966 173.152 180.915 173.182 180.863C173.473 180.449 173.641 179.961 173.669 179.456L217.126 154.371L218.622 153.51L220.508 152.425C220.672 152.35 220.813 152.232 220.914 152.083C221.016 151.934 221.075 151.76 221.084 151.58V149.656C221.076 149.84 221.018 150.017 220.917 150.17C220.815 150.323 220.674 150.446 220.508 150.524L215.517 153.398L173.496 177.667C172.711 178.116 172.075 178.685 172.075 178.939V179.388C172.028 179.673 171.891 179.935 171.685 180.137C171.325 180.571 170.889 180.936 170.398 181.214C169.47 181.753 168.722 181.776 168.722 181.282V180.84C168.722 180.578 168.355 180.601 167.884 180.84L167.053 181.327C166.088 181.925 165.339 184.208 165.339 186.475Z" fill="#BA68C8"/>
<path d="M166.985 186.475V198.666C166.985 198.838 166.985 199.01 166.985 199.175L167.023 199.587C167.019 199.599 167.019 199.612 167.023 199.624C167.172 198.314 168.422 197.147 169.507 196.533C170.112 196.152 170.806 195.936 171.52 195.905C172.069 195.898 172.602 196.092 173.017 196.451L173.159 196.369L173.451 196.197L215.471 171.927L217.888 170.535L218.577 170.131L220.613 168.956C220.746 168.873 220.857 168.757 220.936 168.62C221.014 168.483 221.057 168.328 221.062 168.171V170.094C221.056 170.243 221.015 170.388 220.942 170.519C220.869 170.649 220.766 170.76 220.642 170.842C220.403 170.984 220.149 171.119 219.894 171.276L219.423 171.553L218.614 172.017C218.435 172.129 218.27 172.227 218.113 172.309C217.956 172.391 217.866 172.459 217.761 172.511L217.14 172.878L183.756 192.141L173.099 198.292C172.351 198.741 171.73 198.898 171.685 198.666C171.682 198.639 171.682 198.611 171.685 198.584V198.157C171.685 197.618 170.937 197.618 170.016 198.157C169.675 198.306 169.376 198.537 169.146 198.829C168.916 199.122 168.762 199.467 168.699 199.834V200.357C168.71 200.474 168.693 200.592 168.65 200.701C168.608 200.81 168.54 200.908 168.452 200.986L168.205 201.128L167.681 201.428L167.03 201.809C166.904 201.893 166.753 201.932 166.602 201.918C166.451 201.904 166.309 201.84 166.2 201.734C166.166 201.718 166.137 201.692 166.117 201.66C166.057 201.603 166.006 201.538 165.968 201.465C165.938 201.433 165.913 201.398 165.893 201.36C165.813 201.232 165.75 201.093 165.706 200.949C165.642 200.796 165.592 200.638 165.556 200.477C165.511 200.29 165.481 200.11 165.451 199.916C165.425 199.805 165.41 199.693 165.406 199.579C165.406 199.489 165.406 199.407 165.406 199.302C165.406 199.197 165.406 198.883 165.406 198.666V186.475H166.985Z" fill="#BA68C8"/>
<g opacity="0.6">
<path d="M165.339 186.475H166.986C166.947 185.231 167.22 183.996 167.779 182.883C168.171 183.174 168.646 183.329 169.134 183.325C169.858 183.288 170.562 183.066 171.177 182.681C171.917 182.26 172.564 181.692 173.077 181.012C173.116 180.966 173.152 180.915 173.182 180.863C173.473 180.449 173.641 179.961 173.669 179.456L217.126 154.371L218.622 153.51L220.508 152.425C220.672 152.35 220.813 152.232 220.914 152.083C221.016 151.934 221.075 151.76 221.084 151.58V149.656C221.076 149.84 221.018 150.017 220.917 150.17C220.815 150.323 220.674 150.446 220.508 150.524L215.517 153.398L173.496 177.667C172.711 178.116 172.075 178.685 172.075 178.939V179.388C172.028 179.673 171.891 179.935 171.685 180.137C171.325 180.571 170.889 180.936 170.398 181.214C169.47 181.753 168.722 181.776 168.722 181.282V180.84C168.722 180.578 168.355 180.601 167.884 180.84L167.053 181.327C166.088 181.925 165.339 184.208 165.339 186.475Z" fill="black"/>
<path d="M166.985 186.475V198.666C166.985 198.838 166.985 199.01 166.985 199.175L167.022 199.586C167.019 199.599 167.019 199.612 167.022 199.624C167.172 198.314 168.422 197.147 169.507 196.533C170.112 196.152 170.806 195.935 171.52 195.904C172.069 195.897 172.601 196.092 173.017 196.451L173.159 196.368L173.451 196.196L215.471 171.927L217.888 170.535L218.576 170.131L220.612 168.956C220.746 168.872 220.857 168.757 220.935 168.62C221.014 168.483 221.057 168.328 221.061 168.17V170.094C221.055 170.243 221.014 170.388 220.942 170.518C220.869 170.648 220.766 170.759 220.642 170.842C220.402 170.984 220.148 171.119 219.894 171.276L219.422 171.553L218.614 172.017C218.434 172.129 218.27 172.226 218.112 172.309C217.955 172.391 217.866 172.458 217.761 172.511L217.14 172.878L183.755 192.14L173.099 198.292C172.351 198.741 171.729 198.898 171.684 198.666C171.682 198.639 171.682 198.611 171.684 198.584V198.157C171.684 197.618 170.936 197.618 170.016 198.157C169.674 198.305 169.375 198.536 169.145 198.829C168.916 199.121 168.762 199.467 168.699 199.833V200.357C168.71 200.474 168.693 200.592 168.65 200.701C168.607 200.81 168.539 200.908 168.452 200.986L168.205 201.128L167.681 201.427L167.03 201.809C166.903 201.893 166.752 201.931 166.601 201.918C166.45 201.904 166.308 201.839 166.199 201.734C166.165 201.717 166.137 201.692 166.117 201.659C166.056 201.603 166.006 201.537 165.967 201.465C165.938 201.433 165.913 201.398 165.892 201.36C165.812 201.232 165.749 201.093 165.705 200.948C165.642 200.796 165.592 200.638 165.555 200.477C165.511 200.29 165.481 200.11 165.451 199.916C165.424 199.805 165.409 199.692 165.406 199.579C165.406 199.489 165.406 199.407 165.406 199.302C165.406 199.197 165.406 198.883 165.406 198.666V186.475H166.985Z" fill="black"/>
</g>
<path d="M92.4937 140.302L162.375 180.653L215.194 150.158C215.367 150.1 215.517 149.989 215.623 149.841C215.729 149.694 215.787 149.516 215.787 149.334C215.787 149.152 215.729 148.975 215.623 148.827C215.517 148.679 215.367 148.569 215.194 148.511L146.046 108.579L99.6479 135.385L98.503 136.051C98.348 136.218 98.251 136.431 98.2261 136.657V137.106C98.2261 137.6 97.4777 138.431 96.5572 138.962C96.5105 138.993 96.4603 139.018 96.4076 139.037L94.8659 138.146L94.1176 138.565L94.0128 138.618L93.474 138.932C93.0157 139.279 92.6738 139.756 92.4937 140.302Z" fill="#263238"/>
<path d="M155.565 178.52C156.227 178.856 156.959 179.031 157.701 179.031C158.444 179.031 159.176 178.856 159.838 178.52L207.838 150.831L135.995 105.414L134.312 104.441L86.3194 136.051C85.1445 136.732 85.1445 137.84 86.3194 138.521L155.565 178.52Z" fill="#BA68C8"/>
<path d="M173.586 122.222L209.851 146.798L190.326 131.831L201.162 125.574L213.765 132.871V145.885C213.765 146.992 212.53 148.556 212.081 148.302C211.251 148.503 210.443 148.789 209.671 149.155C208.412 149.871 207.244 150.735 206.191 151.729L167.733 125.589L173.586 122.222Z" fill="#BA68C8"/>
<path opacity="0.2" d="M173.586 122.222L209.851 146.798L190.326 131.831L201.162 125.574L213.765 132.871V145.885C213.765 146.992 212.53 148.556 212.081 148.302C211.251 148.503 210.443 148.789 209.671 149.155C208.412 149.871 207.244 150.735 206.191 151.729L167.733 125.589L173.586 122.222Z" fill="black"/>
<path d="M157.698 162.274V177.301C158.195 177.312 158.687 177.196 159.127 176.964L164.366 173.926L204.478 150.771V135.25L157.698 162.274Z" fill="white"/>
<path d="M87.51 123.142V135.617C87.5375 136.111 87.6804 136.592 87.9274 137.021C88.1743 137.45 88.5183 137.815 88.9319 138.087L151.045 173.933L156.284 176.971C156.722 177.202 157.211 177.318 157.706 177.308V163.449L87.51 123.142Z" fill="#F0F0F0"/>
<path d="M135.988 91.8303L207.83 133.327V134.285C207.83 134.823 208.578 135.033 209.499 134.487C210.419 133.94 211.183 133.282 211.183 132.361L211.272 131.448L138.061 89.1812L137.761 89.009C137.686 89.1469 137.645 89.3009 137.642 89.4581V89.8996C137.649 90.4309 136.908 91.2915 135.988 91.8303Z" fill="#BA68C8"/>
<path opacity="0.2" d="M135.988 91.8303L207.83 133.327V134.285C207.83 134.823 208.578 135.033 209.499 134.487C210.419 133.94 211.183 133.282 211.183 132.361L211.272 131.448L138.061 89.1812L137.761 89.009C137.686 89.1469 137.645 89.3009 137.642 89.4581V89.8996C137.649 90.4309 136.908 91.2915 135.988 91.8303Z" fill="black"/>
<path d="M159.838 161.038L206.805 133.94C207.403 133.626 207.95 133.372 208.174 133.491L207.867 133.327L136.025 91.8305L135.18 91.3515C134.804 91.2399 134.408 91.2122 134.02 91.2704C133.632 91.3286 133.261 91.4712 132.935 91.6883L86.3194 118.577C85.1445 119.258 85.1445 120.373 86.3194 121.046L155.58 161.038C156.24 161.372 156.969 161.546 157.709 161.546C158.448 161.546 159.178 161.372 159.838 161.038Z" fill="#FAE653"/>
<path d="M137.769 89.0094L138.068 89.1815L211.295 131.449C211.332 131.371 211.386 131.302 211.452 131.247L211.699 131.112L212.223 130.805L212.874 130.423C213.001 130.341 213.152 130.303 213.302 130.317C213.453 130.33 213.595 130.394 213.705 130.498C213.736 130.519 213.763 130.544 213.787 130.573C213.874 130.666 213.949 130.769 214.012 130.88C214.089 131.01 214.151 131.148 214.199 131.292C214.257 131.448 214.307 131.608 214.348 131.77C214.386 131.95 214.423 132.13 214.453 132.324C214.476 132.438 214.491 132.553 214.498 132.668V132.938C214.498 133.14 214.498 133.357 214.498 133.581V131.523C214.423 130.846 214.19 130.195 213.819 129.623C213.447 129.051 212.947 128.575 212.358 128.231L143.097 88.2386C142.526 87.9024 141.885 87.7032 141.224 87.6564C140.564 87.6097 139.901 87.7167 139.288 87.9691L138.413 88.478L138.046 88.6951C137.926 88.7713 137.83 88.8804 137.769 89.0094Z" fill="#BA68C8"/>
<path d="M159.838 178.52L162.734 176.844L206.191 151.752C206.229 151.184 206.438 150.642 206.79 150.195C207.303 149.515 207.95 148.948 208.691 148.526C209.308 148.147 210.01 147.928 210.734 147.89C211.222 147.88 211.699 148.036 212.088 148.332C212.646 147.216 212.919 145.979 212.881 144.732H214.528C214.528 146.977 213.779 149.282 212.859 149.813L212.028 150.3C211.557 150.569 211.19 150.584 211.19 150.3V149.858C211.19 149.364 210.442 149.387 209.506 149.918C208.571 150.449 207.837 151.288 207.837 151.781V152.223C207.837 152.477 207.201 153.046 206.416 153.503L164.388 177.772L159.838 180.399C159.179 180.739 158.447 180.912 157.705 180.9V178.999C158.445 179.024 159.18 178.86 159.838 178.52Z" fill="#BA68C8"/>
<path opacity="0.4" d="M159.838 178.52L162.734 176.844L206.191 151.752C206.229 151.184 206.438 150.642 206.79 150.195C207.303 149.515 207.95 148.948 208.691 148.526C209.308 148.147 210.01 147.928 210.734 147.89C211.222 147.88 211.699 148.036 212.088 148.332C212.646 147.216 212.919 145.979 212.881 144.732H214.528C214.528 146.977 213.779 149.282 212.859 149.813L212.028 150.3C211.557 150.569 211.19 150.584 211.19 150.3V149.858C211.19 149.364 210.442 149.387 209.506 149.918C208.571 150.449 207.837 151.288 207.837 151.781V152.223C207.837 152.477 207.201 153.046 206.416 153.503L164.388 177.772L159.838 180.399C159.179 180.739 158.447 180.912 157.705 180.9V178.999C158.445 179.024 159.18 178.86 159.838 178.52Z" fill="black"/>
<path d="M159.823 161.046L162.719 159.37L196.103 140.107L206.805 133.941C207.553 133.499 208.182 133.342 208.226 133.574V134.061C208.226 134.592 208.975 134.592 209.895 134.061C210.237 133.911 210.537 133.679 210.767 133.385C210.997 133.091 211.15 132.745 211.212 132.377V131.853C211.201 131.736 211.218 131.618 211.261 131.509C211.304 131.4 211.372 131.302 211.459 131.224L211.706 131.09L212.23 130.783L212.881 130.401C213.008 130.318 213.159 130.281 213.31 130.294C213.46 130.308 213.602 130.372 213.712 130.476C213.743 130.497 213.771 130.522 213.794 130.551C213.852 130.612 213.903 130.68 213.944 130.753C213.972 130.785 213.997 130.82 214.019 130.858C214.096 130.988 214.159 131.126 214.206 131.269C214.265 131.426 214.315 131.586 214.355 131.748C214.393 131.928 214.43 132.107 214.46 132.302C214.483 132.415 214.498 132.531 214.505 132.646V132.916C214.505 133.118 214.505 133.335 214.505 133.559V144.695H212.859V133.619C212.859 133.447 212.859 133.267 212.859 133.103L212.821 132.691C212.672 134.001 211.422 135.168 210.329 135.782C209.728 136.164 209.036 136.381 208.324 136.41C207.775 136.417 207.242 136.223 206.827 135.864L206.685 135.946L206.393 136.119L164.365 160.388L159.815 163.014C159.165 163.347 158.443 163.514 157.712 163.501V161.6C158.451 161.595 159.177 161.405 159.823 161.046Z" fill="#BA68C8"/>
<path opacity="0.4" d="M159.823 161.046L162.719 159.37L196.103 140.107L206.805 133.941C207.553 133.499 208.182 133.342 208.226 133.574V134.061C208.226 134.592 208.975 134.592 209.895 134.061C210.237 133.911 210.537 133.679 210.767 133.385C210.997 133.091 211.15 132.745 211.212 132.377V131.853C211.201 131.736 211.218 131.618 211.261 131.509C211.304 131.4 211.372 131.302 211.459 131.224L211.706 131.09L212.23 130.783L212.881 130.401C213.008 130.318 213.159 130.281 213.31 130.294C213.46 130.308 213.602 130.372 213.712 130.476C213.743 130.497 213.771 130.522 213.794 130.551C213.852 130.612 213.903 130.68 213.944 130.753C213.972 130.785 213.997 130.82 214.019 130.858C214.096 130.988 214.159 131.126 214.206 131.269C214.265 131.426 214.315 131.586 214.355 131.748C214.393 131.928 214.43 132.107 214.46 132.302C214.483 132.415 214.498 132.531 214.505 132.646V132.916C214.505 133.118 214.505 133.335 214.505 133.559V144.695H212.859V133.619C212.859 133.447 212.859 133.267 212.859 133.103L212.821 132.691C212.672 134.001 211.422 135.168 210.329 135.782C209.728 136.164 209.036 136.381 208.324 136.41C207.775 136.417 207.242 136.223 206.827 135.864L206.685 135.946L206.393 136.119L164.365 160.388L159.815 163.014C159.165 163.347 158.443 163.514 157.712 163.501V161.6C158.451 161.595 159.177 161.405 159.823 161.046Z" fill="black"/>
<path d="M85.4287 119.789V121.72C85.4514 121.979 85.5414 122.228 85.6897 122.442C85.838 122.656 86.0395 122.828 86.2744 122.94L150.992 160.298L155.535 162.925C156.191 163.264 156.921 163.436 157.66 163.426V161.525C156.917 161.542 156.183 161.366 155.527 161.016L152.639 159.347L86.3193 121.047C86.0678 120.942 85.8509 120.768 85.6934 120.546C85.536 120.323 85.4442 120.061 85.4287 119.789Z" fill="#BA68C8"/>
<path opacity="0.2" d="M85.4287 119.789V121.72C85.4514 121.979 85.5414 122.228 85.6897 122.442C85.838 122.656 86.0395 122.828 86.2744 122.94L150.992 160.298L155.535 162.925C156.191 163.264 156.921 163.436 157.66 163.426V161.525C156.917 161.542 156.183 161.366 155.527 161.016L152.639 159.347L86.3193 121.047C86.0678 120.942 85.8509 120.768 85.6934 120.546C85.536 120.323 85.4442 120.061 85.4287 119.789Z" fill="black"/>
<path d="M85.4287 137.256V139.187C85.4514 139.446 85.5414 139.695 85.6897 139.909C85.838 140.123 86.0395 140.294 86.2744 140.407L151.022 177.772L155.565 180.399C156.221 180.738 156.951 180.911 157.69 180.9V178.999C156.947 179.016 156.213 178.841 155.557 178.491L152.669 176.822L86.3193 138.513C86.0678 138.408 85.8509 138.235 85.6934 138.013C85.536 137.79 85.4442 137.528 85.4287 137.256Z" fill="#BA68C8"/>
<path opacity="0.2" d="M85.4287 137.256V139.187C85.4514 139.446 85.5414 139.695 85.6897 139.909C85.838 140.123 86.0395 140.294 86.2744 140.407L151.022 177.772L155.565 180.399C156.221 180.738 156.951 180.911 157.69 180.9V178.999C156.947 179.016 156.213 178.841 155.557 178.491L152.669 176.822L86.3193 138.513C86.0678 138.408 85.8509 138.235 85.6934 138.013C85.536 137.79 85.4442 137.528 85.4287 137.256Z" fill="black"/>
<path d="M115.319 69.3578L108.449 81.6009L118.462 86.9292L125.751 76.078L115.319 69.3578Z" fill="#FFA8A7"/>
<path d="M139.693 41.7806C135.876 41.1295 130.099 40.9574 126.342 47.4007C122.586 53.8441 114.488 69.7466 114.488 69.7466C114.488 69.7466 119.218 75.8682 126.065 76.9832L137.253 59.2322L139.693 41.7806Z" fill="#FAE653"/>
<path d="M105.934 188.159L97.3882 188.451L96.9617 172.968L105.5 172.676L105.934 188.159Z" fill="#FFA8A7"/>
<path d="M165.1 102.749C166.971 115.958 164.449 118.465 151.899 131.142C145.164 137.944 134.275 147.92 134.275 147.92C134.275 147.92 134.433 152.141 134.515 161.6C134.597 169.929 131.117 197.035 131.117 197.035C131.117 197.035 125.445 199.422 121.553 196.945C121.553 196.945 119.795 176.777 118.844 166.262C117.557 152.044 116.884 144.874 117.609 141.814C118.253 139.112 131.028 122.977 133.976 118.457L106.826 134.233C107.352 138.23 107.617 142.257 107.619 146.289C107.32 157.596 105.928 180.182 105.928 180.182C105.928 180.182 99.7163 182.958 96.6331 180.563C96.6331 180.563 88.8127 131.172 88.8127 127.116C88.8127 120.957 115.559 102.57 120.625 98.2891C123.514 95.8495 126.732 93.2078 126.732 93.2078L165.1 102.749Z" fill="#455A64"/>
<path d="M133.975 118.465C131.119 116.152 128.97 113.085 127.771 109.612C127.921 111.878 128.243 114.13 128.736 116.347C129.485 119.28 106.824 134.233 106.824 134.233L133.975 118.465Z" fill="#37474F"/>
<path d="M149.064 18.1585C150.593 11.6355 146.545 5.10836 140.022 3.57962C133.499 2.05088 126.972 6.09947 125.443 12.6224C123.914 19.1453 127.963 25.6725 134.486 27.2013C141.009 28.73 147.536 24.6814 149.064 18.1585Z" fill="#263238"/>
<path d="M162.742 49.1295C162.742 49.1295 165.735 51.5841 165.735 59.3371V76.0778L165.309 104.231C159.322 110.749 132.381 108.28 125.713 94.0608C125.713 94.0608 125.766 64.3436 125.766 57.6832C125.766 51.0228 129.508 42.3793 139.685 41.7806L152.871 44.8489L162.742 49.1295Z" fill="#263238"/>
<path d="M158.221 24.0146C158.221 24.0146 156.253 33.2494 155.467 34.7685C154.943 35.705 154.077 36.4023 153.05 36.7142L153.185 30.2185L158.221 24.0146Z" fill="#263238"/>
<path d="M155.753 10.7838C156.436 10.707 157.128 10.7863 157.776 11.0158C158.424 11.2452 159.012 11.6188 159.495 12.1084C161.111 13.7622 160.206 18.9409 158.193 24.0147L154.488 24.4413L155.753 10.7838Z" fill="#263238"/>
<path d="M153.409 24.4414C154.158 24.8829 155.213 23.4611 156.126 22.5032C157.039 21.5453 160.032 20.2581 161.522 23.3787C163.011 26.4994 160.204 30.8099 157.855 31.5508C153.798 32.823 153.185 30.2187 153.185 30.2187L152.878 44.8491C149.383 48.7555 137.432 47.8425 139.684 44.4599V39.9698C139.684 39.9698 136.01 40.5311 134.221 40.2542C131.228 39.7902 129.357 37.4404 128.452 34.2075C127 29.0213 126.446 24.838 127.703 14.6379C129.058 3.4575 142.057 3.34524 149.076 7.76055C156.096 12.1758 153.409 24.4414 153.409 24.4414Z" fill="#FFA8A7"/>
<path d="M143.075 27.0006H142.446C141.348 27.0006 140.296 26.5646 139.52 25.7885C138.744 25.0124 138.308 23.9597 138.308 22.8622C138.308 21.7646 138.744 20.712 139.52 19.9359C140.296 19.1598 141.348 18.7238 142.446 18.7238H143.082C144.18 18.7238 145.232 19.1598 146.008 19.9359C146.785 20.712 147.221 21.7646 147.221 22.8622C147.221 23.9597 146.785 25.0124 146.008 25.7885C145.232 26.5646 144.18 27.0006 143.082 27.0006H143.075ZM142.446 19.4197C141.533 19.4197 140.657 19.7824 140.012 20.428C139.366 21.0736 139.004 21.9492 139.004 22.8622C139.004 23.7752 139.366 24.6508 140.012 25.2963C140.657 25.9419 141.533 26.3046 142.446 26.3046H143.082C143.995 26.3046 144.871 25.9419 145.516 25.2963C146.162 24.6508 146.525 23.7752 146.525 22.8622C146.525 21.9492 146.162 21.0736 145.516 20.428C144.871 19.7824 143.995 19.4197 143.082 19.4197H142.446Z" fill="#263238"/>
<path d="M130.473 27.0006H129.837C128.74 27.0006 127.687 26.5646 126.911 25.7885C126.135 25.0124 125.699 23.9597 125.699 22.8622C125.699 21.7646 126.135 20.712 126.911 19.9359C127.687 19.1598 128.74 18.7238 129.837 18.7238H130.473C131.571 18.7238 132.623 19.1598 133.4 19.9359C134.176 20.712 134.612 21.7646 134.612 22.8622C134.612 23.9597 134.176 25.0124 133.4 25.7885C132.623 26.5646 131.571 27.0006 130.473 27.0006ZM129.837 19.4197C128.924 19.4197 128.049 19.7824 127.403 20.428C126.757 21.0736 126.395 21.9492 126.395 22.8622C126.395 23.7752 126.757 24.6508 127.403 25.2963C128.049 25.9419 128.924 26.3046 129.837 26.3046H130.473C131.386 26.3046 132.262 25.9419 132.907 25.2963C133.553 24.6508 133.916 23.7752 133.916 22.8622C133.916 21.9492 133.553 21.0736 132.907 20.428C132.262 19.7824 131.386 19.4197 130.473 19.4197H129.837Z" fill="#263238"/>
<path d="M138.352 22.0464C138.099 21.7034 137.77 21.4241 137.391 21.2305C137.012 21.0369 136.593 20.9345 136.167 20.9313C135.812 20.8956 135.454 20.9448 135.122 21.075C134.79 21.2051 134.494 21.4124 134.258 21.6797L133.705 21.2606C134.008 20.9023 134.394 20.6241 134.83 20.4505C135.266 20.2769 135.738 20.2133 136.204 20.2653C136.744 20.2706 137.274 20.4044 137.752 20.6556C138.229 20.9067 138.64 21.268 138.951 21.7096L138.352 22.0464Z" fill="#263238"/>
<path d="M155.632 22.0166H146.832V22.7126H155.632V22.0166Z" fill="#263238"/>
<path d="M153.41 25.6911C153.784 25.6911 155.198 23.3412 156.126 22.5031C157.406 21.3356 155.752 10.7838 155.752 10.7838C155.752 10.7838 156.987 8.15708 154.517 5.44804C152.766 3.51728 149.833 3.30025 144.826 2.51448C142.199 2.10288 138.218 1.36201 135.591 0.875579C132.463 0.291861 129.867 -0.321791 127.659 1.62394C126.792 2.37516 126.179 3.37632 125.905 4.48986C125.63 5.60339 125.707 6.77467 126.125 7.84277C126.759 9.17488 127.886 10.2082 129.268 10.7239C129.268 10.7239 130.63 11.9363 135.382 12.5125C140.134 13.0887 147.535 12.4077 148.546 12.2656C149.923 12.0785 150.214 13.4105 150.963 17.0625C151.614 20.243 152.175 25.6686 153.41 25.6911Z" fill="#263238"/>
<path d="M155.745 11.6369L160.235 9.21974C160.092 8.91791 159.888 8.64833 159.637 8.42722C159.387 8.2061 159.094 8.03804 158.776 7.93316C158.459 7.82827 158.123 7.78874 157.79 7.81693C157.457 7.84512 157.133 7.94046 156.838 8.0972C156.238 8.43558 155.79 8.99108 155.587 9.64947C155.383 10.3079 155.44 11.0191 155.745 11.6369Z" fill="#263238"/>
<path d="M139.693 40.0071C139.693 40.0071 146.353 38.6675 148.673 37.4327C150.042 36.7179 151.164 35.6068 151.891 34.2448C151.539 35.6016 150.918 36.874 150.065 37.9865C148.359 40.1642 139.686 41.7657 139.686 41.7657L139.693 40.0071Z" fill="#F28F8F"/>
<path d="M141.294 22.78C141.305 23.0428 141.392 23.2967 141.546 23.5102C141.699 23.7236 141.912 23.8871 142.158 23.9803C142.404 24.0735 142.672 24.0922 142.929 24.0341C143.185 23.9761 143.419 23.8438 143.601 23.6538C143.782 23.4638 143.904 23.2245 143.951 22.9657C143.998 22.7069 143.967 22.4401 143.863 22.1985C143.76 21.9569 143.587 21.7512 143.367 21.6071C143.147 21.463 142.889 21.3868 142.626 21.3881C142.447 21.392 142.271 21.4311 142.107 21.5031C141.944 21.5752 141.796 21.6788 141.672 21.8081C141.548 21.9373 141.451 22.0897 141.386 22.2565C141.322 22.4232 141.29 22.6011 141.294 22.78Z" fill="#263238"/>
<path d="M143.435 17.257L146.293 18.8285C146.486 18.4393 146.524 17.9916 146.401 17.5752C146.277 17.1589 146.001 16.8046 145.627 16.5834C145.44 16.4798 145.234 16.4151 145.021 16.3929C144.808 16.3708 144.593 16.3918 144.388 16.4547C144.183 16.5175 143.993 16.621 143.83 16.7588C143.666 16.8966 143.531 17.0661 143.435 17.257Z" fill="#263238"/>
<path d="M140.299 31.9922L137.253 33.1372C137.319 33.3417 137.425 33.5308 137.566 33.6932C137.706 33.8556 137.878 33.988 138.071 34.0824C138.264 34.1767 138.474 34.2311 138.688 34.2423C138.903 34.2535 139.117 34.2212 139.319 34.1475C139.729 33.9849 140.061 33.6695 140.244 33.2675C140.427 32.8656 140.446 32.4085 140.299 31.9922Z" fill="#F28F8F"/>
<path d="M129.052 18.4245L131.656 16.4264C131.535 16.252 131.379 16.1039 131.199 15.9912C131.019 15.8785 130.818 15.8034 130.609 15.7705C130.399 15.7377 130.184 15.7477 129.979 15.7999C129.773 15.8522 129.58 15.9457 129.411 16.0747C129.06 16.345 128.827 16.74 128.76 17.1776C128.694 17.6152 128.798 18.0618 129.052 18.4245Z" fill="#263238"/>
<path d="M130.196 22.3983C130.206 22.6611 130.293 22.915 130.447 23.1285C130.601 23.3419 130.814 23.5054 131.06 23.5986C131.306 23.6918 131.573 23.7105 131.83 23.6524C132.086 23.5943 132.32 23.4621 132.502 23.2721C132.684 23.0821 132.806 22.8428 132.852 22.584C132.899 22.3252 132.869 22.0583 132.765 21.8167C132.661 21.5752 132.488 21.3695 132.268 21.2254C132.048 21.0813 131.791 21.0051 131.528 21.0064C131.349 21.0103 131.172 21.0493 131.009 21.1214C130.845 21.1935 130.697 21.2971 130.573 21.4264C130.45 21.5556 130.353 21.708 130.288 21.8748C130.223 22.0415 130.192 22.2194 130.196 22.3983Z" fill="#263238"/>
<path d="M136.789 21.328L136.639 29.4177L131.857 28.3626L136.789 21.328Z" fill="#F28F8F"/>
<path d="M128.617 88.5828V89.3312C128.616 89.7138 128.515 90.0896 128.323 90.4206C128.131 90.7517 127.856 91.0264 127.524 91.217L106.742 103.191C106.411 103.382 106.036 103.483 105.653 103.483C105.271 103.483 104.895 103.382 104.564 103.191L66.4356 81.1816C66.1039 80.9909 65.8282 80.7163 65.6364 80.3852C65.4446 80.0541 65.3434 79.6784 65.343 79.2957V78.7644L105.649 102.031L128.617 88.5828Z" fill="#BA68C8"/>
<path opacity="0.6" d="M128.617 88.5828V89.3312C128.616 89.7138 128.515 90.0896 128.323 90.4206C128.131 90.7517 127.856 91.0264 127.524 91.217L106.742 103.191C106.411 103.382 106.036 103.483 105.653 103.483C105.271 103.483 104.895 103.382 104.564 103.191L66.4356 81.1816C66.1039 80.9909 65.8282 80.7163 65.6364 80.3852C65.4446 80.0541 65.3434 79.6784 65.343 79.2957V78.7644L105.649 102.031L128.617 88.5828Z" fill="black"/>
<path d="M65.3657 78.7719L87.9736 65.7206C88.1715 65.6063 88.3961 65.5461 88.6246 65.5461C88.8532 65.5461 89.0778 65.6063 89.2757 65.7206L128.49 88.3659C128.533 88.3917 128.569 88.4284 128.594 88.4724C128.619 88.5163 128.632 88.566 128.632 88.6166C128.632 88.6671 128.619 88.7168 128.594 88.7607C128.569 88.8047 128.533 88.8414 128.49 88.8673L105.672 102.038L65.3657 78.7719Z" fill="#BA68C8"/>
<path opacity="0.5" d="M65.3657 78.7719L87.9736 65.7206C88.1715 65.6063 88.3961 65.5461 88.6246 65.5461C88.8532 65.5461 89.0778 65.6063 89.2757 65.7206L128.49 88.3659C128.533 88.3917 128.569 88.4284 128.594 88.4724C128.619 88.5163 128.632 88.566 128.632 88.6166C128.632 88.6671 128.619 88.7168 128.594 88.7607C128.569 88.8047 128.533 88.8414 128.49 88.8673L105.672 102.038L65.3657 78.7719Z" fill="black"/>
<path d="M105.859 100.123L118.05 93.0881L82.3982 72.5083L70.1401 79.5054L105.859 100.123Z" fill="#263238"/>
<path d="M111.854 80.5606L111.629 80.6878L105.65 84.1378L95.0234 78.0012L94.8064 77.874L101.003 74.2969L111.854 80.5606Z" fill="#263238"/>
<path d="M111.629 80.6878L105.65 84.1377L95.0234 78.0012L101.003 74.5513L111.629 80.6878Z" fill="#263238"/>
<path opacity="0.7" d="M105.649 102.038V103.49C105.268 103.49 104.894 103.389 104.564 103.198L66.4356 81.1889C66.1039 80.9983 65.8282 80.7236 65.6364 80.3925C65.4446 80.0614 65.3434 79.6857 65.343 79.3031V78.7717L105.649 102.038Z" fill="black"/>
<path d="M105.029 102.36C104.666 102.505 104.276 102.564 103.886 102.534C103.497 102.505 103.12 102.386 102.784 102.188L64.8272 80.2764C64.4975 80.0872 64.2138 79.8274 63.9964 79.5156C63.779 79.2037 63.6334 78.8476 63.57 78.4728L59.4166 53.6873C59.393 53.5488 59.3805 53.4087 59.3792 53.2682C59.3747 52.5796 59.6439 51.9174 60.1276 51.4272L99.5734 74.2072C99.8237 74.3448 100.04 74.5364 100.207 74.7681C100.374 74.9998 100.487 75.2658 100.539 75.5468L105.029 102.36Z" fill="#BA68C8"/>
<path opacity="0.5" d="M105.029 102.36C104.666 102.505 104.276 102.564 103.886 102.534C103.497 102.505 103.12 102.386 102.784 102.188L64.8272 80.2764C64.4975 80.0872 64.2138 79.8274 63.9964 79.5156C63.779 79.2037 63.6334 78.8476 63.57 78.4728L59.4166 53.6873C59.393 53.5488 59.3805 53.4087 59.3792 53.2682C59.3747 52.5796 59.6439 51.9174 60.1276 51.4272L99.5734 74.2072C99.8237 74.3448 100.04 74.5364 100.207 74.7681C100.374 74.9998 100.487 75.2658 100.539 75.5468L105.029 102.36Z" fill="black"/>
<path d="M105.65 102.038L105.395 102.188C105.28 102.255 105.16 102.312 105.036 102.36L100.546 75.5467C100.499 75.2691 100.391 75.0052 100.231 74.7738C100.07 74.5423 99.8613 74.3489 99.618 74.2071L60.1721 51.4271C60.3288 51.2728 60.5049 51.1395 60.696 51.0305L100.224 73.8479C100.467 73.9896 100.677 74.1831 100.837 74.4145C100.997 74.646 101.105 74.9099 101.152 75.1875L105.65 102.038Z" fill="#E0E0E0"/>
<path d="M83.6556 79.4828C83.3788 77.829 81.665 75.6213 79.8315 74.5661C77.9981 73.511 76.7334 73.9899 77.0177 75.6513C77.3021 77.3126 79.0083 79.5128 80.8418 80.5754C82.6753 81.6381 83.94 81.1442 83.6556 79.4828Z" fill="#FAE653"/>
<path d="M91.432 95.6177C91.3528 94.5438 91.1443 93.4834 90.8108 92.4596C90.2271 90.6261 88.4909 83.5616 84.5246 82.499C84.053 82.3572 83.5524 82.3417 83.0728 82.4541C81.9728 82.7534 81.4713 83.8984 81.2543 84.9236C81.0523 86.4386 81.0523 87.9737 81.2543 89.4886C80.6446 88.7912 79.9301 88.1929 79.1365 87.715C78.4328 87.1852 77.5844 86.8823 76.7043 86.8469C76.5819 86.8409 76.4599 86.8651 76.3489 86.9172C76.238 86.9694 76.1416 87.0481 76.0682 87.1463C75.926 87.4082 76.0682 87.7375 76.2927 87.9695C76.6894 88.4484 77.1758 88.8525 77.5724 89.3315C77.8833 89.7492 78.1706 90.1839 78.433 90.6336C78.9344 91.4418 79.4957 92.2052 80.057 92.976C81.1353 94.5776 82.4882 95.9761 84.0532 97.1069C85.8532 98.3252 87.8956 99.1396 90.04 99.4941C92.9362 99.8533 95.75 99.8084 97.576 99.1723L91.432 95.6177Z" fill="#FFA8A7"/>
<path d="M161.949 49.3465C159.277 47.9695 155.371 53.4251 156.613 59.1275C157.855 64.83 163.977 84.8785 163.977 84.8785C163.977 84.8785 136.325 87.348 133.975 87.6399C132.336 87.8345 130.503 87.0038 128.984 86.5024C126.918 85.8139 124.83 85.335 122.795 84.5866C122.441 84.4239 122.055 84.3421 121.665 84.3471C121.469 84.3556 121.282 84.4284 121.132 84.5542C120.981 84.68 120.877 84.8519 120.834 85.0431C120.824 85.2773 120.884 85.5091 121.006 85.7091C121.659 87.0409 122.64 88.1844 123.858 89.0318C124.447 89.3802 125.008 89.7756 125.534 90.2143C125.856 90.536 126.567 91.4266 126.282 91.913L115.296 98.2366C115.296 98.2366 117.826 100.437 126.986 97.8699C130.288 97.0061 133.51 95.862 136.617 94.45C136.617 94.45 169.2 95.8045 175.09 94.0234C177.17 93.3873 177.919 91.913 176.512 85.2077C174.903 77.4398 170.286 63.2734 169.238 59.5316C166.94 51.4269 166.394 51.614 161.949 49.3465Z" fill="#FFA8A7"/>
<path d="M160.572 48.1865C160.572 48.1865 164.987 49.4288 166.888 51.9283C168.789 54.4278 176.123 78.6072 176.123 78.6072C174.206 80.2063 171.964 81.3692 169.552 82.0153C167.141 82.6614 164.618 82.7753 162.158 82.349C162.158 82.349 156.261 65.6232 155.633 61.1555C154.518 54.2332 157.9 48.7852 160.572 48.1865Z" fill="#FAE653"/>
<path d="M136.745 64.411C136.385 62.5401 137.553 61.5298 139.356 62.1659C140.311 62.558 141.16 63.1685 141.836 63.9483C142.512 64.7281 142.995 65.6555 143.248 66.656C143.607 68.5494 137.096 66.2669 136.745 64.411Z" fill="#FAE653"/>
<path d="M149.084 70.2406L143.778 66.8655C144.048 68.3024 142.109 68.1003 140.366 67.4941C138.622 66.888 136.489 65.6607 136.212 64.2238L131.587 64.1639C131.161 64.1639 131.153 64.7177 131.587 65.1742C132.732 66.4539 135.397 68.7214 140.994 70.6746C146.592 72.6278 148.74 72.0217 149.548 71.423C149.81 71.1985 149.57 70.5474 149.084 70.2406Z" fill="#FAE653"/>
</svg>
