<svg width="159" height="171" viewBox="0 0 159 171" fill="none" xmlns="http://www.w3.org/2000/svg">
<path d="M108.485 79.023L101.784 75.1301L12.4939 119.594L19.2129 123.475L108.485 79.023Z" fill="#455A64"/>
<path d="M151.796 104.195L62.6777 148.567L69.8872 152.73L158.975 108.364L151.796 104.195Z" fill="#455A64"/>
<path opacity="0.3" d="M108.485 79.023L101.784 75.1301L12.4939 119.594L19.2129 123.475L108.485 79.023Z" fill="white"/>
<path d="M62.678 148.567L19.2129 123.475L12.4939 119.594L0 117.951L57.1974 151.191L69.8874 152.73L62.678 148.567Z" fill="#455A64"/>
<path opacity="0.5" d="M62.678 148.567L19.2129 123.475L12.4939 119.594L0 117.951L57.1974 151.191L69.8874 152.73L62.678 148.567Z" fill="white"/>
<path opacity="0.3" d="M151.796 104.195L62.6777 148.567L69.8872 152.73L158.975 108.364L151.796 104.195Z" fill="white"/>
<path d="M57.1974 151.191L0 117.951L0.0122589 133.032L0.0245178 139.678L57.2157 172.917L57.1974 151.191Z" fill="#455A64"/>
<path d="M5.52979 134.724V129.71C5.52894 129.494 5.58496 129.282 5.69222 129.095C5.79949 128.908 5.95419 128.752 6.14073 128.644C6.32726 128.536 6.53903 128.479 6.75467 128.479C6.9703 128.479 7.18219 128.535 7.36894 128.643L50.1106 153.484C50.5766 153.753 50.9635 154.14 51.2326 154.606C51.5016 155.072 51.6432 155.6 51.6432 156.138V161.153C51.6441 161.369 51.5881 161.581 51.4808 161.768C51.3736 161.955 51.2188 162.11 51.0323 162.218C50.8458 162.327 50.634 162.384 50.4184 162.384C50.2027 162.384 49.9909 162.327 49.8041 162.22L7.0808 137.379C6.61142 137.112 6.22079 136.726 5.94844 136.26C5.67609 135.794 5.53167 135.264 5.52979 134.724Z" fill="#37474F"/>
<path d="M57.1973 151.191L57.2157 172.917L159 114.15L158.975 108.363L69.8874 152.73L57.1973 151.191Z" fill="#455A64"/>
<path opacity="0.1" d="M57.1973 151.191L57.2157 172.917L159 114.15L158.975 108.363L69.8874 152.73L57.1973 151.191Z" fill="white"/>
<path d="M108.485 79.0229L108.479 81.7633H102.98L108.485 79.0229Z" fill="#455A64"/>
<path d="M103.869 81.3217L19.2129 123.475L62.678 148.567L149.253 105.457L107.945 81.4505C107.33 81.0925 106.635 80.8933 105.923 80.8708C105.212 80.8483 104.506 81.0033 103.869 81.3217Z" fill="#37474F"/>
<path d="M58.3191 84.8958C57.8314 84.8958 57.3636 85.0895 57.0187 85.4344C56.6737 85.7793 56.48 86.2471 56.48 86.7349V147.85C57.5919 148.543 58.8525 148.964 60.1583 149.076V86.741C60.1591 86.499 60.1121 86.2592 60.02 86.0353C59.928 85.8115 59.7926 85.608 59.6218 85.4366C59.4509 85.2652 59.2479 85.1291 59.0243 85.0363C58.8008 84.9435 58.5612 84.8958 58.3191 84.8958Z" fill="#E0E0E0"/>
<path opacity="0.2" d="M58.3191 84.8958C57.8314 84.8958 57.3636 85.0895 57.0187 85.4344C56.6737 85.7793 56.48 86.2471 56.48 86.7349V147.85C57.5919 148.543 58.8525 148.964 60.1583 149.076V86.741C60.1591 86.499 60.1121 86.2592 60.02 86.0353C59.928 85.8115 59.7926 85.608 59.6218 85.4366C59.4509 85.2652 59.2479 85.1291 59.0243 85.0363C58.8008 84.9435 58.5612 84.8958 58.3191 84.8958Z" fill="black"/>
<path opacity="0.3" d="M58.3191 84.8958C57.8314 84.8958 57.3636 85.0895 57.0187 85.4344C56.6737 85.7793 56.48 86.2471 56.48 86.7349V92.0255C57.5667 92.2188 58.6682 92.3172 59.772 92.3198H60.1644V86.741C60.1652 86.4985 60.118 86.2582 60.0256 86.0339C59.9331 85.8097 59.7972 85.6059 59.6257 85.4344C59.4542 85.2629 59.2505 85.127 59.0262 85.0346C58.802 84.9421 58.5617 84.895 58.3191 84.8958Z" fill="black"/>
<path d="M9.90677 58.7556C9.419 58.7556 8.9512 58.9494 8.6063 59.2943C8.26139 59.6392 8.06763 60.107 8.06763 60.5948V120.502C9.19398 121.141 10.453 121.51 11.7459 121.581V60.6009C11.7467 60.3589 11.6997 60.119 11.6077 59.8952C11.5156 59.6714 11.3803 59.4679 11.2094 59.2965C11.0386 59.125 10.8355 58.989 10.612 58.8962C10.3885 58.8034 10.1488 58.7556 9.90677 58.7556Z" fill="#E0E0E0"/>
<path opacity="0.2" d="M9.90677 58.7556C9.419 58.7556 8.9512 58.9494 8.6063 59.2943C8.26139 59.6392 8.06763 60.107 8.06763 60.5948V120.502C9.19398 121.141 10.453 121.51 11.7459 121.581V60.6009C11.7467 60.3589 11.6997 60.119 11.6077 59.8952C11.5156 59.6714 11.3803 59.4679 11.2094 59.2965C11.0386 59.125 10.8355 58.989 10.612 58.8962C10.3885 58.8034 10.1488 58.7556 9.90677 58.7556Z" fill="black"/>
<path opacity="0.3" d="M9.90677 58.7556C9.419 58.7556 8.9512 58.9494 8.6063 59.2943C8.26139 59.6392 8.06763 60.107 8.06763 60.5948V65.3949L11.7459 67.5283V60.6009C11.7467 60.3589 11.6997 60.119 11.6077 59.8952C11.5156 59.6714 11.3803 59.4679 11.2094 59.2965C11.0386 59.125 10.8355 58.989 10.612 58.8962C10.3885 58.8034 10.1488 58.7556 9.90677 58.7556Z" fill="black"/>
<path d="M23.8843 46.3045C23.7608 46.1326 23.5963 45.9943 23.4057 45.9023C23.2151 45.8102 23.0045 45.7672 22.7931 45.7773L10.949 48.4747C11.1679 48.4527 11.3888 48.4901 11.5883 48.5829C11.7879 48.6756 11.9588 48.8204 12.0831 49.002C12.4528 49.4916 12.7011 50.062 12.8077 50.6662C12.9143 51.2704 12.876 51.8913 12.6962 52.4779C12.6475 52.6922 12.5422 52.8895 12.3912 53.0491C12.2402 53.2087 12.0491 53.3248 11.8379 53.3852L23.6268 50.6878C23.8403 50.6293 24.034 50.514 24.1872 50.3543C24.3405 50.1945 24.4477 49.9963 24.4973 49.7805C24.6738 49.1935 24.7102 48.5733 24.6037 47.9697C24.4973 47.3661 24.2509 46.7958 23.8843 46.3045Z" fill="#455A64"/>
<path d="M12.7208 52.4778C12.9007 51.8912 12.9389 51.2704 12.8323 50.6661C12.7258 50.0619 12.4774 49.4915 12.1077 49.0019C11.9834 48.8203 11.8125 48.6755 11.6129 48.5828C11.4134 48.49 11.1926 48.4527 10.9736 48.4746L10.9 48.5053C10.7064 48.5765 10.5329 48.6933 10.3941 48.846C10.2554 48.9986 10.1555 49.1825 10.1031 49.3819C9.92419 49.9687 9.88647 50.5894 9.993 51.1934C10.0995 51.7975 10.3473 52.3678 10.7161 52.8579C10.8387 53.0387 11.0073 53.1834 11.2045 53.2772C11.4017 53.371 11.6204 53.4104 11.838 53.3913H11.8686C12.0795 53.3294 12.2699 53.2119 12.4198 53.0512C12.5697 52.8905 12.6736 52.6925 12.7208 52.4778Z" fill="#263238"/>
<path d="M81.407 80.1509C81.2855 79.9779 81.1224 79.8383 80.9328 79.7451C80.7431 79.6519 80.533 79.608 80.3219 79.6175L68.4778 82.3272C68.6973 82.3058 68.9186 82.3441 69.1182 82.438C69.3178 82.5318 69.4883 82.6778 69.6119 82.8605C69.9802 83.3497 70.2277 83.919 70.3342 84.522C70.4408 85.125 70.4033 85.7446 70.225 86.3304C70.1723 86.5437 70.0649 86.7397 69.9133 86.8988C69.7617 87.0579 69.5711 87.1747 69.3606 87.2377L81.1495 84.5464C81.3609 84.4838 81.5524 84.3672 81.705 84.2081C81.8577 84.049 81.9662 83.8529 82.02 83.6391C82.2009 83.0506 82.2397 82.4276 82.1332 81.8212C82.0266 81.2148 81.7777 80.6424 81.407 80.1509Z" fill="#455A64"/>
<path d="M68.3918 82.3272C68.4163 82.3245 68.441 82.3245 68.4654 82.3272H68.3918Z" fill="#455A64"/>
<path d="M70.2491 86.3183C70.4275 85.7325 70.4649 85.1129 70.3584 84.5099C70.2518 83.9069 70.0044 83.3376 69.6361 82.8484C69.5125 82.6657 69.3419 82.5198 69.1423 82.4259C68.9427 82.332 68.7215 82.2937 68.5019 82.3151C68.4775 82.3124 68.4528 82.3124 68.4284 82.3151C68.2349 82.3872 68.0619 82.5052 67.9241 82.659C67.7864 82.8128 67.688 82.9977 67.6375 83.1979C67.4577 83.7835 67.4195 84.4034 67.526 85.0066C67.6326 85.6099 67.8809 86.1792 68.2506 86.6677C68.3731 86.8485 68.5417 86.9932 68.739 87.087C68.9362 87.1807 69.1549 87.2201 69.3725 87.2011C69.5823 87.1421 69.7734 87.0298 69.927 86.8751C70.0807 86.7204 70.1916 86.5286 70.2491 86.3183Z" fill="#263238"/>
<g opacity="0.4">
<path d="M23.884 46.3045C23.7606 46.1326 23.596 45.9943 23.4054 45.9023C23.2148 45.8102 23.0042 45.7672 22.7928 45.7773L10.9487 48.4747C11.1677 48.4527 11.3885 48.4901 11.5881 48.5829C11.7876 48.6756 11.9585 48.8204 12.0829 49.002C12.4526 49.4916 12.7009 50.062 12.8075 50.6662C12.914 51.2704 12.8758 51.8913 12.6959 52.4779C12.6473 52.6922 12.542 52.8895 12.391 53.0491C12.24 53.2087 12.0489 53.3248 11.8376 53.3852L23.6266 50.6878C23.8401 50.6293 24.0337 50.514 24.187 50.3543C24.3403 50.1945 24.4474 49.9963 24.4971 49.7805C24.6735 49.1935 24.71 48.5733 24.6035 47.9697C24.497 47.3661 24.2506 46.7958 23.884 46.3045Z" fill="white"/>
</g>
<g opacity="0.4">
<path d="M81.4072 80.1509C81.2858 79.9779 81.1227 79.8383 80.933 79.7451C80.7433 79.6519 80.5332 79.608 80.3221 79.6175L68.478 82.3272C68.6976 82.3058 68.9188 82.3441 69.1184 82.438C69.318 82.5318 69.4886 82.6778 69.6122 82.8605C69.9805 83.3497 70.228 83.919 70.3345 84.522C70.441 85.125 70.4036 85.7446 70.2252 86.3304C70.1725 86.5437 70.0651 86.7397 69.9135 86.8988C69.7619 87.0579 69.5714 87.1747 69.3608 87.2377L81.1497 84.5464C81.3612 84.4838 81.5526 84.3672 81.7053 84.2081C81.8579 84.049 81.9665 83.8529 82.0202 83.6391C82.2012 83.0506 82.24 82.4276 82.1334 81.8212C82.0268 81.2148 81.7779 80.6424 81.4072 80.1509Z" fill="white"/>
<path d="M68.3921 82.3272C68.4165 82.3245 68.4412 82.3245 68.4657 82.3272H68.3921Z" fill="white"/>
</g>
<path d="M68.2322 83.259L63.524 84.436C59.6598 85.4096 55.5682 84.8355 52.1213 82.836L8.98726 57.934C8.56091 57.6923 8.21674 57.3285 7.99914 56.8894C7.78155 56.4503 7.70052 55.956 7.7665 55.4704C7.83248 54.9848 8.04244 54.5301 8.3693 54.165C8.69617 53.7999 9.12494 53.5411 9.60031 53.4219L11.4885 52.956C12.1383 52.4288 12.0648 49.5659 10.6854 49.3574L8.70526 49.8417C7.51192 50.1319 6.43325 50.7738 5.60901 51.6842C4.78477 52.5946 4.25297 53.7316 4.08253 54.9478C3.91208 56.1641 4.11086 57.4034 4.65309 58.5053C5.19531 59.6073 6.056 60.5209 7.1236 61.1279L50.2822 86.0054C53.1688 87.681 56.4467 88.565 59.7844 88.568C61.3567 88.5551 62.9215 88.3492 64.4436 87.9549L69.0537 86.8085C69.6851 86.3365 69.6115 83.4735 68.2322 83.259Z" fill="#E0E0E0"/>
<path d="M14.0569 65.3948V52.6128L41.7176 68.5888V81.3647L14.0569 65.3948Z" fill="#455A64"/>
<path d="M41.718 68.5889L58.3194 76.6872V81.3648H41.718V68.5889Z" fill="#455A64"/>
<path d="M14.0569 52.6128L41.7176 68.5888L58.3189 76.6872L30.6521 60.7173L14.0569 52.6128Z" fill="#455A64"/>
<path opacity="0.1" d="M41.718 68.5889L58.3194 76.6872V81.3648H41.718V68.5889Z" fill="white"/>
<path opacity="0.3" d="M14.0569 52.6128L41.7176 68.5888L58.3189 76.6872L30.6521 60.7173L14.0569 52.6128Z" fill="white"/>
<path opacity="0.2" d="M106.406 103.294C116.994 109.424 117.049 119.312 106.535 125.425C96.0215 131.537 78.9113 131.555 68.324 125.425C57.7366 119.294 57.6876 109.406 68.2014 103.294C78.7151 97.1815 95.8253 97.1815 106.406 103.294Z" fill="black"/>
<path d="M86.3723 34.2213L88.6957 24.0876C85.5277 24.531 82.5319 25.7995 80.0088 27.7659L67.8459 37.3295L76.2141 39.9104L86.3723 34.2213Z" fill="#FFA8A7"/>
<path d="M92.0547 79.7893L93.7528 83.6208C94.2285 84.7003 95.0377 85.599 96.0616 86.1848C97.0855 86.7707 98.2702 87.013 99.4419 86.8761L113.787 85.2393C114.993 85.1029 116.213 85.1923 117.386 85.5029L120.525 86.3366V78.9801L119.666 79.2314C118.015 79.7221 116.263 79.7644 114.59 79.354L109.361 78.0666C106.886 77.4586 104.293 77.5221 101.851 78.2505L101.318 73.9102L92.0547 79.7893Z" fill="#F28F8F"/>
<path d="M131.039 89.4753C130.984 87.699 130.239 86.014 128.96 84.7794C128.016 83.8843 126.827 83.2835 125.932 82.3272C124.896 81.2176 124.467 79.9976 123.584 78.7409C123.428 78.5287 123.216 78.3651 122.971 78.2688C122.881 78.2597 122.791 78.2597 122.701 78.2688C122.389 78.2935 122.084 78.3811 121.806 78.5263C122.163 78.5876 122.482 78.7855 122.695 79.078C123.584 80.3041 124.209 81.7754 125.251 82.8605C126.14 83.7862 127.33 84.3748 128.274 85.2514C129.547 86.4443 130.294 88.0935 130.352 89.837C130.401 91.5597 129.77 94.533 128.513 94.533C128.909 94.6292 129.328 94.5654 129.678 94.3552C130.769 93.2701 131.069 90.7566 131.039 89.4753Z" fill="#EBEBEB"/>
<path d="M123.584 78.7408C124.467 79.9976 124.896 81.193 125.932 82.3272C126.827 83.2835 128.016 83.8843 128.96 84.7794C130.239 86.0139 130.984 87.6989 131.039 89.4753C131.039 90.7566 130.769 93.2701 129.721 94.3368C131.057 93.5337 131.425 90.6953 131.382 89.3098C131.323 87.5678 130.578 85.9197 129.31 84.7242C128.366 83.8475 127.17 83.259 126.281 82.3272C125.239 81.2421 124.816 80.0466 123.927 78.8267C123.817 78.6753 123.676 78.5478 123.515 78.452C123.354 78.3561 123.175 78.2938 122.989 78.2688C123.227 78.368 123.433 78.5314 123.584 78.7408Z" fill="#455A64"/>
<path d="M119.348 79.0413C119.044 79.1749 118.709 79.2236 118.379 79.1822C118.379 79.1822 117.411 79.0842 117.092 79.0228C116.479 78.9064 116.417 79.5991 116.417 79.5991C116.782 79.6378 117.15 79.6378 117.515 79.5991C117.598 79.7266 117.707 79.8351 117.835 79.9175C117.962 79.9999 118.106 80.0544 118.257 80.0773C118.564 80.1376 118.864 80.23 119.152 80.3532C119.294 80.4182 119.415 80.5239 119.497 80.6569C119.58 80.7899 119.622 80.9444 119.618 81.1011C119.562 81.4444 119.225 81.6467 119.005 81.9348C118.902 82.1023 118.844 82.2932 118.835 82.4894C118.826 82.6857 118.868 82.8809 118.955 83.0567C118.759 82.9721 118.539 82.9583 118.333 83.0175C118.128 83.0768 117.949 83.2054 117.827 83.3816C117.597 83.7524 117.458 84.1727 117.423 84.6077C117.36 84.8975 117.339 85.1948 117.362 85.4905C117.372 85.6396 117.413 85.785 117.481 85.9179C117.55 86.0507 117.645 86.1681 117.76 86.263C117.877 86.3544 118.022 86.4041 118.171 86.4041C118.32 86.4041 118.464 86.3544 118.582 86.263C119.366 87.5381 122.953 88.0224 124.749 90.4317C126.545 92.841 126.937 94.5514 128.531 94.5514C129.757 94.5514 130.37 91.5781 130.37 89.8554C130.313 88.1119 129.565 86.4627 128.292 85.2698C127.348 84.3931 126.159 83.8046 125.27 82.8789C124.228 81.7938 123.602 80.3225 122.713 79.0964C122.5 78.8039 122.181 78.606 121.825 78.5447C121.717 78.5323 121.608 78.5323 121.5 78.5447C120.758 78.574 120.028 78.7424 119.348 79.0413Z" fill="#FAE653"/>
<path d="M128.066 94.1037L128.47 92.9941C128.498 92.9222 128.544 92.8591 128.604 92.8116C128.665 92.764 128.737 92.7339 128.814 92.7244C130.04 92.5773 130.426 92.3933 130.959 91.8293C130.883 92.5178 130.661 93.1822 130.309 93.7788C130.103 94.1367 129.766 94.4006 129.37 94.5149C128.973 94.6293 128.547 94.5852 128.182 94.3919C128.13 94.3677 128.088 94.3245 128.067 94.2709C128.045 94.2174 128.045 94.1576 128.066 94.1037Z" fill="#455A64"/>
<path d="M120.304 83.78C120.304 83.8239 120.294 83.8673 120.276 83.9074C120.259 83.9475 120.233 83.9834 120.2 84.013C119.793 84.3632 119.515 84.8393 119.409 85.3658C119.304 85.8922 119.377 86.4388 119.618 86.9188C119.647 86.9903 119.649 87.0703 119.622 87.1429C119.595 87.2155 119.542 87.2753 119.473 87.3102C119.404 87.3451 119.324 87.3526 119.25 87.3312C119.175 87.3098 119.112 87.261 119.072 87.1947C118.772 86.5915 118.68 85.9064 118.808 85.2452C118.938 84.5847 119.286 83.9868 119.795 83.5471C119.858 83.4944 119.938 83.4682 120.019 83.4739C120.101 83.4796 120.176 83.5169 120.231 83.5777C120.279 83.6341 120.305 83.7059 120.304 83.78Z" fill="#37474F"/>
<path d="M122.186 84.6444C122.186 84.7272 122.153 84.8066 122.094 84.8651C121.706 85.2494 121.424 85.7271 121.275 86.2522C121.126 86.7774 121.114 87.3321 121.242 87.8629C121.252 87.9031 121.253 87.9449 121.247 87.9858C121.24 88.0267 121.226 88.0659 121.204 88.1012C121.183 88.1365 121.154 88.1671 121.121 88.1915C121.087 88.2158 121.049 88.2333 121.009 88.243C120.969 88.2526 120.927 88.2543 120.886 88.2478C120.845 88.2413 120.806 88.2268 120.771 88.2052C120.735 88.1836 120.705 88.1552 120.68 88.1217C120.656 88.0882 120.639 88.0503 120.629 88.01C120.478 87.3751 120.492 86.7121 120.67 86.0843C120.849 85.4564 121.185 84.8847 121.647 84.4237C121.675 84.395 121.709 84.3721 121.746 84.3566C121.784 84.341 121.824 84.333 121.864 84.333C121.905 84.333 121.945 84.341 121.982 84.3566C122.019 84.3721 122.053 84.395 122.082 84.4237C122.114 84.4511 122.139 84.485 122.157 84.523C122.175 84.561 122.185 84.6023 122.186 84.6444Z" fill="#37474F"/>
<path d="M123.848 86.0054C123.848 86.0516 123.838 86.0971 123.817 86.1386C123.797 86.18 123.768 86.2163 123.731 86.2445C123.385 86.5287 123.119 86.8979 122.959 87.316C122.799 87.7341 122.75 88.1867 122.818 88.6293C122.83 88.7096 122.811 88.7916 122.764 88.858C122.717 88.9244 122.646 88.9699 122.567 88.9848C122.486 88.9974 122.404 88.9782 122.338 88.9312C122.271 88.8843 122.226 88.8134 122.211 88.7335C122.124 88.1815 122.183 87.6161 122.383 87.0943C122.583 86.5724 122.917 86.1124 123.351 85.7602C123.415 85.7101 123.496 85.6871 123.576 85.6963C123.656 85.7055 123.73 85.7461 123.78 85.8093C123.825 85.8648 123.849 85.9342 123.848 86.0054Z" fill="#37474F"/>
<path d="M125.215 87.3236C125.214 87.3665 125.204 87.4088 125.186 87.4479C125.168 87.4869 125.143 87.5218 125.111 87.5504C124.816 87.8223 124.589 88.16 124.45 88.5361C124.31 88.9122 124.261 89.316 124.308 89.7145C124.318 89.7949 124.296 89.8763 124.247 89.9406C124.197 90.005 124.124 90.0471 124.044 90.0578C124.004 90.0638 123.963 90.0617 123.924 90.0516C123.885 90.0415 123.848 90.0236 123.816 89.999C123.784 89.9744 123.757 89.9436 123.738 89.9084C123.718 89.8732 123.705 89.8343 123.701 89.7942C123.641 89.2975 123.701 88.7938 123.874 88.3248C124.048 87.8557 124.331 87.4348 124.7 87.0968C124.728 87.068 124.762 87.0452 124.8 87.0297C124.837 87.0141 124.877 87.0061 124.917 87.0061C124.958 87.0061 124.998 87.0141 125.035 87.0297C125.073 87.0452 125.107 87.068 125.135 87.0968C125.189 87.16 125.217 87.2408 125.215 87.3236Z" fill="#37474F"/>
<path d="M85.8387 53.5508C85.3789 60.0613 87.1199 67.6509 87.6778 69.8946L86.7153 72.1997C86.4762 78.1156 95.1938 81.3464 99.1908 79.0413C105.456 69.0241 108.632 63.5925 107.4 57.2904L85.8387 53.5508Z" fill="#263238"/>
<path opacity="0.3" d="M88.199 68.8891L92.055 61.2138C88.8304 60.2513 86.3721 56.4075 86.3721 56.4075C86.8686 59.675 89.9829 61.7471 89.9829 61.7471C88.6142 63.8647 87.9867 66.3766 88.199 68.8891Z" fill="black"/>
<path d="M99.3258 76.8589C98.5043 73.1806 92.9195 69.1774 88.1561 70.4587L83.7053 80.2981C82.9564 81.9557 82.5041 83.7319 82.3689 85.5458L80.5972 109.301C80.476 110.964 80.1759 112.608 79.7021 114.206L79.647 114.39L85.8388 116.045C85.863 113.301 86.3779 110.583 87.3591 108.02L92.0919 95.6733C93.0084 93.2692 93.4256 90.7035 93.3179 88.1329L93.2444 86.1895L99.3258 76.8589Z" fill="#FFA8A7"/>
<path d="M76.1644 126.467C77.9386 126.411 79.6212 125.665 80.8542 124.388C81.7554 123.444 82.3562 122.255 83.3064 121.366C84.416 120.324 85.6421 119.895 86.8928 119.012C87.1049 118.856 87.2686 118.644 87.3648 118.399C87.3741 118.309 87.3741 118.219 87.3648 118.129C87.341 117.817 87.2556 117.513 87.1134 117.234C87.0547 117.592 86.8562 117.912 86.5617 118.123C85.3356 119.012 83.8704 119.637 82.7853 120.679C81.8535 121.568 81.265 122.764 80.3883 123.702C79.1954 124.975 77.5462 125.722 75.8027 125.78C74.0862 125.829 71.1068 125.204 71.1068 123.941C71.0105 124.337 71.0744 124.756 71.2846 125.106C72.3513 126.172 74.877 126.467 76.1644 126.467Z" fill="#EBEBEB"/>
<path d="M86.8931 118.987C85.667 119.87 84.4409 120.299 83.3067 121.342C82.3565 122.231 81.7557 123.42 80.8545 124.364C79.6215 125.641 77.9389 126.386 76.1647 126.442C74.8773 126.479 72.37 126.172 71.2971 125.124C72.1002 126.461 74.9448 126.828 76.3241 126.785C78.0669 126.73 79.7162 125.985 80.9097 124.713C81.7864 123.769 82.3749 122.58 83.3067 121.685C84.3918 120.649 85.5873 120.22 86.8134 119.331C86.9654 119.221 87.093 119.081 87.188 118.92C87.283 118.758 87.3433 118.579 87.3651 118.393C87.2659 118.631 87.1025 118.837 86.8931 118.987Z" fill="#455A64"/>
<path d="M86.5988 114.751C86.4638 114.45 86.415 114.116 86.4578 113.789C86.4578 113.789 86.5497 112.814 86.611 112.501C86.7275 111.888 86.2555 111.858 86.2555 111.858C86.2555 111.858 86.1635 112.342 86.0838 112.912C85.952 112.996 85.8382 113.106 85.7488 113.234C85.6593 113.363 85.5961 113.507 85.5627 113.66C85.5024 113.967 85.41 114.267 85.2868 114.555C85.2225 114.698 85.117 114.819 84.9838 114.902C84.8506 114.985 84.6957 115.026 84.5389 115.021C84.2017 114.972 83.9933 114.629 83.7113 114.408C83.5427 114.305 83.3508 114.247 83.1536 114.238C82.9564 114.23 82.7602 114.271 82.5833 114.359C82.6699 114.164 82.6848 113.944 82.6254 113.739C82.5659 113.533 82.436 113.356 82.2584 113.237C81.8885 113.004 81.468 112.863 81.0323 112.826C80.7401 112.766 80.4411 112.746 80.1434 112.765C79.995 112.775 79.8503 112.815 79.7183 112.884C79.5864 112.952 79.4702 113.048 79.3771 113.163C79.2846 113.28 79.2343 113.425 79.2343 113.574C79.2343 113.723 79.2846 113.868 79.3771 113.985C78.0958 114.77 77.6115 118.356 75.2022 120.152C72.7929 121.948 71.0825 122.347 71.0825 123.935C71.0825 125.161 74.0619 125.774 75.7785 125.774C77.522 125.716 79.1712 124.968 80.3641 123.696C81.2407 122.758 81.8293 121.562 82.7611 120.673C83.8462 119.631 85.3114 119.006 86.5375 118.117C86.7259 117.975 86.8768 117.789 86.9772 117.575C87.0776 117.361 87.1245 117.127 87.1137 116.891C87.0713 116.153 86.8969 115.428 86.5988 114.751Z" fill="#FAE653"/>
<path d="M71.5301 123.469L72.6397 123.873C72.714 123.9 72.7794 123.946 72.8282 124.008C72.877 124.07 72.9073 124.144 72.9156 124.223C73.0566 125.449 73.2405 125.835 73.8045 126.362C73.1182 126.289 72.4556 126.069 71.8611 125.719C71.5028 125.511 71.2388 125.173 71.1245 124.776C71.0102 124.378 71.0545 123.951 71.2481 123.585C71.2732 123.535 71.3156 123.496 71.3673 123.474C71.4191 123.453 71.4769 123.451 71.5301 123.469Z" fill="#455A64"/>
<path d="M81.8601 115.714C81.8155 115.714 81.7715 115.704 81.7312 115.685C81.6909 115.666 81.6554 115.638 81.6271 115.603C81.2743 115.199 80.7983 114.921 80.2723 114.813C79.7439 114.708 79.1955 114.783 78.7152 115.027C78.642 115.064 78.5573 115.07 78.4797 115.044C78.4021 115.018 78.3379 114.962 78.3014 114.889C78.2648 114.816 78.2588 114.731 78.2846 114.654C78.3105 114.576 78.3661 114.512 78.4393 114.475C79.0452 114.166 79.7377 114.07 80.4049 114.202C81.0722 114.335 81.6755 114.688 82.1176 115.205C82.1698 115.266 82.1959 115.346 82.1902 115.426C82.1845 115.506 82.1474 115.581 82.0869 115.634C82.0564 115.662 82.0206 115.683 81.9817 115.697C81.9427 115.711 81.9013 115.716 81.8601 115.714Z" fill="#37474F"/>
<path d="M80.9896 117.59C80.9067 117.59 80.8274 117.557 80.7689 117.498C80.3855 117.111 79.9088 116.829 79.3848 116.68C78.8607 116.53 78.3071 116.519 77.7772 116.646C77.7378 116.656 77.6967 116.658 77.6564 116.652C77.6161 116.646 77.5775 116.632 77.5427 116.611C77.5078 116.59 77.4776 116.562 77.4536 116.529C77.4297 116.496 77.4126 116.459 77.4033 116.419C77.3932 116.38 77.3909 116.34 77.3966 116.3C77.4023 116.261 77.4158 116.223 77.4364 116.189C77.4569 116.154 77.4841 116.125 77.5163 116.101C77.5485 116.077 77.5851 116.06 77.624 116.051C78.2588 115.899 78.9222 115.913 79.5502 116.091C80.1783 116.269 80.7499 116.606 81.2103 117.069C81.2526 117.112 81.2813 117.167 81.2925 117.226C81.3038 117.286 81.2972 117.347 81.2736 117.403C81.25 117.459 81.2105 117.506 81.1599 117.539C81.1094 117.573 81.0501 117.59 80.9896 117.59Z" fill="#37474F"/>
<path d="M79.653 119.227C79.6062 119.226 79.56 119.215 79.5177 119.195C79.4753 119.175 79.4379 119.146 79.4078 119.11C79.1248 118.763 78.7558 118.495 78.3376 118.334C77.9193 118.172 77.4662 118.123 77.023 118.191C76.9417 118.204 76.8586 118.184 76.7919 118.135C76.7253 118.087 76.6805 118.014 76.6675 117.933C76.6545 117.852 76.6743 117.769 76.7226 117.702C76.7709 117.635 76.8437 117.591 76.925 117.578C77.4761 117.491 78.0403 117.55 78.5611 117.751C79.0819 117.951 79.5409 118.284 79.8921 118.718C79.9296 118.763 79.9534 118.818 79.9607 118.876C79.968 118.934 79.9586 118.993 79.9334 119.046C79.9083 119.099 79.8685 119.143 79.8188 119.174C79.7691 119.205 79.7116 119.221 79.653 119.22V119.227Z" fill="#37474F"/>
<path d="M78.3165 120.618C78.2734 120.619 78.2307 120.609 78.1915 120.591C78.1523 120.573 78.1175 120.547 78.0897 120.514C77.816 120.22 77.4769 119.995 77.0998 119.856C76.7228 119.718 76.3184 119.67 75.9195 119.717C75.8387 119.724 75.7582 119.7 75.6944 119.65C75.6306 119.6 75.5883 119.528 75.5762 119.447C75.5711 119.407 75.574 119.366 75.5848 119.327C75.5956 119.288 75.6141 119.251 75.6392 119.219C75.6643 119.187 75.6955 119.161 75.731 119.141C75.7665 119.121 75.8056 119.109 75.8459 119.104C76.3425 119.045 76.8461 119.105 77.315 119.279C77.784 119.452 78.205 119.735 78.5433 120.103C78.5814 120.148 78.606 120.203 78.6145 120.261C78.623 120.319 78.6149 120.378 78.5913 120.432C78.5676 120.486 78.5293 120.532 78.4807 120.565C78.4321 120.598 78.3752 120.616 78.3165 120.618Z" fill="#37474F"/>
<path d="M102.085 23.5544C98.729 23.2908 95.359 23.2663 91.9999 23.4808C90.4919 23.5032 89.0076 23.8592 87.6534 24.523C86.7907 25.0734 86.0468 25.7908 85.4656 26.6331C84.8845 27.4754 84.4777 28.4255 84.2694 29.4274C83.8698 31.4303 83.742 33.4779 83.8893 35.515C84.0671 42.1727 84.5637 47.8556 85.2809 54.4765C91.8957 58.2958 100.607 60.1043 107.964 58.0077C108.068 49.425 107.645 40.3458 105.916 31.9348C105.303 28.894 104.414 25.6081 102.085 23.5544Z" fill="#455A64"/>
<path opacity="0.3" d="M102.085 23.5544C98.729 23.2908 95.359 23.2663 91.9999 23.4808C90.4919 23.5032 89.0076 23.8592 87.6534 24.523C86.7907 25.0734 86.0468 25.7908 85.4656 26.6331C84.8845 27.4754 84.4777 28.4255 84.2694 29.4274C83.8698 31.4303 83.742 33.4779 83.8893 35.515C84.0671 42.1727 84.5637 47.8556 85.2809 54.4765C91.8957 58.2958 100.607 60.1043 107.964 58.0077C108.068 49.425 107.645 40.3458 105.916 31.9348C105.303 28.894 104.414 25.6081 102.085 23.5544Z" fill="white"/>
<path d="M122.076 40.6399C122.16 39.733 122.018 38.8195 121.663 37.9808C121.308 37.1422 120.75 36.4045 120.041 35.8336L107.841 25.9819C106.189 24.6432 104.195 23.7937 102.085 23.5297L100.889 23.4377C99.798 24.4493 99.3198 31.6526 104.236 34.5768L114.842 40.7686L114.738 54.3967L111.109 58.5409C111.043 58.6129 110.996 58.6996 110.97 58.7936C110.945 58.8877 110.942 58.9865 110.963 59.0818C110.983 59.1771 111.026 59.2661 111.087 59.3416C111.149 59.417 111.228 59.4767 111.317 59.5156C111.526 59.6133 111.758 59.6502 111.987 59.622C112.216 59.5938 112.432 59.5017 112.611 59.3562L113.788 58.3937C113.058 59.7669 112.421 61.3302 111.691 62.6851C111.509 62.9516 111.419 63.27 111.434 63.5924C111.458 63.7285 111.513 63.8574 111.593 63.9698C111.674 64.0822 111.779 64.1752 111.9 64.2422C112.139 64.3785 112.404 64.4621 112.678 64.4874C113.637 64.5999 114.607 64.4272 115.468 63.9908C116.326 63.5555 117.084 62.9458 117.693 62.2008C118.858 60.7977 119.557 59.0662 119.691 57.2473C120.787 51.7589 121.583 46.2149 122.076 40.6399Z" fill="#FFA8A7"/>
<path d="M89.8047 20.949V22.0525C89.7767 22.8609 89.6279 23.6606 89.3633 24.425C89.2526 24.7467 89.2526 25.0963 89.3633 25.4181C89.4768 25.6885 89.6499 25.9298 89.8696 26.1241C90.0893 26.3183 90.35 26.4605 90.6323 26.54C91.1926 26.6902 91.78 26.709 92.3488 26.5951C94.05 26.3051 95.595 25.4262 96.7137 24.1123L96.4624 16.5657L89.8047 20.949Z" fill="#FFA8A7"/>
<path opacity="0.2" d="M95.1261 19.8453C95.666 18.9015 96.012 17.8593 96.1438 16.78L89.8048 20.9426V22.0461C89.7988 22.3688 89.7681 22.6906 89.7129 23.0086C90.6067 22.8536 91.4778 22.5879 92.3061 22.2178C93.4574 21.719 94.4377 20.8943 95.1261 19.8453Z" fill="black"/>
<path d="M82.7734 8.70632C82.0493 8.7298 81.3325 8.55416 80.7013 8.19854C80.07 7.84291 79.5484 7.32091 79.1932 6.68939C79.143 6.59673 79.1209 6.49138 79.1299 6.38634C79.1388 6.28131 79.1783 6.1812 79.2436 6.09838C79.3088 6.01556 79.3968 5.95366 79.4968 5.92033C79.5968 5.88699 79.7044 5.88369 79.8063 5.91082C80.3071 5.99967 80.8197 5.99967 81.3205 5.91082C80.7428 5.15895 80.3206 4.29956 80.0785 3.3828C79.8364 2.46603 79.7793 1.51024 79.9105 0.571173C79.9266 0.466751 79.9671 0.367587 80.0287 0.281683C80.0902 0.195779 80.171 0.125535 80.2647 0.0766166C80.3584 0.0276984 80.4622 0.00147549 80.5679 6.04619e-05C80.6735 -0.00135456 80.778 0.0220859 80.873 0.0684783C82.9514 1.09929 85.2641 1.56647 87.5797 1.42331C88.8058 1.33748 90.0319 1.07387 91.258 0.981914C92.4915 0.828987 93.7432 1.01994 94.875 1.53366C95.4438 1.79492 95.9305 2.20645 96.2827 2.72392C96.6349 3.24139 96.8392 3.84516 96.8735 4.47016C97.0143 4.27001 97.1968 4.10279 97.4085 3.98002C97.6202 3.85724 97.856 3.78184 98.0996 3.75902C98.354 3.72824 98.6119 3.74991 98.8576 3.82266C99.1033 3.89541 99.3314 4.01771 99.528 4.18202L97.4069 5.35907C97.8046 5.27971 98.2175 5.33407 98.5812 5.51369C98.9448 5.69331 99.2389 5.98811 99.4177 6.35222C99.7293 7.06565 99.8639 7.84383 99.81 8.62049C99.85 9.64421 99.8049 10.6695 99.6752 11.6857C99.5361 12.7133 99.1326 13.6871 98.5042 14.5119C97.9518 15.1862 97.2146 15.6847 96.3831 15.9464C95.2504 16.2628 94.0479 16.2243 92.9377 15.8361C91.8357 15.4516 90.7871 14.9284 89.8173 14.2789C87.3035 12.6412 84.9456 10.7758 82.7734 8.70632Z" fill="#263238"/>
<path d="M82.6388 6.65271C81.9284 10.9197 82.399 15.2997 83.9997 19.3183C84.2913 20.2817 84.898 21.1194 85.7224 21.6969C86.6297 22.218 87.7577 22.1077 88.7876 21.9544C90.4675 21.7647 92.1053 21.303 93.6368 20.5873C95.1811 19.8598 96.3846 18.564 96.9963 16.9703C97.5448 17.0821 98.1139 17.0328 98.635 16.8283C99.1561 16.6238 99.6068 16.2728 99.9328 15.8178C100.58 14.8733 100.914 13.7499 100.889 12.6054C100.889 11.882 100.754 11.0237 100.104 10.705C99.7851 10.6074 99.4451 10.5986 99.1211 10.6796C98.7971 10.7606 98.5013 10.9283 98.2653 11.1647C97.3927 11.8666 96.7518 12.8152 96.4262 13.8867C95.948 12.115 95.2001 10.4046 94.7219 8.63899C94.6142 7.92092 94.2479 7.26691 93.692 6.79985C92.9502 6.32167 91.9816 6.59754 91.1233 6.79985C88.3289 7.47503 85.4081 7.42438 82.6388 6.65271Z" fill="#FFA8A7"/>
<path d="M87.7945 12.0229L85.7285 15.5112L88.193 15.971L87.7945 12.0229Z" fill="#F28F8F"/>
<path d="M90.5712 17.1726L88.6953 18.0861C88.856 18.2991 89.0819 18.4539 89.3386 18.5269C89.5953 18.5999 89.8688 18.5872 90.1176 18.4907C90.3342 18.3575 90.4978 18.1533 90.5806 17.9129C90.6633 17.6725 90.66 17.4108 90.5712 17.1726Z" fill="#F28F8F"/>
<path opacity="0.3" d="M90.5712 17.1726L88.6953 18.0861C88.856 18.2991 89.0819 18.4539 89.3386 18.5269C89.5953 18.5999 89.8688 18.5872 90.1176 18.4907C90.3342 18.3575 90.4978 18.1533 90.5806 17.9129C90.6633 17.6725 90.66 17.4108 90.5712 17.1726Z" fill="black"/>
<path d="M89.4678 18.5703C89.6858 18.613 89.9114 18.5917 90.1176 18.509C90.2894 18.4124 90.4288 18.2672 90.5182 18.0916C90.6077 17.9159 90.6432 17.7178 90.6203 17.522C90.3525 17.5193 90.0923 17.6104 89.8846 17.7795C89.7662 17.8772 89.6684 17.9973 89.5969 18.1331C89.5253 18.2689 89.4814 18.4175 89.4678 18.5703Z" fill="#F28F8F"/>
<path d="M91.3563 12.1638C91.3753 12.3044 91.3517 12.4474 91.2887 12.5744C91.2258 12.7015 91.1263 12.8069 91.003 12.8769C90.8797 12.947 90.7383 12.9786 90.5969 12.9677C90.4555 12.9568 90.3206 12.9039 90.2095 12.8157C90.0984 12.7276 90.0162 12.6082 89.9735 12.473C89.9308 12.3378 89.9294 12.1928 89.9697 12.0569C90.0099 11.9209 90.0899 11.8 90.1994 11.7099C90.3088 11.6197 90.4427 11.5643 90.5839 11.5508C90.7675 11.5301 90.9519 11.583 91.0967 11.6978C91.2414 11.8127 91.3348 11.9803 91.3563 12.1638Z" fill="#263238"/>
<path d="M85.4281 12.5317C85.4463 12.6285 85.4442 12.7281 85.4218 12.824C85.3995 12.92 85.3575 13.0102 85.2984 13.0891C85.2393 13.168 85.1645 13.2337 85.0787 13.2821C84.9929 13.3305 84.898 13.3606 84.8 13.3704C84.7019 13.3802 84.6029 13.3695 84.5092 13.3391C84.4155 13.3086 84.3292 13.259 84.2557 13.1934C84.1822 13.1278 84.1231 13.0476 84.0822 12.958C84.0413 12.8683 84.0195 12.7712 84.0181 12.6727C84.0157 12.4946 84.0801 12.3221 84.1986 12.1893C84.3172 12.0564 84.4813 11.9729 84.6584 11.9552C84.8356 11.9375 85.013 11.9869 85.1555 12.0936C85.298 12.2003 85.3953 12.3567 85.4281 12.5317Z" fill="#263238"/>
<path d="M84.4593 9.79755L83.0002 11.0236C82.9133 10.8361 82.8855 10.6266 82.9205 10.4229C82.9555 10.2192 83.0518 10.031 83.1964 9.88338C83.3775 9.75163 83.5921 9.67368 83.8155 9.6585C84.0389 9.64332 84.262 9.69152 84.4593 9.79755Z" fill="#263238"/>
<path d="M90.4858 9.09857L92.1595 10.0243C92.2082 9.82427 92.1943 9.61415 92.1197 9.42229C92.0452 9.23043 91.9135 9.06608 91.7426 8.95143C91.5395 8.85938 91.3152 8.82443 91.0938 8.85036C90.8723 8.87628 90.6621 8.9621 90.4858 9.09857Z" fill="#263238"/>
<path d="M90.9515 50.4978C90.9515 50.3261 90.9515 50.1606 90.9086 49.9951C90.7025 48.5811 90.0925 47.2567 89.1518 46.1811C88.211 45.1055 86.9797 44.3245 85.6057 43.932L76.4836 38.4146L70.3531 35.3494L67.8273 37.3418C67.2588 37.7836 66.8325 38.3826 66.6012 39.0644C66.3042 39.9745 66.3737 40.9646 66.7949 41.8243C67.2162 42.6839 67.956 43.3455 68.8572 43.6684L83.5704 48.8548C84.5325 49.8609 85.1433 51.1512 85.3114 52.5331C85.3503 52.9387 85.4304 53.3392 85.5505 53.7285C85.7566 54.1908 86.107 54.5738 86.549 54.8203C86.9911 55.0667 87.5011 55.1633 88.0027 55.0956C88.4993 55.0198 88.9713 54.829 89.3811 54.5384C89.7909 54.2478 90.1271 53.8656 90.363 53.422C90.8362 52.5241 91.0405 51.5088 90.9515 50.4978Z" fill="#FFA8A7"/>
<path d="M86.0348 43.9319V43.043H85.385V43.3679L83.9995 42.5587C83.8552 42.4747 83.6913 42.4304 83.5244 42.4304C83.3574 42.4304 83.1935 42.4747 83.0492 42.5587L80.738 43.8951V43.5089L80.125 43.5641V44.4407C80.1255 44.4957 80.1405 44.5497 80.1685 44.597C80.1965 44.6444 80.2364 44.6835 80.2844 44.7105L82.1849 45.814C82.3299 45.8956 82.4935 45.9385 82.66 45.9385C82.8264 45.9385 82.99 45.8956 83.1351 45.814L85.9244 44.2017C85.9703 44.1759 86.0086 44.1386 86.0355 44.0934C86.0624 44.0482 86.0769 43.9967 86.0777 43.9442L86.0348 43.9319Z" fill="#FAE653"/>
<path d="M83.0249 41.8293L80.6647 43.1964C80.6223 43.2189 80.5869 43.2524 80.5622 43.2934C80.5375 43.3345 80.5244 43.3815 80.5244 43.4294C80.5244 43.4773 80.5375 43.5243 80.5622 43.5654C80.5869 43.6064 80.6223 43.6399 80.6647 43.6624L82.2831 44.5942C82.4057 44.6664 82.5454 44.7045 82.6877 44.7045C82.83 44.7045 82.9697 44.6664 83.0923 44.5942L85.4587 43.2271C85.4994 43.2033 85.5332 43.1693 85.5566 43.1285C85.5801 43.0876 85.5924 43.0413 85.5924 42.9941C85.5924 42.947 85.5801 42.9007 85.5566 42.8598C85.5332 42.819 85.4994 42.7849 85.4587 42.7612L83.8341 41.8293C83.7115 41.7571 83.5718 41.719 83.4295 41.719C83.2872 41.719 83.1475 41.7571 83.0249 41.8293Z" fill="#FAE653"/>
<path opacity="0.3" d="M86.0348 43.9319V43.043H85.385V43.3679L83.9995 42.5587C83.8552 42.4747 83.6913 42.4304 83.5244 42.4304C83.3574 42.4304 83.1935 42.4747 83.0492 42.5587L80.738 43.8951V43.5089L80.125 43.5641V44.4407C80.1255 44.4957 80.1405 44.5497 80.1685 44.597C80.1965 44.6444 80.2364 44.6835 80.2844 44.7105L82.1849 45.814C82.3299 45.8956 82.4935 45.9385 82.66 45.9385C82.8264 45.9385 82.99 45.8956 83.1351 45.814L85.9244 44.2017C85.9703 44.1759 86.0086 44.1386 86.0355 44.0934C86.0624 44.0482 86.0769 43.9967 86.0777 43.9442L86.0348 43.9319Z" fill="black"/>
<path d="M83.0186 41.6821L80.2414 43.2882C80.1929 43.3154 80.1526 43.355 80.1245 43.4029C80.0964 43.4509 80.0815 43.5055 80.0815 43.561C80.0815 43.6166 80.0964 43.6712 80.1245 43.7192C80.1526 43.7671 80.1929 43.8067 80.2414 43.8339L82.1603 44.9312C82.3053 45.0129 82.469 45.0557 82.6354 45.0557C82.8018 45.0557 82.9655 45.0129 83.1105 44.9312L85.8999 43.3189C85.9468 43.2905 85.9857 43.2505 86.0126 43.2027C86.0396 43.1549 86.0537 43.101 86.0537 43.0461C86.0537 42.9912 86.0396 42.9373 86.0126 42.8895C85.9857 42.8417 85.9468 42.8017 85.8999 42.7733L83.9994 41.6821C83.8516 41.5922 83.682 41.5447 83.509 41.5447C83.336 41.5447 83.1664 41.5922 83.0186 41.6821Z" fill="#FAE653"/>
<path opacity="0.5" d="M83.0249 41.8293L80.6647 43.1964C80.6223 43.2189 80.5869 43.2524 80.5622 43.2934C80.5375 43.3345 80.5244 43.3815 80.5244 43.4294C80.5244 43.4773 80.5375 43.5243 80.5622 43.5654C80.5869 43.6064 80.6223 43.6399 80.6647 43.6624L82.2831 44.5942C82.4057 44.6664 82.5454 44.7045 82.6877 44.7045C82.83 44.7045 82.9697 44.6664 83.0923 44.5942L85.4587 43.2271C85.4994 43.2033 85.5332 43.1693 85.5566 43.1285C85.5801 43.0876 85.5924 43.0413 85.5924 42.9941C85.5924 42.947 85.5801 42.9007 85.5566 42.8598C85.5332 42.819 85.4994 42.7849 85.4587 42.7612L83.8341 41.8293C83.7115 41.7571 83.5718 41.719 83.4295 41.719C83.2872 41.719 83.1475 41.7571 83.0249 41.8293Z" fill="white"/>
<path d="M81.9764 48.2787C81.6024 47.9293 81.4001 46.0227 82.1419 45.4035L80.2415 44.3062C79.6284 45.0847 79.7817 46.7583 80.125 47.6044C80.1653 47.7012 80.2263 47.788 80.3035 47.859C80.3808 47.9299 80.4726 47.9832 80.5725 48.0151C80.9403 48.1377 81.5595 48.3523 81.7986 48.432C81.8718 48.4582 81.9498 48.468 82.0272 48.4606C82.1045 48.4532 82.1793 48.4288 82.2461 48.3891L81.9764 48.2787Z" fill="#455A64"/>
</svg>
